<?xml version="1.0" encoding="UTF-8"?><svg id="Layer_1" xmlns="http://www.w3.org/2000/svg" xmlns:xlink="http://www.w3.org/1999/xlink" viewBox="0 0 56.69 56.69"><defs><style>.cls-1{clip-path:url(#clippath-2);}.cls-2{clip-path:url(#clippath-1);}.cls-3{fill:#3db54a;}.cls-4{clip-path:url(#clippath);}.cls-5{fill:#964e22;}.cls-6{fill:none;}.cls-7{fill:#ba8a4a;}.cls-8{fill:#010101;}</style><clipPath id="clippath"><rect class="cls-6" x="4.29" y="1.42" width="48.12" height="53.86"/></clipPath><clipPath id="clippath-1"><rect class="cls-6" x="8.17" y="4.98" width="38.21" height="49.92"/></clipPath><clipPath id="clippath-2"><rect class="cls-6" x="4.29" y="1.42" width="48.12" height="53.86"/></clipPath></defs><g id="Sådybde"><g class="cls-4"><g class="cls-2"><path class="cls-7" d="M16.5,47.05s-.02-.01,0-.02c0,0,0,0,0,0,.28-.72,1.21-1.03,1.72-1.61,.43-.25,2.13-2.13,2.3-1.15,.29-.14,.84-.69,1.07-.23,0,0,.01,0,.02,0,.05,0,.09,0,.13,.02,.39-.21,.77-.49,1.21-.59,.56,.13,.1,.66-.29,.85-.89,.91-2.13,1.57-3.1,2.43-.44,.18-.4-.46-.07-.59-.41,.16-1.24,1.25-1.53,.56-.28,.12-.82,.67-1.17,.67-.14,0-.25-.09-.3-.33Z"/><path class="cls-5" d="M15.95,51.44s.08-.05,.11-.06c.05-.13,.08-.26,.1-.4-.07,.15-.14,.31-.2,.46Zm.7,3.17c-.28-.04-.6-.14-.8-.35-.09-.09-.16-.19-.2-.3-.39,.17-.82-.11-.9-.51h0c-.64,.2-1.16-.45-1.13-1.05-.06-.06-.11-.13-.14-.2-.67-.38-.43-1.42-.5-2.07-.22-.26-.17-.63-.1-.94-.13-.99,.75-1.93,1.15-2.81,.26-.49,.71-.84,1.04-1.27,.16-.2,.33-.5,.61-.51,.21-.2,.5-.61,.82-.4,.2-.18,.37-.42,.63-.51,1.44-1.43,3.58-1.79,5.52-2.02,.16-.03,.37-.06,.49,.1,.41-.07,.83-.18,1.25-.14,.46-.14,1-.07,1.41,.16,.08-.03,.15-.03,.24,0,.04,.02,.08,.04,.11,.06,.66,.04,.27,.8-.05,1.05-.38,.36-.64,.94-1.1,1.18-.59,.71-1.18,1.46-1.92,2-.08,.03-.17,.02-.24-.03-.78,.74-1.56,1.47-2.26,2.28-.1,.07-.21,.08-.31,.03-.1,.11-.2,.23-.32,.31-.02,.01-.04,.02-.06,.03,0,0-.02,.01-.02,.02-.01,.08-.02,.16-.03,.23l-.03,.21s.04,.1,.06,.14c0,.02,.01,.05,.02,.07,2.2-1.35,4.69-2.21,6.58-4.04,.21-.15,.43-.36,.7-.34,.4-.7,1.03-.37,.77,.34,.32,.78-.39,1.69-.67,2.42,.18,.43-.2,.79-.38,1.16,.08,.43-.36,.7-.56,1.03-.33,.36-.6,.91-1.08,1.06-.54,.74-1.24,1.3-1.96,1.86-.24,.22-.69,.55-.88,.11-1.25,.82-2.84,1.2-4.34,1.28-.29,.28-.72,.37-1.12,.37-.1,0-.19,0-.29-.02Z"/><path class="cls-3" d="M27.65,12.48c.55,.41,1.68,1.2,.91,1.89,.23,.5-.26,.78-.7,.73-.06,.07-.13,.12-.23,.13-.06,0-.12,0-.18,0-.03,.23-.22,.41-.45,.42-.53,.07-1.07,.07-1.6,.07-.26,0-.52,0-.78,0-.05,.26-.25,.34-.46,.34-.07,0-.13,0-.2-.02-1.05-.04-2.1-.22-3.12-.46h0c-.08,.06-.19,.1-.29,.05-.8-.4-1.57-.86-2.34-1.32-1.06-.49-2.4-.96-3.03-1.98-1.35-.96-2.58-2.05-3.68-3.28-.76-.52-1.58-1-2.24-1.63-.05-.02-.1-.05-.15-.08-.03-.03-.06-.06-.08-.1-.45-.04-.59-.73-.15-.92,.15-.21,.43-.22,.67-.23,.18-.14,.44-.13,.65-.15,1.16-.38,2.45-.19,3.64-.52,.24-.23,.61-.16,.97-.08,.21,.04,.42,.08,.61,.07,.95,.14,2.07,.03,2.92,.51,.08,.09,.12,.22,.13,.35,.52,.18,1.24,.06,1.64,.45,2.67,1.23,5.08,2.98,7.2,5.03,.23,.15,.43,.4,.36,.69Z"/><path class="cls-3" d="M44.3,7.08c.91-.41,1.82-.72,1.7,0-.01,.24-.23,.34-.43,.42-.51,.67-1.27,1.18-1.83,1.84,.07,.18,0,.35-.07,.51-.67,1.01-1.49,1.94-2.41,2.72-.23,.2-.59,.8-.92,.86-.49,.46-1.09,.85-1.59,1.26-.62,.46-1.25,.91-1.9,1.33-.1,.06-.23,.08-.32,.01-.65,.41-1.31,.75-1.8,.9h0c-.37,.15-.76,.25-1.16,.26-.08-.02-.15-.07-.2-.13-.31-.02-.72,0-.96-.21-.16,.04-.33,.08-.5,.1-.33-.04-.47-.28-.48-.56-.42-.14-.81-.36-.91-.74-.49-.16-.31-1.03,.23-.79,.05-.13,.16-.22,.31-.2,.26,.03,.51,.05,.76,.08,0-.04,.02-.08,.04-.12-.22,.07-.41,.05-.51-.23-.24,.17-.7,.26-.75-.15,0-.05,.01-.1,.03-.15-.08-.48,.51-1.09,.82-1.4,.19-.15,.38-.31,.58-.47,.39-.85,2.41-2.34,3.74-3.09,.02-.01,.03-.02,.04-.03,.56-.33,1.18-.65,1.76-.9,1.3-.77,4.99-1.84,5.39-1.08,.4-.02,.92-.34,1.27-.08,.02,0,.05,0,.07,0Zm-9.14,6.15c-.04-.09-.05-.19-.04-.28-.67,.36-1.33,.75-2.01,1.08,.68-.27,1.36-.54,2.05-.8Z"/><path class="cls-3" d="M28.91,19.24c.29,6.16,1.85,12.72,.78,18.85,.08,.46-.08,1.05-.11,1.49-.19,1.23-.69,2.35-1.33,3.39,0,.22-.1,.49-.24,.63-.01,.06-.04,.12-.09,.16-.17,.18-.26,.48-.56,.5,0,0-.01,.01-.02,.02-.05,.06-.09,.12-.14,.18-.05,.08-.12,.12-.2,.13-.1,.09-.2,.17-.32,.21-.26,.18-.55,.7-.89,.46-.47,.28-1.05,1.31-1.56,1.15-.35,.24-.64,.89-1.1,.77-.57,.38-1.14,.9-1.77,1.11-1.01-.53,2.72-2.64,3.16-3.2,.75-.69,1.23-1.69,1.89-2.46,.02-.03,.04-.05,.07-.07,.06-.23,.17-.46,.28-.62-.48-.06-.22-.67-.04-.91,1.74-2.91,1.98-6.35,1.89-9.67,.2-4.07-.3-8.09-.27-12.15,0-.55,.59-.55,.57,.03Zm-1.8,24.15s-.01-.04-.01-.06c-.02,0-.03,.01-.05,.01,.02,.01,.03,.03,.04,.05h0s0,0,.01,0Z"/></g><g class="cls-1"><path class="cls-8" d="M4.8,37.17c1.73-.85,3.53-1.73,5.45-2.03,.6-.04,1.23,.2,1.8,.24,.38,.03,.76,0,1.14-.05,.41-.05,.82-.09,1.23-.04,.77,.17,1.44,.62,2.23,.66,.7,.04,1.41-.08,2.11-.19,.85-.14,1.71-.28,2.59-.14,2.36,.76,4.42-.68,6.7-.94,3.07,.85,5.88-.46,8.83-1.09,1.2-.21,2.33,.39,3.5,.51,1.24,.13,2.43-.23,3.66-.35,.86-.14,1.75,.27,2.57,.35,1.08,.09,2.13-.24,3.18-.43,.79-.13,1.62-.03,2.36,.2-.54,.3-1.22,.55-1.83,.78-1.82,.63-3.74,.77-5.6,.23-.63-.01-1.25,.09-1.86,.2-.62,.1-1.24,.21-1.87,.2-1.75-.05-3.53-1.01-5.26-.26-1.85,.49-3.71,1.27-5.66,1.09-1.07-.14-2.2-.47-3.24-.03-1.87,.68-3.87,1.14-5.82,.59-.72-.06-1.41,.04-2.11,.14-.56,.08-1.13,.16-1.71,.16-1.07,.09-2.04-.54-3.02-.75-1.36,.18-2.69-.14-4-.3-1.81,.32-3.52,.97-5.15,1.79-.04,.02-.08,.03-.11,.03-.23,0-.34-.45-.1-.58Z"/><path class="cls-8" d="M13,49.97c-.14,3.33,2.74,4.54,5.66,4.15,4.73-.51,9.04-4.42,9.17-9.29-.52,.43-10.18,7.07-8.36,3.83,2.38-1.97,5.27-3.74,6.71-6.56-.77-.19-1.58-.28-2.41-.28-4.87,0-10.3,3.14-10.78,8.15Zm3.8,5c-4.32-.03-5.55-5.29-3.51-8.44,2.39-3.61,6.96-5.95,11.31-5.36,.5,.14,1.71,.05,1.87,.57,1.92,.6-4.05,5.54-4.86,6.13,2.01-1.25,4.1-2.45,6-3.83,.26-.2,.72-.36,.87,.06,.54,5.93-5.08,10.91-10.78,10.91-.3,0-.6-.01-.9-.04Z"/><path class="cls-8" d="M27.94,43.86c-.13-.11-.17-.33-.08-.48,.73-1.17,1.36-2.49,1.56-3.84,.44-3.16,.41-6.38,.33-9.56-.39-4.22-1.31-8.47-.74-12.71,.12-.7,.35-1.37,.65-2.02,.05,.46,0,1.02,.03,1.52-.5,6.5,1.37,12.92,.74,19.44-.05,2.66-.5,5.36-2.1,7.55-.06,.1-.15,.16-.24,.16-.05,0-.1-.02-.14-.06Z"/><path class="cls-8" d="M25.9,41.89c-.1-.19,0-.42,.15-.53,.32-.26,.54-.61,.68-.95,1.09-2.61,1.32-5.38,1.54-8.15,0-5.24-1.64-10.83,.61-15.83,.29-.85,1.18-1.78,.87-.14-1.9,4.04-1.24,8.61-.87,12.92,.28,3.02-.11,6.09-.79,9.04-.42,1.32-.71,3-1.96,3.79-.09,0-.18-.07-.23-.15Z"/><path class="cls-8" d="M29.74,15.13c-.16-.13-.18-.37-.09-.55,.39-.88,.9-1.71,1.5-2.46,3.56-4.62,9.73-6.5,15.37-5.38-1.25,.22-2.7,.37-4.02,.55-5.09,.2-10.09,3.1-12.31,7.72-.05,.11-.16,.18-.27,.18-.06,0-.12-.02-.17-.06Z"/><path class="cls-8" d="M32.72,17.61c-1.24-.24-2.46-.9-3-2.08-.09-.16-.05-.4,.09-.51,.15-.12,.33-.04,.41,.11,.69,1.44,2.51,1.87,3.98,1.79,2.9-.64,5.44-2.79,7.46-4.88,1.8-2.22,3.25-5.29,6.18-6.17-3.36,3.16-5.46,7.63-9.53,10.02-1.32,.97-2.89,1.84-4.54,1.84-.35,0-.7-.04-1.06-.13Z"/><path class="cls-8" d="M29.06,14.88c-3.23-6.43-10.96-10.21-17.98-8.43-1.31,.23-2.73,.54-3.87,1.01,7.3-5.77,18.95-.93,22.46,7.07,.13,.28-.1,.59-.33,.59-.11,0-.21-.07-.28-.23Z"/><path class="cls-8" d="M21.13,16.46c-2.95-.42-5.21-2.54-7.48-4.28-2.15-1.85-4.74-3.35-6.59-5.45,.95-.2,1.8,.4,2.53,.94,3.18,2.33,6.07,5.21,9.55,7.08,3.17,1.17,7.45,1.59,10.28-.5,.17-.15,.39-.05,.49,.13,.1,.19,.07,.46-.1,.61-1.53,1.33-3.53,1.72-5.55,1.72-1.06,0-2.13-.11-3.12-.24Z"/><path class="cls-8" d="M30.4,15.11c-.17,0-.27-.22-.27-.37,.01-.54,.67-.33,1.02-.46,3.52-.67,6.38-2.96,9.16-4.91-2.51,3-5.91,5.32-9.88,5.74h-.03Z"/><path class="cls-8" d="M28.76,15.11c-4.81-1.92-10.28-3.34-13.53-7.64,2.84,1.64,5.57,3.61,8.65,4.76,1.72,.61,3.45,1.19,5.1,1.97,.22,.1,.31,.37,.26,.59-.04,.17-.19,.35-.37,.35-.03,0-.07,0-.11-.03Z"/><path class="cls-8" d="M14.6,47.63c.03-.12,.14-.23,.26-.18,.13,.05,.18,.21,.14,.33-.21,.8-.48,1.75-.85,2.43,.13-.87,.24-1.73,.44-2.58Z"/><path class="cls-8" d="M16.22,47.29c.08,1.66-.59,3.53-1.11,5.06,.25-1.7,.37-3.49,1.11-5.06Z"/><path class="cls-8" d="M17.32,48.35c.21,1.42-.2,2.96-.6,4.25,.11-1.4,.18-2.95,.6-4.25Z"/><path class="cls-8" d="M18.53,53.15c-.09-1.12-.13-2.27-.07-3.38,.03-.09,.07-.16,.15-.22,.18,.07,.25,.31,.26,.48,.08,1.05-.13,2.12-.32,3.14,0,0-.01,0-.01-.01Z"/><path class="cls-8" d="M14.59,49.03c1.82,.62,3.46,1.95,4.94,3.06-1.68-.89-3.72-1.58-4.94-3.06Z"/><path class="cls-8" d="M14.65,50.58c1.79,.54,3.5,1.62,5.15,2.33-1.83-.34-3.91-.93-5.15-2.33Z"/><path class="cls-8" d="M18.52,53.86c-.36,0-.84-.14-1.22-.2-.97-.27-2.18-.5-2.72-1.42,.08-.06,.26,0,.37,.02,1.17,.64,2.37,1.18,3.64,1.6h-.08Z"/><path class="cls-8" d="M37.57,53.82c-.89-1.24-1.44-2.76-2.46-3.93-.56-.95-3.34-2.81-2.47-3.89,.22-.18,.52-.08,.64,.17,1.48,1.92,3.33,3.48,4.44,5.69,1.16-2.72,3.38-4.79,5.62-6.65,.76-.57,1.67-1.57,2.69-1.1-.2,.82-.86,1.38-1.54,1.84-1.91,1.51-3.83,3.2-5.11,5.28-.36,.64-.61,1.15-.86,1.79-.1,.34-.32,.86-.7,.86-.08,0-.16-.02-.25-.07Z"/><path class="cls-8" d="M37.52,53.4c-.32-.06-.46-.43-.43-.73,.17-3.7-.67-7.4-.35-11.12,.02-1.4-.03-2.97,.82-4.13,.87,1.82,.21,3.88,.32,5.8-.39,1.68,1.2,10.18-.33,10.18,0,0-.01,0-.02,0Z"/></g></g></g></svg>