<?xml version="1.0" encoding="UTF-8"?><svg id="Layer_1" xmlns="http://www.w3.org/2000/svg" xmlns:xlink="http://www.w3.org/1999/xlink" viewBox="0 0 56.69 56.69"><defs><style>.cls-1{fill:#51b848;}.cls-2{clip-path:url(#clippath-2);}.cls-3{fill:#f5f6f6;}.cls-4{clip-path:url(#clippath-1);}.cls-5{fill:#3db54a;}.cls-6{clip-path:url(#clippath);}.cls-7{fill:none;}.cls-8{fill:#010101;}</style><clipPath id="clippath"><rect class="cls-7" x="1.42" y="1.58" width="53.86" height="53.52"/></clipPath><clipPath id="clippath-1"><rect class="cls-7" x="2.24" y="2.55" width="52.81" height="44.47"/></clipPath><clipPath id="clippath-2"><rect class="cls-7" x="1.42" y="1.58" width="53.86" height="53.52"/></clipPath></defs><g id="Spiretid"><g class="cls-6"><g class="cls-4"><path class="cls-3" d="M41.88,8.08c-.39,.35-.78,.7-1.16,1.06,0,0,0,.02,0,.03,.41-.31,.83-.62,1.26-.93,0-.02,0-.03,0-.04,0-.06-.01-.12,0-.18l-.08,.07Zm7.05,4.97s-.07,.09-.1,.14c.07-.04,.13-.07,.2-.11,.04-.06,.09-.13,.13-.19-.08,.05-.18,.07-.22,.16Zm-18.3,6.85c.34-.25,.5-.62,.67-.98-.19,.28-.47,.52-.62,.83v-.05c0,.07-.02,.14-.04,.21Zm7.87,.25s.08,.03,.12,.05c.34-.35,.68-.7,1.03-1.05,.17-.17,.35-.35,.52-.53-.5,.43-.98,.87-1.46,1.33h0c-.07,.06-.14,.13-.21,.2Zm-7.18,.83c.09-.1,.18-.2,.26-.3-.04-.02-.08-.04-.11-.07-.05,.12-.1,.25-.15,.37Zm7.66,3.31c.09-.04,.17-.07,.26-.11,0,0,0,0-.02,.01,.02,0,.03-.01,.04-.02,.04-.02,.09-.05,.14-.07,.02-.04,.05-.09,.07-.13-.17,.11-.33,.22-.5,.33Zm-1.27,1.38c-.2-.13-.33-.32-.38-.55-.32,.13-.74,.03-.88-.31-.58,.37-1.42,.55-1.61-.33-.63,.35-1.18-.31-1.09-.92-.26,.04-.52-.12-.65-.35-.31,.13-.66-.01-.81-.3-.53,.67-1.41,.52-1.23-.43-.81,.31-1.02-.75-.74-1.31-.39,.01-.63-.4-.65-.74-.76,.11-.83-.84-.63-1.37-.3-.55,0-1.2,.1-1.77-.36-.18-.41-.62-.37-.98-.64-.15-.57-.99-.41-1.48-.86-.72,.09-1.96,.35-2.8-.04-.76,.31-1.52,.55-2.23-.08-.17-.07-.38,.02-.55,.65-.77,1.3-1.56,1.97-2.32,.68-.57,1.21-1.31,1.92-1.84,.15-.09,.33-.11,.48,0,0,0,.02,0,.02,0,.01,0,.03,0,.04,0,1.42-1.05,3.17-1.92,4.95-2.05,.73-.08,1.7-.24,2.29,.3,.59-.11,1.37-.15,1.74,.41,.44,.02,.91,.21,1.14,.61,.62-.09,1.31,.29,1.47,.92,.19,.07,.39,.17,.5,.35,.81-.15,1.81,.31,1.77,1.24,.34,.21,.55,.6,.55,1,.55,.32,.74,1.11,.51,1.68,1.25-.59,1.86,.66,.96,1.56,.02,.03,.03,.07,.04,.1,.04,.1,.05,.2,.05,.3,.84-.01,.89,1.05,.49,1.58,.07,.08,.14,.15,.18,.26,.08,.21,.07,.42,0,.63,.67,.27,.44,1.12,.13,1.59,.7,.45,.15,1.31-.16,1.83,.67,.58-.13,1.35-.43,1.91-.72,.93-1.18,2.39-2.3,2.86-.44,.46-1.44,2.44-1.94,1.09-.35,.4-.95,1.57-1.48,.79-.8,.48-1.59,.98-2.42,1.36-.26,.17-.66,.19-.82-.13-.5,.19-1.22,.63-1.61,.05h.01c-.39,.14-.84,.42-1.27,.42-.13,0-.25-.02-.37-.08Z"/><path class="cls-3" d="M36.66,5.56c-.15,.18-.31,.35-.48,.52,.78-.46,1.65-.89,2.25-1.57-.02,0-.05,.01-.04,0-.68,.23-1.32,.46-1.72,1.05Zm-4.4,3.99c0,.07-.01,.13-.02,.19,0,.02,0,.03,0,.05,.37-.37,.71-.76,1.02-1.19-.39,.27-.84,.46-.99,.95Zm-2.27,3.25c.5-.56,.89-1.21,1.16-1.89-.13-.21-.14-.49-.08-.72-.51,.8-.83,1.7-1.09,2.62Zm.8,1.66c-.04,.17-.08,.33-.12,.5,.4-.71,.62-1.5,.7-2.31-.24,.59-.42,1.2-.58,1.81Zm-.86-.45c-.06,.04-.13,.09-.2,.13-.04,.48-.04,.86,.02,1.31,.09-.53,.22-1.06,.36-1.58-.06,.05-.13,.1-.19,.14Zm7.96,2.65s-.01,.07-.02,.11c.36-.45,.76-.86,1.13-1.3-.37,.39-.73,.79-1.11,1.19Zm-4.05-3.14c.38,.33,.09,.83-.07,1.2-.73,1.69-1.58,3.45-1.45,5.33,.92-.35,.85-1.44,1.2-2.23,.3-.81,.67-1.6,1.14-2.33,.36-.47,.71-1.26,1.39-1.27,.43,.12,.45,.67,.27,1.01,1.39-2.06,3.11-3.89,4.33-6.07-2.18,.84-3.81,2.71-5.5,4.25-.44,.32-.79-.4-.52-.74,1.64-2.03,3.46-3.94,5.01-6.04-1.74,.79-2.71,2.71-4.43,3.49-2.04-.61,3.41-3.73,3.86-4.5-.39,0-1.07,.46-1.75,.93-1.03,.7-2.06,1.41-2.17,.52-1.05,1.31-1.65,3.22-3.27,4.06,0,0,0,.02,0,.02,.35,.28,.24,.8,.24,1.19-.11,1.51-.5,3.23-1.72,4.22-.02,.15-.04,.28-.04,.39,.04,.38-.24,1.6,.45,1.17l.04-.02c1.39-1.03,1.5-2.9,2.33-4.3,.09-.17,.27-.34,.46-.34,.07,0,.14,.02,.2,.07Zm.32,5.89c-.35,.41-.79,1.39-.26,1.75,.15,0,.29-.06,.42-.13,.58-1.74,1.27-3.56,2.55-4.91,.16-.14,.38-.29,.61-.24,.65-.67,1.27-1.36,1.86-2.07-.89,.44-3.21,3.68-3.18,1.74-.58,1.33-1.22,2.64-2.01,3.86Zm.8,2.31c-.02,.28-.37,1.22,0,1.25,.71-.13,1.18-.76,1.64-1.26,1.1-1.56,1.79-3.4,3.1-4.84,.15-.69,.79-1.16,1.2-1.7-.99,.7-1.81,1.52-2.66,2.32-.22,.18-.5-.04-.52-.29-.59,1.67-1.4,3.34-2.76,4.51Zm3.62,2.74c-.27-.24-.34-.61-.24-.95-.62,.64-1.89,.86-1.9-.35-1.22,1.32-2.83,.98-2.37-1.02-.75,.15-1.2-.61-1.18-1.28-1.51,.94-1.55-1.26-1.31-2.2-1.79,1.59-2.26-.48-2-2-.82-.5-.66-1.68-.64-2.52-1.57-1.38,3.72-8.65,5.49-8.58,.66-.55,1.41-1.46,2.35-1.32,.73-.52,2.96-1.37,2.53,.33,.61-.2,1.18,.42,.83,.99,1.65,.53-1.07,2.85-1.5,3.64,.72-.51,2.52-1.81,2.86-.34-.33,1.53-1.6,2.75-2.43,4.04,1.24-1.11,2.5-.57,1.27,.93,.28,.15,.3,.53,.17,.8,.37-.31,1.33-.78,1.33,.04-.11,.54-.62,.92-.94,1.35,.06,.03,.11,.08,.15,.13,.03,.04,.05,.09,.06,.13,.31-.07,.62,.07,.81,.31-.26,.13-.63,.2-.92,.31-1.18,2.05-3.09,3.82-3.73,6.11,1.96-1.04,2.92-3.27,4.34-4.9,.21-.22,.48-.67,.83-.48,.31,.19,.29,.7,.06,.92-1.19,1.55-2.54,3.07-3.25,4.91,2.34-1.4,3.7-4.05,5.94-5.48,1.38,.44-1.49,3.21-1.81,3.99,.67-.57,1.41-1.26,2.11-1.69-.82,1.24-1.59,2.57-2.76,3.5-.51,.47-1.24,.11-1.09-.59,.12-.46,.46-.84,.7-1.24-.87,.89-1.71,1.85-2.8,2.48-.17,.09-.38,.16-.58,.16-.15,0-.28-.04-.4-.13Z"/><path class="cls-1" d="M12.16,23.11c.42,.15,.89,.27,.8,.66-.03,.13-.13,.24-.26,.24-.02,0-.05,0-.07-.01-.32-.09-.63-.23-.92-.39,0,.13-.09,.26-.21,.26-.03,0-.06,0-.09-.02-.13-.1-.26-.2-.39-.3-.03,.02-.07,.02-.1,.02-.05,0-.1-.02-.14-.05-.44-.34-3.19-2.79-2.83-3.52-.2-.36-.36-.73-.45-1.13-.28-.47-.53-.96-.76-1.46-.09-.2-.21-.47-.01-.64,.08-.06,.18-.06,.26,0,.35,.44,.7,.85,1.07,1.26,.33-.79,2.17,1.97,2.59,2.3,.24,.44,2.57,2.35,1.43,2.45,.07,.08,.1,.22,.07,.34Zm-2.52-2.43s.06-.02,.09,0c-.16-.22-.42-.39-.48-.66-.32-.31-.64-.61-.94-.94,.05,.08,.11,.16,.16,.24,.44,.4,.81,.88,1.17,1.36Z"/><path class="cls-1" d="M19.12,13.02c.81,.18-.13,1.2-.35,1.57-.45,1.06-.99,2.11-1.53,3.16-.21,.75-.53,1.46-.91,2.15-.02,.04-.03,.08-.05,.13-.09,.14-.17,.28-.26,.41-.02,.04-.05,.08-.07,.12-.1,.16-.2,.33-.29,.48-.46,.78-.91,1.57-1.39,2.34-.11,.13-.24,.34-.42,.34-.01,0-.02,0-.03,0-.06-.02-.11-.06-.13-.1-.08,.06-.16,.09-.24,.09-.11,0-.22-.07-.31-.22-.05-.21,.09-.42,.18-.59,.12-.13,.23-.27,.34-.41,.2-1.67,.89-3.34,1.9-4.72,.16-.45,.63-.96,.74-1.32,.24-.26,.36-1.12,.81-.92,.21-.2,.66-1.31,.99-1.37,.32-.44,.66-.83,1.02-1.15Zm-2.96,5.34c.02-.08,.04-.15,.07-.23-.05,.07-.1,.14-.16,.21-.2,.44-.41,.87-.62,1.31,.04,0,.07,0,.09,.03,.02-.04,.05-.09,.08-.13,.2-.39,.41-.79,.55-1.18Z"/><path class="cls-1" d="M19.53,36.57c.42,.22,.68,.7,.18,.7-.06,0-.13,0-.22-.02-.27-.11-.52-.29-.73-.5-.07-.07-.13-.13-.2-.21-.28,.09-.5-.21-.62-.42-.96-1.18-.96-2.84-1.48-4.23-.07-.23,.03-.55,.29-.56,.51,.2,.54,1.05,.79,1.51,.46-.35,.7,.55,.94,.83,.09-.01,.19,.03,.24,.11,.34,.7,.73,1.41,.98,2.14-.29,1.32-1.11-1.1-1.4-1.43,.17,.79,.55,1.6,1.22,2.08Z"/><path class="cls-1" d="M24,30.04c.24,.12,.16,.42,.09,.62-.37,.88-.62,1.88-.95,2.81-.05,.18-.11,.36-.16,.55-.12,.38-.26,.76-.4,1.11,0,.02,0,.03-.02,.04-.38,1.09-1.01,2.58-1.46,2.58-.09,0-.17-.06-.24-.19-.04-.13-.04-.27,0-.4-.35-.37,.23-2.33,.89-3.69,.45-1.24,1.06-2.44,1.42-2.31,.35-.68,.71-1.22,.83-1.12Zm-1.56,3.69c-.06,.02-.1,0-.12-.03-.05,.14-.11,.28-.17,.41,0,0,0,.02,0,.02-.18,.57-.35,1.14-.66,1.63-.02,.04-.03,.09-.04,.13,.07-.13,.14-.26,.22-.37h0c.26-.6,.54-1.2,.78-1.8Z"/><path class="cls-1" d="M29.75,37.06c.02,.29,.13,.83-.07,1.03,.08,.22,.09,.42-.08,.62-.05,.04-.11,.07-.17,.07-.11,0-.22-.07-.28-.18-.12-.18-.22-.37-.3-.57-.06-.05-.11-.13-.13-.22-.03-.15-.07-.31-.09-.47-.01-.05-.02-.11-.03-.16-.03-.18-.06-.36-.07-.55-.03-.23-.05-.46-.06-.69h0c-.04-.21-.04-.51-.02-.85v-.02c.02-.76,.11-1.51,.31-2.23,.04-.09,.09-.17,.16-.24,0-.07,0-.14-.02-.21-.02-.2,.07-.46,.3-.5,.22-.04,.39,.17,.4,.37,0,1.28,.33,2.66,.11,3.93h0c0,.42,0,.75,.04,.86Z"/><path class="cls-1" d="M34.95,41.12c.21,.08,.28,.34,.23,.54-.04,.16-.18,.31-.34,.31-.03,0-.07,0-.1-.02-.73-.32-4.77-1.61-3.85-2.64,.56-.26,1.16,.65,1.66,.79,.79,.37,1.59,.7,2.4,1.01Z"/><path class="cls-1" d="M45.33,30.42c.34,.33,.02,.75-.37,.8-.13,.32-.5,.4-.79,.56-.21,.09-.44,.33-.68,.2-.3,.07-.64,.47-.94,.26-.42,.09-1.06,.67-1.39,.2-.49,.1-1,.32-1.51,.32-.08,0-.16,0-.24-.02-.11-.03-.17-.12-.2-.22-.16,0-.37,.03-.59,.08-.49,.09-1.04,.18-1.2-.25-.15-.01-.33,.01-.5,.04-.34,.05-.69,.11-.92-.12-.15-.29,.19-.48,.47-.5,.02-.06,.06-.11,.11-.15,.42-.32,1.03-.28,1.49-.53,.91-.33,7.15-2.47,7-.86,0,.07-.02,.13-.05,.18,.1,0,.2,.01,.3,.04Z"/><path class="cls-1" d="M53.29,23.69c.2,.04,.25,.3,.17,.46-.27,.24-.53,.51-.79,.79-.16,.33-.48,.61-.65,.92-.07,.09-.15,.18-.22,.27-.15,.47-.53,.89-.77,1.31-.21,.25-.43,.53-.66,.81,.01,.49-.41,.74-.83,.98-.27,.32-.59,.59-.97,.61-.41,.22-.86,.35-1.23,.62-.11,.08-.23,.17-.36,.17-.03,0-.07,0-.1-.02-.28-.24-.24-.5-.06-.75,0-.35,.35-.7,.56-.99,.07-.29,.32-.54,.5-.78,.94-1.05,2.02-2.3,3.32-2.87,.37-.34,.76-.76,1.23-.83,.09-.3,.58-.62,.86-.69Zm-2.71,2.93s-.1,.09-.14,.14c-.06,.06-.12,.11-.19,.17-.35,.47-.78,.88-1.21,1.29,.02,.02,.03,.04,.04,.07,.33-.2,.6-.48,.87-.74,.18-.32,.4-.63,.63-.92Z"/><path class="cls-1" d="M41.87,38.75c.14,.18,.09,.53-.06,.63-.06,.08-.12,.16-.18,.24,.07,1.07-1,2.29-1.48,3.25-.26,.42-.49,.86-.68,1.31-.06,.15-.2,.27-.35,.27-.05,0-.1-.01-.15-.04-.2-.12-.27-.41-.18-.62,.5-1.16,1.1-2.27,1.7-3.37,0-.32,.17-.68,.41-.93h0c.23-.59,.55-1.07,.96-.73Z"/><path class="cls-1" d="M37.5,44.95c.26,.03,.37,.35,.34,.57-.04,.45-.46,.44-.81,.41-.04,.06-.09,.1-.16,.13-.08,.03-.17,.03-.25,.04-.08,.3-.38,.33-.63,.37-.33,0-.63,.28-.96,.28-.08,0-.16-.02-.25-.06-.05-.03-.09-.07-.12-.11-.24,.02-.5,.07-.73-.04-.36-.18-.3-.8,.1-.9,1.16-.26,2.23-.91,3.47-.7Z"/><path class="cls-5" d="M9.25,32.62c.25,.52-.1,1.27-.1,1.86-.02,.16-.06,.32-.09,.48,0,.01,.02,.03,.02,.04,.03,.19,0,.38,.01,.57,.19,.97,.15,2.05-.02,3.07,0,0,0,.02,0,.03-.08,.46,.38,1.22-.12,1.49-.02,0-.03,0-.04,0-.15,0-.25-.15-.27-.29-.02-.12-.05-.42-.09-.83,0-.02-.02-.03-.02-.05,0,.02-.01,.04-.02,.06,0,0,0,0-.01,0-.01,0-.02-.01-.04-.02-.07-.3-.1-.6-.11-.9-.04-.23-.08-.48-.1-.74-.37-.51-.13-1.31-.14-1.92,.04-.48,.19-.95,.46-1.35,.14-.92,.38-1.71,.69-1.51Z"/><path class="cls-1" d="M7.99,40.88c.1,.69-.41,.9-1.05,.9-.69,0-1.53-.25-1.92-.44-.76-.28-1.3-.96-2.11-1.09-.41-.12-.24-.81,.19-.7,.08-.11,.23-.15,.35-.08,1.02,.2,2.18,.19,3.21,.59,.31,.15,.89,.13,.92,.56,.02,0,.03,.02,.05,.03,.15-.04,.29,.08,.35,.22Z"/><path class="cls-5" d="M8.32,38.23c-.15-.72-.06-1.61,.18-2.24,.09,.68,.16,1.42,.26,2.07,.09,.33-.34,.54-.44,.16Z"/><path class="cls-1" d="M8.54,39.99c-.45-1.32-.77-3.24-.35-4.62,.06-.32,.09-.68,.26-.96,.12-.56-.04-1.31,.33-1.76,.02-.77,.67-.65,.65,.04-.23,2.06,.09,4.28-.29,6.26,.04,.3,.02,.61,.04,.92-.01,.37-.51,.5-.64,.12Z"/><path class="cls-1" d="M45.03,30.8c-.06-.04-.1-.12-.11-.2-.21-.08-.52-.17-.45-.45,.03-.11,.14-.23,.26-.17,.3,.15,.64,.21,.91,.41,.16,.17,.04,.52-.22,.46-.11,.12-.29,.07-.39-.04Z"/><path class="cls-5" d="M48.81,28.66c-.12-.55,.54-.93,.8-1.35,.38-.35,.66-.89,1.08-1.16,.44,.13,.1,.63-.12,.82-.44,.58-.81,1.43-1.51,1.69-.07,.04-.2,.08-.25,0Z"/><path class="cls-1" d="M47.01,30.48c-.77-.02-.46-.78-.13-1.15,.18-.28,.46-1.1,.88-.78,.33,.41-.25,.77-.39,1.14,1.02-.35,1.51-1.4,2.33-1.95,.09-.03,.22-.06,.29-.03-.18,1.38-1.65,2.6-2.99,2.78Z"/><path class="cls-1" d="M52.55,24.65c.68-2.29,2.24-.94,.01,.02,0,0-.01-.01-.01-.02Z"/><path class="cls-1" d="M35.65,32.06c-.01-.54,.8-.5,.97-.09-.07,.48-.97,.72-.97,.09Z"/><path class="cls-1" d="M36.36,46.67c-.4-.15-.45-.77,.17-.9,.31-.14,.78-.59,1.02-.14,.23,.45-.24,.7-.6,.81-.2,.08-.37,.26-.6,.24Z"/><path class="cls-1" d="M33.41,41.08c-.28-.24-2.28-1.22-1.12-1.37,.63,.19,1.36,.47,1.78,.98,.18,.49-.33,.76-.67,.38h.01Z"/><path class="cls-5" d="M28.57,37.37c-.37-.28-.65-2.71,.16-2.01,.18,.46,.01,.99,.16,1.46,.16,.39,.03,.84-.32,.54Z"/><path class="cls-1" d="M28.62,37.16c-.18-.04-.21-.26-.23-.41-.17-.75-.21-1.76,.32-2.34,.12,.86,.11,1.77,.09,2.61-.02,.07-.09,.16-.17,.14Z"/><path class="cls-1" d="M17.97,33.66c-.3-.37-.69-.66-.92-1.08-.02-.02-.04-.04-.07-.06-.24-.05-.24-.47,0-.52,.6,.24,1.15,.81,1.59,1.31,.31,.56-.31,.93-.63,.32l.03,.04Z"/><path class="cls-1" d="M19.55,37.41c-.19-.29-.25-.66-.39-.98-.66-.35-.88-1.12-1.19-1.75-.14-.19-.16-.55,.12-.62-1.37-2.86,.3-.84,.9,.35,.47,.79,.8,1.66,1.13,2.52,.08,.2,.11,.41-.03,.59-.16,.2-.41,.04-.53-.11Z"/><path class="cls-1" d="M21.25,36.56c-.11-1.56,.97-2.91,1.31-4.36,.05-.16,.25-.25,.38-.14,.27,.32,.08,.83-.02,1.22-.04,.82-.17,1.66-.72,2.31-.06-.1-.05-.29-.08-.44-.17,.41-.37,.83-.49,1.25,.04,.25-.28,.47-.39,.17Z"/><path class="cls-1" d="M22.31,36.24c-.2-.03-.19-.3-.13-.44,.15-.87,.52-1.75,.62-2.6,.26-.74,0-1.81,.66-2.31,.63,.59,.05,1.66,0,2.41-.27,.96-.35,2.31-1.15,2.94Z"/><path class="cls-1" d="M14.38,22.91c-.04-.84,.71-1.59,1.06-2.33,.45-.56,.58-1.56,1.33-1.79,.39,.85-.42,1.64-.83,2.33-.47,.59-.75,1.5-1.4,1.88-.07,0-.13-.03-.17-.09Z"/><path class="cls-1" d="M13.47,23.05c-.12-.11-.09-.33,0-.44,1.14-2.22,2.33-4.43,3.24-6.75,.37-.76,1.04-.06,.7,.53-.9,2.13-1.9,4.22-3.19,6.15-.18,.19-.43,.74-.74,.5Z"/><path class="cls-5" d="M18.76,13.74c-.41-.35,.36-1.35,.76-1.33,.47,.18,.16,.71-.11,.92-.2,.19-.35,.61-.66,.41Z"/><path class="cls-1" d="M8.12,20.54c-.34-.14-2.52-4.71-1.35-3.92,.54,.7,.77,1.63,1.26,2.39,.26,.55,.72,.99,.71,1.63,0,.14-.51,.05-.61-.1Z"/><path class="cls-1" d="M11.52,23.51c-1.13-1.26-2.23-2.56-3.17-3.97-.2-.37-.64-.84-.42-1.26,.04-.02,.08,0,.09,0,.55,.19,.88,.86,1.28,1.27,.56,.7,1.22,1.34,1.81,2.02,.28,.54,1.06,1.02,1.09,1.55,.02,.35-.38,.63-.66,.38Z"/><path class="cls-5" d="M12.1,23.74c-.58-1-1.7-1.7-2.08-2.8,.07-.61,.98,.52,1.23,.66,0-.04,.01-.07,.02-.11,0,0,0,0,.01,0,.45,.01,.6,.53,.78,.87,.27,.34,.77,.69,.68,1.17-.04,.31-.43,.48-.64,.21Z"/><path class="cls-1" d="M8.69,40.5c-.23-.7-.22-1.56,.02-2.21,.19,.69,.4,1.36,.48,2.07,.03,.16-.08,.37-.26,.37-.12,0-.21-.11-.25-.23Z"/><path class="cls-5" d="M8.49,39.74c-.35-1.28-.14-2.61-.16-3.92-.02-.56,.13-1.14,.51-1.54,.02-.02,.02,.06,.03,.04,.41,1.7-.13,3.51,.1,5.26,.13,.5-.36,.8-.48,.15Z"/><path class="cls-1" d="M8.68,37.82c-.59-.97-.29-2.22,.03-3.22,.18,.98,.42,2.24-.02,3.22h0Z"/><path class="cls-5" d="M8.21,41.84c-.44,0-.95-.28-1.12-.65,.42-.03,1.38-.44,1.43,.26,0,.17-.12,.39-.31,.38Z"/><path class="cls-1" d="M8.19,41.64c-.31-.11-.64-.2-.91-.4-.27-.21-.6-.5-.7-.79,.29,.08,.63,.09,.93,.17,.37,.15,1.13,.25,1.04,.79-.04,.15-.19,.3-.35,.23Z"/><path class="cls-1" d="M7.81,41.09c-.66-.06-1.28-.61-1.65-1.07,.72,.14,1.62,.29,1.94,1.05-.07,.06-.22,.02-.32,.02h.02Z"/><path class="cls-5" d="M7.16,41.14c-.95-.18-2.53,.28-2.95-.83,.05,0,.08-.02,.13-.04,.62-.33,1.36-.01,2.03,.05,.42,.13,.98,.11,1.28,.46,.18,.3-.27,.41-.5,.36Z"/><path class="cls-1" d="M6.69,41.4c-1.11-.12-2.38-.62-3.01-1.54,1.18,.28,2.55,.54,3.38,1.48-.07,.08-.26,.05-.37,.06Z"/></g><g class="cls-2"><path class="cls-8" d="M40.38,25.31c11.41-1.13,13.69-16.13,3.49-20.96-1.18-.55-2.4-.89-3.69-.98-.12-.02-.2-.11-.25-.22-15.82,1.44-15.1,22.48,.45,22.17h0Zm-4.76,1.17c-8.05-2.38-11.21-13.19-5.82-19.57,2.38-2.95,6.3-5.07,10.14-4.15,.06-.13,.18-.22,.34-.2,.83,.08,1.74,.2,2.53,.44,4.91,1.18,8.45,5.86,8.75,10.82,.71,7.08-5.53,13.29-12.3,13.29-1.21,0-2.44-.2-3.64-.63Z"/><path class="cls-8" d="M38.9,16.17c-.28-.19-.26-.65-.23-.92,.16-2.62,.2-5.29-.03-7.89-.04-.68-.06-1.36-.06-2.05,0-.23,.14-.5,.4-.5,.74,.16,.28,1.61,.46,2.2,.02,.94,.95,9.23-.33,9.23-.07,0-.14-.02-.22-.07Z"/><path class="cls-8" d="M39.08,15.77c-.03-.22,.08-.52,.33-.56,1.99-.32,4-.51,6.01-.54,.34,0,.69,0,1.03,0,.71,0,1.42,0,2.12,.07,.17,.04,.31,.16,.39,.32,.17,.28,0,.66-.3,.77-3.03-.1-6.12-.12-9.14,.35-.02,0-.04,0-.06,0-.21,0-.37-.21-.39-.42Z"/><path class="cls-8" d="M43.29,6.82c-.25-.35,.09-1.32,.59-.88,.32,.32-.01,.93-.41,.93-.06,0-.12-.02-.18-.05Z"/><path class="cls-8" d="M46.29,10.73c.17-.49,.5-.98,.91-1.32,.62-.43,1.03,.68,.53,1.03-.31,.22-.68,.34-1.05,.34-.13,0-.26-.02-.39-.05Z"/><path class="cls-8" d="M46.47,20.99c-.44-.27-.78-.76-.85-1.27,.5-.22,1.33-.22,1.57,.36,.17,.38-.09,.97-.49,.97-.07,0-.15-.02-.23-.07Z"/><path class="cls-8" d="M42.81,22.72c-.02-.42,.04-.87,.31-1.18,.31,.22,.5,.57,.57,.94,.1,.43-.18,.72-.46,.72-.19,0-.38-.14-.43-.48Z"/><path class="cls-8" d="M38.89,23.51c-.01-.5,.1-1.04,.47-1.39,.23,.37,.43,.85,.48,1.3,.04,.43-.22,.68-.48,.68-.23,0-.45-.18-.47-.59Z"/><path class="cls-8" d="M29.75,15.77c.04-.94,1.27-.35,1.7-.05-.24,.25-.79,.57-1.2,.57-.27,0-.48-.13-.5-.52Z"/><path class="cls-8" d="M30.84,10.67c-.51-.1-.43-1.09,.12-1,.45,.13,.91,.42,1.2,.76-.29,.18-.63,.28-.98,.28-.11,0-.23-.01-.34-.03Z"/><path class="cls-8" d="M35.41,7.63c-.44-.28-1.25-.72-.86-1.33,.32-.42,.68,.04,.89,.34,.37,.57,1.13,1.36,.81,1.36-.12,0-.37-.11-.84-.36Z"/><path class="cls-8" d="M31.67,19.43c-.21-.93,1.07-.96,1.66-.8-.12,.44-.73,1.21-1.21,1.21-.19,0-.35-.11-.46-.41Z"/><path class="cls-8" d="M35.11,22.72c-.63-.78,.55-1.58,1.24-1.62-.03,.5-.3,1.76-.89,1.76-.11,0-.22-.04-.35-.13Z"/><path class="cls-8" d="M17.4,54.84c-1-.16-1.81-.54-2.82-.33-.94,.15-1.66-.59-2.43-.87-.87,.18-1.55,.68-2.34,1-.17,.07-.33-.09-.36-.24-.11-.39,.33-.52,.59-.63,.76-.33,1.44-.87,2.28-.86,.52,.08,.94,.52,1.45,.65,.41,.11,.83,.08,1.24,.04,.21-.02,.41-.03,.62-.03,.65,.02,1.27,.44,1.93,.39,.6-.06,1.09-.36,1.68-.49,.34-.06,.69,.01,1.03,.08,.43,.08,.85,.17,1.26,.02,.94-.2,1.84-1.08,2.82-.72,.5,.24,1.09,.47,1.64,.4,1.16-.11,2.13-.83,3.29-.88,.86,0,1.51,.69,2.31,.9,2.04,.5,3.82-1.09,5.8-1.24,.78,.03,1.49,.53,2.3,.39,.92-.13,1.81-.52,2.71-.77,.63-.29,1.24-.06,1.84,.2,.76,.12,1.55,.09,2.34,.05,1.24-.05,2.47-.11,3.62,.45-1.83,.85-4.18,.74-6.17,.5-.4-.14-.87-.44-1.28-.24-1.24,.33-2.49,.99-3.81,.79-.55-.07-1.08-.39-1.61-.38-1.98,.32-3.9,1.81-5.96,1.14-.7-.2-1.26-.76-1.98-.87-.98,.03-1.79,.59-2.73,.77-.92,.26-1.81-.04-2.64-.42-.42-.06-.81,.24-1.2,.38-1.05,.59-2.18,.52-3.32,.3-.66,.14-1.28,.52-1.96,.52-.04,0-.08,0-.12,0Z"/><path class="cls-8" d="M14.17,53.42c-.09-3.67,1.06-7.53-.22-11.09-2.07-5.51-2.13-11.6-1.17-17.3,.1-.44,.13-.97,.26-1.33,0,1.98,.02,3.95-.07,5.93,.03,3.27-.15,6.66,.87,9.81,1.18,3.19,1.72,6.43,1.24,9.81-.15,1.4-.34,2.78-.31,4.19,0,.24-.15,.37-.31,.37-.15,0-.29-.12-.29-.37Z"/><path class="cls-8" d="M12.52,24.15c-.04-.26-.09-.5-.16-.74-.09-.34-.22-.68-.39-.99-1.58-3.08-5.68-4.46-6.61-7.92,2.66,3.04,7.11,5,7.79,9.41,.08,.28-.13,.52-.33,.52-.12,0-.24-.08-.29-.28Z"/><path class="cls-8" d="M11.16,24.44c-3.99-2.27-5.54-7.4-6.36-11.66,1.69,2.73,2.19,6.3,4.33,8.82,.84,.93,1.92,2.52,3.3,1.87,.21-.11,.41,.02,.5,.22,.16,.63-.48,.87-1.08,.87-.26,0-.51-.04-.69-.12Z"/><path class="cls-8" d="M12.91,23.92c-.26-.15-.19-.5-.11-.72,1.27-4.22,3.36-9.31,7.48-11.28-3.03,2.99-5.35,6.88-6.66,10.9-.04,.07-.06,.16-.09,.26-.07,.18-.13,.36-.16,.53,0,0,0,.02,.01,.02h0c-.07,.19-.17,.33-.35,.33-.04,0-.09,0-.14-.02Z"/><path class="cls-8" d="M12.87,24.11c-.03-.35,.23-.44,.51-.51h0s0,.02,.01,.02c0,0,0,0,.01,0h0v-.02c.19-.05,.37-.1,.49-.21,3.63-3.27,3.42-9.02,7.01-12.26-.15,.44-.44,.98-.62,1.43-2.01,3.8-2.74,8.95-6.29,11.63-.21,.08-.54,.25-.79,.25-.17,0-.31-.08-.34-.31Z"/><path class="cls-8" d="M21.13,53.66c-.46-2.96-.8-5.94-.34-8.91,.27-2.51-.49-5.11-.18-7.55,1.71,4.64,.14,9.49,.86,14.22,.09,.72,.19,1.42,.23,2.14,.02,.17-.07,.41-.28,.41-.16,0-.28-.16-.29-.31Z"/><path class="cls-8" d="M19.95,37.33s-.02-.09-.02-.14h.02s.04,0,.07,0c.02,0,.01-.02,0-.02h-.01s-.02-.06-.03-.1h0c-.09-.32-.16-.65-.33-.95-.4-1.15-1.05-2.19-1.81-3.16-.14-.22-.3-.42-.48-.6-.95-1.13-2-2.18-2.91-3.25,2.8,.26,5.8,5.52,6.11,8.11,.04,.26-.14,.43-.31,.43-.13,0-.26-.1-.29-.32Z"/><path class="cls-8" d="M20.13,38.18c-4.08-.64-3.9-6.16-5.08-9.25,.7,.59,1.22,1.53,1.46,2.44,.6,1.86,.61,4.23,2.4,5.4,.43,.29,.83,.43,1.33,.46,.46,.09,.41,.94-.07,.94-.02,0-.03,0-.05,0Z"/><path class="cls-8" d="M20.41,37.37c-.06-3.68,1.87-7.18,4.85-9.17-.76,1.08-1.59,2.16-2.31,3.29-.03,.03-.05,.07-.07,.11-.93,1.47-1.67,3.02-1.87,4.77-.05,.26-.08,.52-.05,.78,0,.07,0,.15,0,.23,0,.23-.15,.35-.29,.35s-.28-.11-.28-.35Z"/><path class="cls-8" d="M20.5,38.2c-.07-.14-.05-.35,.08-.46,.67-.5,1.18-1.21,1.6-1.87,1.69-2.33,.7-5.69,2.7-7.76-.77,3.49-.83,7.79-4.01,10.18-.04,.04-.09,.05-.14,.05-.09,0-.18-.06-.23-.15Z"/><path class="cls-8" d="M46.01,51.95c-.17-3.83-1.74-7.45-1.93-11.29-.02-2.8,.62-5.72,1.47-8.42,.14-.31,.26-.65,.32-.98,.1-.29,.2-.58,.3-.87,.32,3.88-1.94,7.54-1.23,11.43-.02,.57,2.27,10.44,1.42,10.44-.09,0-.2-.09-.35-.31Z"/><path class="cls-8" d="M46.02,30.8c-.14-.11-.15-.32-.08-.47,1.55-3.6,5.1-5.97,8.49-7.49-2.15,1.99-4.87,3.37-6.7,5.69-.19,.25-.37,.49-.54,.74-.06,.02-.11,.07-.14,.14-.03,.07-.06,.14-.09,.22l-.04,.06c-.05,.08-.1,.16-.15,.25-.01,.01-.02,.03-.03,.05-.01,.02-.02,.05-.04,.07-.12,.21-.22,.42-.33,.64-.05,.09-.14,.15-.24,.15-.04,0-.09-.02-.14-.05Z"/><path class="cls-8" d="M46.28,31.09c-.37-.02-.38-.7,0-.71,.12,0,.23,0,.34-.01,0,.09,.05,.16,.13,.21,.04,.02,.08,.03,.12,.03,.09,0,.19-.05,.23-.14,0-.02,.02-.04,.03-.06h0v-.02h0s0,0,0-.01h0s.09-.06,.12-.1c3.81-.8,4.76-5.98,7.75-8.07-2.07,3.17-4.23,8.88-8.72,8.88h-.02Z"/><path class="cls-8" d="M47.13,30.39h0Z"/><path class="cls-8" d="M45.83,30.38s0-.02,0-.02c.02,0,.05,.02,.07,.03,.15,.12,.17,.35,.09,.52-.03,.09-.07,.17-.11,.26,.03-.26,.02-.53-.05-.79Z"/><path class="cls-8" d="M29.46,52.77c-.16-.06-.22-.26-.18-.41,.39-2.42,0-4.96,.34-7.41-.04-2.01-.67-4.02,.16-5.98,.17,1.55,.19,3.21,.48,4.79,.11,1.51-.17,3.01-.18,4.52-.07,1.43,.13,2.88-.28,4.27-.03,.12-.13,.24-.26,.24-.02,0-.05,0-.08-.02Z"/><path class="cls-8" d="M34.36,41.22c-.13-.11-.25-.22-.39-.31h0s-.05-.03-.07-.05h.02c-.11-.06-.21-.14-.32-.22h.02c-.2-.13-.42-.24-.64-.36-.01,0-.02-.01-.03-.02-.48-.25-.93-.34-1.43-.4-.08-.01-.15-.02-.23-.03-.05,0-.09,0-.14-.01-.35-.08-.72-.12-1.09-.13-.37,.06-.44-.63-.08-.69,.2-.03,.39-.02,.6,0,2.34,.31,4.95,1.47,6.13,3.57-.78-.41-1.55-.91-2.34-1.37Z"/><path class="cls-8" d="M35.66,42.55c-2.1-.32-4.41-.98-5.66-2.84-.11-.15-.1-.39,.03-.54,.13-.14,.32-.11,.43,.04,.51,.77,1.31,1.26,2.1,1.64,1.16,.65,2.55,.53,3.71,1.12,.17,.13,.4,.28,.5,.46-.28,.09-.57,.13-.87,.13-.08,0-.15,0-.23,0Z"/><path class="cls-8" d="M29.56,38.71c0-.09,0-.18,0-.28,.02-.06,.02-.13,.03-.2,.03-.07,.02-.17,0-.26v-.02c.02-.17,.02-.34,.02-.52,0,0,0,0,0-.01,.07-2.08,.1-4.17-.53-6.14l.05-.07c1.54,1.84,1.21,4.43,1,6.63-.1,.38,.23,1.1-.28,1.23-.18,0-.27-.19-.28-.35Z"/><path class="cls-8" d="M29.22,39.36c-2.29-2.05-1.56-5.63-.16-8.07,.06-.08,.11-.17,.15-.26,.08-.13,.15-.25,.24-.37,.08,1.29-.72,2.66-.91,3.91-.13,1.09-.17,2.41,.38,3.4,.04,.08,.08,.15,.13,.22,.07,.14,.17,.28,.3,.36,0,0,.02,.01,.02,.02,.02,.02,.04,.04,.07,.07,0,0,.02,.02,.03,.02,.02,.02,.05,.05,.08,.07,.26,.19,.12,.7-.16,.7-.05,0-.11-.02-.17-.06Z"/><path class="cls-8" d="M10.43,52.92c0-1.81,.15-3.66-.31-5.4-.43-1.16-1.22-2.21-1.27-3.49-.09-1.07,.33-2.25,.67-3.18-.31,1.82-.35,3.69,.68,5.3,1.1,2.07,.77,4.51,.79,6.78,0,.22-.14,.33-.28,.33s-.28-.11-.27-.33Z"/><path class="cls-8" d="M9.11,41.27c-.17-.03-.26-.24-.23-.39,.37-3.42,.15-6.89,.47-10.3,.39,3.36,.54,6.98,.08,10.41-.02,.14-.12,.3-.27,.3-.01,0-.03,0-.04,0Z"/><path class="cls-8" d="M8.66,41.48c-1.51-3.29-1.64-7.63,.92-10.37-.41,1.69-1.27,3.32-1.4,5.05-.05,.75,.02,1.49,.16,2.22,.04,.37,.14,.74,.27,1.09,.17,.58,.37,1.14,.58,1.7,.12,.25-.09,.52-.29,.52-.1,0-.19-.06-.25-.21Z"/><path class="cls-8" d="M8.36,41.47c-.21-.26-.45-.5-.72-.7-.13-.11-.27-.2-.41-.28-1.54-.92-3.67-.95-5.25-.24,1.31-1.72,4.1-1.73,5.78-.44,.44,.39,1.41,.94,1.09,1.61-.07,.1-.17,.15-.27,.15-.08,0-.16-.03-.22-.11Z"/><path class="cls-8" d="M6.16,42.44c-1.64-.44-3.27-1.38-4.48-2.49,1.29-.26,2.4,.75,3.51,1.23,1.07,.59,2.31,.57,3.38,.05,.2-.08,.37,.1,.41,.28,.11,.73-1.35,.96-2.27,.96-.23,0-.43-.02-.55-.04Z"/><path class="cls-8" d="M39.1,52.12c-.24-2.43-1-4.91-.47-7.35,.2,.29,.31,.74,.42,1.1,.28,2.03,.46,4.08,.78,6.11,.05,.32-.17,.52-.38,.52-.16,0-.31-.11-.35-.38Z"/><path class="cls-8" d="M38.75,44.97c-.21-.04-.28-.27-.27-.45,.2-2.41,1.59-4.84,3.46-6.25-1.05,2.04-2.58,4.03-2.83,6.37-.01,.17-.15,.34-.31,.34-.02,0-.03,0-.05,0Z"/><path class="cls-8" d="M38.83,44.79c-.09-.18-.07-.44,.1-.57,.98-.75,1.52-1.91,2.05-2.99,.58-1.3,.46-2.83,1.5-3.9-.18,2.74-.89,5.77-3.19,7.58-.05,.04-.11,.07-.17,.07-.11,0-.22-.07-.28-.19Z"/><path class="cls-8" d="M32.81,46.63s.04-.07,.07-.1l-.02,.03c.05-.07,.1-.15,.15-.22,1.04-1.4,2.87-2.28,4.6-1.95,.41,.11,1.04,.28,.89,.83-.05,.2-.25,.42-.48,.32-.12-.05-.24-.09-.37-.13,0-.01-.02-.02-.06-.02h-.04c-1.66-.39-3.55,.66-4.87,1.43l.11-.18Z"/><path class="cls-8" d="M34.27,47.14c-.46-.17-.98-.35-1.42-.56l.03-.04-.02,.03c.06-.1,.13-.19,.19-.29,.27-.07,.54-.13,.82-.14,1.27,.09,2.64,.44,3.77-.37,.4-.17,.65-1.13,1.12-.66,.13,.18,.1,.41-.03,.58-.72,1.09-1.94,1.66-3.2,1.66-.43,0-.85-.07-1.27-.2Z"/><path class="cls-8" d="M39.33,33.6c-1.63-.06-3.21-.81-4.53-1.63,3.59,.42,7.24,1.27,10.33-.97,.05-.01,.1-.05,.14-.09,.04,.01,.09,.03,.13,.05,.02,0,.05,.01,.08,.01,.11,0,.22-.07,.25-.18,.03-.09,0-.17-.04-.23l.02-.02c.19-.14,.41-.07,.52,.14,.11,.2,.08,.51-.11,.65-1.74,1.35-3.9,2.3-6.12,2.3-.22,0-.45,0-.67-.03Z"/><path class="cls-8" d="M46.17,29.9c.19,.13,.2,.44,.11,.62-.12,.26-.37,.22-.56,.1-.03-.07-.09-.13-.16-.15-.07-.03-.14-.05-.22-.07-.35-.17-.69-.29-1.03-.37-.09-.04-.17-.06-.26-.06-.06-.01-.12-.02-.18-.03-.01,0-.02,0-.04,0-2.91-.37-5.8,1.87-8.57,2.27,2.81-2.36,7.49-4.49,10.91-2.3Z"/><path class="cls-8" d="M13.26,23.44c-.18-.4,.29-.93,.63-1.4-.07,.2-.14,.39-.19,.6-.04,.1-.08,.19-.11,.29-.08,.19-.16,.38-.2,.57-.05,0-.09-.02-.13-.07Z"/><path class="cls-8" d="M12.36,23.35h-.02c-.09-.35-.23-.69-.41-.99,.12,.09,.23,.17,.35,.25,.23,.12,.55,.27,.41,.59-.04,.1-.14,.18-.24,.18-.04,0-.07,0-.1-.02Z"/><path class="cls-8" d="M11.91,23.07h.02l.02,.03-.04-.03Z"/><polygon class="cls-8" points="11.3 22.42 11.31 22.43 11.31 22.43 11.3 22.42"/><path class="cls-8" d="M19.95,37.33c-.05-.05-.1-.11-.15-.16,.05,.02,.1,.02,.15,.02,.02,0,.04,0,.07,0,.02,0,.01-.02,0-.02h-.01s-.02-.06-.03-.1h0c-.09-.29-.15-.57-.28-.84,.13,.17,.26,.34,.41,.51,.26,.2,.39,.7,.12,.7-.07,0-.15-.03-.27-.1Z"/><polygon class="cls-8" points="19.91 37.15 19.91 37.15 19.92 37.15 19.91 37.15"/><path class="cls-8" d="M19.76,36.62h0s.01,.02,.01,.04h0s-.01-.02-.01-.04Z"/><path class="cls-8" d="M17.43,32.44c-.08-.26-.15-.53-.23-.79,.18,.39,.36,.78,.54,1.17-.1-.14-.2-.27-.32-.39Z"/><path class="cls-8" d="M20.84,37.14c-.1-.08-.12-.24-.06-.36,.09-.15,.17-.31,.26-.46-.06,.28-.09,.58-.05,.85-.01,0-.02,0-.03,0-.04,0-.08-.01-.11-.04Z"/><path class="cls-8" d="M21.11,37.09v.02h0v-.02Z"/><polygon class="cls-8" points="22.83 32.22 22.83 32.22 22.83 32.22 22.83 32.22"/><polygon class="cls-8" points="22.96 31.48 22.96 31.49 22.96 31.49 22.96 31.48"/><path class="cls-8" d="M8.41,39.38c-.02-.24-.03-.49-.04-.73,.07,.38,.2,.74,.34,1.09-.02,.02-.04,.04-.06,.06-.17-.06-.22-.26-.25-.42Z"/><path class="cls-8" d="M8.24,41.33s-.04-.03-.06-.05h0l-.03-.03s0-.01,0-.02c-.07-.07-.15-.15-.23-.22-.12-.11-.25-.23-.39-.33,.31-.02,.62-.03,.92-.05,.17-.01,.28,.2,.28,.35,0,.17-.1,.33-.28,.35-.07,0-.14,.01-.21,.02,0,0,0-.01,0-.02Z"/><path class="cls-8" d="M29.08,38.69c-.05-.21-.09-.42-.13-.64,.04,.08,.09,.16,.15,.23,.04,.07,.09,.13,.14,.18,.02,.02,.03,.03,.05,.05,.02,.01,.03,.03,.05,.04h.01s.05,.07,.08,.09c.02,.02,.04,.02,.06,.02,.01,0,.02,0,.02-.01,.03-.06,.05-.13,.06-.2,0-.03,.02-.07,.02-.1,.01,.04,.02,.09,.03,.13,.07,.24-.11,.44-.28,.44-.11,0-.21-.07-.25-.24Z"/><path class="cls-8" d="M29.47,38.64h0Z"/><polygon class="cls-8" points="29.39 38.38 29.39 38.39 29.39 38.39 29.39 38.38"/><path class="cls-8" d="M28.92,37.74v.02h.01v-.02Z"/><path class="cls-8" d="M33.98,40.91h0s-.05-.04-.08-.05h.02c-.11-.06-.21-.14-.32-.22h-.02c.18,.1,.37,.2,.55,.29-.05,0-.1-.01-.15-.02Z"/><path class="cls-8" d="M32.98,40.28s-.02-.01-.03-.02c-.49-.26-.97-.34-1.48-.41-.04,0-.09-.01-.13-.01l-.14-.02c-.41-.23-.76-.5-.32-.67,.82,.28,1.56,.77,2.32,1.23-.07-.04-.14-.07-.21-.11Z"/><path class="cls-8" d="M31.34,39.91h0Z"/><path class="cls-8" d="M45.56,30.47c-.09-.03-.18-.06-.27-.09-.02-.01-.03-.02-.05-.03-.14-.06-.28-.11-.42-.17h0s0,0-.01,0h0c-.11-.04-.23-.08-.35-.11,1.05-.18,1.72-.1,1.23,.51-.03-.04-.08-.08-.13-.1Z"/><path class="cls-8" d="M45.98,30.42c-.03-.12,.02-.28,.14-.33,.29-.13,.58-.29,.85-.46-.12,.18-.23,.37-.32,.57h0v.02h0c-.03,.06-.03,.13-.02,.19-.13,.06-.26,.12-.39,.18-.02,0-.04,.01-.06,.01-.09,0-.17-.09-.2-.18Z"/><polygon class="cls-8" points="46.64 30.22 46.64 30.21 46.65 30.21 46.64 30.22"/><path class="cls-8" d="M47.52,29.87h0Z"/><path class="cls-8" d="M38.62,44.44c-.13-.11-.13-.31-.05-.45,.58-.96,1.14-2,1.81-2.95-.4,1.1-.82,2.47-1.56,3.44-.02,0-.04,0-.07,0-.05,0-.09-.02-.13-.04Z"/><path class="cls-8" d="M37.07,46.21c-.2-.01-.39-.02-.52,0,.06-.01,.12-.03,.17-.06,.11-.03,.22-.08,.32-.15,.16-.08,.31-.2,.45-.35h0s.07-.08,.1-.12h0s.13-.14,.01-.15h-.04c.1-.02,.2-.03,.31-.05,.21-.03,.35,.15,.37,.34,0,.46-.4,.54-.83,.54-.11,0-.23,0-.34-.01Z"/><path class="cls-8" d="M45.5,31.3c-.31-.06-.15-.52,.12-.51,.08-.01,.21-.01,.18,.1-.01,.16-.11,.41-.3,.42Z"/><path class="cls-8" d="M45.26,31.39c-.31-.34,.28-.78,.61-.74,0,.27-.27,.89-.61,.74Z"/><path class="cls-8" d="M45.27,31.33c-.13-.17,.03-.4,.15-.5,.12-.17,.32-.42,.56-.32,.08,.28-.4,1.15-.7,.82Z"/><path class="cls-8" d="M45.21,31.38c-.2-.32,.32-.78,.62-.68,.05,.29-.31,.98-.62,.68Z"/><path class="cls-8" d="M46.95,29.24c-.11-.13,.01-.5,.22-.36,.18,.13-.02,.51-.22,.36Z"/><path class="cls-8" d="M46.83,29.53c-.13-1.46,1.18-.66,.01,.01,0,0-.01,0-.01-.01Z"/><path class="cls-8" d="M46.4,30.46c-.17-.48,.26-.91,.43-1.33,.11-.18,.19-.65,.48-.47,.12,.17,.08,.37,0,.56-.07,.1-.13,.2-.18,.32-.08,.13-.16,.27-.2,.39-.11,.22-.23,.5-.5,.55,0,0,0,0-.01,0Z"/><path class="cls-8" d="M46.48,30.85c-.26-.05-.22-.55,.06-.52,.28,.03,.6-.01,.85,.2-.15,.3-.59,.4-.91,.32Z"/><path class="cls-8" d="M46.39,30.65c-.04-.51,1.05-.42,1.29-.19-.16,.28-1.24,.65-1.29,.19Z"/><path class="cls-8" d="M46.55,30.67c-.01-.46,.74-.41,1.01-.23-.12,.28-.9,.72-1.01,.23Z"/></g></g></g></svg>