<?xml version="1.0" encoding="UTF-8"?><svg id="Layer_1" xmlns="http://www.w3.org/2000/svg" xmlns:xlink="http://www.w3.org/1999/xlink" viewBox="0 0 56.69 56.69"><defs><style>.cls-1{fill:#fff;}.cls-2,.cls-3{fill:#3bb54a;}.cls-4{clip-path:url(#clippath-2);}.cls-5{clip-path:url(#clippath-1);}.cls-6{clip-path:url(#clippath-4);}.cls-7{fill:#cf4d27;}.cls-8{fill:#cd6228;}.cls-9{clip-path:url(#clippath);}.cls-10{fill:none;}.cls-11{clip-path:url(#clippath-3);}.cls-12{fill:#c65b31;}.cls-13{clip-path:url(#clippath-5);}.cls-14{fill:#54c9eb;}.cls-3{opacity:0;}.cls-15{fill:#010101;}</style><clipPath id="clippath"><rect class="cls-10" x="4.25" y="3.55" width="48.19" height="49.59"/></clipPath><clipPath id="clippath-1"><rect class="cls-10" x="4.25" y="3.55" width="48.19" height="49.59"/></clipPath><clipPath id="clippath-2"><rect class="cls-10" x="20.07" y="34.31" width="15.55" height="12.58"/></clipPath><clipPath id="clippath-3"><rect class="cls-10" x="19.95" y="33.67" width="15.84" height="13.45"/></clipPath><clipPath id="clippath-4"><rect class="cls-10" x="19.32" y="8.23" width="16.8" height="25.38"/></clipPath><clipPath id="clippath-5"><rect class="cls-10" x="18.65" y="8.09" width="17.86" height="27.47"/></clipPath></defs><rect class="cls-3" y="0" width="56.69" height="56.69"/><g class="cls-9"><g class="cls-5"><path class="cls-15" d="M44.63,4.04c.46-.05,.72,.5,.52,.87-.02,.05-.05,.09-.08,.12-.16,.04-.32,.06-.48,.09h0c-.41,.07-.83,.11-1.24,.14-.17,.02-.32,.02-.49,.03-2.46,.09-5.03-.31-7.47-.11-4.85,.05-9.69,.35-14.54,.23-.65-.01-1.3-.03-1.95-.04-1.3-.03-2.6-.06-3.9-.08-1.03-.02-2.05-.02-3.07-.01h-.14c-.23,.11-.42,0-.53-.19-.12-.21-.14-.52,.02-.7,.46-.45,1.22-.19,1.81-.24,6.1,.14,12.2,.25,18.29-.04,4.43-.23,8.85,.03,13.28-.07Z"/><path class="cls-15" d="M11.3,44.34c-.24-8.99-.44-18.21-.52-27.28-.07-4.06,.12-8.15,.48-12.18,0-.19,.12-.42,.34-.42s.34,.23,.34,.42c-.17,2.84-.49,5.67-.46,8.53-.23,9.78,.55,19.54,.39,29.32-.08,.51,.28,2.02-.57,1.62Z"/><path class="cls-15" d="M44.17,44.14c-1.01-9.7,0-19.74,.42-29.51,.15-3.27,.27-6.62-.03-9.87-.02-.16,.06-.37,.24-.4,.18-.03,.29,.14,.32,.29,.33,2.42,.33,4.88,.28,7.31-.18,5.69-.59,11.32-.79,17-.07,4.89-.14,9.81,.13,14.69,0,.29-.28,.84-.58,.47Z"/><path class="cls-15" d="M11.14,44.73c0-.21,.13-.44,.36-.45,1.72-.17,3.47-.11,5.2-.2,8.82-.5,17.69-1.04,26.51-.23,.62,.15,1.72-.16,2.03,.44,.12,.35-.13,.77-.53,.69-8.38-.81-16.79-.48-25.19-.07-2.67,.24-5.36,.05-8.04,.27-.22,0-.35-.26-.35-.45Z"/><path class="cls-15" d="M14.76,27c-.02-.14,.06-.36,.22-.38,2.44-.34,4.94-.28,7.42-.3,.92,.11,5.84-.36,4.31,.83-3.85,0-7.74-.2-11.58,.13-.19,.05-.35-.08-.37-.27Z"/><path class="cls-15" d="M14.58,41.65c-.27-8.79,.21-17.65,.29-26.47,.1-2.43-.17-4.83-.32-7.24,0-.17,.11-.37,.29-.37,.19,0,.29,.2,.29,.37,0,.48,.03,.88,.09,1.33,.59,6.31,.09,12.67-.03,18.99-.3,1.08,.76,15.4-.62,13.39Z"/><path class="cls-15" d="M32.73,8.13c-5.93-.28-11.85,.04-17.77-.08-.39,0-.39-.74,0-.74,8.51-.08,17-.03,25.51-.05,.54-.04,1.84-.09,1.39,.61-.16,.18-.4,.23-.62,.21-2.83,0-5.67,.08-8.5,.05Z"/><path class="cls-15" d="M41.53,41.3c-.4-2.44,.16-5.11,.09-7.62,.14-7.2-.35-14.4-.15-21.6,0-1.49,.1-2.98,.11-4.47,0-.18,.11-.4,.32-.4s.32,.22,.32,.4c-.07,2.38-.12,4.76-.15,7.14,0,8.61,.44,17.22,.01,25.83,.06,.33-.1,1.06-.56,.72Z"/><path class="cls-15" d="M36.96,42c-4.79-.09-9.59-.38-14.39-.34-2.45,.13-4.9,.04-7.35,.07-.17,0-.26-.19-.26-.33,.06-.6,.93-.25,1.35-.34,3.66,0,7.3-.37,10.97-.18,4.84,.15,9.78,.24,14.56,.19,1.06,1.27-4.16,.8-4.87,.93Z"/><path class="cls-15" d="M29.73,23.92c-.22-4.27,.14-8.65,.23-12.96,.01-1.1,.04-2.21,.02-3.31,0-.19,.12-.42,.34-.42s.34,.23,.34,.42c.09,2.91-.05,5.85-.18,8.74-.3,.82,.35,8.7-.74,7.54Z"/><path class="cls-15" d="M29.77,23.66c0-.2,.12-.41,.34-.42,2.87-.2,5.75-.27,8.62-.27,.94,.02,1.88,.13,2.82,.18,.21,.04,.35,.27,.35,.46,0,.29-.25,.52-.53,.46-3.75-.23-7.51-.17-11.27,.02-.21,0-.32-.25-.32-.43Z"/><path class="cls-15" d="M26.09,24.29c-.71-5.38,.54-10.99,.33-16.44,0-.51,.65-.53,.64,0-.04,1.98,.09,3.97-.09,5.94-.01,2.58-.39,5.15-.31,7.74-.14,.58,.5,3.35-.57,2.76Z"/><path class="cls-15" d="M14.8,23.72c-.03-.2,.08-.5,.31-.53,1.46-.17,2.95-.09,4.43-.17,.78,.06,8.79-.76,6.75,.97-3.67-.27-7.39-.03-11.06,.12-.23,.03-.4-.17-.42-.39Z"/><path class="cls-15" d="M26.54,40.97c-.48-4.71-.07-9.52-.17-14.26-.01-.19,.13-.43,.35-.43s.33,.24,.34,.43c.16,4.07-.21,8.09,.13,12.12-.11,.5,.36,2.87-.64,2.14Z"/><path class="cls-15" d="M29.74,40.95c-.53-3.85-.6-7.76-.33-11.62,.13-.51-.15-3.3,.82-2.5-.09,4.67-.52,9.42,.13,14.12,.01,.5-.63,.51-.63,0Z"/><path class="cls-15" d="M41.72,27.33c-3.89,.17-7.79-.54-11.67-.09-.23,.05-.39-.18-.42-.38-.03-.21,.08-.47,.31-.52,2.54-.41,5.09-.06,7.63,.06,.74,.17,5.73-.59,4.37,.92-.07,.03-.15,.02-.23,0Z"/><path class="cls-15" d="M5.24,49.37c-.38-.34-.07-.87,.32-1.05,1.35-.83,2.69-1.65,3.92-2.66,.61-.49,1.17-.94,1.69-1.49,.18-.19,.45-.16,.59,.05,.15,.21,.14,.55-.04,.74-1.71,1.86-3.89,3.18-6.06,4.44-.13,.08-.29,.06-.41-.03Z"/><path class="cls-15" d="M4.96,52.11c-.38-.77,.14-1.84-.01-2.64,.02-.36-.26-.93,.21-1.08,.21-.04,.35,.16,.37,.34,.04,.56,.45,3.96-.57,3.38Z"/><path class="cls-15" d="M51.14,52.58c-.26-.15-.27-.51-.22-.76,.21-.8,.18-1.53,.23-2.33-6.89,.21-13.77-.38-20.66-.53-5.57,.31-11.16,.24-16.74,.52-2.71,.25-5.46-.64-8.13-.13-.2,.05-.34-.16-.36-.32-.02-.19,.07-.4,.26-.44,1.44-.35,2.98-.11,4.42,.01,7.26,.25,14.54-.35,21.8-.47,6.51,.31,13.02,.62,19.53,.54,.74-.31,.52,.78,.57,1.16,.05,.6,.27,3-.7,2.77Z"/><path class="cls-15" d="M5.66,52.58c-.34-.02-.35-.65,0-.67,6.65-.36,13.34-.19,20.02-.37,6.95-.14,13.91-.31,20.86-.32,1.64-.01,3.32,.07,4.93,.4,.16,.09,.24,.29,.22,.47-.04,.3-.32,.44-.59,.35-3.45-.54-6.96-.18-10.45-.25-11.67,.03-23.34,.24-35,.38Z"/><path class="cls-15" d="M51.1,49.27c-2.1-1.46-4.15-2.97-6.27-4.38-.18-.12-.29-.38-.22-.58,.07-.2,.32-.27,.5-.17,1.17,.8,2.38,1.56,3.5,2.43,.96,.73,1.92,1.29,2.86,1.99,.17,.13,.2,.4,.1,.58-.09,.18-.31,.26-.47,.13Z"/><path class="cls-1" d="M44.59,5.13c.27,3.14,.15,6.36,0,9.51-.42,9.68-1.42,19.64-.45,29.26-.34,0-.68,.02-.94-.05-8.82-.81-17.69-.27-26.51,.23-1.63,.08-3.28,.03-4.91,.18,.19-.34,.03-1.19,.08-1.54,.15-9.78-.62-19.54-.39-29.32-.03-2.72,.26-5.41,.43-8.11,2.97-.03,5.96,.07,8.93,.13,4.85,.12,9.69-.18,14.54-.23,3.02-.25,6.26,.43,9.21-.06Zm-2.51,35.46c.43-8.61,0-17.22-.01-25.83,.03-2.38,.08-4.77,.15-7.14,0-.18-.11-.4-.32-.4-.1,0-.17,.05-.22,.12-.34-.11-.9-.09-1.21-.07-3.34,.01-6.67,0-10.01,0h0s-.09-.04-.14-.04-.11,.02-.15,.04c-5.07,0-10.14,0-15.21,.05-.19,0-.28,.17-.29,.35-.07,.07-.11,.19-.11,.28,.15,2.41,.42,4.81,.32,7.24-.08,8.82-.56,17.68-.29,26.47,.19,.28,.34,.24,.44-.03,.04,.06,.1,.1,.19,.1,2.45-.03,4.9,.06,7.35-.07,4.8-.05,9.6,.25,14.39,.34,.67-.12,5.3,.28,4.99-.72,.13-.18,.17-.5,.13-.69Z"/><path class="cls-1" d="M41.55,24.06c.02,.8,.04,1.6,.05,2.4-1.12-.24-3.52,.06-4.02-.05-2.54-.12-5.09-.47-7.63-.06-.23,.05-.34,.31-.31,.52,0,.02,0,.04,.01,.06-.25,.58-.14,2.05-.24,2.41-.27,3.86-.21,7.78,.33,11.62-.83-.03-1.66-.05-2.48-.07-.05,0-.1,0-.14,0,.18-.52-.01-1.7,.06-2.04-.34-4.03,.03-8.06-.13-12.12-.01-.19-.12-.43-.34-.43-.1,0-.19,.06-.26,.14-1.09-.21-3.44-.03-4.05-.1-2.39,.02-4.8-.04-7.16,.27,.02-.83,.05-1.65,.07-2.48,3.56-.14,7.17-.37,10.74-.13,.01,.1,.02,.21,.04,.31,1.07,.59,.43-2.18,.57-2.76-.08-2.59,.3-5.16,.31-7.74,.18-1.91,.06-3.85,.09-5.77,.97,0,1.94,0,2.92,.03,.02,.97-.01,1.93-.02,2.9-.09,4.31-.45,8.69-.23,12.96,.08,.08,.15,.12,.21,.11,.04,.04,.09,.05,.15,.05,3.75-.19,7.52-.24,11.27-.02,.07,.02,.13,.01,.19,0Z"/><path class="cls-1" d="M50.23,48.65c-6.17,.04-12.32-.26-18.49-.55-7.26,.13-14.54,.72-21.8,.47-.84-.07-1.72-.18-2.59-.19,1.5-.92,2.94-1.93,4.16-3.21,2.67-.21,5.35-.02,8.02-.27,8.39-.41,16.81-.74,25.19,.07,.09,.02,.17,.01,.24-.02,1.78,1.19,3.52,2.45,5.27,3.69Z"/><path class="cls-15" d="M5.15,52.76c-.46,.01-.45-1.46,.02-1.41,.41,.04,.32,.55,.33,.85,.12,.24-.06,.61-.35,.56Z"/><path class="cls-1" d="M51.16,49.49c-.05,.71-.03,1.35-.17,2.04-1.46-.25-2.98-.31-4.45-.3-6.96,.01-13.91,.18-20.86,.32-6.68,.18-13.36,.01-20.02,.37-.07,0-.12,.03-.16,.07v-.1c.21-.53,.15-1.68,.09-2.45,.02,0,.04-.02,.06-.03,.06-.03,.11-.07,.17-.1,2.6-.43,5.29,.41,7.93,.17,5.58-.27,11.17-.21,16.74-.52,6.9,.15,13.77,.74,20.66,.53Z"/><path class="cls-14" d="M41.57,8.06c-.02,1.34-.11,2.69-.1,4.03-.1,3.68-.03,7.37,.06,11.05-.93-.05-1.87-.15-2.8-.18-2.82,0-5.63,.07-8.44,.26,.26-1.85-.03-6.24,.19-6.84,.13-2.74,.26-5.54,.19-8.32,.69,.02,1.38,.04,2.07,.07,2.83,.03,5.67-.04,8.5-.05,.11,0,.23,0,.34-.03Z"/><path class="cls-14" d="M26.42,8.02c.17,4.97-.85,10.09-.46,15.04-1.65-.39-5.87,.02-6.42-.03-1.4,.07-2.81,0-4.19,.14,.15-4.64,.31-9.27-.12-13.9-.06-.42-.08-.78-.09-1.22,3.77,.07,7.53-.03,11.28-.04Z"/><path class="cls-14" d="M26.37,27.15c.08,4.55-.3,9.17,.15,13.7-3.41-.12-6.81,.21-10.23,.21-.3,.06-.84-.1-1.14,.04,.43-2.73-.19-11.96,.05-12.82,0-.33,.01-.67,.03-1,3.7-.31,7.43-.14,11.14-.12Z"/><path class="cls-14" d="M41.61,27.34c.04,2.11,.05,4.23,0,6.35,.07,2.42-.45,5-.12,7.38-3.66,.04-7.41-.01-11.13-.1v-.02c-.63-4.56-.25-9.18-.14-13.72,3.78-.41,7.59,.26,11.39,.11Z"/></g><g class="cls-4"><path class="cls-8" d="M32.55,41.69c-.06-.07-.06-.17-.05-.26-.41,.05-.12-.54-.06-.75,.29-.8,.54-1.62,.84-2.42,.03-.1,.06-.32,.21-.26,.17,.18-.09,.46-.1,.68,.04-.05,.13-.06,.17-.01h0c.03-.07,.1-.13,.18-.1,.09,.03,.12,.15,.1,.24-.11,.74-.47,1.47-.59,2.23-.07,.19-.07,.84-.39,.61-.03,.07-.11,.12-.18,.12-.04,0-.09-.02-.12-.07Z"/><path class="cls-7" d="M32.46,42.13c-.07-.01-.11-.08-.12-.15,.1-.57,.27-1.14,.36-1.72,.01-.51,.1-1.04,.28-1.52,.02-.04,.06-.07,.1-.06,.22,.12,0,.5,0,.71,.11-.18,.1-.56,.34-.6,.09,.02,.13,.12,.12,.2,.11-.14,.18-.59,.4-.49,.05,.04,.06,.11,.05,.17-.1,.29-.18,.58-.28,.87-.25,.67-.35,1.35-.64,2-.03,.06-.1,.09-.16,.07-.04,.11-.09,.33-.25,.25-.04,.1-.07,.27-.2,.27h-.02Z"/><path class="cls-12" d="M31.46,45.64s-.02-.07-.01-.1v-.04c-.17,.26-.43,.03-.39-.22-.07-.01-.13-.08-.16-.14,0,0,0-.01,0-.02-.01,.13-.12,.28-.26,.23-.14,.13-.33-.03-.32-.19-.57,.19-.1-1.63-.13-1.95-.09,.49-.17,.98-.25,1.46-.03,.1-.11,.2-.23,.18-.13-.03-.19-.18-.17-.3,.07-.53,.17-1.07,.24-1.6-.15,.6-.3,1.21-.46,1.81-.04,.14-.21,.21-.33,.12-.89,.91,.11-3.94,.19-4.28-.29,.81-.65,1.68-.79,2.49-.15-.55,.84-5.26,1.66-4.44,.13-.19,.35-.62,.61-.4,.08,.08,.07,.2,.06,.31-.22,.58-.45,1.16-.64,1.75,.2-.51,.37-1.09,.77-1.48,.06-.04,.14-.06,.2-.01,.1-.14,.3-.32,.46-.19,.18-.49,.4-.98,.61-1.45,.03-.06,.09-.1,.15-.1,.07-.14,.29-.31,.41-.13,.09-.18,.36-.45,.5-.18,.08-.13,.26-.29,.39-.13,.17-.26,.48-.16,.43,.15,.1-.17,.37-.21,.4,.03,.16-.24,.41-.02,.31,.21,.05,.06,.07,.16,.04,.24-.24,.54-.46,1.08-.69,1.62,.08,.23-.09,.48-.12,.71,.07,.5-.22,1.01-.33,1.5-.02,.09-.07,.18-.17,.19-.02,.07-.04,.14-.05,.22-.03,.81-.32,1.61-.47,2.41-.11,.44-.13,.92-.32,1.33-.05,.16-.05,.34-.13,.49-.18,.23-.38-.06-.33-.26-.04,.04-.11,.05-.16,.03-.02,0-.03-.01-.05-.02,0,.18-.14,.35-.28,.35-.07,0-.14-.05-.18-.18Z"/><path class="cls-12" d="M34.46,36.74s-.05-.02-.07-.04c-.28,.04-.63,.11-.62-.28,.07-.15,.3-.15,.49-.14,.06,0,.11,0,.15,0,.08-.05,.18-.06,.27-.08-.01-.12-.05-.24,0-.36-.03-.18-.06-.36-.04-.54-.1-.01-.22,.02-.34,.06-.2,.06-.39,.12-.5-.03-.05-.1-.04-.25,.05-.32,.3-.13,.76-.37,1.05-.09,.08,0,.13,.08,.14,.15,.01,.25,0,.51,.03,.76,.07,.48,.1,.93-.4,.93-.06,0-.14,0-.22-.02Z"/><path class="cls-12" d="M22.14,37.39h0c-.18,.01-.35,0-.53,0-.03,.02-.06,.02-.09,.04-.05,.01-.11,0-.16-.04-.96,.27-.66-.51-.67-1.11,.06-.54-.24-1.41,.62-1.3,1.82-.1,3.65-.01,5.47,.03,.73-.15,1.46-.12,2.19-.1,.66,.02,1.31,.04,1.98-.06,.39-.02,.79-.01,1.19-.01,.49,0,.98,0,1.47-.03,.39-.04,.97-.1,1.08,.4,.07,.02,.12,.09,.15,.16,.04,.08,.03,.17,0,.25,.32,.09,.18,.51,.04,.68,.33,.58-.91,.93-.73,.18-.02,0-.03-.01-.05-.02-.03,0-.06,0-.09-.01-.02,0-.04-.02-.05-.03-.11,.14-.33,.33-.48,.15-.17,.19-.5,.64-.73,.3-.18,.22-.61,.77-.79,.27-.09,.02-.18-.03-.23-.1-.13,.21-.45,.24-.51-.05-.16,.21-.52,.42-.64,.06-.15,.14-.4,.08-.44-.13-.14,.17-.43,.35-.56,.08-.13,.16-.4,.21-.49-.01-.12,.12-.32,.19-.43,.02-.13,.17-.42,.32-.54,.06-.2,.27-.58,.19-.56-.17-.1,.03-.19-.03-.24-.11-.17,.22-.52,.37-.6,0-.03,0-.06,0-.08,0-.06,.04-.13,.07-.2,.07-.04,0-.08-.02-.11-.04-.4,.04-.8,.08-1.2,.12-.07,.06-.15,.1-.24,.08-.03,0-.06-.02-.09-.04-.02,0-.05,0-.07,.01-.06,.07-.13,.13-.23,.14-.07,.01-.13-.01-.18-.05-.21,0-.43,.05-.64,.09-.04,.08-.1,.16-.17,.2-.13,.07-.26,0-.33-.12h-.01c-.09,.11-.21,.21-.35,.16-.05-.02-.08-.05-.11-.09-.06,.15-.19,.26-.31,.26-.09,0-.18-.06-.22-.2Z"/><path class="cls-12" d="M29.4,42.23c.17-.48,.39-.95,.58-1.42,.04-.11,.15-.19,.26-.15,.36,.2-.01,.66-.04,.94,.16-.23,.24-.99,.61-.81,.09-.21,.17-.42,.25-.62-.06,.01-.13-.01-.18-.06-.07-.07-.09-.16-.09-.25-.09,.27-.32,1.13-.61,.52v.03c-.05,.1-.15,.18-.25,.16-.24,.57-.39,1.1-.53,1.68Zm-5.62,4.31c-.36,.01-.47-.45-.56-.7-.3-1.16-.61-2.31-.94-3.45-.28-1.1-.56-2.23-.77-3.34-.13-.72-.69-2.08,.4-2.29,.05-.2,.21-.59,.45-.35,.16-.17,.39,0,.39,.21,.05-.21,.35-.25,.41-.03,.04,0,.08,0,.11,0,.01,0,.03,.01,.04,.02h.15c.08-.14,.29-.14,.37,0,.18,0,.37-.01,.56-.03,.19-.02,.37-.04,.55-.03,.02,0,.03,0,.05,0,.09-.14,.3-.2,.39-.04,.1-.2,.39-.37,.51-.1,.12-.28,.56-.73,.71-.23,.13,.01,.22,.15,.22,.28,.14,0,.27-.02,.41-.02,.13-.21,.5-.44,.6-.09,.1-.06,.25-.06,.31,.05,.03,0,.07,0,.1,0,.07-.06,.2-.09,.27-.02h.09c.14-.26,.5-.42,.57-.04,.01,0,.02,0,.03,0,.07-.05,.14-.08,.23-.06,.03,0,.05,.02,.07,.03,.07,0,.15-.01,.23-.02,.04-.03,.08-.04,.13-.05,.05-.01,.09,0,.13,.03,1.54-.06,3.11-.04,4.63,.05,.04-.06,.1-.1,.18-.08h0c.07-.04,.17-.03,.24,.04,.24,.36-.25,.73-.44,1.02-.32,.43-.68,.1-.48-.34-.44,.05-.89,0-1.34,0-.15,.64-.48,1.23-.7,1.85,.25,.26-.04,.64-.11,.92-.64,1.46-1.12,2.97-1.48,4.52,.03-.03,.07-.06,.11-.07,.08-.03,.15,0,.2,.04,.03-.04,.07-.08,.11-.1,.11-.05,.22-.01,.28,.08,.03-.04,.07-.07,.12-.09,.1-.05,.2,.02,.25,.1,.04-.04,.1-.07,.17-.07,.04,0,.08,.01,.11,.04,.43-.34,.42,.41,.41,.67,.04-.24,.34-.4,.47-.13,.11,.24-.06,.57-.08,.79-.07,.26-.02,.54-.13,.79-.11,.25-.44,.18-.53-.05-.46-.01-.91,.06-1.36,.13-.48,.08-.96,.16-1.46,.13-.77-.05-1.55-.03-2.32,0-.9,.03-1.8,.05-2.69-.04-.15-.04-.28,.07-.41,.08h0Z"/></g><g class="cls-11"><path class="cls-15" d="M25.2,46.79c-.6,0-1.2-.06-1.8-.02-.09,.02-.15-.07-.16-.15-.03-.24,.23-.22,.39-.22,1.51,.01,3.02,.04,4.53-.05,1.45-.06,2.91-.18,4.36-.1,.08,.02,.19,.11,.18,.21-.04,.18-.25,.19-.4,.18-1.24-.04-2.47,.02-3.7,.07-.96,.04-1.91,.09-2.87,.09-.17,0-.35,0-.52,0Z"/><path class="cls-15" d="M20.85,35.19c-.07,0-.15-.02-.22-.01-.21-.05-.12-.35,.11-.28,1.87,.02,3.76-.07,5.65-.16,.38-.02,.77-.04,1.15-.05,.06,.02,.13,.02,.2,.02,.1,0,.21-.02,.32-.03,.04,0,.08,0,.12-.02,2.21-.09,4.42-.14,6.6,.03,.19,.12-.02,.3-.18,.3-2.58-.09-5.17-.01-7.76,.08-1.81,.06-3.63,.12-5.44,.12h-.56Z"/><path class="cls-15" d="M28.13,34.66s-.02,0-.03,0c.01,0,.02,0,.03,0Z"/><path class="cls-15" d="M20.62,37.38c-.34-.69-.03-1.54-.02-2.28,.03-.28,.37-.2,.33,.06-.06,.58-.12,1.15-.11,1.73,0,.17-.06,.37-.2,.48h0Z"/><path class="cls-15" d="M20.6,37.41c0-.1,.06-.21,.17-.22,1.05-.08,2.1-.22,3.16-.26,3.7-.2,7.4-.27,11.1-.29-.08-.43-.06-.87-.07-1.31,0-.13,.04-.3,.16-.37,.29-.04,.25,.43,.26,.63-.02,.44,.06,.86,.08,1.3,0,.11-.09,.23-.21,.22-.43,0-.86,0-1.29,0-.56,0-1.11-.01-1.67,0-2.73,.17-5.48,.05-8.21,.27-.86,.06-1.72,.1-2.58,.21-.09-.01-.21,.01-.32,.03-.1,.02-.2,.03-.29,.03-.15,0-.27-.05-.3-.22Z"/><path class="cls-15" d="M23.16,46.34c-.21-.76-2.84-9.16-1.84-8.86,.63,2.91,1.27,5.84,2.14,8.74,.04,.14-.06,.25-.16,.25-.06,0-.12-.04-.14-.14Z"/><path class="cls-15" d="M32.61,46.32c-.16-.07-.08-.28-.06-.4,.33-2.41,.77-4.8,1.54-7.11,.23-.62,.35-1.29,.57-1.91,.04-.1,.19-.21,.29-.11,.1,.07,.07,.38,0,.52-.37,1.42-.88,2.78-1.21,4.2-.4,1.56-.61,3.13-.94,4.69-.01,.07-.07,.13-.14,.13-.01,0-.03,0-.04,0Z"/><path class="cls-15" d="M23.76,40.67c.02-.06,.07-.11,.13-.09,.06,.02,.09,.11,.07,.17-.1,.31-.23,.69-.39,.94,.04-.34,.1-.69,.19-1.02Z"/><path class="cls-15" d="M24.9,40.64c-.24,1.19-.73,2.48-1.16,3.61,.2-1.25,.61-2.47,1.16-3.61Z"/><path class="cls-15" d="M24.34,45.29c.32-1.47,.85-3,1.59-4.28-.44,1.45-.95,2.91-1.59,4.29,0,0,0,0,0,0Z"/><path class="cls-15" d="M26.94,42.12c-.24,1.02-.7,2.06-1.18,2.94,.24-.98,.55-2.24,1.18-2.94Z"/><path class="cls-15" d="M27.55,43.46c.06,.54-.29,1.11-.46,1.57,.07-.52,.08-1.2,.46-1.57Z"/><path class="cls-15" d="M28.12,44.94c-.87-1-1.85-1.91-2.6-3.01-.1-.12-.17-.27-.15-.43,.11,0,.21,.11,.27,.2,.73,1.15,1.88,2.01,2.48,3.24h0Z"/><path class="cls-15" d="M24.63,42.76c-.29-1.09,1.98,2.25,1.93,2.48-.66-.81-1.3-1.63-1.93-2.48Z"/><path class="cls-15" d="M25.08,45.14c-.13-.17-1.3-1.34-.83-1.33,.35,.36,.61,.88,.83,1.33h0Z"/><path class="cls-15" d="M27.81,34.7c.05,0,.1,0,.16-.01-.03,.02-.06,.03-.09,.03-.03,0-.05,0-.07-.02Z"/><path class="cls-15" d="M27.87,34h0s-.02,0-.03,0c0,0,.02,0,.02,0Z"/></g><g class="cls-6"><path class="cls-2" d="M29.24,17.46s-.08-.02-.11-.04c-.12,.06-.26,.07-.4-.01-.06-.04-.12-.09-.16-.15h0c-.19,.09-.39,.06-.53-.1-.04-.04-.07-.08-.09-.13-.05-.02-.1-.05-.13-.07-.05-.04-.1-.1-.13-.16-.16,.01-.32-.06-.42-.19-.07-.08-.11-.17-.14-.26-1.21,.46-1.94-4.3-1.1-4.85h0c.08-.24,.18-.47,.28-.69,.06-.12,.14-.27,.25-.34,.17-.32,.19-.76,.55-.92,.08-.17,.13-.38,.33-.45,.08-.38,.53-.54,.61-.07,.02,.23-.11,.45-.12,.67,.17,.1,.2,.31,.24,.5,.04,.2,.07,.4,.09,.6,.32,.14,.32,.57,.4,.86,.1,.8,.32,1.59,.26,2.4,.7-.3,1.44-.4,2.19-.37,.34,0,.77,.04,.91,.4,.63,.1,1.56-.01,1.9,.65,.2,.52-.26,.98-.78,.83-.27,.21-.43,.78-.87,.6-.33,.28-.61,1.04-1.13,.83-.03,.01-.05,.02-.08,.02-.1,.31-.53,.37-.71,.1-.17,.04-.39,.1-.55,0-.14,.17-.32,.39-.57,.33Z"/><path class="cls-2" d="M26.31,17.46c-2.23,.08-3.31-1.44-5.17-2.08-.1-.07-.16-.18-.23-.28-.08-.05-.16-.13-.2-.22-.19-.35,0-.97,.48-.89,.21-.1,.44-.1,.66-.14,.29-.22,.71-.1,1.05-.21,.54-.24,1.73-.48,2.24-.13,.35,.02,.58,.36,.52,.7,.02,.02,.04,.03,.05,.05,.4,0,.59,.51,.47,.85,.12,.23,.21,.48,.13,.73,.81,.05,1.42,1.05,.49,1.42-.07,.14-.21,.25-.36,.25-.05,0-.09-.01-.14-.04Z"/><path class="cls-2" d="M33,23.72s-.07-.06-.1-.09c-.38,.09-.79-.1-1.15-.18-1.01,.18-2.5-.51-1.81-1.7-.03-.22,.03-.45,.17-.6-.23-.24-.21-.64-.06-.92-.01-.04-.02-.09-.03-.14,0-.04,0-.09,0-.13-.77,.17-.46-.85-.23-1.21,.34-.49,.36-1.35,.91-1.63,.06-.09,.13-.17,.21-.22,.07-.04,.17-.06,.25-.04,.17-.4,.72-.33,.81,.09,.64,.25,.26,1.12,.33,1.65,.03-.03,.07-.05,.1-.07,.17-.11,.37-.03,.49,.11,.13-.05,.26-.06,.39,.03,.13-.08,.26-.16,.41-.18,.1-.01,.2,.05,.28,.12,.45-.33,.99,.21,.77,.69-.14,.37-.57,.42-.85,.67-.51,.33-.89,.98-1.48,1.14-.04,.03-.08,.07-.13,.1-.04,.03-.07,.06-.11,.09,.42,.26,1.05,.44,1.18,.97,1.08,.39,.89,2.47-.36,1.46Z"/><path class="cls-2" d="M24.29,23.53s.09-.07,.13-.1c-.03-.02-.06-.04-.09-.07-.06,0-.11,.01-.17,.02-.03,0-.06,0-.09,0,.09,.03,.16,.08,.22,.15Zm.07,9.65c-.08-.03-.15-.08-.2-.15-.11,.08-.22,.13-.36,.12-.18,.09-.38,.05-.51-.09-.53-.73,.43-1.51,.81-2.1-.14,0-.26-.08-.36-.18-.1,.05-.21,.05-.34,.01-.02,0-.04-.01-.06-.02-.25,.33-.75,.36-.95-.04-.09,0-.18,0-.26-.03-.19,.02-.35-.06-.46-.2-.57-.1-.69-1.09-.21-1.38,.43-.18,.8-.6,1.26-.65,.3-.22,.75-.58,1.09-.26,.13-.07,.3-.07,.43,.02,.05,0,.11,0,.16,.02,.1-.12,.21-.23,.35-.31,.04-.02,.08-.04,.12-.05-.14-.06-.27-.13-.41-.2-.61,.62-1.74-1.28-1.63-1.84-.16,.01-.31-.04-.41-.16-.23,.14-.51,0-.62-.23-.11-.22-.11-.54,.04-.74,.39-.54,.62-1.19,1.06-1.71-.3-.01-.66,.04-.89-.18-.36,.01-.82-.03-.95-.44h-.04c-.3,.11-.65,.22-.86-.08-.51-.17-.52-1.05,0-1.22,.22-.04,.43-.1,.64-.12,.22-.18,.53-.17,.79-.25,.46-.46,1.2-.55,1.8-.75-.68-.46-1.78-2.65-.19-2.41,.73,.04,1.82,.35,1.95,1.19,.12,.11,.23,.24,.34,.37,.03,0,.05,0,.08,.02,.1,.05,.17,.12,.23,.21,.46,.37,.75,1.3,.22,1.71,.03,.17,0,.39-.15,.49,.08,.2,.07,.42,.06,.64,0,.06-.02,.12-.03,.18,.51,.88-.64,2.02-1.24,2.59,.04,.02,.08,.05,.12,.07,.35-.19,.58,.17,.82,.37,.56-.07,.81,.61,1.11,.97,.26,.41,.69,.89,.41,1.4,.09,.33,.14,.71-.1,.98,0,.05-.02,.11-.03,.16,.1,1.24-.15,2.58-1.02,3.52-.21,.3-.55,.72-.94,.44-.17,.19-.4,.39-.67,.29Z"/><path class="cls-2" d="M31.16,32.46c-.12-.05-.2-.15-.26-.25-.26,0-.48-.17-.66-.33-.8-.13-1.65-2.82-.54-2.97-.02-.22,.12-.39,.2-.57-.1-.28,0-.57,.01-.85-.45-.54-.12-1.22,.28-1.68,.17-.31,.4-.61,.79-.62,.22-.76,1.23-.75,1.08,.15-.21,.64-.57,1.22-.82,1.85,0,.03,.01,.06,.01,.09,.56-.05,1.33-.53,1.79-.07,.13-.03,.27-.05,.4-.06,.11,0,.2,.02,.28,.07,.41-.02,.82-.1,1.22-.16,.22,.22,.51,.36,.82,.46-.08,.21-.14,.43-.19,.65-.13,.1-.28,.15-.45,.15-.03,.05-.07,.09-.11,.13-.18,.5-.79,.89-1.26,1.06-.1,.09-.22,.18-.36,.21-.15,.04-.29-.03-.39-.14-.42,.13-.93,.6-1.35,.25l-.11,.03c-.08,.03-.17,.05-.25,.08,.11,.61,.97,2.52-.12,2.52h-.04Z"/><polygon class="cls-2" points="35.7 27.28 35.71 27.28 35.71 27.29 35.7 27.28"/><path class="cls-2" d="M35.64,27.25s.01,0,.02,0c-.13-.07-.25-.15-.38-.24h.09c.1,.09,.22,.18,.34,.27-.02,0-.05-.02-.07-.03Z"/></g><g class="cls-13"><path class="cls-15" d="M27.36,34.79c-.79-2.82,.89-5.64,.63-8.47-.35-3.17-1.61-6.73-.6-9.82,.12,3.32,.65,6.58,1.17,9.82,.1,1.93-.47,3.85-.79,5.72-.19,.86-.14,1.73,.09,2.56,.13,.36-.4,.63-.51,.19Z"/><path class="cls-15" d="M27.07,17.14c-2.99-2.13-1.9-6.76,.74-8.72-.47,1.4-1.65,2.73-1.94,4.24-.25,1.25,.18,2.47,.91,3.44,.16,.2,.31,.32,.52,.44,.29,.16,.13,.77-.22,.6Z"/><path class="cls-15" d="M26.88,16.81c-.04-.24,.16-.42,.39-.4,1.13-.52,1.57-1.98,1.53-3.13-.04-1.67-1.39-3.26-.93-4.85,.96,2.56,2.59,6.01,.13,8.26-.26,.25-1,.69-1.12,.12Z"/><path class="cls-15" d="M28.22,17.84c-.48-.16-1.29-.83-.9-1.36,.35-.22,.43,.34,.63,.48,.55,.45,1.37,.37,2.03,.2,1.65-.45,3-1.75,4.46-2.37-1.36,1.83-3.85,3.53-6.22,3.05Z"/><path class="cls-15" d="M33.82,15.08c-1.34-.52-2.73-1.59-4.19-.85-.21,.11-.57,.37-.72,.06-.06-.33,.23-.55,.5-.66,2.06-1.1,3.87,.99,5.86,1.12-.31,.34-.98,.45-1.45,.32Z"/><path class="cls-15" d="M25.65,17.68c-2.32,.15-4.28-1.75-5.52-3.44,1.06,.57,2.06,1.27,2.95,2.08,.91,.69,2.09,.74,3.17,.68,.44,.06,1.08-.54,1.24-.09,.09,.82-1.27,.74-1.84,.77Z"/><path class="cls-15" d="M20.55,14.59c-.24-.07-.56-.19-.67-.39,.47-.1,.96-.28,1.43-.35,1.05-.53,2.17-.89,3.36-.78,.22,.01,.46,.2,.42,.43-.2,.42-.8,.12-1.14,.23-1.24-.07-2.2,1.06-3.41,.86Z"/><path class="cls-15" d="M27.75,22.27c-.37-.96,1.21-1.4,1.94-1.35-.1,.16-.44,.28-.61,.44-.29,.22-.59,.42-.82,.69-.11,.19-.3,.43-.51,.22Z"/><path class="cls-15" d="M27.23,22.31c-.48-.25-.98-.44-1.5-.56,.41-.41,2.12-.62,1.92,.37-.06,.18-.25,.29-.43,.2Z"/><path class="cls-15" d="M27.81,29.51c-.24-.74,1.12-.92,1.54-.73-.41,.26-.81,.52-1.18,.83-.13,.1-.29,.04-.37-.1Z"/><path class="cls-15" d="M27.5,29.66c-.25-.09-.47-.62-.78-.86,.21-.21,.65-.23,.9-.03,.34,.21,.38,.91-.11,.89Z"/><path class="cls-15" d="M29.59,21.23c-.3-.2-.08-.57,.04-.81,1.06-1.86,3.7-2.58,5.53-1.66-1.85,.24-4.12,.23-5.13,2.08-.07,.19-.18,.52-.44,.39Z"/><path class="cls-15" d="M30.18,21.69c-.36-.15-.6-.51-.62-.89-.06-.41,.47-.53,.53-.1,.04,.48,.67,.48,1.04,.45,1.47-.02,2.18-1.12,3.09-2.06,.32-.25,.71-.38,1.1-.45-.33,.45-.86,.91-1.21,1.4-.8,1.25-2.45,2.15-3.93,1.65Z"/><path class="cls-15" d="M29.19,20.72c-.18-1.25,.15-2.86,1.38-3.46,.25-.13,.52-.23,.78-.31-.17,.3-.59,.64-.81,.96-.49,.56-.78,1.4-.85,2.13-.01,.22,0,.38,.03,.58,.07,.41-.47,.55-.54,.1Z"/><path class="cls-15" d="M32,18.84c-.32-.2-.02-.57-.02-.83,0-.44-.13-.85,.03-1.27,.57,.19,.77,2.19-.01,2.09Z"/><path class="cls-15" d="M32.52,24.07c-1.37-.29-3.37-.82-3.25-2.57,.04-.27,.02-.84,.42-.77,.34,.16,.1,.56,.11,.82,0,.21,.04,.43,.13,.6,1.14,1.38,3.31,1.31,4.97,1.58-.62,.41-1.6,.5-2.37,.35Z"/><path class="cls-15" d="M34.6,23.89c-1.12-.24-1.22-1.96-2.39-2.21-.1-.03-.23-.04-.33-.03h-.02s0,0,0,0c-.38,.19-.55-.49-.21-.61,.13-.05,.26-.07,.39-.06,1.51,.18,1.93,1.92,2.9,2.84-.04,.08-.24,.05-.34,.06Z"/><path class="cls-15" d="M29.16,28.92c-.24-.38,.23-.69,.47-.92,1.82-1.43,4.61-1.81,6.55-.52-1.12,.29-2.22-.27-3.35-.09-.94,.08-1.88,.48-2.68,1-.37,.11-.62,.9-1,.53Z"/><path class="cls-15" d="M30.91,30.18c-.6-.05-2.34-1.13-1.43-1.69,.23,0,.24,.26,.34,.39,1.16,1.13,3.17,.91,4.43,.09,.58-.41,.82-1.17,1.56-1.35-.59,2.03-2.87,3.09-4.91,2.56Z"/><path class="cls-15" d="M29.15,28.65c-.31-.17-.23-.59-.2-.88,.22-1.63,1.63-3.5,3.36-3.22-1.27,.71-2.58,1.7-2.83,3.23-.08,.3,.05,.82-.34,.87Z"/><path class="cls-15" d="M29.77,28.62c-.28-.23,.2-.64,.41-.78,.49-.38,.93-.87,1.2-1.41,.25-.65,.28-1.36,.84-1.83,.16,.6-.11,1.32-.29,1.91-.26,.74-.82,1.35-1.42,1.85-.2,.17-.47,.4-.74,.26Z"/><path class="cls-15" d="M31,32.86c-1.66-.45-2.65-2.41-1.98-4.01,.27-.49,.67,.08,.43,.43-.35,.97,.14,1.97,.9,2.54,.72,.51,3.08,1.25,.65,1.04Z"/><path class="cls-15" d="M31.41,32.78c-.18-.68,.34-1.52-.16-2.13-.18-.26-.69-.26-.58-.68,.04-.14,.18-.28,.33-.22,.65,.22,1.02,.85,1.07,1.52,.02,.38-.01,2.52-.66,1.51Z"/><path class="cls-15" d="M25.93,21.93c-1.93-2.56-4-.63-6.28-.04-.21,0-.54,.05-.68-.06,1.23-.72,2.5-1.45,3.86-1.86,1.36-.36,2.62,.43,3.44,1.46,.24,.23-.04,.78-.35,.5Z"/><path class="cls-15" d="M23.58,23.62c-1.51-.21-3.41-.52-4.28-1.88,1.94,.36,5.23,2.54,6.6,.2,.06-.21-.03-.59,.29-.61,.17,0,.26,.18,.26,.33,.04,1.48-1.61,2.11-2.87,1.97Z"/><path class="cls-15" d="M26.17,21.63c-.37-.27,.09-.69-.06-1.04-.15-.83-.72-1.49-1.36-1.96-.88-.7-2.21-.37-3.05-1.02,1.96-.65,4.29,.32,4.83,2.4,.13,.43,.33,1.69-.36,1.62Z"/><path class="cls-15" d="M23.48,20.39c-1.31-.24-1.46-1.93-1.52-3.01,.93,.04,.54,1.38,.95,1.92,.14,.23,.38,.4,.65,.43,.33,.07,.28,.7-.08,.66Z"/><path class="cls-15" d="M22.47,26.08c-2.19-.27,.79-.56,1.37-.88,1.16-.55,2-1.67,2.12-2.95,.04-.29-.15-.81,.26-.88,.17,0,.26,.18,.26,.33,.19,2.18-1.73,4.59-4.01,4.37Z"/><path class="cls-15" d="M21.87,25.82c-.51-.86,.7-3.07,1.71-2.83,.41,.51-.38,.63-.61,.92-.33,.31-.59,.76-.65,1.19-.04,.26-.07,.79-.45,.72Z"/><path class="cls-15" d="M20.56,29.88c1.02-1.02,2.27-2.42,3.89-2.33,.9,.06,1.82,.31,2.58,.81,.14,.09,.19,.28,.13,.44-.05,.13-.21,.25-.35,.16-.6-.44-1.35-.55-2.06-.64-.68-.06-1.38,.06-1.94,.45-.69,.47-1.31,1.31-2.24,1.12Z"/><path class="cls-15" d="M21.99,31.17c-.67-.19-1.1-.74-1.5-1.25,.15-.12,.49-.05,.69,.02,1.26,.93,2.91,.74,4.25,.13,.54-.23,.85-.62,1.28-.96,.1-.05,.28-.07,.33,.06-.31,1.79-3.51,2.44-5.05,2Z"/><path class="cls-15" d="M26.96,28.38c.03-1.48-.87-2.8-2.22-3.35,1.36-.67,2.35,1.06,2.63,2.22,.02,.41,.35,1.16-.1,1.4-.16,.03-.29-.13-.3-.27Z"/><path class="cls-15" d="M24.17,27.98c-.68-.2-1.69-1.15-1.33-1.8,.43,.24,.73,.68,1.09,1,.12,.08,.25,.13,.39,.17,.32,.12,.21,.74-.15,.63Z"/><path class="cls-15" d="M23.09,33.35c.74-.52,1.86-.5,2.55-1.18,.85-.82,1.11-2.07,1.29-3.17,.05-.43,.59-.31,.52,.09-.07,2.3-1.69,5.17-4.36,4.27Z"/><path class="cls-15" d="M23.23,33.23c-.24-.96,.12-2.28,1.08-2.73,.35-.17,.52,.44,.22,.6-.16,.07-.28,.18-.39,.3-.35,.41-.37,.95-.48,1.44-.05,.16-.23,.49-.43,.4Z"/><path class="cls-15" d="M25.98,21.67c-.63-.39-1.01-1.06-1.13-1.78,.02-.05,.09,.04,.13,.04,.52,.18,.86,.66,1.23,.99,.19,.11,.27,.34,.19,.55-.06,.16-.26,.3-.42,.19Z"/><path class="cls-15" d="M24.8,22.32c-.13-.07-.36-.15-.41-.27,.39-.42,2.34-.85,1.73,.22-.39,.19-.91,.24-1.32,.05Z"/><path class="cls-15" d="M24.26,24.17c.41-.58,.78-1.28,1.44-1.59,.31-.04,.37,.37,.2,.56-.44,.42-1.09,.93-1.64,1.03Z"/><path class="cls-15" d="M29.88,21.1c-.62-.84,1.35-1.25,1.85-1.2-.45,.38-1.27,1.33-1.85,1.2Z"/><path class="cls-15" d="M29.56,20.8c-.55-.36,.18-1.42,.54-1.64-.09,.44,.08,1.65-.54,1.64Z"/><path class="cls-15" d="M30.55,22.45c-.24-.1-.43-.27-.62-.44l.02,.02c-.42-.2-.24-1.06,.26-.77,.43,.52,2.02,1.77,.34,1.2Z"/><path class="cls-15" d="M27.24,16.57c-.5-.71-.22-2.03,.08-2.73-.03,.88,.36,1.83,.16,2.67-.05,.08-.16,.12-.25,.07Z"/><path class="cls-15" d="M27.7,16.4c.09-.67,1.11-.35,1.61-.52h-.03c.27,0,.67-.1,.88-.02-.48,.34-2.24,1.55-2.46,.53Z"/><path class="cls-15" d="M26.45,16.96c-.44-.2-.92-.62-1.12-1.03,.66,.05,1.34,.36,1.99,.28,.44-.04,.51,.73,.09,.81-.32,.06-.66,.06-.96-.07Z"/><path class="cls-15" d="M29.36,28.11c-.12-.61,.46-1.19,.9-1.56,.05,0,0,.08-.01,.11-.15,.32-.32,2.17-.89,1.44Z"/><path class="cls-15" d="M30.55,29.26c-.45-.06-1.39-.02-1.26-.7,.05-.19,.21-.33,.4-.27,.69,.21,1.34,.53,2.01,.79-.28,.18-.78,.18-1.15,.18Z"/><path class="cls-15" d="M30.47,30.82c-.42-.34-1.23-1.05-.79-1.61,.09-.05,.22,.02,.29,.07,.34,.39,.48,1.06,.5,1.54Z"/><path class="cls-15" d="M26.77,28.17c-.44-.12-.58-1.09-.59-1.46,.39,.25,1.16,1.09,.59,1.46Z"/><path class="cls-15" d="M25.83,29.59c-.54-.05-1.13-.17-1.56-.38,.71-.64,1.65-.61,2.54-.53,.24,0,.37,.26,.37,.46-.02,.7-.88,.43-1.35,.45Z"/><path class="cls-15" d="M25.09,31.6c.36-.65,.7-1.64,1.48-1.8,.27,.02,.25,.33,.15,.52-.43,.49-1.08,1.05-1.63,1.28Z"/></g></g></svg>