<?xml version="1.0" encoding="UTF-8"?><svg id="Layer_1" xmlns="http://www.w3.org/2000/svg" xmlns:xlink="http://www.w3.org/1999/xlink" viewBox="0 0 56.69 56.69"><defs><style>.cls-1{fill:#51b848;}.cls-2{fill:#fff;opacity:0;}.cls-3{clip-path:url(#clippath);}.cls-4{fill:none;}.cls-5{fill:#010101;}</style><clipPath id="clippath"><rect class="cls-4" x="12.55" y="2.38" width="30.46" height="45.77"/></clipPath></defs><g id="Støtte"><rect class="cls-2" x="1.42" y="1.42" width="53.86" height="53.86"/><g class="cls-3"><path class="cls-1" d="M34.63,9.96c0,.22-.15,.53-.41,.53h-.08c-.37,0-.74-.09-1.07-.25-.12,.14-.3,.23-.5,.23-.04,0-.07,0-.11,0-.63-.17-1-.81-1.37-1.31-.03-.06-.06-.12-.07-.18-.4-.31-.76-.82-.62-1.2-.03,0-.07,0-.11-.02-.07,.15-.2,.28-.35,.28-.07,0-.14-.03-.22-.11-.09-.15-.14-.32-.17-.5-.44-.47-.57-1.35-.32-1.98,0-.06,.01-.12,.03-.18,0-.54,.16-1.09,.42-1.56,.04-.11,.12-.16,.19-.18,0-.01,0-.02,0-.03h0c.09-.36,.21-.66,.39-.77,0,0,.01-.02,.02-.03,.04-.03,.1-.03,.15-.02,.04,0,.07,0,.11,.03,.13,.11,.15,.3,.1,.46,.04,0,.08,.03,.12,.06,.2,.46,.46,.99,.59,1.54,.26,.72,.41,1.58,.05,2.19,.06,0,.12,.01,.19,.03,.21-.07,.5,.13,.78,.39h0c.21,.14,.39,.31,.53,.46,.34,.29,.67,.81,.82,1.01,.11,.11,.18,.35,.18,.56,.09,.01,.19,.03,.28,.04,.27,0,.42,.28,.42,.53Z"/><path class="cls-1" d="M28.74,7.85c.72-.09,.84,.75,.23,1.2-.18,.11-.48,.25-.76,.3-.17,.08-.36,.11-.56,.11-.11,0-.21,0-.31-.03-.09-.01-.2-.03-.31-.04h0c-.12,.04-.24,.05-.37,.05-.19,0-.38-.04-.57-.11-.62-.33-.04-.85,.57-1.25,.23-.45,.81-.88,1.33-1.03,.07-.03,.14-.06,.2-.08,.08-.03,.16-.01,.23,.03,.09,0,.17,.02,.23,.06h0c.17,.01,.3,.11,.36,.33,.02,.18-.06,.37-.22,.43-.01,.02-.03,.03-.04,.04Z"/><path class="cls-1" d="M23.68,15.67c.46,.73,.69,2.02,.53,2.87h0c.05,.81-.16,1.65-.7,2.17-.11,.33-.25,.64-.49,.83-.06,.14-.12,.28-.18,.41-.1,.22-.29,.52-.54,.6-.05,.14-.16,.25-.32,.25-.08,0-.16-.04-.22-.09,0,.07,0,.13,0,.2-.29-.41-.5-.86-.66-1.33,0,.14,.02,.27,.02,.4-.32-.36-.52-.84-.6-1.34-.4-.71-.57-1.56-.53-2.38-.41-1.48,.14-3.15,.56-4.6,0-.02,.02-.04,.04-.06,.06-.33,.14-.65,.21-.97,.05-.2,.24-.39,.46-.31,.17,.06,.25,.24,.26,.42,.14,.08,.25,.26,.34,.37,.1,.13,.19,.26,.28,.39,.63,.48,1.24,1.31,1.56,2.15h0Z"/><path class="cls-1" d="M21.29,23.98c.69-.18,.18,2.8-.02,3.16-.36,.5-.61,1.12-1,1.62-.18,.23-.36,.83-.74,.62-.25,.25-.42,1.01-.85,.82-.25,.26-.43,1.19-.89,.87-.08,.15-.17,.31-.29,.42-.04,.04-.11,.05-.16,.04-.04,.04-.1,.07-.15,.07-.01,0-.02,0-.03,0-.2-.04-.21-.27-.22-.44,.05-.43,.05-.82,.13-1.25-.2-.81,.17-1.7,.39-2.48,.07-.17,.15-.44,.36-.47,.35-.62,.73-1.25,1.21-1.79,.07-.07,.18-.12,.28-.05,.05,0,.1,0,.15,.04,0,0,0,0,0,0h0c.13-.15,.34-.45,.55-.26,.11-.11,.29-.14,.39,0,.16-.12,.41-.11,.5,.09,.1-.16,.01-.65,.07-.92-.27,.13-.64,.17-.96,.19h0c-.24,.14-.52,.21-.79,.21-.07,0-.13,0-.19-.01-.01,0-.02,0-.04,0-.14,.05-.28,.07-.43,.07-.1,0-.19,0-.28-.02-.26-.02-.52-.06-.78-.12-.06,.01-.11,.02-.17,.02-.12,0-.24-.03-.35-.08-.11-.06-.23-.11-.34-.18-.91-.33-1.71-.89-2.15-1.77-.63-.46-1.42-1.08-1.37-1.53-.14-.02-.24-.09-.29-.2,.05-.02,.1-.05,.14-.07,.05-.03,.09-.06,.14-.09,.09-.06,.17-.13,.25-.21,.03-.04,.07-.08,.09-.12,.15,.02,.3,.06,.43,.12,.05-.05,.11-.08,.18-.1,.6-.22,1.25-.34,1.88-.24,.34,.06,.69,.13,1.02,.24,0-.01,0-.03,.02-.04,.2-.26,1-.02,1.83,.41,.25,.07,.42,.12,.49,.17,.36,.12,.65,.38,.85,.71,.71,.59,1.06,1.18,.31,1.39-.88-.32-1.86-.57-2.75-.95,.02,.11,0,.22-.05,.32,1.25,.28,2.54,.63,2.08,.74,.03,.06,.05,.14,.02,.22,0,.02,0,.03-.01,.06,.33-.1,.66-.19,.94-.39,.23-.16,.5,.05,.58,.27,.01,.04,.02,.08,.02,.12,.03,.05,.07,.11,.09,.2,.03,.23-.04,.4-.17,.53,.03,0,.06,.02,.09,.04Zm-2.04-1h0c-.11,0-.24,0-.38,0-.13,0-.26-.02-.39-.04,.27,.08,.51,.16,.67,.23,.02-.07,.06-.14,.11-.18Z"/><path class="cls-1" d="M40.08,13.14c.14,0,.28,.05,.41,.15-.11,.17-.25,.29-.42,.39-.04,.02-.07,.04-.11,.07-.01,0-.03,.01-.04,.02h0c-.03,.1-.08,.18-.16,.22h0c-.21,.23-.43,.44-.68,.64,0,.02-.02,.04-.03,.06-.11,.1-.22,.2-.33,.31,.2,.38-.35,.75-.93,.96-.15,.25-.38,.52-.63,.52h0c-.16,.11-.33,.21-.51,.27-.28,.28-.58,.48-.88,.25-.13,.08-.24,.2-.38,.26,.14,.16,.26,.39,.37,.51,.04,.09,.15,.23,.28,.41,.48,.35,.68,1,.92,1.52,.03,.07,.03,.14,.03,.21,.14,.39,.2,.75,.03,.9,.04,.15,.07,.3,.07,.42,.11,.33,.17,.64,.14,.88,.21,.29,.17,.61-.09,.61h-.01s0,.09-.03,.14c-.04,.14-.16,.22-.28,.22-.06,0-.11-.02-.17-.06-.28-.2-.53-.44-.74-.71-.03,0-.06,0-.1,0-.14,0-.39-.11-.65-.29-.08-.01-.17-.04-.23-.05-.13,0-.32-.11-.54-.31-.53-.03-1.25-.67-1.6-1.35-.39-.41-.53-1.2-.41-1.81,.03-.56,.27-1.13,.5-1.61,.02-.08,.07-.15,.12-.2,.02-.07,.05-.14,.07-.21,.07-.16,.23-.28,.4-.18,.16,.09,.21,.33,.14,.5-.02,.04-.03,.09-.05,.13,0,0,.01,0,.02,0,.07-.1,.21-.1,.29-.02,0-.11,.03-.22,.13-.27,.11-.07,.23,0,.28,.1,.02,.01,.03,.03,.05,.04,.01,.02,.03,.03,.04,.05,.04-.05,.09-.07,.13-.07-.05-.07-.08-.16-.1-.24-.42,.21-.69-.43-.45-.73-.07-.21-.02-.44,.14-.59,.16-.14,.33-.27,.5-.39-.03,0-.07,.02-.1,.02-.11,0-.2-.06-.27-.14-.04,0-.09,0-.13-.03-.11,.26-.27,.66-.6,.66h-.04c-.3-.07-.35-.43-.33-.7-.04-.3-.04-.61,0-.91v-.02c0-.26,.06-.53,.16-.8,0-.03,.02-.06,.03-.09,.03-.1,.07-.2,.11-.3,.03-.11,.11-.26,.19-.39,.3-.68,.83-1.28,1.39-1.73,.13-.11,.31-.24,.48-.31,0,0,0,0,0,0,.05-.04,.11-.08,.16-.12,.07-.05,.15-.07,.22-.05,.14-.21,.31-.36,.49-.38,.12-.11,.27-.13,.44-.02,.17,.23,.11,.46-.03,.66,.07,.12,.09,.3,.04,.5,.07,.11,.08,.25,.07,.38,.29,.15,.18,.55,.13,.79-.18,.46,0,1.82-.74,1.64-.03,.13-.07,.32-.13,.49,.4-.19,.81-.38,1.21-.57,.17-.05,.3,0,.39,.11,.02,0,.05-.01,.07-.02,.57-.32,1.17-.55,1.4-.28,.15-.03,.29-.03,.4,0,.18-.1,.35-.14,.49-.07Z"/><path class="cls-1" d="M42.73,27.94c-.2,.09-.41,.17-.62,.24h-.01c-.21,.25-.6,.65-.95,.77-.3,.29-.6,.59-.82,.93-.04,.27-.27,.45-.4,.68,.06,.44-.41,.72-.61,1.07-.46,.56-.78,1.35-1.41,1.73-.29,.25-.6,.94-1.04,.71-.09,.09-.17,.17-.27,.25-.07,.05-.15,.04-.22,.01-.22,.18-.57,.39-.82,.14-.12,.14-.33,.2-.46,.04-.1,.1-.22,.22-.36,.27,.03,.11,.05,.22,.06,.31,.02-.04,.05-.08,.09-.12,.05-.04,.11-.05,.17-.04,.54-.94,.62,1.36,.7,1.66,.25,.1,.21,.42,.18,.63-.02,.19-.03,.47-.21,.59,0,.06,0,.12,0,.18,0,.12-.01,.25-.07,.35,0,.11,0,.21-.02,.32-.01,.07-.05,.14-.1,.18,.14,.33,.39,1.16-.22,1.08-.04,.03-.09,.04-.14,.04-.03,0-.05,0-.08-.01-.25-.15-.4-.43-.62-.64-.21,.37-.55,.01-.66-.25-.4,.14-.58-.42-.69-.71-.57-.2-.5-1.29-.42-1.78,.1-.91,.23-1.84,.56-2.69,.05-.11,.17-.14,.26-.11,0-.07,0-.12,0-.18-.33-.2-.12-.63-.05-.92-.1-.16-.09-.38-.03-.63h0s-.05-.05-.07-.08c-.1-.2-.07-.37,.03-.54-.07,.04-.15,.06-.25,.04-.02,.16-.07,.33-.24,.39,.18,.3,.57,.59,.33,.96-.06,.08-.15,.13-.25,.13-.07,0-.14-.03-.2-.09-.13-.17-.26-.34-.39-.52-.67,1.38-1.6-3.16-1.59-3.63-.16-.35,.04-.78,.09-1.15,.18-.6,.24-1.34,.69-1.8,.13-.24,.24-.64,.56-.65,.05-.11,.1-.21,.17-.29,.06-.06,.13-.08,.2-.08,.04-.04,.09-.06,.14-.07,.13-.02,.24,.07,.28,.18,.05,.03,.09,.08,.11,.14,.11,.05,.15,.15,.18,.26,.32-.03,.35,.35,.36,.58,.18,.1,.19,.32,.21,.5,.03,0,.06,0,.08,.02,.07,.02,.13,.07,.17,.14,.3-.08,.41,.29,.39,.52,.07,.1,.1,.22,.1,.35,0,.11,0,.21,0,.32,.24,.36,.02,.85,.01,1.25-.07,.28-.02,.63-.1,.91,.09-.1,.19-.2,.28-.29,.12-.14,.33-.25,.5-.12,.18-.15,.42-.46,.67-.38,.04-.03,.1-.07,.16-.08,.55-.18,1.1-.42,1.66-.61,0,0,.02,0,.03,0,.58-.24,1.37-.42,1.98-.49,.59-.27,1.35-.21,1.98-.14,.05,.01,.09,.04,.13,.07,.32,.02,.62,.07,.89,.16Zm-8.4,6.57s0-.02,0-.03c-.05,0-.1-.04-.13-.07h0s-.05,.07-.07,.11c.06,0,.1,.04,.13,.08,.03-.03,.05-.06,.08-.08Zm-.42-3.67c.03-.08,.07-.16,.08-.22-.07,0-.14-.05-.21-.15-.05,.18-.08,.46-.18,.67,.1-.11,.2-.2,.3-.3Z"/><path class="cls-1" d="M24.73,37.14c.06,.35,.32,.76,.11,1.1,0,.29,.19,.67-.09,.88,.01,.12,.03,.26-.04,.37-.04,.07-.1,.13-.17,.15,.01,.12,0,.25-.07,.34-.04,.05-.09,.09-.14,.1-.05,.07-.13,.11-.21,.11-.01,0-.03,0-.04,0-.09-.02-.15-.08-.19-.15-.07,0-.14-.02-.2-.07-.01-.02-.03-.03-.04-.05-.05,.04-.11,.06-.18,.05-.38-.28-.64-.81-1.25-1.19-.03,.04-.07,.06-.11,.07-.19,.26-.45-.04-.63-.17-.54-.05-.97-1-1.37-1.38-.25-.44-.78-.97-.63-1.5-.18-.35-.56-.71-.46-1.12-.15-.42-.92-1.11-.4-1.48,.29-.4,.92-.04,1.29,.08,.09-.25,.38-.24,.58-.15,.61,.28,1.37,.43,1.83,.93,.53,.3,.99,.69,1.37,1.18,.26,.11,.39,.46,.56,.68,.23,.25,.54,.89,.47,1.24Z"/><path class="cls-1" d="M24.47,42.96c.06,.27-.15,.48-.12,.75,.03,.25,.09,.5-.05,.73-.07,.39,.01,1-.44,1.17-.01,.02-.03,.03-.05,.05-.04,.04-.1,.06-.16,.06-.29,.3-.62,1.27-1.13,.98-.17,.18-.44,.54-.7,.31h-.03s-.05,.04-.08,.05c-.27,.2-.66,.78-.98,.38-.18,.19-.53,.42-.71,.09-.08,.05-.18,.07-.26,.02-.09-.05-.15-.15-.16-.26,0,0-.02-.01-.03-.02-.05,.17-.2,.46-.35,.46-.06,0-.12-.04-.18-.14-.1-.25,.1-.49,.17-.73-.07-.44,.34-.82,.49-1.22-.21-.2-.02-.52,.08-.74-.18-.46,.38-.86,.57-1.24,.11-.14,.28-.45,.47-.64-.07,0-.14-.04-.21-.1-.21,.09-.47,.34-.72,.34-.07,0-.14-.02-.21-.07-.03-.02-.05-.05-.07-.07-.17,.09-.36,.01-.45-.16-.1,.05-.21,.11-.33,.08-.1-.02-.17-.08-.21-.16-.27,.12-.7,.45-.87,.03h-.01c-.14,.02-.24-.05-.3-.15-.3,.1-.78,.42-.95,0-.23,.11-.59,.31-.72-.04-.32,.04-.72,.25-.99,.03h0c-.11,.07-.25,.02-.32-.08-.21-.4,.3-.85,.57-1.12-.01-.08,0-.18,.04-.25,.01-.03,.03-.05,.05-.07,.16-.61,.97-.84,1.43-1.21,.3-.16,.65-.37,1-.3,.74-.35,1.56-.42,2.37-.42,.25,.01,.58,0,.71,.25,.04,0,.07,0,.11,0,.54-.33,1.31-.14,1.82,.16,.42,.31,.25,.99-.29,.99,0,.03,0,.06,0,.08,.07,.02,.12,.08,.15,.14,.18-.11,.48-.33,.63-.06,.25-.2,.46-.48,.68-.05,.17,.4-.27,.84-.61,.99-.12,.1-.22,.25-.35,.36,.03,0,.07,.03,.1,.06,.09-.14,.26-.25,.41-.14,.05-.04,.11-.07,.17-.06,.03,0,.06,0,.08,.02l.02-.02s.08-.06,.12-.07c.02-.04,.04-.07,.07-.1,.03-.04,.07-.06,.11-.07,.02-.09,.08-.2,.18-.22,.59-.03,.29,1.04,.43,1.42h0Zm-2.24-.32c.08-.08,.17-.24,.26-.35-.12,.06-.23,.16-.35,.25,.03,.02,.06,.06,.09,.11Zm-.9,.48c.11-.1,.24-.31,.38-.46-.15,.07-.32,.19-.49,.28,.04,.04,.08,.1,.11,.18Z"/></g><path class="cls-5" d="M26.91,53.41c-.78-5.08-1.39-10.23-1.98-15.39,0-.28-.02-.56-.03-.84,0-.12-.04-.23-.1-.32-.48-4.21-.95-8.44-1.49-12.63-.1-.78-.2-1.56-.3-2.34,.04,0,.09,0,.13-.02,.26-.08,.4-.36,.49-.6,.04-.1,.07-.2,.11-.31,.99,7.69,1.94,15.4,2.76,23.11-.07,.97,1.96,9.44,.71,9.44-.08,0-.18-.04-.28-.11Z"/><path class="cls-5" d="M22.76,14.15c-.11-.12-.24-.22-.34-.35-.07-.08-.14-.17-.21-.27h0c-.07-.09-.14-.18-.2-.28-.03-.06-.08-.1-.14-.11-.28-2.4-.53-4.8-.68-7.2,.09-.65-.47-1.73,.18-2.1,.22-.04,.39,.18,.41,.38,.2,2.88,.45,5.77,.88,8.64,.07,.46,.13,.92,.19,1.38-.03-.03-.05-.06-.08-.08Z"/><path class="cls-5" d="M31.28,53.5c-.18-.07-.29-.27-.32-.45,.04-2.02,.42-4.02,.61-6.03,.49-4.43,.88-8.85,1.03-13.28,0-.28,.01-.57,.03-.85,.07,.15,.16,.29,.28,.42,.03,.03,.06,.06,.09,.08,.06,.17,.14,.32,.24,.48-.11,.18-.21,.36-.29,.55-.18,.42-.32,.84-.39,1.29-.05,.38-.05,.77-.03,1.15,0,.2,.02,.39,.07,.57,.03,.53,.18,1.1,.61,1.35-.32,4.62-.76,9.22-1.31,13.82,0,.35-.11,.89-.5,.89-.04,0-.07,0-.11-.01Z"/><path class="cls-5" d="M33.53,31.01c-.02-.13-.04-.26-.06-.39,.05-.05,.09-.11,.12-.17,.01,0,.03,0,.04,0,0,.31-.02,.61-.03,.91-.01,0-.03,.01-.04,.02,0-.12-.02-.24-.04-.36Z"/><path class="cls-5" d="M33.7,25.55c-.14-.22-.29-.44-.46-.64-.06-.07-.13-.12-.21-.16,.07-1.06,.14-2.13,.22-3.2,.04,.03,.09,.05,.14,.07,.22,.11,.46,.18,.69,.28-.08,1.29-.17,2.58-.25,3.87-.04-.07-.08-.14-.13-.22Z"/><path class="cls-5" d="M34.3,16.87s.03,.01,.04,.02c-.05-.03-.09-.04-.14-.06-.08-.05-.16-.11-.25-.16-.11-.07-.22-.13-.35-.11,.02-.33,.04-.66,.07-.98,.04,0,.07,.02,.11,.02h.02c.02,.06,.04,.12,.06,.18,.04,.11,.08,.22,.12,.33,0,.01,0,.02,0,.04,.03,.08,.08,.16,.16,.2,0,0,0,.01,0,.02,0,.14,.07,.27,.19,.34,.02,.01,.04,.03,.07,.03v.2s-.09-.05-.13-.07Z"/><path class="cls-5" d="M34.26,14.86s-.04-.07-.07-.1c.03,0,.06-.02,.08-.03,.15-.07,.24-.25,.32-.39-.01,.19-.03,.39-.04,.57-.08-.07-.19-.09-.29-.06Z"/><path class="cls-5" d="M34.02,10.35c.08-.05,.14-.12,.18-.21,.02-.04,.03-.08,.04-.13,.02-.02,.04-.04,.05-.07,.12-.17,.07-.42-.11-.54-.03-.02-.05-.04-.08-.05,0,0,0,0,0-.01,.18-2.15,.48-4.32,.77-6.44,.01-.2,.19-.42,.41-.38,.23,.04,.32,.3,.3,.51-.19,2.12-.58,4.26-.69,6.37-.03,.47-.05,.94-.08,1.41-.05,.04-.1,.08-.15,.11-.06,.01-.1,.04-.15,.06h.01s0,0-.01,0h-.02c-.13,.07-.25,.16-.36,.25h0c-.06,.04-.12,.08-.18,.14,.02-.35,.04-.69,.06-1.03Z"/><path class="cls-5" d="M36.01,53.13c.31-6.48,1.16-13.11,2.18-19.68,.05-.09,.09-.19,.13-.28,.09-.11,.17-.22,.25-.33,.01-.01,.02-.02,.03-.03,.1-.11,.17-.25,.19-.39,.07-.04,.14-.09,.2-.16,.09-.09,.17-.19,.24-.29,.07-.04,.13-.09,.18-.15,.01-.01,.03-.03,.04-.04-.06,.39-.12,.77-.18,1.16-1.11,6.46-1.54,13.02-2.38,19.51,0,.34-.23,.84-.56,.84-.1,0-.2-.04-.31-.15Z"/><path class="cls-5" d="M39.76,27.76s-.06,0-.09,0c-.18-.03-.36-.05-.54-.06,.17-1.02,.34-2.04,.51-3.05,.97-5.99,2.43-11.9,3.85-17.77,.02-.23,.21-.48,.46-.43,.26,.05,.36,.35,.34,.58-.16,2.2-1.08,4.25-1.49,6.41-.98,4.78-1.9,9.57-2.72,14.38-.11-.04-.21-.06-.33-.06Z"/><path class="cls-5" d="M24.14,53.34c-.32-.19-.45-.57-.51-.9-.18-.9-.3-1.69-.46-2.55-.19-1.02-.39-2.03-.61-3.05h0c.2,0,.4-.07,.56-.21,.14-.13,.25-.28,.32-.44,.42,1.91,.79,3.83,1.12,5.74,.13,.39,.17,1.42-.31,1.42-.04,0-.08,0-.13-.02Z"/><path class="cls-5" d="M21.35,39.2c-.21-.07-.42-.11-.64-.13-.1-.4-.2-.8-.3-1.2,.26,.46,.6,.92,1.09,1.15,.08,.04,.16,.06,.25,.06,.04,.14,.07,.29,.11,.44-.05,0-.1,.02-.14,.03-.06-.16-.19-.3-.36-.36Z"/><path class="cls-5" d="M19.49,33.17c-.1,0-.2,.01-.28,.06-.22-.87-.45-1.74-.67-2.61,.14-.07,.27-.19,.35-.34,.05-.09,.11-.18,.15-.28,.09-.02,.17-.06,.25-.11,.26,1.08,.53,2.16,.8,3.22-.03,0-.06,0-.08,0-.11,0-.21,.04-.3,.1-.07-.03-.14-.05-.22-.06Z"/><path class="cls-5" d="M17.01,24.13s.08,.03,.12,.04c.03,.03,.05,.07,.08,.1,.06,.06,.12,.11,.19,.16,.07,.16,.23,.24,.39,.24h.03c.09,.03,.19,.07,.29,.09,.07,.33,.15,.66,.22,.99,0,0,0,0,0,0-.03,.02-.06,.04-.09,.07-.08,.08-.16,.16-.24,.24h.01c-.16,.16-.31,.34-.46,.52-.19-.82-.38-1.64-.56-2.47Z"/><path class="cls-5" d="M16.77,19.98c-.14-.04-.28-.08-.41-.11-.12-.03-.25-.07-.37-.1-.82-3.8-1.49-7.65-2.83-11.26-.24-.35,.28-.93,.55-.45,1.39,3.89,2.42,7.91,3.35,11.97-.1-.03-.2-.04-.29-.05Z"/><path class="cls-5" d="M28.58,53.02c-.3-.25-.31-.66-.32-1.01-.13-2.97-.25-5.95-.32-8.93-.32-8.87-.61-17.74-.48-26.62,.04-.34,.04-3.3,.13-6.48,.27-.03,.54-.08,.8-.16,.05-.02,.1-.04,.14-.07-.38,10.39-.07,20.78,.28,31.18,.14,3.05,.16,6.11,.33,9.16-.06,.67,.44,2.95-.38,2.95-.06,0-.12,0-.18-.03Z"/><path class="cls-5" d="M27.64,8.66c0-.06,0-.12,0-.18,.05-.06,.1-.13,.12-.21,.07-.05,.13-.1,.19-.15,.04-.04,.09-.08,.14-.12,.05,0,.1-.02,.14-.04,.1,.08,.22,.13,.35,.13,0,0,0,0,.01,0,0,.09-.01,.18-.01,.27-.08,.06-.16,.11-.24,.17h0s-.02,0-.03,.01c-.03,0-.05,0-.07,.02,0,0-.02,0-.03,0-.06,0-.12,0-.18,.03-.02,0-.04,.01-.07,.02,0,0-.01,0-.02,0,0,0,0,0-.02,0h-.12s-.09,.02-.13,.02c-.01,0-.03,0-.04,0Z"/><path class="cls-5" d="M28.93,2.31c-.11,1.54-.2,3.08-.28,4.61-.14-.08-.31-.07-.46-.02-.16-.04-.32,0-.48,.04,.18-3.59,.53-6.42,1.22-4.64Z"/><path class="cls-5" d="M13.1,13.87c-.1-.25-.02-.56,.21-.71,1.92-1.32,4.19-2.24,6.42-2.8,1.92-.51,3.94-.93,6.01-1.19,.01,.05,.03,.1,.05,.14,0,.08,.03,.16,.07,.23,.02,.03,.03,.06,.06,.08,0,.01,.02,.03,.04,.04h0c.07,.07,.15,.11,.25,.14,.01,0,.03,0,.03,.01,.04,.02,.07,.03,.11,.05,.08,.03,.15,.05,.23,.05h.02c.16,.09,.35,.12,.53,.12-4.31,.35-8.57,1.54-12.32,3.4-.39,.12-.9,.74-1.31,.74-.15,0-.28-.08-.39-.29Z"/><path class="cls-5" d="M27.63,9.98c.26-.04,.52-.08,.77-.16,.19-.06,.33-.19,.4-.35,.1-.05,.2-.11,.29-.17-.02,0-.04,.02-.05,.03,.06-.04,.12-.07,.18-.12,.08-.05,.14-.13,.17-.21,.05-.04,.08-.09,.11-.14,.32,0,.64-.01,.97-.01,.03,.03,.07,.07,.1,.1,.1,.12,.2,.23,.32,.34h0c.28,.26,.59,.5,.93,.69-1.38-.09-2.77-.09-4.16,0Z"/><path class="cls-5" d="M42.59,13.01c-1.82-.99-3.75-1.73-5.75-2.23,.08-.06,.14-.16,.12-.27-.01-.09-.02-.18-.04-.28-.01-.09-.03-.18-.09-.25,.03-.06,.06-.12,.09-.18,.04-.07,.03-.14,0-.21,2.47,.61,4.81,1.63,6.88,3.15,.19,.27,.36,.62,.4,.93-.57-.16-1.12-.37-1.62-.67Z"/><path class="cls-5" d="M34.13,10.24s.04-.06,.06-.09c.02-.04,.03-.08,.04-.12,.02-.02,.04-.04,.05-.07,.12-.17,.07-.42-.11-.54-.02-.01-.05-.03-.08-.04h0s-.04-.05-.07-.07c-.04-.06-.07-.12-.1-.18l-.05-.07c.82,.1,1.63,.23,2.43,.4-.03,.01-.05,.03-.07,.04-.09,.07-.18,.13-.25,.21-.12,.08-.24,.16-.35,.26-.13,.08-.25,.17-.33,.3-.04,.05-.05,.1-.06,.15-.37-.07-.74-.14-1.12-.19Z"/><path class="cls-5" d="M42.84,19.27c-1.86-1.06-3.83-1.86-5.88-2.42,.06-.04,.13-.08,.18-.12-.01,0-.03,.02-.04,.03,.04-.03,.07-.05,.11-.08,.09-.04,.18-.1,.26-.16,.14-.13,.28-.25,.43-.39h0s.02-.01,.03-.03c1.66,.51,3.28,1.17,4.8,1.99,.56,.36,1.06,.93,1.24,1.56-.39-.09-.77-.2-1.13-.38Z"/><path class="cls-5" d="M15.02,18.69c1.56-.94,3.22-1.71,4.95-2.3,0,.01-.02,.02-.02,.04-.06,.11-.06,.23-.07,.35,0,.09,0,.18,0,.28v-.04c0,.09-.02,.18,0,.28,0,.03,0,.05,.02,.07,0,.03,0,.06,0,.08-1.38,.46-2.74,1.01-4.03,1.66-.15,.11-.29,.21-.44,.32-.07,.05-.14,.07-.2,.07-.33,0-.5-.6-.19-.81Z"/><path class="cls-5" d="M23.91,15.56c-.03-.06-.07-.12-.1-.18,3.14-.6,6.39-.69,9.56-.27-.02,.11,0,.22,.07,.32,.09,.11,.2,.18,.34,.18h.02c.02,.06,.04,.12,.06,.18,.04,.11,.08,.22,.12,.33,0,.01,0,.02,0,.03,0,.03,.02,.05,.04,.07-3.24-.51-6.58-.44-9.82,.14-.09-.28-.18-.55-.32-.81Z"/><path class="cls-5" d="M16.11,24.99c-.05-.34,.21-.67,.65-.97,.02,0,.05,.02,.07,.03,.1,.04,.21,.08,.32,.12,.02,.03,.05,.07,.08,.09,.06,.06,.12,.11,.18,.17,.07,.14,.2,.22,.34,.24-.38,.18-.75,.37-1.12,.56-.05,.03-.11,.05-.16,.05-.16,0-.31-.13-.36-.28Z"/><path class="cls-5" d="M21.81,23.04c.04-.09,.08-.18,.12-.27,0,0,0-.01,0-.02,0,0,.02,0,.03,0,.04,.01,.09,.02,.14,.02,.04,0,.07,0,.1,0,.02,0,.03,0,.05,0,.07,0,.15-.02,.22-.05,.14-.06,.22-.17,.28-.3,.07-.16,.12-.32,.17-.48,0-.02,0-.03,.02-.04h0c.06,0,.12,0,.18-.03,.14-.04,.25-.14,.32-.26,2.94-.74,6.02-1.11,9.02-.89,.15,.42,.5,.73,.9,.91,.23,.11,.48,.18,.71,.29h0s.05,.03,.08,.04h.01c-4.07-.64-8.37-.14-12.36,1.12v-.03Z"/><path class="cls-5" d="M34.65,22.05s.09-.02,.13-.04c.03,.03,.07,.05,.11,.08-.08-.01-.16-.03-.24-.04Z"/><path class="cls-5" d="M40.87,24.34c-1.27-.75-2.6-1.32-3.98-1.74,.02,0,.04-.02,.06-.03,.16-.11,.18-.31,.09-.46v-.03s0-.07,0-.1c0-.13,.02-.27,.03-.41,1.42,.43,2.79,1.03,4.09,1.82,.42,.26,.81,.73,.91,1.2-.42-.02-.81-.07-1.2-.25Z"/><path class="cls-5" d="M40.8,29.39s.07-.07,.11-.11c0,0-.01,.02-.02,.03,.04-.04,.09-.09,.14-.13,.11-.09,.19-.2,.25-.33,.19,.22,.36,.48,.42,.73-.3-.04-.6-.08-.89-.19Z"/><path class="cls-5" d="M34.57,27.65c-.07-.31-.19-.6-.32-.88-.03-.06-.05-.12-.08-.18h0c1.68,.16,3.33,.51,4.9,1.1-.31,0-.62,.03-.92,.1-.34,.07-.68,.18-.99,.33-.84-.2-1.7-.35-2.58-.47Z"/><path class="cls-5" d="M19.65,29.42c.15-.04,.29-.14,.37-.28,0,0,0-.01,0-.02,.15-.06,.27-.17,.35-.32,.13-.24,.21-.5,.31-.76,.46-.14,.92-.26,1.38-.37,2.88-.64,5.99-1.16,9.07-1.2-.12,.25-.25,.52-.35,.79l-.05,.16c-3.89,0-7.86,.71-11.1,2.03v-.02Z"/><path class="cls-5" d="M18.44,35.03c.02-.28,.18-.53,.43-.76,.03,.28,.1,.56,.18,.83,0,0,0,.01,0,.02-.06,.04-.11,.07-.17,.11-.04,.03-.09,.04-.13,.04-.14,0-.27-.12-.32-.25Z"/><path class="cls-5" d="M21.8,33.8s-.05-.02-.07-.03c0,0,.01,0,.02,0-.33-.13-.67-.21-1.03-.26-.02-.04-.05-.07-.07-.11,1.54-.49,3.45-.75,4.26-.89,2.41-.26,4.94-.45,7.42-.29,.07,.19,.16,.38,.24,.57,.08,.18,.18,.35,.31,.5-2.31-.22-4.66-.15-6.99,.06-1.25,.16-2.58,.29-3.84,.58-.07-.05-.16-.09-.24-.13Z"/><path class="cls-5" d="M38.75,34.68c-.44-.18-.89-.33-1.34-.47,.19-.06,.37-.18,.52-.34,.11-.13,.19-.26,.27-.41,.49,.2,.98,.42,1.45,.67,.24,.21,.51,.48,.6,.76-.07,0-.14,0-.21,0-.44,0-.87-.04-1.29-.2Z"/><path class="cls-5" d="M39.55,39.67c-1.27-.51-2.57-.91-3.9-1.2,.08-.11,.14-.23,.14-.36,0-.19-.03-.37-.06-.55v-.1c1.61,.37,3.17,.93,4.64,1.74,.27,.22,.63,.47,.78,.76-.51-.07-1.13-.14-1.6-.28Z"/><path class="cls-5" d="M19.32,39.17c.47-.29,.97-.52,1.49-.72,.19,.24,.42,.45,.7,.58,.06,.03,.12,.04,.18,.05-.12,.03-.23,.07-.35,.11-.5-.17-1.05-.14-1.57-.07-.17,.02-.33,.05-.49,.08,.01-.01,.03-.02,.04-.03Z"/><path class="cls-5" d="M24.94,38.06c0-.21,0-.43-.02-.65,2.5-.44,5.09-.64,7.61-.44,.01,.16,.03,.31,.07,.46,0,.18,.03,.36,.07,.55-2.59-.27-5.22-.15-7.79,.32,.03-.07,.05-.16,.05-.24Z"/><path class="cls-5" d="M29.29,53.77c-.18-.1-.23-.35-.16-.53,1.15-2.91,.71-6.15,.72-9.2-.64-7.17-3.82-14.03-3.28-21.33,.15-4.05,1.62-7.84,2.51-11.74,.3-1.13,.57-2.4,.88-3.45,0,.87-.01,1.74-.07,2.62-.58,5.4-3.1,10.51-2.4,16.05,.62,7.62,3.98,14.77,3.15,22.51-.08,1.66-.24,3.35-.94,4.88-.05,.13-.17,.24-.3,.24-.04,0-.09-.01-.13-.04Z"/><path class="cls-5" d="M24.78,54.68c-.05-.21,.02-.51,.25-.58,1.25-.3,2.2-1.15,3.44-1.36,.35-.02,.66,.1,.96,.22,.43,.17,.84,.34,1.31,.13,1.17-.46,2.62-.08,3.47,.83-.09,.13-.31,.21-.48,.28-.39,.12-.78,0-1.17-.11-.41-.12-.81-.24-1.23-.08-.45,.13-.92,.28-1.38,.19-.56-.09-1.09-.6-1.68-.44-.57,.07-2.23,1.2-3.05,1.2-.22,0-.38-.08-.44-.28Z"/><path class="cls-5" d="M29.51,8.71c-2.24-1.38-1.2-5.66,1.06-6.38-.62,1.29-1.28,2.67-1.32,4.12-.02,.57,.43,.87,.81,1.2,.44,.31,.2,1.17-.26,1.17-.09,0-.18-.03-.29-.11Z"/><path class="cls-5" d="M30.04,8.13c-.13-.67,.87-.59,1.14-1.02,.33-.46,.33-1.04,.33-1.56,.04-1.4-1.7-2.45-.91-3.84,.05,0,.06,.12,.08,.15,1.19,1.67,2.53,4.44,.64,6.11-.24,.11-.65,.43-.95,.43-.14,0-.26-.07-.33-.27Z"/><path class="cls-5" d="M32.67,11.06c-1.28-.26-2.09-1.33-2.69-2.41-.27-.33,.17-.97,.5-.54,.89,1.88,2.42,2.47,4.38,2.03-.41,.48-1.09,.99-1.78,.99-.14,0-.27-.02-.41-.06Z"/><path class="cls-5" d="M34.74,10.51c-.9-.26-.96-1.42-1.43-2.09-.26-.48-.75-.71-1.22-.93-.17-.08-.2-.33-.14-.48,.25-.55,1.28,.32,1.57,.57,.68,.84,1.07,1.9,1.52,2.87-.03,.05-.11,.06-.19,.06h-.1Z"/><path class="cls-5" d="M26.76,10.37c-.66-.14-1.18-.61-1.59-1.12,.71-.2,1.56-.09,2.3,.05,1.01,.19,1.71-.64,2.19-1.4,.41-.53,.96,.27,.62,.68-.59,1.03-1.58,1.92-2.75,1.92-.25,0-.51-.04-.78-.13Z"/><path class="cls-5" d="M25.33,9.11c.72-1.17,1.54-2.6,3.1-2.67,.2-.04,.34,.16,.36,.33,.04,.71-.99,.42-1.39,.8-.67,.46-.94,1.57-1.81,1.57-.08,0-.16,0-.25-.03Z"/><path class="cls-5" d="M29.92,8.26c-.57-.39,.25-1.52,.52-1.9-.07,.48,.17,1.9-.5,1.9h-.01Z"/><path class="cls-5" d="M30.14,7.45c-.19-.07-.25-.31-.21-.49,.04-.19,.07-.37,.11-.56h0c.1-.5,.23-1.1,.46-1.54,.29,.75,.24,1.56,.04,2.33-.03,.14-.16,.28-.31,.28-.03,0-.06,0-.09-.02Z"/><path class="cls-5" d="M30.65,7.94c-.16-.1-.2-.32-.14-.49,.06-.16,.23-.27,.39-.18,.79,.42,1.69,.99,1.96,1.86-.78-.29-1.48-.78-2.21-1.19Z"/><path class="cls-5" d="M28.09,8.41c-.88,.05,.89-.89,1.18-.92,.51-.14,.64,.77,.16,.88-.25,.06-.5,.07-.76,.07-.19,0-.39,0-.58-.03Z"/><path class="cls-5" d="M28.27,17.17c-.05-.2,.02-.49,.24-.56,1.7-.53,3.56-1.22,5.28-1.27-1.73,.74-3.35,1.69-5.17,2.15-.17,0-.3-.14-.35-.31Z"/><path class="cls-5" d="M26.27,26.7c-1.58-1.12-3.53-1.84-5.05-2.96,1.29,.02,6.27,1.01,5.74,2.78-.08,.17-.25,.28-.42,.28-.09,0-.18-.03-.27-.1Z"/><path class="cls-5" d="M28.85,35.51c-.04-.18,.02-.44,.22-.51,1.42-.49,2.93-1.25,4.34-1.52-.66,.25-3.19,2.25-4.19,2.25-.18,0-.32-.07-.37-.22Z"/><path class="cls-5" d="M29.57,44.17c-1.79-1.07-3.72-2.14-5.52-3.04,2.12,.03,4.16,.75,5.93,1.95,.27,.15,.34,.53,.24,.81-.07,.2-.26,.35-.45,.35-.07,0-.14-.02-.2-.06Z"/><path class="cls-5" d="M32.96,33.32c-.98-4.78,5.22-6.91,8.95-5.51-1.91,.28-4.07,.38-5.92,1.19-1.27,.62-2.38,1.86-2.39,3.32-.02,.45,.38,1.19-.21,1.39-.02,0-.04,0-.06,0-.2,0-.34-.21-.37-.4Z"/><path class="cls-5" d="M34.9,35.16c-.88-.07-1.45-.78-1.82-1.51-.09-.15-.05-.39,.09-.51,.29-.23,.47,.23,.58,.4,.38,.88,1.42,1.03,2.23,.77,3.23-.69,3.45-4.85,6.23-6.15-1.91,2.55-3.25,7-7.03,7-.09,0-.18,0-.28,0Z"/><path class="cls-5" d="M32.58,33.61c-3.02-2.22-3.56-7.86,.53-9.2-.53,.5-1.15,1.15-1.52,1.84-1.13,1.79-.71,4.08,.57,5.66,.3,.53,1.31,.83,.99,1.55-.07,.14-.21,.23-.35,.23-.07,0-.15-.02-.21-.08Z"/><path class="cls-5" d="M34.43,28.29c.05-.6-.12-1.15-.4-1.66-.54-.91-1.92-1.97-1.17-3.09,.53,1.36,1.98,2.32,2.15,3.89,.02,.43,.25,1.7-.35,1.72-.39-.1-.23-.59-.22-.86Z"/><path class="cls-5" d="M36.08,40.5c-.35,0-.82-.18-1.2-.27-2.37-.57-3.36-3.19-2.55-5.37,.22-.42,.43-1.97,1.06-1.66,.3,.26,.07,.66-.07,.93-.56,1.29-.97,2.92-.05,4.12,.81,.94,2.01,1.35,2.83,2.25h-.03Z"/><path class="cls-5" d="M35.71,36.72c-.01-.51-.13-.98-.3-1.43-.16-.35,.34-.74,.51-.29,.88,1.94-.08,4.07,.32,6.04-1.56-.87-.31-2.94-.53-4.32Z"/><path class="cls-5" d="M33.43,15.98c-.44-.81,1.02-1.66,1.58-2.08,1.99-1.38,4.76-2.14,6.7-.27-2.7-.89-6.04-.02-7.82,2.3-.07,.09-.16,.14-.25,.14-.08,0-.16-.03-.22-.1Z"/><path class="cls-5" d="M34.95,17.35c-.64-.21-1.14-.66-1.6-1.14-.13-.13-.13-.37-.03-.51,.23-.32,.53,.09,.68,.23,.5,.51,1.23,.85,1.93,.77,2.67-.24,3.32-3.79,5.98-4.02-1.92,1.45-3.38,4.8-6.03,4.8-.3,0-.61-.04-.94-.13Z"/><path class="cls-5" d="M33.02,15.72c-1.94-3.19,1.43-6.07,4.37-6.74-1.16,.78-2.52,1.66-3.46,2.81-.64,.72-1.03,1.72-.66,2.66,.1,.31,.21,.52,.33,.78,.18,.29-.06,.67-.31,.67-.1,0-.2-.06-.28-.2Z"/><path class="cls-5" d="M36.46,13.73c-.33-.41,.32-.89,.36-1.33,.29-.89-.12-1.74-.11-2.62,.02-.4,.17-.94,.45-1.17-.02,.2-.02,.42-.01,.61,.26,1.5,.62,3.08-.36,4.42-.04,.08-.12,.13-.2,.13-.04,0-.09-.01-.13-.04Z"/><path class="cls-5" d="M37.82,23.5h.03c-11.01-1.5-3.82-10.12-4.49-6.94-.51,.53-.92,1.28-1.02,1.98-.04,.25-.04,.54-.03,.74,.52,2.38,3.36,2.76,5.27,3.51,.51,.21,1,.46,1.49,.69-.13,.04-.29,.05-.46,.05-.26,0-.55-.03-.8-.04Z"/><path class="cls-5" d="M38.13,23.73c-2.56-.6,.09-5.38-3.1-5.93-.27-.09-.18-.63,.13-.55,2.39,.46,2.15,3.2,2.39,5.04,.19,.62,.64,.99,1.14,1.36-.08,.07-.24,.08-.39,.08h-.18Z"/><path class="cls-5" d="M21.19,23.67c-.85-2.61-3.94-3.94-6.53-3.5-.78,.11-1.61,.5-2.28,.72,.43-.45,.9-.88,1.42-1.21,2.5-1.7,6.11-.07,7.61,2.27,.25,.57,1,1.46,.36,1.99-.06,.03-.12,.05-.18,.05-.18,0-.35-.14-.42-.32Z"/><path class="cls-5" d="M17.87,25.24c-2.39-.4-4.7-2.3-5.26-4.69,.12-.02,.28,.11,.41,.16,1.13,.75,1.7,2.09,2.82,2.81,1.66,1.04,4.07,1.5,5.53-.09,.41-.28,.67,.45,.35,.68-.79,.78-1.82,1.26-2.9,1.26-.32,0-.64-.04-.96-.13Z"/><path class="cls-5" d="M21.66,23.39c-.2-.35,.15-.65,.39-.85,3.05-3.17,2.64-6.73-.69-9.46-.46-.57-1.04-1.28-1.14-1.98,.11,.13,.27,.25,.39,.34,3.36,1.78,5.65,5.84,3.56,9.43-.18,.48-1.55,2.66-2.25,2.66-.1,0-.18-.04-.25-.14Z"/><path class="cls-5" d="M21.18,22.95c-2.48-3.6-2.29-8.51,.11-12.09,.09,.24,.08,.6,.08,.88-.6,2.41-1.72,4.84-1.14,7.38,.28,1.25,.78,2.37,1.41,3.46,.14,.21-.05,.53-.25,.53-.08,0-.15-.04-.21-.15Z"/><path class="cls-5" d="M21.38,23.56c-.07-.39,.45-.53,.51-.1,.89,3.8-2.06,8.5-5.95,8.95,2.81-2.1,6.41-4.89,5.44-8.85Z"/><path class="cls-5" d="M19.23,24.53c.14-.11,.32-.05,.4,.11,.08,.16,.06,.39-.09,.5-.59,.42-1.11,.99-1.46,1.59-.92,1.38-.81,3.08-.97,4.66-.06,.41-.22,.97-.61,1.15-.12-2.87,.11-6.26,2.73-8.01Z"/><path class="cls-5" d="M21.1,38.64c1.08,.18,3.77,.96,3.37,2.38-.45,.53-.82-.39-1.17-.57-2.06-1.19-4.86-1.35-6.91-.11-1.1,.74-1.74,1.95-2.32,3,0-3.59,3.83-5.45,7.02-4.7Z"/><path class="cls-5" d="M17.84,43.75h.06c-1.32-.16-2.78-.23-3.96-.8,.5-.49,1.23-.6,1.89-.45,2.11,.29,4.34,.73,6.34-.14,.81-.35,1.34-1.03,1.66-1.84,.08-.16,.28-.23,.43-.11,.16,.13,.18,.37,.09,.54-.79,2.18-3.01,2.89-5.14,2.89-.46,0-.93-.03-1.37-.09Z"/><path class="cls-5" d="M23.99,40.77c-.22-.29,.06-.65,.24-.85,1.89-2.74-1.12-6.37-4.11-6.34-.87-.11-1.82-.12-2.62-.17,3.96-2.61,9.48,1.9,7.72,6.29-.17,.28-.58,1.19-.98,1.19-.08,0-.17-.04-.25-.13Z"/><path class="cls-5" d="M23.74,40.14c-4.09-1.23-4.99-2.82-5.63-6.91,.39,.06,.72,.51,.9,.86,.47,1.03,.57,2.27,1.22,3.2,.99,1.02,2.36,1.64,3.68,2.13,.32,.12,.24,.73-.09,.73-.03,0-.05,0-.08-.01Z"/><path class="cls-5" d="M18.02,48c1.38-1.05,3.46-.74,4.87-1.8,1.61-.97,1.78-3.11,.96-4.64-.28-.35-.06-1.07,.36-.59,2.19,3.93-.81,7.22-4.59,7.22-.52,0-1.06-.06-1.6-.2Z"/><path class="cls-5" d="M20.28,43.2c.07-.13,.22-.19,.35-.09,.12,.1,.15,.3,.07,.43-.39,.65-.66,1.35-.89,2.07-.44,.9-.5,2.49-1.56,2.82,.51-1.79,1.17-3.58,2.03-5.23Z"/><path class="cls-5" d="M32.61,32.77c-.24-.04-.33-.32-.32-.53,.16-1.52-.02-3.09,.1-4.64,1.03,1.32,.72,3.18,.65,4.78-.01,.19-.17,.4-.37,.4-.02,0-.04,0-.06,0Z"/><path class="cls-5" d="M33.63,32.84c-.13-.5,.42-.58,.76-.73,.96-.48,1.92-1.27,2.89-1.56-.91,1.07-1.9,2.24-3.33,2.58-.16,0-.28-.14-.32-.3Z"/><path class="cls-5" d="M33.29,34.66c-.04-.14,.02-.34,.17-.4,.15-.06,.28,.07,.32,.21,.28,1,.51,2.11,.6,3.09-.74-.78-.8-1.92-1.1-2.91Z"/><path class="cls-5" d="M23.41,39.67c.04-1.45-1.09-2.5-1.65-3.67,1.69,.17,2.3,2.08,2.37,3.54,.04,.31-.17,.5-.37,.5-.16,0-.32-.11-.34-.37Z"/><path class="cls-5" d="M23.29,40.14c.23,0,.35,.24,.35,.44s-.13,.44-.35,.44c-1.09-.05-2.3,.04-3.32,.12,.95-.76,2.11-1.12,3.32-1Z"/><path class="cls-5" d="M23.06,41.8c.14-.51,.73-.22,.6,.23-.17,1.47-1,3.12-2.37,3.67,.69-1.25,1.59-2.45,1.77-3.89Z"/><path class="cls-5" d="M21.25,22.96c-.17-.1-.23-.35-.15-.53,.78-1.72,.46-3.61,.61-5.42,.91,1.72,.73,3.95-.04,5.75-.05,.13-.17,.23-.3,.23-.04,0-.09,0-.13-.03Z"/><path class="cls-5" d="M20.7,23.54c-1.63-.23-3.22-.89-4.5-1.93,0-.04,.05-.03,.1-.02,.03,0,.06,0,.07,0,1.56-.06,2.94,.71,4.45,.93,.5,.1,.43,1-.07,1h-.05Z"/><path class="cls-5" d="M20.75,23.82c.05-.14,.21-.25,.36-.17,.15,.09,.19,.3,.14,.46-.54,1.46-1.27,3.08-2.43,4.08,.53-1.5,1.39-2.89,1.93-4.37Z"/><path class="cls-5" d="M33.42,15.57c-.17-.06-.22-.27-.18-.43,.22-1.33,.91-2.57,2.02-3.36,.04,.03-.07,.14-.09,.19-.59,1.08-1.17,2.16-1.41,3.37-.03,.13-.14,.25-.27,.25-.03,0-.05,0-.08-.01Z"/><path class="cls-5" d="M34.62,16.07c-.32-.03-.65-.09-.98-.14-.3-.05-.25-.62,.07-.57,1.01,.2,2.03,.22,3.01-.08,.22-.04,.55-.22,.72-.18-.69,.57-1.55,1-2.46,1-.12,0-.24,0-.36-.02Z"/><path class="cls-5" d="M33.38,16.43c0-.17,.1-.37,.3-.37,.51,.1,.21,.85,.28,1.19,.06,1.04,.53,2.08,1.14,2.84-1.61-.31-1.79-2.31-1.72-3.66Z"/></g></svg>