<?xml version="1.0" encoding="UTF-8"?><svg id="Layer_1" xmlns="http://www.w3.org/2000/svg" xmlns:xlink="http://www.w3.org/1999/xlink" viewBox="0 0 56.69 56.69"><defs><style>.cls-1{fill:#51b848;}.cls-2{fill:#fff;opacity:0;}.cls-3{clip-path:url(#clippath-2);}.cls-4{fill:#c25a28;}.cls-5{clip-path:url(#clippath-1);}.cls-6{fill:#cf4d27;}.cls-7{fill:#cd6228;}.cls-8{clip-path:url(#clippath);}.cls-9{fill:none;}.cls-10{fill:#010101;}</style><clipPath id="clippath"><rect class="cls-9" x="11.62" y="1.56" width="34.32" height="53.56"/></clipPath><clipPath id="clippath-1"><rect class="cls-9" x="11.88" y="2.24" width="33.67" height="52.35"/></clipPath><clipPath id="clippath-2"><rect class="cls-9" x="11.62" y="1.56" width="34.32" height="53.56"/></clipPath></defs><g id="Krukke"><rect class="cls-2" x="1.42" y="1.42" width="53.86" height="53.86"/><g class="cls-8"><g class="cls-5"><path class="cls-7" d="M39.16,43.49c-.13-.16-.14-.38-.12-.58-.91,.1-.27-1.2-.14-1.66,.65-1.78,1.2-3.6,1.86-5.38,.06-.22,.14-.72,.46-.58,.37,.4-.19,1.03-.23,1.5,.09-.12,.28-.14,.39-.03h0c.06-.16,.22-.3,.4-.23,.19,.07,.27,.33,.22,.52-.25,1.65-1.06,3.26-1.31,4.96-.16,.42-.16,1.87-.87,1.36-.07,.16-.24,.26-.4,.26-.1,0-.19-.04-.26-.15Z"/><path class="cls-6" d="M38.96,44.45c-.16-.03-.25-.19-.26-.33,.23-1.27,.61-2.54,.8-3.82,.03-1.13,.21-2.31,.62-3.38,.05-.08,.13-.15,.23-.13,.48,.26-.01,1.12,0,1.57,.24-.4,.21-1.25,.75-1.32,.19,.04,.29,.26,.26,.43,.25-.31,.39-1.31,.9-1.09,.11,.09,.14,.25,.11,.38-.23,.64-.4,1.3-.62,1.94-.56,1.49-.78,3.01-1.41,4.45-.06,.13-.22,.2-.36,.16-.08,.25-.21,.73-.56,.55-.08,.23-.15,.59-.44,.59h-.04Z"/><path class="cls-4" d="M44.83,31.73c.05-.36,0-.79-.06-1.24-.07-.56-.03-1.13-.06-1.69-.02-.16-.14-.33-.31-.34-.36-.36-.86-.33-1.35-.19-.48-.13-1.08-.08-1.55-.03-1.09,.06-2.18,.06-3.27,.06-.88,0-1.76,0-2.64,.03-1.47,.22-2.93,.18-4.39,.13-1.62-.05-3.24-.11-4.86,.22-4.04-.09-8.1-.3-12.15-.07-1.9-.25-1.24,1.68-1.37,2.88,0,1.28-.58,2.9,1.27,2.5-.19,1.14,.35,2.67,.53,3.66,.48,2.45,1.1,4.98,1.72,7.41,.75,2.54,1.43,5.1,2.09,7.67,.19,.56,.45,1.58,1.25,1.55,0,0,0,0,0,0,.29-.02,.58-.25,.9-.18,1.98,.2,3.98,.14,5.98,.08,1.72-.05,3.44-.11,5.16,.01,1.1,.06,2.17-.11,3.24-.29,.99-.16,1.99-.32,3.02-.29,.2,.51,.92,.68,1.17,.12,.23-.56,.12-1.18,.28-1.76,.05-.49,.4-1.21,.18-1.74,.13-.6,.21-1.22,.36-1.81,.33-1.77,.99-3.55,1.05-5.35,.04-.16,.08-.32,.12-.48,.21,0,.33-.22,.37-.41,.25-1.08,.88-2.21,.73-3.33,.07-.52,.46-1.06,.27-1.58,.51-1.19,1-2.41,1.53-3.6,.04-.1,.04-.22,0-.33,.42-.49,.92-1.05,.77-1.62Z"/><path class="cls-1" d="M38.19,20.3c.24,.16,.27,.65-.06,.65-.02,0-.04,0-.06,0-.04,0-.07-.03-.11-.05-.13,.1-.26-.04-.37-.11h0s-.07,0-.1,0c-.29,.3-.79-.06-1.14-.1-.98,.09-2.17-.64-3.16-.92-.28-.1-.71-.2-.61-.59-.07-.03-.13-.06-.2-.1-.06-.03-.13-.06-.19-.09-.94-.6-1.72-1.62-2.59-2.38-.28-.3,.1-.79,.39-.5-.31-.34-.76-1.12-.02-1.09-.09-.11-.09-.29-.02-.41,0-.01,.02-.03,.03-.04-.02-.02-.04-.04-.06-.07-.02,0-.04,0-.06-.01-.01,.05-.03,.09-.06,.13-.02,.04-.06,.07-.1,.09-.04,.11-.12,.2-.24,.2-.07,0-.13-.03-.17-.07-.03,.01-.06,.02-.08,.03-.05,.01-.11,0-.15-.02-.05,.08-.13,.13-.22,.13-.03,0-.06,0-.08-.01-.04-.01-.07-.04-.1-.07-.14,0-.27-.12-.29-.26-.04,.01-.08,.02-.12,0-.03,.15-.11,.35-.29,.35h-.02c-.16,0-.26-.15-.32-.28-.34-.39-.66-.89-.87-1.41-.64,.62-.85-1.56-1.02-1.96-1.34,.87,.3-5.04,.89-5.11,.19-.5,.3-1.07,.69-1.45,.09-.27,.12-.63,.38-.8,.25-.36,.13-.82,.37-1.18,.23-.24,.48,.09,.46,.33,.2,0,.28,.22,.28,.39,.33,.51,.38,1.2,.65,1.77,.34,.31,.31,.88,.5,1.3,.46,.12,.46,.83,.69,1.21,.15,.1,.16,.29,.19,.45,.15,.23,.37,1.15,.32,1.42,.04,.53,.71,1.88-.06,2.04,0,.12,.02,.24,.01,.36,0,.13-.06,.28-.18,.35-.06,.34,.08,.95-.36,1.05,0,.09,0,.24,0,.4,.11,0,.23,.07,.33,.18,.07-.13,.23-.21,.37-.13,.02,.01,.04,.02,.06,.03,.04-.02,.08-.03,.13-.03,.11-.24,.37-.15,.57-.09-.01-.23,.14-.45,.37-.48,.1-.09,.24-.13,.37-.13,.19-.01,.38-.01,.57,0,.23-.32,.94,.03,1.28,.07,.1-.03,.19,.01,.28,.06l.11-.04c.32-.16,.75,.28,1.06,.82,0,0,0,0,0,0,.29-.3,.51,.18,.65,.39,.26,.57,.9,1.12,.8,1.78,.36,.98,.49,2.04,.71,3.05,.05,.21,.05,.46-.14,.59,0,.02,.01,.05,.02,.06,.05,.1,.09,.21,.1,.31Z"/><path class="cls-1" d="M27.46,16.21c.09,.16,.1,.33,.04,.5-.05,.13-.13,.25-.2,.36,.05,.58-.58,1.05-.94,1.43-.3,.27-.5,.96-.98,.85h0c-.23,.2-.48,.66-.83,.51-.09,.07-.19,.13-.32,.1-.07,0-.13-.05-.18-.1-.1,.1-.21,.21-.33,.27-.13,.07-.26,.05-.37-.04-.06,.05-.13,.09-.2,.12-.11,.04-.21,.01-.3-.05-.07,.06-.15,.08-.24,.09-.12,0-.22-.07-.29-.17-.14,.12-.32,.32-.51,.32-.06,0-.13-.02-.19-.08t0,0c-.08-.07-.13-.17-.16-.28-.03-.02-.05-.06-.07-.09-.23,.27-.65,.25-.74-.13-.19,.13-.45,.12-.57-.09-.32,.15-.84,.26-.94-.2-.19,0-.37-.02-.55-.12-.03-.01-.05-.03-.07-.05-.69-.05-.37-1,.16-1.09,.17-.56,.97-.87,1.41-1.25,.55-.41,.91-1.08,1.49-1.41,.19-.16,.38-.43,.65-.44,.6-.62,1.47-1.69,2.43-1.41,.12,.01,.24-.06,.35-.14,.18-.12,.35-.24,.53,0,.42-.37,.82,.25,.56,.62t0,0c.32-.18,.63,.16,.57,.49,.11,.06,.18,.18,.21,.31,.23,0,.37,.22,.39,.43,.29,.08,.35,.49,.19,.71Z"/></g><g class="cls-3"><path class="cls-10" d="M22.85,54.81c-1.33-.01-2.68-.14-4-.06-.19,.04-.34-.16-.36-.33-.06-.52,.51-.49,.87-.49,3.35,.02,6.7,.09,10.05-.12,3.23-.13,6.47-.4,9.69-.21,.19,.05,.42,.25,.39,.47-.08,.4-.56,.43-.89,.39-2.74-.09-5.48,.04-8.23,.16-2.12,.1-4.25,.19-6.37,.19-.39,0-.78,0-1.17,0Z"/><path class="cls-10" d="M13.17,29.04h.01c-.16-.01-.33-.03-.49-.03-.47-.1-.28-.76,.24-.61,4.16,.03,8.35-.16,12.55-.36,6.23-.29,12.47-.58,18.64-.12,.43,.27-.05,.68-.4,.67-5.74-.21-11.49-.01-17.23,.18-4.03,.13-8.05,.27-12.08,.27-.42,0-.83,0-1.25,0Z"/><path class="cls-10" d="M12.66,33.91c-.75-1.53-.06-3.41-.05-5.05,.07-.62,.81-.44,.74,.14-.12,1.3-.26,2.56-.25,3.85,0,.38-.13,.82-.44,1.07,0,0,0,0,0,0Z"/><path class="cls-10" d="M12.61,33.98c0-.23,.14-.47,.39-.48,2.34-.18,4.67-.48,7.03-.59,8.21-.45,16.45-.6,24.67-.64-.17-.95-.14-1.93-.15-2.9,0-.28,.08-.66,.35-.82,.65-.1,.56,.95,.57,1.39-.05,.97,.12,1.92,.18,2.88-.02,.25-.19,.5-.46,.49-.96,0-1.91,0-2.87-.02-1.24-.01-2.47-.03-3.71,0-6.07,.38-12.16,.12-18.23,.59-1.92,.13-3.82,.22-5.73,.46-.2-.02-.46,.02-.72,.07-.22,.04-.45,.07-.65,.07-.34,0-.61-.11-.66-.5Z"/><path class="cls-10" d="M18.3,53.81c-.47-1.68-6.31-20.35-4.08-19.68,1.4,6.46,2.81,12.98,4.75,19.43,.1,.31-.13,.56-.35,.56-.13,0-.26-.09-.32-.31Z"/><path class="cls-10" d="M39.3,53.76c-.35-.16-.19-.61-.14-.89,.72-5.35,1.71-10.67,3.43-15.8,.51-1.38,.79-2.86,1.27-4.24,.09-.22,.43-.48,.64-.25,.22,.17,.15,.85-.02,1.16-.82,3.16-1.96,6.17-2.69,9.33-.88,3.46-1.36,6.95-2.09,10.41-.03,.15-.16,.28-.31,.28-.03,0-.06,0-.09-.01Z"/><path class="cls-10" d="M19.65,41.21c.04-.13,.15-.25,.3-.2,.14,.05,.2,.24,.16,.37-.23,.69-.5,1.54-.87,2.09,.09-.76,.22-1.52,.41-2.26Z"/><path class="cls-10" d="M22.16,41.16c-.53,2.64-1.62,5.51-2.57,8.02,.44-2.77,1.35-5.48,2.57-8.02Z"/><path class="cls-10" d="M20.93,51.48c.72-3.27,1.88-6.67,3.54-9.51-.99,3.22-2.11,6.47-3.53,9.53,0,0-.01,0,0-.02Z"/><path class="cls-10" d="M26.69,44.45c-.54,2.26-1.56,4.57-2.63,6.54,.54-2.17,1.22-4.98,2.63-6.54Z"/><path class="cls-10" d="M28.06,47.42c.13,1.2-.65,2.47-1.03,3.49,.15-1.15,.19-2.66,1.03-3.49Z"/><path class="cls-10" d="M29.33,50.7c-1.94-2.21-4.12-4.24-5.78-6.69-.21-.27-.37-.59-.32-.95,.25,0,.47,.24,.6,.45,1.63,2.55,4.18,4.48,5.5,7.19,0,0,0,0,0,0Z"/><path class="cls-10" d="M21.58,45.87c-.64-2.42,4.39,5,4.29,5.5-1.47-1.81-2.88-3.62-4.29-5.5Z"/><path class="cls-10" d="M22.56,51.14c-.28-.38-2.89-2.97-1.84-2.95,.78,.81,1.36,1.96,1.85,2.96t0,0Z"/><path class="cls-10" d="M28.38,27.45c.17-4.04-.62-8.35,.26-12.25,1.04,2.4,.37,5.11,.56,7.65,.07,1.53,.03,3.07,.01,4.6,0,.24-.15,.52-.42,.52s-.42-.29-.42-.52Z"/><path class="cls-10" d="M28.17,16.1c-2.5-1.43-4.2-4.48-3.31-7.35,.87-2.4,1.78-5.18,3.72-6.9,.17,.83-.22,1.66-.64,2.37-1.12,2.27-2.83,4.65-2.21,7.25,.5,1.5,1.51,2.69,2.86,3.49,.48,.26,.29,1.18-.2,1.18-.06,0-.14-.01-.22-.06Z"/><path class="cls-10" d="M28.64,15.63c-.45-.02-.45-.84,0-.86,.97,.18,1.61-.73,1.94-1.49,1.25-2.52,.27-5.25-1.03-7.5-.42-1.18-1.31-2.37-.89-3.67,.22,.15,.41,.48,.6,.71,1.61,3.45,3.99,7.3,1.91,11.08-.43,.88-1.21,1.75-2.24,1.75-.1,0-.19,0-.3-.02Z"/><path class="cls-10" d="M36.74,21.58c-3.36-.52-6.49-2.41-7.91-5.59-.11-.19-.06-.47,.1-.6,.17-.14,.37-.05,.48,.12,.37,.65,.7,1.28,1.16,1.86,1.61,2.06,4.23,2.95,6.72,3.31,.62,.12,1.35,.31,1.86,.58-.52,.25-1.1,.38-1.68,.38-.25,0-.49-.02-.73-.07Z"/><path class="cls-10" d="M38.31,21.03c-.82-4-1-9.69-6.75-7.05-.4,.12-.51-.58-.17-.7,5.11-2.66,7.29,2.43,7.5,6.74,.08,.44,.31,.88,.15,1.33-.06,.06-.13,.07-.2,.07-.21,0-.44-.2-.53-.39Z"/><path class="cls-10" d="M21.28,20.89c-1.51-.19-2.97-.77-4.05-1.87,.94-.15,2.06,.27,2.96,.58,1.83,.5,4.12,.56,5.58-.8,.94-.89,1.69-2.07,1.93-3.36,.05-.19,.22-.36,.43-.29,.58,.44-.07,1.36-.2,1.93-.86,2.38-3.07,3.91-5.51,3.92-.38,0-.76-.04-1.14-.12Z"/><path class="cls-10" d="M19.35,17.07c1.56-1.41,2.71-3.55,4.81-4.2,.52,0,1.88-.26,1.93,.47,0,.18-.13,.45-.35,.43-3.92-.81-4.95,5.33-8.53,5.36,.36-.92,1.5-1.36,2.13-2.05Z"/><path class="cls-10" d="M27.55,15.25c.49-.05,.57,.81,.11,.9-1.73,.17-3.46,.97-5.04,1.5,1.26-1.41,3.07-2.23,4.93-2.39Z"/><path class="cls-10" d="M28.06,14.58c0-1.69-.64-3.48-.49-5.12,.58,1.67,1.25,3.31,1.2,5.12,0,.2-.13,.44-.35,.44-.24,0-.35-.24-.36-.44Z"/><path class="cls-10" d="M29.67,16.18c-.17,0-.26-.19-.26-.33,0-.16,.1-.31,.26-.32,2.45-.32,4.88,1.34,6.05,3.36-1.74-1.35-3.71-3.01-6.05-2.71Z"/></g></g></g></svg>