<?xml version="1.0" encoding="UTF-8"?><svg id="Layer_1" xmlns="http://www.w3.org/2000/svg" xmlns:xlink="http://www.w3.org/1999/xlink" viewBox="0 0 56.69 56.69"><defs><style>.cls-1{fill:#fff;opacity:0;}.cls-2{fill:#ffc907;}.cls-3{fill:#ed2024;}.cls-4{clip-path:url(#clippath-1);}.cls-5{clip-path:url(#clippath);}.cls-6{fill:none;}.cls-7{fill:#ef4136;}.cls-8{fill:#010101;}.cls-9{fill:#f04d23;}</style><clipPath id="clippath"><rect class="cls-6" x="3.99" y="19.42" width="36.03" height="35.17"/></clipPath><clipPath id="clippath-1"><rect class="cls-6" x="24.14" y="1.58" width="28.1" height="34.28"/></clipPath></defs><g id="Duft"><rect class="cls-1" x="1.42" y="1.42" width="53.86" height="53.86"/><g class="cls-5"><path class="cls-9" d="M22.33,32.51c.05-.66,.33-4.08,1.25-3.69,.11,.12,.11,.31,.08,.46-.35,1.06-.62,2.13-.67,3.23,0,.52-.66,.53-.65,0Z"/><path class="cls-3" d="M24.23,34.5c-.17-.03-.26-.18-.31-.33-.03-.1-.02-.2,0-.29-.05-.02-.09-.06-.11-.1-.27,.35-.71-.03-.63-.4-.07-.04-.12-.1-.15-.19-.03,0-.05-.01-.08-.02-.04,.04-.1,.07-.17,.07-.12,0-.21-.09-.25-.19-.26-.21-.11-.57-.07-.85-.03-.02-.06-.05-.08-.07-1.25,.15-.33-2.45-.33-3.18,.21-1.91,.39-4.13,1.43-5.76,.23-.48,.4-1.14,.93-1.36,.16-.22,.32-.51,.62-.56,.22-.35,.63-.98,1.1-.64,.23-.31,.69-.91,1.08-.5,.12,0,.22,.07,.3,.17,.01,.01,.02,.03,.03,.04,.29-.31,.81-.29,.93,.15h0c.2-.11,.43-.09,.59,.08,.09,.1,.14,.23,.16,.37,.31-.08,.6,.18,.63,.49,.37-.17,.71,.22,.67,.58,.53-.02,.61,.64,.5,1.04,.11,.06,.19,.17,.23,.29,0,0,.02,.02,.04,.03,.19,.16,.22,.37,.19,.6,.26,.27,.17,.62,.04,.93,0,.03,.02,.07,.02,.1,.23,.02,.34,.12,.38,.26-.57,.52-1.03,1.24-1.33,1.84-.12,.23-.22,.5-.3,.79-.14,.23-.22,.5-.2,.79-.28,.45-.5,1.08-1.02,1.13-.41,.44-.59,1.52-1.24,1.54-.27,.36-.65,1.64-1.2,.94-.29,.31-.4,.88-.81,1.03-.24,.3-.38,1.01-.88,.83-.08,.03-.17,.04-.25,0-.07,.17-.2,.35-.39,.35-.02,0-.04,0-.06,0Z"/><path class="cls-3" d="M31.07,36.77c.03,.05,.06,.11,.08,.17,.02-.03,.04-.07,.06-.1,.02-.03,.04-.06,.07-.08v-.04c0-.06,0-.13,.02-.19-.08,.08-.15,.16-.22,.24Zm2.05,.05s-.05,.03-.07,.05c0,.04,0,.09,0,.14,0,.02,0,.04,0,.06,.09-.13,.18-.27,.27-.4-.06,.05-.13,.1-.19,.15Zm1.37,9.96c-.09-.03-.16-.1-.23-.16-.05-.04-.08-.08-.11-.13-.28,.06-.6-.07-.79-.27-.37,.11-.78-.01-1.04-.3-.28,.04-.54-.08-.76-.22-.63,.36-1.33-.07-1.57-.68-.36-.18-.56-.56-.63-.94-.14,.37-.53,1.04-.94,.56-.34,.58-1.02,.05-.83-.49-.39,.07-.59-.39-.52-.71-.23,.31-.7,.12-.78-.21-.25,.91-1.25,.85-1.06-.14-.8,.17-.64-.88-.37-1.32-.09-.11-.13-.26-.14-.4,.31-1.14,.87-2.24,1.28-3.36-.01-.03-.02-.05-.03-.08-.02-.08-.02-.15-.02-.23-1.15,.51-.43-3.8-.59-4.56-.23,.72,0,2.58-1.04,2.55-.22-.08-.31-.31-.36-.52-.31-2.2-.32-4.43-.65-6.63-.42,1.37,.04,3.48-.63,4.59-.34,.25-.65-.14-.66-.47,0,.02-.02,.04-.03,.06,.01,.25-.12,.64-.44,.55-.08,.11-.23,.17-.36,.18-.48,.69-.83-.44-1.06-.79,.2,.37,.41,1.34-.31,1.14-.6,.44-1-1.13-1.33-1.51-.12,.09-.29,.1-.39-.03-.43-.61-.78-1.28-1.15-1.94-.08,.06-.18,.08-.27,.02-.43-.41-.61-1.07-.91-1.6-.13,.65-.73,.36-.85-.13-.24,.05-.41-.2-.43-.42-.17-1.11-.71-2.21-.57-3.34-.05-.52,.08-1.05,.08-1.57,.01-.25,.05-.66,.38-.66,0-.07,.01-.14,.04-.2,.04-.13,.18-.26,.32-.24,.01-.14,.05-.27,.15-.38,.04-.05,.1-.09,.17-.1,.01-.26,.26-.51,.52-.37,.04-.11,.11-.2,.24-.25,.04-.01,.08-.02,.11-.02,.03-.37,.49-.62,.71-.25,.04-.04,.09-.08,.14-.1,.08-.03,.16-.02,.24,0,.01-.02,.03-.05,.06-.07,.13-.13,.33-.17,.48-.04,.07-.12,.18-.2,.34-.21,.09,0,.16,.03,.22,.09,.09-.27,.45-.44,.66-.19,.15-.13,.38-.11,.51,.04,.16-.29,.59-.25,.71,.05,.24-.35,.72-.12,.79,.25,.44-.32,.76,.27,.79,.65,.52,.01,.5,.67,.53,1.05,.1,.06,.18,.16,.23,.27,.74,.04,.52,1.1,.59,1.62-.04,.46,.21,1.29-.41,1.42-.01,.41,.2,1.02-.28,1.24,.08,.7,.14,1.4,.21,2.09,.1-.64,.41-3.06,1.33-1.7,.61,1.95,.51,4.07,.75,6.09,.33-1.46,.22-3.23,1.01-4.49,1.1-.34,.5,2.94,.61,3.63,.26-.81,.1-1.95,.71-2.56,.75-.1,.49,.9,.43,1.34,.13,.1,.2,.28,.2,.44,0,.09-.01,.18-.02,.27,.25-.48,.18-1.41,.78-1.57,.49,.04,.42,.61,.35,.97,0,0,0,0,0,0,.15-.34,.32-1.17,.84-.83,.09-.13,.17-.34,.26-.55-.1,.36-.13,.73-.07,1.1h0c.13,.69,.34,1.52,.95,1.96,.21,.16,.45,.28,.69,.36,.72,.73,1.93,1.01,3.06,1.01,.33,0,.66-.02,.96-.06,.11,.02,.22,.03,.33,.03,.32,.11,.67,.17,1.01,.17,.24,0,.48-.03,.71-.09-.24,.25-.5,.48-.77,.69-.16,.12-.34,.18-.51,.12-.45,.29-1.18,1.18-1.66,.53-.17,.14-.34,.27-.51,.41,.1,0,.2,.05,.27,.1,.13,.1,.2,.29,.21,.47,.02,0,.04,.02,.06,.03,.09,.05,.14,.13,.2,.2,.25-.52,.95-.76,1.12-.05,.46-.35,1.09-.09,1.28,.42,.39-.04,.74,.2,.98,.5,.84,.07,1.08,1.1,.86,1.78,.85,1.61-.15,3.46-1.1,4.77-.45,.81-1.03,1.68-1.98,1.92-.31,.18-.68,.44-1.05,.44-.08,0-.17-.01-.25-.04Z"/><path class="cls-7" d="M34.7,44.72c.38,0,.38,.71,0,.71s-.38-.71,0-.71Z"/><path class="cls-3" d="M17.14,54.17c-.63-.16-1.15-.65-1.45-1.21-.43,.11-.82-.21-1.09-.51-1.65-.7-2.1-4.82-.45-5.71,.32-1.43,1.59-2.3,2.1-3.66,.3-.55,.64-1.08,.98-1.6,.12-.15,.35-.28,.54-.17,.35-.5,.49-1.65,1.13-1.74,.43,.07,.4,.61,.33,.94,.16-.11,.39-.08,.5,.1,.03,.05,.07,.11,.09,.17,.19-.8,.99-.71,.91,.12,.13,.06,.23,.19,.26,.33,.02,.06,.03,.13,.04,.19,.14-.32,.32-.85,.76-.62,.46-1.13,1.17-.31,.91,.56h0c0-.5,.42-1.58,.98-.9,.02-.45,.47-1.11,.9-.63,.37-.19,.67,.27,.66,.61,.05-.52,.65-1.19,1.05-.54,.18,.35,.14,.76,.21,1.15,.49-1.06,1.23-.3,1.18,.56,.1-.36,.5-.71,.85-.41,.47,.66,.3,1.63,.49,2.41,.48-.59,.96,.17,1.02,.66,.37,1.03,.58,2.22,1.27,3.06,.85-.35,1.08,1.96,.81,2.44,0,.58-.26,1.06-.71,1.4-.26,.5-.72,.91-1.3,.93h0c-.22,.21-.49,.38-.79,.45-.21,.2-.48,.37-.77,.42-.31,.36-.83,.59-1.3,.45h0c-.31,.22-.72,.23-1.06,.07-.45,.3-1.03,.2-1.42-.15-1.89-.34-2.45-3.27-2.42-4.91-.07,.07-.16,.11-.27,.1,.03,.8-.22,1.56-.37,2.34-.17,.7-.33,1.66-1.05,1.99-.65,.46-1.33,1.07-2.17,1.01-.37,.3-.85,.39-1.32,.29Z"/><path class="cls-7" d="M22.53,48.53c-.76-.5-.13-2.07-.27-2.87,.01-.35-.28-1.19,.27-1.17,.19-.77,.37-1.7,.58-2.39,0,.09-.01,.2-.02,.27,0,1.93-.36,3.91-.02,5.82-.05,.05-.09-.15-.13-.21,.02,.25-.11,.59-.41,.54Z"/><path class="cls-3" d="M8.73,46.73c-1.83,0-2.56-2.12-2.3-3.66,.61-2.55,3.58-3.69,5.71-4.79,1.21-.5,2.48-.87,3.71-1.33,.43-.2,.86,.18,.81,.64,.06-.02,.11-.04,.17-.05,.22-.04,.4,.11,.49,.3,.11-.07,.23-.13,.35-.16h0c.16-.02,.32,.05,.43,.2,.08,.11,.11,.25,.11,.38,.08,0,.16,0,.23,.03,.18,.07,.3,.21,.36,.38,.33-.22,.82-.56,1.13-.11,.15,.21,.17,.55,.03,.78-1.03,1.31-2.27,2.45-3.64,3.4,.35,.91-.97,1.61-1.58,2.09-1.81,1.11-3.87,1.9-6.01,1.91Z"/><path class="cls-3" d="M9.99,38.32c-4.41-.74-5.7-5.88-2.77-9.01,1.31-1.39,3.25-3.09,5.28-2.36,1.14,.05,10.86,8.52,6.96,8.1-.03,.11-.08,.23-.16,.32-.02,.07-.04,.14-.07,.21,.56,.22,.65,1.2,.06,1.43-.4,.08-.83,.03-1.24,.02,.14,.33-.08,.92-.5,.83-2.55-.26-4.99,1.09-7.54,.46Z"/><path class="cls-7" d="M18.97,35.06c-.72-1.14,.55-2.37,1.52-2.87,.45-.24,1.16-.2,1.14,.45,0,.28-.17,.58-.47,.59-.21-.02-.45,.11-.58,.2-.59,.48-1.14,1.06-1.6,1.62h0Z"/><path class="cls-2" d="M22.41,41.49c-.08-.03-.15-.06-.22-.11h0c-.38,.15-.88,.21-1.22-.06-.31,.05-.66-.05-.87-.28-.07-.08-.12-.15-.17-.24-.89,.16-1.53-.75-1.36-1.58-.18-.58-.6-1.07-.45-1.7-.98-1.75,3.19-5.13,4.51-3.63,.47-.16,1.03,0,1.32,.41,.77-.23,1.39,.51,1.32,1.24,.28,.28,.36,.7,.57,1.01,.38,.59,.06,1.34-.27,1.89,.13,.94-.57,1.86-1.37,2.26-.44,.48-1.09,.99-1.78,.79Z"/></g><path class="cls-8" d="M22.26,41.07c2.4-.26,4.48-2.73,2.94-4.99-.53-.93-1.35-1.61-2.28-2.07-.3-.14-.67-.22-.84-.53-1.76,.15-3.64,1.53-3.95,3.33-.42,2.39,1.74,4.66,4.13,4.27Zm-.91,.81c-2.84-.13-4.56-3.47-3.56-5.99,.69-1.67,2.77-3.24,4.59-2.94,5.68,1.59,5.28,9.15-1.08,8.93h.05Z"/><path class="cls-8" d="M25.97,54.12c-.41,0-.79-.04-1.15-.13-3.69-1.39-3.23-6.11-3.07-9.31,.11-1.06-.05-2.19,.17-3.23,.33-.61,.79,.04,.71,.49-.18,5.8-1.44,14.12,7.29,10.09,1.38-.59,2.7-2.02,2.09-3.58-.8-1.23-1.93-2.38-3.09-3.29-.81-.52-6.23-4.21-4.41-4.98,2.6,2.48,9.49,8.82,12.84,4.79,1.48-1.95,2.36-5.12,.43-7-2.89-1.79-6.36-.65-9.48-.31-.22-.03-.62,.05-1.05,.14-.92,.18-1.96,.35-1.65-.51,3.22-1.27,9.47-.53,12.14-3.36,.03,0,.07,0,.1,0,.29,0,.59-.09,.82-.26,.07,0,.14,0,.21-.01-.66,1.22-1.79,2.21-3.18,2.59,5.32,.54,4.66,7.8,1.21,10.32-1.52,1.09-3.52,.77-5.15,.12,3.7,3.81-1.78,7.42-5.72,7.42h-.06Z"/><path class="cls-8" d="M24.52,34.81c-.16-.48,.33-.82,.61-1.11,.51-.51,1.04-1.01,1.49-1.57,.83-1.06,1.95-1.98,2.93-2.98-.05,.14-.08,.28-.09,.42-.01,.28,.09,.54,.26,.74-1.52,1.66-3.16,3.25-4.78,4.76-.03,.01-.07,.02-.1,.02-.15,0-.28-.12-.33-.26Z"/><path class="cls-8" d="M21.99,33c-.06-1.33-.39-2.62-.23-3.97,.04-2.99,.49-6.32,2.95-8.33,1.08-.89,2.6-1.55,3.93-.82,1.85,.85,3.41,2.79,3.72,4.83-.2,.2-.38,.43-.54,.68-.02,.03-.05,.06-.07,.09h-.03c-.11-2.28-1.96-4.64-4.22-5.05-1.36-.02-2.54,.96-3.33,1.94-1.99,2.8-1.92,6.56-1.62,9.82-.04,.37,.19,1.05-.28,1.16-.17,0-.28-.19-.28-.34Z"/><path class="cls-8" d="M15.81,53.97c-5.23-2.73-2.98-7.67,.3-10.98,.81-.93,1.7-1.8,2.58-2.67,.19-.13,.46-.22,.66-.07,.15,.4-.12,.84-.41,1.1-2.19,2.42-5.49,4.96-5.46,8.49,.16,1.13,.99,2.02,1.87,2.63,1.23,.92,2.64,1.52,4.15,1.03,2.25-.6,2.24-3.51,2.26-5.37-.06-.38,.45-.51,.51-.09,.17,2.07,.24,4.81-1.7,6.09-1.46,.84-3.36,.79-4.76-.16Z"/><path class="cls-8" d="M9.14,47.56c-4.13-.83-4.42-5.21-1.43-7.7,2.62-2.21,6.14-2.74,9.47-2.45,.79-.04,.77,1.07-.02,.98-3.35-.28-7.17,.22-9.51,2.84-1.61,1.72-1.5,3.9,.66,5.03,4.16,1.26,7.25-2.88,9.89-5.4,.16-.18,.41-.51,.63-.21,.28,.48-.38,.82-.63,1.16-2.37,2.71-5.13,5.89-9.05,5.74Z"/><path class="cls-8" d="M10.31,38.55c-8-.58-6.03-10.32,.03-12.27,2.08-.22,4.03,1.08,5.52,2.39,.77,.61,5.11,4.65,3.62,5.29-.31,0-.44-.32-.58-.55-1.78-2.76-4.44-5.51-7.74-6.21-1.94-.09-3.41,1.67-4.35,3.17-2.86,4.35,.56,7.6,5.09,7.38,.19-.03,.43,.13,.38,.34-.35,.6-1.36,.39-1.98,.46Z"/><path class="cls-8" d="M14.31,28.35c-2.1-3.19-1.1-7.29,2.85-8.23,1.15-.3,2.46-.63,3.6-.15,1.49,.86,2.62,2.74,2.37,4.48-.19,.63-.65,.75-.72-.01-.02-.28,.04-.59,0-.84-.12-.69-.49-1.33-.86-1.85-1.54-2.44-6.8-.42-7.46,1.96-.21,1.03,.02,2.21,.26,3.17,.04,.53,.73,1,.4,1.51-.12,.13-.34,.12-.44-.04Z"/><g class="cls-4"><path class="cls-8" d="M31.44,34.43c-6.99-4.46,3.66-12.68,5.14-17.75,2.03-4.43,3.23-9.31,3.26-14.16-.03-.23-.02-.54,.25-.62,.3-.02,.37,.35,.36,.58-.04,5.83-1.64,11.65-4.34,16.8-1.87,4.09-6.59,7.42-6.16,12.25,1.23,4.03,6.31,1.93,9.39,2.07,2.09,0,4.81-.59,6.3,1.16-2.73-.33-5.49-.4-8.24-.15-2,.16-4.14,.77-6.02-.2l.05,.02Z"/><path class="cls-8" d="M49.55,34.06c-.67-.99-1.42-2.13-2.51-2.68-1.99-.87-4.47-1.73-6.58-.89-.42,.12-.55-.6-.18-.74,3.25-1.05,7.63,.3,9.47,3.27,.8-2.04,.8-4.79-.86-6.33-.99-.89-2.14-1.79-3.28-2.29,4.23-.31,6.31,4.79,5.01,8.31-.2,.46-.4,1.57-1.07,1.35Z"/><path class="cls-8" d="M38.96,31.62c-.83,.03-1.41-1.01-.59-1.5,1.38-.68,4.27-1.05,5.58-.37,.84-.07,2.58,.37,1.5,1.41-2.09,.43-4.34,.42-6.48,.46Z"/></g></g></svg>