<?xml version="1.0" encoding="UTF-8"?><svg id="Layer_1" xmlns="http://www.w3.org/2000/svg" xmlns:xlink="http://www.w3.org/1999/xlink" viewBox="0 0 56.69 56.69"><defs><style>.cls-1{clip-path:url(#clippath-11);}.cls-2{clip-path:url(#clippath-16);}.cls-3{clip-path:url(#clippath-2);}.cls-4{clip-path:url(#clippath-13);}.cls-5{clip-path:url(#clippath-15);}.cls-6{clip-path:url(#clippath-6);}.cls-7{clip-path:url(#clippath-7);}.cls-8{clip-path:url(#clippath-1);}.cls-9{clip-path:url(#clippath-4);}.cls-10{fill:#39b54a;}.cls-11{clip-path:url(#clippath-12);}.cls-12{fill:#3db54a;}.cls-13{clip-path:url(#clippath-9);}.cls-14{clip-path:url(#clippath);}.cls-15{fill:none;}.cls-16{clip-path:url(#clippath-3);}.cls-17{fill:#f7941d;}.cls-18{clip-path:url(#clippath-8);}.cls-19{fill:#5cba47;}.cls-20{fill:#d1d3d4;}.cls-21{clip-path:url(#clippath-14);}.cls-22{clip-path:url(#clippath-5);}.cls-23{clip-path:url(#clippath-10);}.cls-24{fill:#e82425;}.cls-25{fill:#010101;}</style><clipPath id="clippath"><rect class="cls-15" x="1.42" y="3.24" width="53.86" height="50.21"/></clipPath><clipPath id="clippath-1"><rect class="cls-15" x="1.42" y="3.24" width="28.51" height="41.17"/></clipPath><clipPath id="clippath-2"><rect class="cls-15" x="17.98" y="3.69" width="7.05" height="8.56"/></clipPath><clipPath id="clippath-3"><rect class="cls-15" x="1.42" y="9.96" width="27.56" height="34.2"/></clipPath><clipPath id="clippath-4"><rect class="cls-15" x="1.48" y="3.24" width="28.45" height="41.17"/></clipPath><clipPath id="clippath-5"><rect class="cls-15" x="14.02" y="7.8" width="28.51" height="41.17"/></clipPath><clipPath id="clippath-6"><rect class="cls-15" x="30.59" y="8.25" width="7.05" height="8.56"/></clipPath><clipPath id="clippath-7"><rect class="cls-15" x="14.02" y="14.52" width="27.57" height="34.2"/></clipPath><clipPath id="clippath-8"><rect class="cls-15" x="14.09" y="7.8" width="28.45" height="41.17"/></clipPath><clipPath id="clippath-9"><rect class="cls-15" x="26.77" y="12.28" width="28.51" height="41.17"/></clipPath><clipPath id="clippath-10"><rect class="cls-15" x="43.33" y="12.74" width="7.05" height="8.56"/></clipPath><clipPath id="clippath-11"><rect class="cls-15" x="26.77" y="19" width="27.56" height="34.21"/></clipPath><clipPath id="clippath-12"><rect class="cls-15" x="26.83" y="12.28" width="28.45" height="41.17"/></clipPath><clipPath id="clippath-13"><rect class="cls-15" x="26.77" y="12.28" width="28.51" height="41.17"/></clipPath><clipPath id="clippath-14"><rect class="cls-15" x="43.33" y="12.74" width="6.96" height="8.25"/></clipPath><clipPath id="clippath-15"><rect class="cls-15" x="26.77" y="19" width="27.56" height="34.21"/></clipPath><clipPath id="clippath-16"><rect class="cls-15" x="26.83" y="12.28" width="28.45" height="41.17"/></clipPath></defs><g class="cls-14"><g class="cls-8"><g class="cls-3"><path class="cls-12" d="M22.09,11.64c-.28-.11-.23-.45-.19-.69,.04-.61-.09-1.24-.04-1.83,.02-.15,0-.32,.04-.43,.12,.11,.23,.21,.33,.34,.39,.34,.65,2.76-.14,2.61Z"/><path class="cls-12" d="M22.23,11.5c-.22-.18-.15-.5-.03-.7,.11-.46,.16-.9,.23-1.36,.4,.31,.76,2.38-.19,2.06Z"/><path class="cls-12" d="M22.72,11.64c-.49-.27-.09-.91-.12-1.34,.04-.18,0-.44,.08-.59,.4,.38,.95,1.93,.04,1.93Z"/><path class="cls-12" d="M22.7,11.21c-.04-.15,0-.34,.14-.43,.06-.41,.01-.83,.06-1.2,.22,.24,.41,.48,.49,.8,.25,.56-.32,1.58-.68,.82Z"/><path class="cls-12" d="M23.17,11c-.02-.43-.11-.89-.17-1.3,.16,.05,.34,.26,.49,.4,.26,.32,.6,1.1,.06,1.3-.22,.04-.38-.2-.38-.41Z"/><path class="cls-12" d="M23.67,11.3c-.31-.45-.48-1.11-.61-1.63,.57,.21,1.1,.77,1.04,1.4-.04,.18-.26,.38-.43,.23Z"/><path class="cls-12" d="M24.02,10.94c-.25-.36-.56-.76-.68-1.16,.45,.19,1.4,.53,1.1,1.16-.1,.15-.33,.15-.43,0Z"/><path class="cls-12" d="M24.07,10.97c-.44-.3-.78-.79-1.16-1.18,.02,.12,0,.25-.1,.35-.06,.06-.13,.09-.21,.08-.52,1.38-1.17-.96-1.36-1.44-.3-.56-.61-1.21-1-1.7-.59-.9-1.61-1.62-1.98-2.61,0-.37,.38-.43,.67-.45,.38-.03,.65,.3,.85,.58,1.51,1.96,2.95,4,4.47,5.96,.1,.16,.05,.46-.19,.42Z"/></g><g class="cls-16"><path class="cls-19" d="M23.56,23.18c-.27-2.21-.2-4.48,.15-6.68,.04-.15,.14-.31,.28-.4,.2,2.25-.47,4.82-.44,7.07Z"/><path class="cls-10" d="M26.87,24.73c-.5-.58,.16-1.42,0-2.11-.12-.07-.19-.23-.19-.37,0-.05,0-.1,0-.15-.71,.07-.34-1.02-.42-1.45-.02,.02-.04,.03-.07,.05-.08,.36,.07,.96-.34,1.12-.45,.02-.35-.57-.36-.87-.07-.02-.14-.05-.18-.12-.18,.64-.72,.22-.62-.28-.03-.01-.05-.03-.08-.05-.15,.42,.02,2.61-.69,2.15-.02,.26,.02,.71-.36,.68-.45-.21-.18-.91-.27-1.31h0c-.06,.04-.13,.05-.2,.03-.01,0-.03-.01-.04-.02,.08,.33-.31,.74-.54,.34-.15-.34-.1-.74-.12-1.11-.44-.08-.29-.76-.41-1.08-.01,.01-.03,.02-.05,.03-.03,.02-.05,.03-.08,.03,.15,.73-.54,.76-.53,.02h-.01c-.67,.81-.57-1.68-.72-2.04-.05,.25,.02,.78-.35,.76-.13,.21-.39,.07-.44-.13-.55-.18-.4-1.26-.48-1.76-.23-.95-.07-1.96,.08-2.9,.03-.91,.51-2.11,1.52-2.23,.14-.1,.29-.2,.46-.22,.05,0,.1,0,.15,.02,.05-.02,.09-.03,.14-.04,.07,0,.13,0,.19,.04,.15-.09,.38-.22,.54-.08,.04,.03,.07,.07,.09,.12,.06,0,.11,0,.16,.02,.19-.25,.68-.53,.76-.04,.12-.03,.23,.01,.3,.11,0-.25,.27-.59,.49-.32,.48-.16,.88-.55,1.4-.59,.11-.07,.27-.13,.38-.02,.06-.05,.13-.06,.19-.05,.07-.13,.2-.25,.35-.2,.11-.07,.23-.05,.32,.04,.03,.03,.05,.07,.07,.11,.03,.01,.05,.03,.07,.05h.01c-.09-.6,.54-.68,.51-.06,.23,.3,.3,.67,.39,1.02,.38,.28,.19,1,.28,1.4,.07,.64,.2,2.05,.07,2.63-.02,.86,.43,1.93-.02,2.69-.2,1.02,.1,2.21-.33,3.13-.19,.76-.11,1.74-.53,2.37-.06,.24-.21,.62-.51,.6Z"/><path class="cls-10" d="M24.32,28.32c-.01,.11-.03,.23-.05,.35,.05-.13,.11-.27,.15-.4,.03-.08,.06-.17,.09-.25-.03,0-.06-.02-.1-.04-.02-.01-.03-.02-.05-.04-.02,.13-.04,.26-.05,.38Zm-11.69,11.16c-1.93,1.26-4.03,2.24-6.21,2.97,8.8-1.85,13.56-5.32,17.67-13.33h0c-.1,.09-.25,.1-.36,.04-.12-.07-.2-.21-.21-.35-.26,.06-.43-.24-.44-.46-.06,.03-.12,.04-.18,.03-.04,.59-.73,.52-.75-.03-.47,.13-.48-.48-.49-.8-.51,.03-.47-.67-.56-1.02-.04,.03-.09,.06-.14,.07-.03,0-.06,0-.09,0-1.46,4.99-4.08,9.67-8.23,12.89Zm-9.23,4.4c-.79-.08-1.7-1.25-.84-1.83,.76-.36,1.64-.31,2.44-.51,2.53-.71,5-1.82,7.21-3.19,3.98-3.02,6.39-7.51,7.86-12.2,.54-1.94-.37-3.93-.21-5.92-.52-1.38-.52-3.07-.32-4.52,.63-.73,.79,.55,.8,1,.57,.16,.26,.93,.3,1.37,.13,.3,.05,.65,.08,.97-.01-.48,.28-1.87,.86-.99,.11,.49-.03,.99-.02,1.49,.05-.46,.12-.92,.25-1.36,.24-.58,.86-.12,.73,.37,.18,.07,.25,.24,.27,.42,.09-.61,.82-.7,.85-.02-.02,.4-.1,.8-.13,1.2,.23-.66,.12-2.06,.93-2.24,.22,.05,.31,.29,.33,.49,.28-.69,1.07-.57,.94,.22,.02-.01,.03-.02,.05-.04,.2-.12,.41,.03,.49,.21,.8-.07,.43,1.01,.43,1.49,.06-.26,.14-.77,.51-.62,.08-.17,.31-.31,.49-.2,.12,.07,.17,.19,.19,.32-.06,.86-.41,1.7-.56,2.55,.18,.01,.27,.22,.25,.38-.16,1.55-.26,3.15-.94,4.58-.58,1.06-1.04,2.36-1.88,3.2-.06,.02-.12,0-.17-.02-2.01,3.27-4.1,6.65-7.23,8.89-4.13,2.62-9.08,4.44-13.98,4.54Z"/><path class="cls-10" d="M18.69,37.68c.35-1.34,1.83-2.03,2.7-3.01,2.17-1.99,3.65-4.73,4.06-7.62,0-.52,.66-.53,.64,0-.16,4.09-2.62,7.58-5.75,10.04-.44,.44-1.02,.8-1.65,.58Z"/><path class="cls-10" d="M5.57,42.86c-.36-.13-.45-.68-.23-.96,.49-.37,1.86-.49,2.67-1.03,7.98-3.73,10.8-6.97,12.84-15.54,0-.36,.3-.97,.69-.56,.57-.7,1.01,.26,.77,.83,1.09,.01,.13,2.59,.04,3.26,.34-.44,.91-3.02,1.59-1.76,.66-1.29,1-2.72,1.55-4.03,.39-.38,.83,.2,.65,.6-.07,.22-.15,.46-.21,.68,0,.84-4.75,12.26-5.25,10.16-2.17,3.01-5.51,4.87-8.83,6.36-2.01,.8-4.08,2.01-6.27,1.99Z"/><path class="cls-10" d="M8.58,42.52h0c-.39-.07-.48-.62-.28-.91,1.11-.64,2.49-.95,3.64-1.59,2.51-1.09,4.9-2.48,6.98-4.22,.14-.12,.33-.06,.43,.08,.12,.16,.12,.44-.03,.58-.71,.72-1.44,1.4-2.28,1.96-2.64,1.63-5.3,3.79-8.47,4.11Z"/></g><g class="cls-9"><path class="cls-25" d="M5.71,43.41c12.81-1.5,22.13-11.89,22.44-24.75,.22-2.35,.44-4.83-.29-7.1-.14-.28-.32-.59-.59-.75-.96-.18-2.09,.94-3.17,.81-1.26,.64-2.89-.1-4.05,.77-2.05,3.65,.53,7.65,.53,11.47-.31,6.68-4.63,13.03-10.43,16.25-2.28,1.13-4.79,1.69-7.25,2.29-.06,.05-.11,.2-.13,.29,.53,1,1.97,.74,2.94,.73Zm-1.32,.66c-1.04,.05-2.63-.74-1.98-1.95,.09-.21,.26-.39,.49-.43,1.07-.25,2.16-.49,3.19-.78,5.17-1.27,9.7-5,11.89-9.85,1.18-2.4,2.29-4.96,2.09-7.7-.17-3.73-3.01-8.63,.15-11.68,.97-.47,2.11-.2,3.13-.37,.94-.45,2.05-.74,3.05-1.17,3.24-1.07,2.54,6.2,2.4,8.03-.29,13.74-10.42,25.33-24.4,25.9Z"/><path class="cls-25" d="M21.55,11.67c-.09-.7,.02-1.44-.31-2.11-.88-1.69-1.92-3.45-3.43-4.61-.22-.03-.34-.26-.29-.47,.04-.2,.25-.28,.41-.37,.36-.17,.66-.5,1.05-.58,1.31,.58,2.02,2.1,2.89,3.19,.97,1.17,1.73,2.67,2.87,3.61,.26,.15,.73-.18,.8,.24,0,.61-1.08,.32-1.37,.06-2-1.89-3.11-4.61-5.22-6.37-.2,.12-.39,.24-.59,.37,1.77,1.82,3.85,4.17,3.71,6.85h0v-.06c.06,.32-.36,.6-.53,.25Z"/></g></g><g class="cls-22"><g class="cls-6"><path class="cls-12" d="M34.7,16.19c-.28-.11-.23-.45-.19-.69,.04-.61-.09-1.24-.04-1.83,.02-.15,0-.32,.04-.43,.12,.11,.23,.21,.33,.34,.39,.34,.65,2.76-.14,2.61Z"/><path class="cls-12" d="M34.84,16.06c-.22-.18-.15-.5-.03-.7,.11-.46,.16-.9,.23-1.36,.4,.31,.76,2.38-.19,2.06Z"/><path class="cls-12" d="M35.33,16.2c-.49-.27-.09-.91-.12-1.34,.04-.19,0-.44,.08-.59,.4,.38,.95,1.93,.04,1.93Z"/><path class="cls-12" d="M35.31,15.76c-.04-.15,0-.34,.14-.43,.06-.41,.01-.83,.06-1.2,.22,.24,.41,.48,.49,.8,.25,.56-.32,1.58-.68,.82Z"/><path class="cls-12" d="M35.78,15.56c-.02-.43-.11-.89-.17-1.3,.16,.05,.34,.26,.49,.4,.26,.32,.6,1.1,.06,1.3-.22,.04-.38-.2-.38-.41Z"/><path class="cls-12" d="M36.28,15.86c-.31-.45-.48-1.11-.61-1.63,.57,.21,1.1,.77,1.04,1.4-.04,.18-.26,.38-.43,.23Z"/><path class="cls-12" d="M36.63,15.49c-.25-.36-.56-.76-.68-1.16,.45,.19,1.4,.53,1.1,1.16-.1,.15-.33,.15-.43,0Z"/><path class="cls-12" d="M36.68,15.53c-.44-.3-.78-.79-1.16-1.18,.02,.12,0,.25-.1,.35-.06,.06-.13,.09-.21,.08-.52,1.38-1.17-.96-1.36-1.44-.3-.56-.61-1.21-1-1.7-.59-.9-1.61-1.62-1.98-2.61,0-.37,.38-.43,.67-.45,.38-.03,.65,.3,.85,.58,1.51,1.96,2.95,4,4.47,5.96,.1,.16,.05,.46-.19,.42Z"/></g><g class="cls-7"><path class="cls-17" d="M40.99,20.48c-.02,.86,.43,1.93-.01,2.69-.19,1.01,.1,2.2-.33,3.13-.18,.71-.12,1.6-.45,2.23-.13,1.14-.31,2.27-.81,3.3-.27,.5-.51,1.05-.78,1.57-.68,3.32-2.86,6.16-5.53,8.25-.3,.3-.67,.57-1.07,.63-.59,.59-1.22,1.13-1.9,1.61-4.12,2.61-9.08,4.45-13.98,4.53-.78-.08-1.7-1.25-.83-1.83,.76-.36,1.64-.31,2.44-.51,2.52-.71,5-1.82,7.21-3.19,3.98-3.02,6.39-7.52,7.86-12.2,.54-1.94-.37-3.92-.21-5.92-.2-.54-.33-1.13-.39-1.74,0,0,0,0,0,0-.14-.41-.08-1.03-.14-1.37-.23-.95-.07-1.96,.08-2.9,.03-.91,.52-2.12,1.52-2.23,.14-.1,.3-.2,.46-.21,.05,0,.11,0,.15,.02,.04-.02,.09-.03,.14-.04,.07,0,.13,0,.19,.04,.15-.09,.38-.22,.54-.08,.04,.03,.07,.07,.09,.11,.06,0,.11,0,.17,.02,.19-.25,.68-.53,.76-.04,.11-.03,.23,.01,.3,.11,0-.25,.27-.59,.49-.32,.48-.16,.89-.55,1.4-.59,.11-.07,.27-.14,.38-.02,.06-.05,.13-.06,.19-.05,.06-.13,.19-.25,.35-.2,.11-.06,.23-.05,.32,.04,.03,.03,.05,.07,.07,.11,.02,0,.05,.02,.07,.04,0,0,0,0,0,0-.09-.59,.54-.68,.52-.05,.23,.3,.3,.67,.39,1.02,.38,.28,.19,1,.28,1.4,.07,.64,.2,2.05,.06,2.63Zm-5.86,12.84s-.02-.01-.04-.02c0,.04-.01,.08-.02,.11,.02-.02,.04-.05,.06-.09Z"/></g><g class="cls-18"><path class="cls-25" d="M18.32,47.96c12.81-1.5,22.13-11.89,22.44-24.75,.22-2.35,.44-4.83-.29-7.1-.14-.28-.32-.59-.59-.75-.96-.18-2.09,.94-3.17,.81-1.26,.64-2.89-.1-4.05,.77-2.05,3.65,.53,7.65,.53,11.47-.31,6.68-4.63,13.03-10.43,16.25-2.28,1.13-4.79,1.69-7.25,2.29-.06,.05-.11,.2-.13,.29,.53,1,1.97,.74,2.94,.73Zm-1.32,.66c-1.04,.05-2.63-.74-1.98-1.95,.09-.21,.26-.39,.49-.43,1.07-.25,2.16-.49,3.19-.78,5.17-1.27,9.7-5,11.89-9.85,1.18-2.4,2.29-4.96,2.09-7.7-.17-3.73-3.01-8.63,.15-11.68,.97-.47,2.11-.2,3.13-.37,.94-.45,2.05-.74,3.05-1.17,3.24-1.07,2.54,6.2,2.4,8.03-.29,13.74-10.42,25.33-24.4,25.9Z"/><path class="cls-25" d="M34.16,16.22c-.09-.7,.02-1.44-.31-2.11-.88-1.69-1.92-3.45-3.43-4.61-.22-.03-.34-.26-.29-.47,.04-.2,.25-.28,.41-.37,.36-.17,.66-.5,1.05-.58,1.31,.58,2.02,2.1,2.89,3.19,.97,1.17,1.73,2.67,2.87,3.61,.26,.15,.73-.18,.8,.24,0,.61-1.08,.32-1.37,.06-2-1.89-3.11-4.61-5.22-6.37-.2,.12-.39,.24-.59,.37,1.77,1.82,3.85,4.17,3.71,6.85h0v-.06c.06,.32-.36,.6-.53,.25Z"/></g></g><g class="cls-13"><g class="cls-23"><path class="cls-12" d="M47.44,20.68c-.28-.11-.23-.45-.19-.69,.04-.61-.09-1.24-.04-1.83,.02-.15,0-.32,.04-.43,.12,.11,.23,.21,.33,.34,.39,.34,.65,2.76-.14,2.61Z"/><path class="cls-12" d="M47.58,20.55c-.22-.18-.15-.5-.03-.7,.11-.46,.16-.9,.23-1.36,.4,.31,.76,2.38-.19,2.06Z"/><path class="cls-12" d="M48.07,20.68c-.49-.27-.09-.91-.12-1.34,.04-.18,0-.44,.08-.59,.4,.38,.95,1.93,.04,1.93Z"/><path class="cls-12" d="M48.05,20.25c-.04-.15,0-.34,.14-.43,.06-.41,.01-.83,.06-1.2,.22,.24,.41,.48,.49,.8,.25,.56-.32,1.58-.68,.82Z"/><path class="cls-12" d="M48.51,20.05c-.02-.43-.11-.89-.17-1.3,.16,.05,.34,.26,.49,.4,.26,.32,.6,1.1,.06,1.3-.22,.04-.38-.2-.38-.41Z"/><path class="cls-12" d="M49.01,20.35c-.31-.45-.48-1.11-.61-1.63,.57,.21,1.1,.77,1.04,1.4-.04,.18-.26,.38-.43,.23Z"/><path class="cls-12" d="M49.37,19.98c-.25-.36-.56-.76-.68-1.16,.45,.19,1.4,.53,1.1,1.16-.1,.15-.33,.15-.43,0Z"/><path class="cls-12" d="M49.42,20.02c-.44-.3-.78-.79-1.16-1.18,.02,.12,0,.25-.1,.35-.06,.06-.13,.09-.21,.08-.52,1.38-1.17-.96-1.36-1.44-.3-.56-.61-1.21-1-1.7-.59-.9-1.61-1.62-1.98-2.61,0-.37,.38-.43,.67-.45,.38-.03,.65,.3,.85,.58,1.51,1.96,2.95,4,4.47,5.96,.1,.16,.05,.46-.19,.42Z"/></g><g class="cls-1"><path class="cls-24" d="M53.61,24.97c-.02,.86,.43,1.94-.01,2.69-.19,1.01,.1,2.21-.33,3.13-.18,.71-.12,1.59-.45,2.23-.13,1.14-.31,2.27-.81,3.3-.27,.5-.51,1.05-.78,1.57-.68,3.32-2.86,6.16-5.53,8.25-.3,.3-.67,.56-1.07,.62-.59,.59-1.22,1.13-1.9,1.61-4.12,2.62-9.08,4.45-13.98,4.54-.78-.08-1.69-1.25-.83-1.84,.76-.36,1.64-.31,2.44-.51,2.53-.71,5-1.82,7.21-3.19,3.98-3.02,6.39-7.52,7.86-12.2,.54-1.94-.37-3.92-.21-5.92-.2-.54-.33-1.13-.39-1.74,0,0,0,0,0,0-.14-.41-.08-1.03-.14-1.37-.24-.95-.07-1.95,.08-2.91,.03-.91,.52-2.11,1.52-2.22,.14-.11,.3-.2,.46-.22,.05,0,.11,0,.15,.02,.04-.02,.09-.03,.14-.03,.07,0,.13,0,.19,.03,.15-.09,.38-.22,.54-.08,.04,.03,.07,.07,.09,.12,.06,0,.11,0,.17,.02,.19-.25,.68-.53,.76-.04,.11-.03,.23,.01,.3,.12,0-.25,.27-.59,.49-.33,.48-.16,.89-.55,1.4-.59,.11-.07,.27-.14,.38-.02,.06-.05,.13-.06,.19-.05,.06-.12,.19-.25,.35-.2,.11-.06,.23-.05,.32,.04,.03,.03,.05,.07,.07,.11,.02,0,.05,.02,.07,.04,0,0,0,0,0,0-.09-.59,.54-.68,.52-.05,.23,.29,.3,.66,.39,1.02,.38,.28,.19,1,.28,1.4,.07,.64,.2,2.05,.06,2.63Zm-5.86,12.84s-.03-.01-.04-.02c0,.04-.01,.08-.02,.11,.02-.02,.04-.05,.06-.09Z"/></g><g class="cls-11"><path class="cls-25" d="M31.06,52.45c12.81-1.5,22.13-11.89,22.44-24.75,.22-2.35,.44-4.83-.29-7.1-.14-.28-.32-.59-.59-.75-.96-.18-2.09,.94-3.17,.81-1.26,.64-2.89-.1-4.05,.77-2.05,3.65,.53,7.65,.53,11.47-.31,6.68-4.63,13.03-10.43,16.25-2.28,1.13-4.79,1.69-7.25,2.29-.06,.05-.11,.2-.13,.29,.53,1,1.97,.74,2.94,.73Zm-1.32,.66c-1.04,.05-2.63-.74-1.98-1.95,.09-.21,.26-.39,.49-.43,1.07-.25,2.16-.49,3.19-.78,5.17-1.27,9.7-5,11.89-9.85,1.18-2.4,2.29-4.96,2.09-7.7-.17-3.73-3.01-8.63,.15-11.68,.97-.47,2.11-.2,3.13-.37,.94-.45,2.05-.74,3.05-1.17,3.24-1.07,2.54,6.2,2.4,8.03-.29,13.74-10.42,25.33-24.4,25.9Z"/><path class="cls-25" d="M46.9,20.71c-.09-.7,.02-1.44-.31-2.11-.88-1.69-1.92-3.45-3.43-4.61-.22-.03-.34-.26-.29-.47,.04-.2,.25-.28,.41-.37,.36-.17,.66-.5,1.05-.58,1.31,.58,2.02,2.1,2.89,3.19,.97,1.17,1.73,2.67,2.87,3.61,.26,.15,.73-.18,.8,.24,0,.61-1.08,.32-1.37,.06-2-1.89-3.11-4.61-5.22-6.37-.2,.12-.39,.24-.59,.37,1.77,1.82,3.85,4.17,3.71,6.85h0v-.06c.06,.32-.36,.6-.53,.25Z"/></g><g class="cls-4"><g class="cls-21"><path class="cls-20" d="M49.18,19.04c.41,.2,.82,.5,.61,.95-.08,.12-.23,.15-.34,.08,0,.02,0,.04,0,.06-.04,.17-.23,.36-.4,.24-.04,.04-.09,.07-.15,.09-.12,.02-.21-.03-.28-.12-.03,.06-.08,.11-.13,.14-.07,.13-.2,.21-.41,.21-.07-.04-.12-.08-.16-.14-.05,.03-.11,.04-.19,.03-.07,.09-.17,.13-.29,.1-.28-.11-.22-.45-.19-.69,.01-.2,0-.39,0-.59-.29-.45-.55-1.31-.65-1.57-.3-.57-.61-1.21-1-1.7-.59-.9-1.61-1.62-1.98-2.61,0-.37,.38-.43,.67-.45,.39-.03,.65,.3,.85,.58,1.36,1.77,2.67,3.61,4.05,5.4Z"/></g><g class="cls-5"><path class="cls-20" d="M53.61,24.97c-.02,.86,.43,1.94-.01,2.69-.19,1.01,.1,2.21-.33,3.13-.18,.71-.12,1.59-.45,2.23-.13,1.14-.31,2.27-.81,3.3-.27,.5-.51,1.05-.78,1.57-.68,3.32-2.86,6.16-5.53,8.25-.3,.3-.67,.56-1.07,.62-.59,.59-1.22,1.13-1.9,1.61-4.12,2.62-9.08,4.45-13.98,4.54-.78-.08-1.69-1.25-.83-1.84,.76-.36,1.64-.31,2.44-.51,2.53-.71,5-1.82,7.21-3.19,3.98-3.02,6.39-7.52,7.86-12.2,.54-1.94-.37-3.92-.21-5.92-.2-.54-.33-1.13-.39-1.74,0,0,0,0,0,0-.14-.41-.08-1.03-.14-1.37-.24-.95-.07-1.95,.08-2.91,.03-.91,.52-2.11,1.52-2.22,.14-.11,.3-.2,.46-.22,.05,0,.11,0,.15,.02,.04-.02,.09-.03,.14-.03,.07,0,.13,0,.19,.03,.15-.09,.38-.22,.54-.08,.04,.03,.07,.07,.09,.12,.06,0,.11,0,.17,.02,.19-.25,.68-.53,.76-.04,.11-.03,.23,.01,.3,.12,0-.25,.27-.59,.49-.33,.48-.16,.89-.55,1.4-.59,.11-.07,.27-.14,.38-.02,.06-.05,.13-.06,.19-.05,.06-.12,.19-.25,.35-.2,.11-.06,.23-.05,.32,.04,.03,.03,.05,.07,.07,.11,.02,0,.05,.02,.07,.04,0,0,0,0,0,0-.09-.59,.54-.68,.52-.05,.23,.29,.3,.66,.39,1.02,.38,.28,.19,1,.28,1.4,.07,.64,.2,2.05,.06,2.63Zm-5.86,12.84s-.03-.01-.04-.02c0,.04-.01,.08-.02,.11,.02-.02,.04-.05,.06-.09Z"/></g><g class="cls-2"><path class="cls-25" d="M31.06,52.45c12.81-1.5,22.13-11.89,22.44-24.75,.22-2.35,.44-4.83-.29-7.1-.14-.28-.32-.59-.59-.75-.96-.18-2.09,.94-3.17,.81-1.26,.64-2.89-.1-4.05,.77-2.05,3.65,.53,7.65,.53,11.47-.31,6.68-4.63,13.03-10.43,16.25-2.28,1.13-4.79,1.69-7.25,2.29-.06,.05-.11,.2-.13,.29,.53,1,1.97,.74,2.94,.73Zm-1.32,.66c-1.04,.05-2.63-.74-1.98-1.95,.09-.21,.26-.39,.49-.43,1.07-.25,2.16-.49,3.19-.78,5.17-1.27,9.7-5,11.89-9.85,1.18-2.4,2.29-4.96,2.09-7.7-.17-3.73-3.01-8.63,.15-11.68,.97-.47,2.11-.2,3.13-.37,.94-.45,2.05-.74,3.05-1.17,3.24-1.07,2.54,6.2,2.4,8.03-.29,13.74-10.42,25.33-24.4,25.9Z"/><path class="cls-25" d="M46.9,20.71c-.09-.7,.02-1.44-.31-2.11-.88-1.69-1.92-3.45-3.43-4.61-.22-.03-.34-.26-.29-.47,.04-.2,.25-.28,.41-.37,.36-.17,.66-.5,1.05-.58,1.31,.58,2.02,2.1,2.89,3.19,.97,1.17,1.73,2.67,2.87,3.61,.26,.15,.73-.18,.8,.24,0,.61-1.08,.32-1.37,.06-2-1.89-3.11-4.61-5.22-6.37-.2,.12-.39,.24-.59,.37,1.77,1.82,3.85,4.17,3.71,6.85h0v-.06c.06,.32-.36,.6-.53,.25Z"/></g></g></g></g></svg>