<?xml version="1.0" encoding="UTF-8"?><svg id="Layer_1" xmlns="http://www.w3.org/2000/svg" xmlns:xlink="http://www.w3.org/1999/xlink" viewBox="0 0 56.69 56.69"><defs><style>.cls-1{fill:#51b848;}.cls-2{fill:#3bb54a;}.cls-3{fill:#fff;opacity:0;}.cls-4{clip-path:url(#clippath-2);}.cls-5{clip-path:url(#clippath-1);}.cls-6{fill:#fedc00;}.cls-7{fill:#3db54a;}.cls-8{clip-path:url(#clippath);}.cls-9{fill:none;}.cls-10{fill:#010101;}</style><clipPath id="clippath"><rect class="cls-9" x="6.98" y="1.6" width="39.98" height="53.49"/></clipPath><clipPath id="clippath-1"><rect class="cls-9" x="17.16" y="6.55" width="22.69" height="41.53"/></clipPath><clipPath id="clippath-2"><rect class="cls-9" x="6.98" y="1.6" width="39.98" height="53.49"/></clipPath></defs><g id="Friland"><rect class="cls-3" x="1.42" y="1.42" width="53.86" height="53.86"/><g class="cls-8"><g class="cls-5"><path class="cls-1" d="M28.77,32.17c-.08-.05-.15-.14-.19-.22-.86,.27-1.22-.7-.52-1.11,.36-.32,.71-.65,1.12-.91-.02-.05-.03-.11-.03-.17h0s-.03-.03-.05-.04c-.03-.03-.05-.05-.07-.08-.3,.35-.78,0-.69-.4,.22-.6,1.33-1.51,1.96-1.57,.06-.03,.12-.04,.19-.04,.06,0,.1,.01,.15,.05,.33-.2,.57-.77,.98-.66,.03,0,.07,0,.1,0,.08,0,.14,.05,.18,.11,.11-.03,.24-.02,.33,.05,.01,0,.02,0,.03,0,.13-.05,.23-.02,.3,.06,.47-.1,.56,.57,.27,.82-.48,.92-1.04,2.09-1.8,2.8-.23,.27-.45,1.16-.94,.79-.26,.26-.62,.59-1,.59-.11,0-.21-.03-.32-.09Z"/><path class="cls-1" d="M23.29,32.7c-.14-.01-.24-.09-.28-.19-.05,.03-.11,.04-.17,.04-.06,0-.11-.01-.16-.03-.02-.01-.04-.02-.06-.03-.54,.03-1.09-.02-1.58-.26-.13-.06-.25-.14-.33-.26-.04-.05-.07-.1-.09-.15-.12-.04-.23-.08-.34-.12-.27-.1-.59-.19-.78-.43-.06-.07-.08-.14-.1-.22-.02,0-.04-.02-.05-.02-.15-.06-.28-.14-.37-.27-.15-.06-.22-.24-.23-.4-.45-.11-.6-.67-.09-.82,.19,.02,.36,.04,.54,.05,.08-.09,.2-.15,.32-.17,.07-.01,.15-.03,.22-.03v-.1c.02-.2,.18-.35,.39-.36-.01-.27,.22-.45,.48-.45,.58-.03,1.16-.07,1.75-.11,.27-.26,1.61-.04,1.99,.07h.05c0-1.21,.42-2.56,.94-3.12,.13-.42,.26-.83,.4-1.24,.02-.05,.04-.1,.09-.14-.03-.25-.03-.48,0-.68,.13-.16,.25-.32,.34-.49,.03-.06,.06-.11,.09-.16,.16,.07,.31,.38,.39,1.01,.55,.22,.37,1.07,.6,1.53,.37,.09,.35,.62,.46,.92,.09,.84,.66,1.73,.48,2.56,.04,.14,.06,.28,.07,.42,.02,.19-.12,.39-.31,.39-.02,.13-.08,.25-.18,.32,.03,.31-.09,.86-.51,.74-.05,.36,.01,1.08-.48,1.08-.01,0-.02,0-.03,0,0,0-.01,0-.02,0-.08-.02-.15-.06-.2-.12-.09,0-.17-.03-.23-.08-.04-.03-.07-.07-.1-.11-.23,.3-.48,.22-.65,.02-.04,.2-.32,.43-.58,.52,.13,.16,.12,.45-.05,.57-.06,.04-.11,.09-.18,.1-.11,.02-.21,.03-.32,.05-.18,.03-.35,.06-.53,.1-.1,.02-.2,.04-.3,.06-.09,.01-.18,.04-.27,.04h-.03Z"/><path class="cls-1" d="M32.86,42.17c-.06,.01-.13,.02-.21,.02-.19,0-.44-.03-.75-.11-.43-.26-1-.57-1.49-.94-1.1-.48-1.99-1.57-2.04-2.78,.06-.92,.71-.79,.9-.18,.09,.06,.18,.13,.27,.22,.06-.02,.13-.04,.21-.04,.05,.01,.11,.04,.19,.08-.05-.06-.1-.12-.14-.18,0-.26,.05-.42,.14-.5-.04-.03-.07-.07-.09-.12-.09,.04-.18,.07-.27,.07-.1,0-.19-.03-.27-.12-.17-.18-.2-.48-.08-.69,.02-.02,.03-.04,.03-.05-.01-.05-.02-.09-.02-.14-.16-.16-.12-.55,.14-.58-.06-.67,.61-1.17,1.21-1.34,.36-.15,.78-.51,1.17-.29,.86-.04,2.72-.37,2.73,.9,.16,.02,.32,.1,.44,.21,.29,.08,.58,.19,.8,.23,.26,.2,.33,.46,.28,.69-.04,.03-.08,.06-.11,.08l.09-.11s0-.03-.02-.02c-.24,.15-.45,.33-.6,.55-.08,0-.16-.02-.25-.05-.12,.1-.26,.18-.39,.25-.18,.08-.37,.12-.56,.12-.66,.36-1.42,.67-2.16,.67-.06,0-.12,0-.17,0-.08,.06-.17,.07-.26,.07h-.05c-.12,0-.24-.03-.36-.06-.09-.03-.18-.05-.26-.09,.19,.18,.35,.42,.55,.57,.44,.53,1.01,1.01,1.37,1.6,.46,.58,.79,1.09,.83,1.26-.16-.12-.33-.24-.5-.37,0,.03,0,.06,0,.1,.07,.03,.14,.06,.21,.1,.48,.27,.24,1.11-.19,1.11-.1,0-.2-.04-.31-.13Z"/><path class="cls-1" d="M30.56,47.27c-.25-.08-.5-.22-.6-.49-.06-.17-.07-.35-.02-.52-1.07-1.58,3.14-2.01,4.01-1.51,.11-.1,.24-.14,.39-.13,.08,0,.14,.01,.21,.03,0-.01,.02-.01,.02-.02,.02-.01,.03-.03,.05-.04t0,.01c.24-.15,.56,.03,.63,.28,.27,1.11-1.23,1.61-2.02,1.99-.41,.39-1.01,.53-1.61,.53-.37,0-.74-.06-1.05-.14Z"/><path class="cls-1" d="M28.97,45.38c-.08-.02-.15-.05-.21-.11-.03,.02-.07,.02-.11,.02-.11,0-.24-.06-.39-.2-.05-.06-.1-.13-.14-.21-.19-.06-.31-.27-.36-.48-.14-.64-.19-1.38-.05-2.05,.16-.21,.33-.41,.5-.61h-.01c.17-.2,.36-.39,.55-.57,.39,.36,.57,.83,.67,1.34,0,0,0,.01,0,.02,.09,.18,.16,.38,.22,.57,.06,.18,.03,.34-.05,.46h0c.02,.1,.02,.2,.02,.29,.01,.05,.02,.1,.03,.15,.02,.1,0,.22-.04,.32-.01,.18-.04,.36-.07,.54-.03,.25-.22,.52-.49,.52-.03,0-.05,0-.08,0Z"/><path class="cls-2" d="M27.81,42.02s.07-.07,.1-.11c-.05,.08-.09,.15-.13,.22,.01-.04,.02-.08,.03-.11Z"/><path class="cls-1" d="M19.68,41.75c-1.5-.63-2.18-2.33-2.18-3.86-.02-.75,.43-.49,.83-.16h0c.06-.03,.14-.04,.22-.04,.19,.07,.24,.26,.27,.44,0,0,0,.01,.01,.02,.74,.15,1.27,1.05,1.9,1.49,.49,.31,.49,.92,0,1.13,.28,.19,.31,.73-.07,.81-.04,.08-.1,.14-.19,.18-.1,.03-.19,.01-.27-.04-.09,.07-.2,.1-.3,.1-.07,0-.15-.02-.22-.05Z"/><path class="cls-1" d="M21.85,41.45c-.08-.09-.12-.22-.11-.35-.03-.01-.05-.02-.07-.04-.31-.06-.2-1.81,.07-3.06,.02-2.2,1.03-2.59,.96-1.09v.13c.12,0,.23,.08,.28,.2,.04,.09,.07,.17,.08,.26,.29,.34,.28,1.29,.18,1.73-.06,.39,.09,.99-.35,1.19-.03,.06-.08,.11-.14,.14-.1,.31-.26,.58-.46,.85-.06,.08-.15,.13-.24,.13-.07,0-.14-.03-.2-.09Z"/><path class="cls-1" d="M18.71,47.74c-.14-.05-.21-.18-.25-.32-.04-.13-.02-.27,.03-.4-.08-.39,.09-.77,.18-1.13,.06-.94,.68-2.17,1.52-2.63,.39-.3,.73,.26,.54,.61,0,0,.01,0,.02,0,.17-.8,1.07-.48,.83,.24-.32,.75-.64,1.42-.98,2.14-.1,.23-.38,.46-.62,.28-.25,.38-.46,.9-.88,1.1-.07,.08-.17,.14-.28,.14-.04,0-.07,0-.1-.02Z"/><path class="cls-1" d="M28.89,37c-.41-.57,.29-1.35,.85-1.51,.4-.06,.44,.66,.07,.72-.28,.27-.49,.7-.9,.8,0,0-.01,0-.02,0Z"/><path class="cls-7" d="M29.14,37.56c-.51-.21-.2-1.9,.4-1.57,.15,.45,0,1.3-.39,1.57t-.01,0Z"/><path class="cls-1" d="M28.93,37.52c-.35-.34,.05-1.11,.5-1.15,.08,.28,.05,1.2-.34,1.2-.05,0-.1-.01-.16-.04Z"/><path class="cls-1" d="M28.59,30.6c-.38-.48,.21-1.01,.33-1.49,.24-.25,.39-.96,.82-.8,.29-.23,.58-.57,.96-.62,.5-.25,1.18-.69,1.69-.27-.45,.9-1.61,.92-2.32,1.55-.67,.14-.63,1.72-1.24,1.72-.08,0-.16-.02-.26-.08Z"/><path class="cls-1" d="M31.91,28.84s-.01,0-.02-.01c-.02-.2,0-.4,.04-.58-.63,.51-1.31,.13-.66-.5,.55-.35,2.4-1.48,1.81,.03-.28,.45-.58,1.07-1.16,1.07h0Z"/><path class="cls-7" d="M32.91,27.78c-.23,.86-.82,2.48-1.81,2.6-.15-.39,1.63-3.89,1.81-2.6Z"/><path class="cls-1" d="M29.7,32.11s-.01-.02-.01-.03c.19-.79,.8-1.32,1.26-1.95,.32-.4,.56-1.04,1.08-1.18,.22,.78-1.03,3.22-2.04,3.23-.1,0-.19-.02-.28-.07Z"/><path class="cls-1" d="M28.18,32.33c.18-.37,.52-.65,.9-.79,.7-.3,1.26-.93,2.04-1-.15,1.06-1.4,1.92-2.4,2.1-.16,0-.58-.13-.54-.31Z"/><path class="cls-1" d="M26.99,32.37c-.17-.45,.17-.91,.66-.82,1.03-.37,1.78-1.14,2.65-1.74,.4-.25,.93-.48,1.36-.51-.3,.91-1.08,1.5-1.84,2.02h.01c.44-.04-.1,.51-.21,.68-.51,.44-1.22,.62-1.88,.7-.07,.02-.14,.02-.22,.02-.23,0-.46-.09-.53-.34Z"/><path class="cls-1" d="M27.3,31.48c.35-.62,1.23-.77,1.75-1.26,1.21-.71,2.1-1.98,3.26-2.67,.28-.01,.42,.31,.39,.55-.42,1.11-1.3,2.03-2.12,2.87-.35,.34-.78,.75-1.31,.61,.06-.18,.22-.39,.31-.57-.61,.4-1.16,1.03-1.87,1.21-.36-.02-.54-.43-.41-.74Z"/><path class="cls-1" d="M28.3,30.86c-1.5-.46,1.34-2.57,2.02-2.39,.38-.24,.68-.6,1.06-.82,.39-.13,.6,.43,.43,.72-1.05,1.01-2.12,2.55-3.64,2.7,.04-.07,.08-.14,.13-.21Z"/><path class="cls-1" d="M25.68,32.07c-.8-.5,.14-2.06,.88-1.31,.49-.45,.59-1.25,1.14-1.62,.63-.13,.57,.7,.36,1.08-.23,.33-.23,1.21-.79,1.09-.02,.03-.03,.07-.05,.1-.05,.07-.13,.13-.22,.15-.26,.27-.63,.62-1.01,.62-.1,0-.21-.03-.32-.09Z"/><path class="cls-1" d="M21.33,40.37c-.32-.84-.29-1.8,.07-2.62,.06-.29,.41-.83,.68-.4,.19,.55-.2,1.15-.11,1.69,.01,.47,.23,.88,.09,1.33-.05,.19-.18,.27-.32,.27-.16,0-.33-.11-.41-.29Z"/><path class="cls-7" d="M21.6,41.19c-.39-.42-.17-1.07-.18-1.59,.01-.26,.12-.61,.38-.71,.37,.32,.28,.87,.33,1.3,.06,.32,.08,1.08-.3,1.08-.07,0-.14-.02-.23-.08Z"/><path class="cls-1" d="M20.61,42.19c-.47-.02-.57-.65-.35-.98,.02-.41,.03-1.07,.5-1.2,.12-.59,.79-.56,.8,.06,.07,.35,.82,1.62-.01,1.36-.01,.08-.04,.16-.09,.24-.06,.08-.15,.14-.25,.16-.02,.04-.05,.08-.08,.12-.07,.07-.15,.11-.24,.11-.07,.08-.16,.13-.27,.13h-.01Z"/><path class="cls-1" d="M20.69,44.87c-.06-.01-.11-.04-.16-.07-.56-.14-.53-.9-.34-1.33,.1-.33,.17-1.12,.68-.93,.87-.52,.92,1.42,.33,1.73-.05,.25-.16,.6-.45,.6-.02,0-.04,0-.07,0Z"/><path class="cls-1" d="M28.59,46.21c-.29,.09-.58-.44-.73-.96-.17-.63-.12-1.26,.41-.83,.18-.09,.37,.05,.43,.22,.5-.09,.86,1.13,.44,1.38-.07,.14-.2,.25-.36,.25-.08,0-.14-.03-.2-.07Z"/><path class="cls-1" d="M29.92,46.98c-.28-.28-.83-.31-.92-.75-.41-.25-.1-1.1,.35-.71,.4,.05,1.6-.06,1.26,.66,.24,.44,.09,.98-.27,.98-.12,0-.26-.06-.42-.19Z"/><path class="cls-6" d="M30.39,17.1c-2.21-.45-1.84-3.35-.7-4.71-.18,.98-.51,2.23-.12,3.24,.22,.38,.56,.84,1.02,.82,.48,.04,.34,.67-.06,.67-.05,0-.1,0-.15-.03Z"/><path class="cls-6" d="M30.17,11.1c-.52,1.28-.73,2.7-.68,4.04-1.26-.95-.34-3.3,.68-4.04Z"/><path class="cls-6" d="M28.74,13.88c-.08-1.62,.98-3.56,2.49-4.02-1.02,1.42-1.91,3.03-2.11,4.77-.28-.13-.36-.49-.38-.76Z"/><path class="cls-6" d="M29.19,12.13c.3-1.46,2.42-4.02,3.75-3.2-1.13,.74-2.38,1.67-3.08,2.86-.16,.33-.2,.66-.38,.94-.24-.05-.31-.4-.29-.6Z"/><path class="cls-6" d="M30.91,10.36c-.09-1.77,3.41-3.49,4.4-1.64,0,.03-.04,.02-.07,.01-.03,0-.05-.01-.06,0-1.67-.2-3.12,.47-4.26,1.64,0,0-.01,0-.02-.01Z"/><path class="cls-6" d="M33.56,8.61c.62-1.66,4.34,.11,3.74,1.73-1.09-.95-2.27-1.81-3.74-1.73Z"/><path class="cls-6" d="M37.96,13.2c-.3-.49-.22-1.07-.27-1.59-.2-1.11-1.19-1.77-1.97-2.44-.14-.19-.2-.3,.08-.38,1.84,.08,3.64,2.96,2.17,4.42,0,0-.01,0-.01-.01Z"/><path class="cls-6" d="M38,14.02c.13-1.2-.4-2.29-.75-3.36-.03-.52,.55,0,.63,.23,1.39,1.58,1.64,5.42-.96,5.77,.11-.96,.9-1.71,1.08-2.64Z"/><path class="cls-6" d="M34.59,18.06c.74-.88,2.05-1.36,2.68-2.36,.5-.69,.4-1.56,.61-2.34,.07-.21,.26-.17,.34,.02,.68,1.92-.65,4.84-2.75,4.84-.28,0-.57-.05-.88-.16Z"/><path class="cls-6" d="M32.65,18.73c-.82-.19-1.5-.8-1.8-1.58,.87,.12,1.86,.39,2.75,.55,1.34,.14,2.34-1,3.46-1.1,.05,.51-.34,.88-.73,1.14-.81,.6-1.82,1.11-2.84,1.11-.28,0-.56-.04-.84-.12Z"/><path class="cls-6" d="M29.32,15.04c.17,.36,.45,.61,.73,.88,1.14,1.01,2.59,1.75,4.11,1.39,.06,.02,.15-.01,.18,.05-.14,.77-1.15,.81-1.79,.82-1.47-.21-4.08-1.3-3.23-3.13Z"/><path class="cls-6" d="M31.8,17.73c-1.37-.46-2.63-1.62-2.51-3.17,.01-.6,.23-1.19,.54-1.71,.06-.01-.02,.14-.01,.18-.13,1.11,.07,2.44,.89,3.23,.44,.41,.95,.69,1.45,.99,.17,.21,.02,.52-.22,.52-.05,0-.1-.01-.15-.04Z"/><path class="cls-6" d="M30.7,17.8c-1.13-.78-1.3-2.42-.8-3.61,.05-.02,.01,.12,.03,.17h0c.14,1,.49,2.12,1.18,2.85,.11,.1,.23,.06,.35,.15,.28,.37,0,.6-.33,.6-.15,0-.31-.05-.43-.16Z"/><path class="cls-6" d="M29.57,14.45c-.18-1.33,.09-2.87,1.04-3.87,.71-.72,1.61-1.31,2.52-1.73,.51-.2,.89,.45,.55,.84-1.79,.58-2.65,2.48-3.23,4.12-.08,.18-.16,.32-.2,.47-.01,.09,.02,.19-.1,.1,.01,.26,.01,.57-.09,.8-.28-.1-.46-.47-.49-.72Z"/><path class="cls-6" d="M35.53,12.13c-.23-.11-.32-.33-.35-.56-.22,.28-.66,.31-.82-.05-.2,.1-.43-.04-.52-.22-.2,.27-.65,.54-.91,.2-.35,.65-1.24,.9-1.12-.12,.5-1.05,1.2-2.29,2.28-2.8,1.01-.31,2.11,.39,2.53,1.3,.93,.2,.18,1.2-.12,1.66-.16,.25-.45,.63-.78,.63-.06,0-.13-.01-.19-.04Z"/><path class="cls-6" d="M31.42,12.07c-1.11-1.22,.69-3.01,1.87-3.45,.56-.24,2.8-.16,2.6,.72-.09,.12-.23,.15-.37,.12-1.49-.3-2.81,.35-3.61,1.59-.24,.29-.58,.64-.49,1.02h0Z"/><path class="cls-6" d="M33.36,18.62c-.15-.06-.24-.21-.3-.35-.06-.16-.08-.35-.08-.52-.17,.44-.76,.44-.89-.02-.22,.22-.56,.06-.66-.2-.64,.16-.7-.7-.62-1.14-2.99-1.59,.85-5.75,2.37-7.21,.27-.23,.72-.44,1.05-.21-.37,.56-.83,1-1.28,1.51,.03,.02,.06,.04,.08,.06,.06,.05,.09,.11,.12,.17,.25-.2,.69-.34,.88,.01,.83-.46,.83,.51,.37,1.25,.34-.4,.68-1.98,1.36-1.33,.16-.37,.69-.44,.77,.02,.04,0,.07,0,.11,0h.02c.07-.15,.22-.26,.39-.21,.87-.5,.73,1.23,.8,1.72,.44,1.3-.05,2.86-.61,4.06-.05,.33-.34,.89-.73,.54-.06,.13-.11,.27-.2,.38-.08,.08-.18,.12-.28,.12-.05,.39-.49,.79-.8,.38-.07,.18-.14,.37-.34,.43-.11,.04-.22,.02-.31-.04-.11,.22-.4,.3-.58,.13-.07,.23-.24,.48-.48,.48-.05,0-.09,0-.14-.03Z"/></g><g class="cls-4"><path class="cls-10" d="M7.57,54.43c-.26-.84,.9-1.09,1.4-1.51,1.28-.99,2.77-.86,4.16-.23,.98,.28,1.94,0,2.9-.29,.73-.22,1.47-.44,2.22-.41,1.21,.03,2.43,.51,3.61,.39,1.42-.15,2.69-.82,4.04-1.2,1.12-.3,2.25,.31,3.31,.58,1.72,.51,3.52,.39,5.3,.22,3.35,.12,6.51,1.66,9.87,1.91,.02,0,.06,0,.1,0,.09,0,.19,0,.18,.05-1.23,.53-2.58,.76-3.92,.69-1.81-.03-3.57-.8-5.28-1.1-2.98,.26-5.85,.13-8.68-.93-2.19,.18-4.25,1.72-6.54,1.09-1.97-.67-3.73,.05-5.67,.33-1.23,.19-2.28-.55-3.46-.72-1.08,.06-2.02,.84-2.93,1.39-.06,.04-.13,.06-.19,.06-.18,0-.36-.15-.42-.33Z"/><path class="cls-10" d="M25.14,51.51c-.04-4.03-1.68-8.08-.39-12.1,.86-2.3,1.31-4.67,1.38-7.11,.27,.51,.48,1.26,.64,1.88,.73,3.52-1.91,6.69-1.21,10.31,.1,2.35,.85,4.66,.66,7.03-.01,.31-.19,.68-.55,.68s-.55-.37-.54-.68Z"/><path class="cls-10" d="M25.77,32.3c-.23-.85,.72-.9,1.21-1.17,.21-.14,.38-.32,.51-.53,.14-.19,.24-.44,.3-.66,.05-.15,.08-.3,.11-.46,.51-2.9-1.6-5.46-1.96-8.15,1.91,1.98,3.76,5.4,3.21,8.25-.07,.18-.14,.37-.22,.55,0,0,0,0,0,.01,0,0,0-.01,0-.01,0,0,0,.01,0,.02h0c-.05,.11-.1,.22-.14,.33-.09,.21-.17,.44-.27,.65h0c-.05,.08-.09,.17-.13,.26-.22,.31-.48,.6-.79,.88-.32,.17-.86,.49-1.27,.49-.25,0-.46-.12-.56-.47Z"/><path class="cls-10" d="M25.47,32.11c-.25-.1-.47-.22-.66-.37-.29-.45-.61-.87-.92-1.3-.77-2.36,1.09-6.16,2.34-7.71,.02,.99-.31,1.93-.69,2.86-.03,.05-.06,.1-.07,.16-.52,1.24-1.09,2.47-.95,3.83-.01,.2,.02,.37,.07,.52,.11,.46,.46,.87,.87,1.05,.07,.03,.17,.07,.29,.09,.07,.04,.14,.06,.21,.08,.19,.3,.02,.84-.32,.84-.06,0-.12-.01-.18-.04Z"/><path class="cls-10" d="M28.31,33.05c-.56-.21-1.81-.18-1.66-1.04,.06-.23,.26-.43,.51-.34,.71,.24,1.43,.52,2.15,.35,2.51-.8,3.21-3.75,4.3-5.84-.01,.9-.26,2.01-.54,2.94-.54,1.89-2.13,3.98-4.22,3.98-.17,0-.36-.01-.54-.05Z"/><path class="cls-10" d="M28.62,28.95c-.12-.18-.13-.48,.04-.63,1.33-1.63,3.68-1.81,5.59-1.7-.62,1.4-2.37,.86-3.55,1.28-.64,.16-1.13,.68-1.57,1.11-.07,.07-.16,.1-.23,.1-.1,0-.2-.05-.27-.15Z"/><path class="cls-10" d="M22.77,33.76c-2.52-.27-4.65-2.43-5.6-4.6,2.05,1.43,4.61,4.16,7.29,2.9,.5-.25,.84-.53,1.26-.84,.02,0,.04,.01,.06,.01,.15,.08,.31,.12,.47,.12,.06,0,.12,0,.17-.02,.19,.28,.2,.74-.1,.95-.96,.74-2.07,1.49-3.32,1.49-.07,0-.14,0-.21-.01Z"/><path class="cls-10" d="M17.76,30.34c-1.46-.41,.19-.78,1.01-1.24,1.54-.84,3.17-1.48,4.92-1.03,.27,.04,.39,.38,.36,.6-.15,.57-.73,.47-1.3,.37-.35-.06-.69-.12-.95-.04-1.41,.1-2.49,1.35-3.85,1.35-.07,0-.13,0-.19,0Z"/><path class="cls-10" d="M25.8,37.87c-.06-.25,.03-.56,.29-.66,.91-.32,2.06-.66,2.96-.67-.49,.31-1.97,1.65-2.77,1.66-.22,0-.38-.1-.47-.33Z"/><path class="cls-10" d="M23.71,43.48c-.92-.16-1.89-.57-2.64-1.07,.9-.2,3.33-1.09,3.3,.46-.05,.31-.27,.61-.58,.61-.03,0-.05,0-.08,0Z"/><path class="cls-10" d="M25.13,47.9c-.1-.26-.03-.63,.23-.77,1.07-.58,2.36-1.14,3.46-1.33-.55,.39-2.37,2.37-3.28,2.37-.18,0-.32-.08-.42-.26Z"/><path class="cls-10" d="M30.32,38.77c-.14-.02-.29-.07-.46-.13-.17-.09-.34-.16-.52-.23-.17-.1-.34-.2-.5-.32,0-.01-.01-.01-.02-.01-.53-.4-.94-.92-.92-1.44,0-.02,.01-.03,.02-.04,0,.02,0,.04-.01,.06,0,.01,0,.02,.02,.02,0,0,.01,0,.02-.01,.08-.16,.16-.32,.23-.49,.44-.14,.69,.69,.97,.93,1.52,1.26,3.7,.65,5.36,.03,.43-.11,.95-.46,1.3-.47-1.09,1.28-2.66,2.26-4.34,2.26-.38,0-.76-.05-1.14-.15Z"/><path class="cls-10" d="M35.66,36.77c-.9-.65-1.68-1.5-2.77-1.82-.96-.18-2.08,.03-2.93,.51-.65,.2-1.05,1.78-1.72,1.32-.12-.13-.16-.32-.12-.49,.04-.09,.08-.18,.13-.27,1.47-2.46,5-2.8,7.01-.8,.62,.44,1.19,1.08,1.58,1.69-.14,.05-.28,.07-.42,.07-.26,0-.52-.08-.77-.22Z"/><path class="cls-10" d="M31.83,42.69c-2.41-.52-4.58-2.8-3.93-5.39,.03-.24,.22-.51,.49-.45,.68,.24,.18,1.18,.29,1.67,0,.04,.01,.08,.02,.12,.01,.11,.04,.22,.08,.33,.67,2.14,3.48,2.84,5.42,3.36-.43,.29-1.06,.42-1.67,.42-.24,0-.48-.02-.7-.06Z"/><path class="cls-10" d="M34.04,42.59c-.62-.21-.77-1-1.01-1.5-.32-.87-.98-1.54-1.66-2.13-.41-.3-.06-1.21,.45-.85,1.3,1.09,2.49,2.61,2.61,4.35,0,0,0,0-.01,0,.01,.02,.02,.05,.02,.07-.05,.06-.13,.08-.22,.08-.06,0-.11,0-.16-.02Z"/><path class="cls-10" d="M27.67,46.07c-.83-1.31-1.01-3.3,.35-4.26-.3,.99-.43,2.11,.08,3.04,.1,.22,.19,.42,.29,.63,.23,.35-.07,.83-.38,.83-.12,0-.24-.07-.34-.25Z"/><path class="cls-10" d="M28.39,46.23c-.18-.26-.1-.52,.07-.76,.08,.11,.15,.19,.22,.19,.04,0,.08-.03,.11-.09,.09-.09,.15-.19,.2-.31,.17-.23,.23-.59,.22-.94,.02-.07,.03-.14,.03-.21,.04-.39-.01-.77-.09-1.18,0-.31,.02-.69,.17-.92,.24,.4,.5,.82,.62,1.3,.3,1.11-.38,2.07-1.05,2.88-.07,.1-.17,.14-.26,.14-.08,0-.15-.03-.22-.1Z"/><path class="cls-10" d="M28.2,46.03c-.05-.26,.05-.46,.22-.63,0,0,0,0,0,0,.09,.14,.18,.24,.26,.24,.05,0,.09-.03,.12-.11,.08-.08,.13-.18,.18-.28,.06-.08,.1-.17,.14-.26,.44-.17,.92-.3,1.2-.47,2.08-1.05,5.07-1.04,6.23,1.24-1.19-.34-2.4-1-3.62-.99-.91,.14-1.83,.41-2.69,.74-.03,.01-.06,.02-.09,.04-.28,.11-.56,.23-.83,.35-.23,.1-.54,.38-.79,.38-.12,0-.23-.07-.31-.25Z"/><path class="cls-10" d="M31.51,48.19c-1.38-.15-2.6-.93-3.51-1.96-.18-.19-.18-.54-.04-.75,.09-.12,.23-.18,.37-.17,.02,.04,.05,.07,.08,.1,.09,.14,.18,.24,.25,.24,.03,0,.06-.01,.08-.04,.17,.18,.35,.34,.54,.49,0,0,0,0-.01,.01,0,0,0,.01,0,.02-.05,.02-.08,.04-.12,.08-.01,.01,0,.03,.02,.03,0,0,0,0,.01,0,0,0,.01,0,.01-.01,0,0,0,0,0,0h0s.02-.01,.02-.01c.28,.27,.69,.45,1.09,.49,.41,.17,.84,.28,1.3,.32,1.58,.15,2.54-1.21,3.67-2.01,.38-.23,.8-.32,1.23-.39-.16,.4-.5,.81-.75,1.19-.93,1.25-2.35,2.37-3.95,2.37-.1,0-.2,0-.3-.01Z"/><path class="cls-10" d="M21.12,42.11c0-.24-.01-.48-.05-.71,0,.01,.01,.01,.02,.01,.01,0,.02,0,.02-.02,0-.31-.1-.65-.23-.93,0,0,0,.01,.01,.02-.13-.28-.29-.56-.49-.8-.49-.72-1.19-1.3-2.01-1.68-.58-.26-1.17-.42-1.78-.46,.29-.28,.89-.42,1.33-.48,1.75-.22,3.09,1.26,3.73,2.73,.03,.09,.06,.2,.1,.32,.04,.34,.17,.69,.25,1.02h0c.02,.09,.04,.17,.05,.25,0,.01,0,.02,.01,.02,.01,0,.02,0,.02-.02,.08,.55,.02,1.04-.41,1.25-.03,0-.06,0-.08,0-.25,0-.46-.27-.48-.52Z"/><path class="cls-10" d="M19.87,42.81c-2.71-.41-3.2-4.02-2.97-6.22,1.47,1.12,.76,3.83,2.43,4.76,.26,.21,.59,.31,.93,.31h.08c.19-.01,.58-.02,.65-.2,0,0,.01,.01,.02,.02,0,0,.01,0,.02,0s.01,0,.01-.02h0s.01,0,.02-.01c.01-.03,.02-.06,.02-.08,0,.01,.01,.02,.02,.03,0,.01,0,.01,.02,.01,0,0,.02,0,.02-.02,0-.05,0-.09,0-.13,.07-.03,.14-.07,.21-.1,.64-.3,.93,.81,.41,1.08-.55,.28-1.14,.56-1.77,.56h-.1Z"/><path class="cls-10" d="M20.83,39.17c-.02-1.34,.49-3.08,1.76-3.59-.17,.38-.31,.77-.44,1.16-.25,.45-.45,.96-.5,1.47v-.03c-.03,.32-.11,.69-.08,1.04,0,.11,0,.22,.02,.33-.09,.1-.21,.15-.32,.15-.23,0-.45-.18-.45-.54Z"/><path class="cls-10" d="M21.98,42.02c-.15-.27-.09-.5,.06-.72l.02,.08s.01,.02,.02,.02,.02,0,.02-.02c0-.02,0-.04,0-.05,0,0,.01,0,.02,0h0c.23-.26,.47-.53,.64-.84,.06-.09,.11-.17,.14-.26,.26-.62,.15-1.25,.06-1.88-.01-.3-.07-.6-.2-.82-.23-.7-.54-1.38-.49-2.11,.72,.35,1.19,1.02,1.36,1.8,.55,1.72,.39,3.65-1.08,4.85-.08,.08-.17,.12-.26,.12-.12,0-.23-.06-.31-.17Z"/><path class="cls-10" d="M18.5,48.11c1.15-1.08,2.31-2.42,2.73-3.95h0s.02,0,.02,0c.09-.25,.14-.53,.12-.8,.02-.22,.03-.45,.01-.67-.05-.45-.39-1.13,.16-1.39,.27-.1,.51,.13,.57,.38,.75,2.44-.52,6.45-3.39,6.45-.08,0-.15,0-.23-.01Z"/><path class="cls-10" d="M18.32,48.46c-.88-2.68,.04-5.69,2.74-6.83,.25-.16,.52,.04,.61,.28,.12,.47-.16,.76-.54,1.01-.24,.03-.53,.19-.65,.38-.24,.14-.46,.29-.59,.48-1.41,1.21-.39,3.35-1.56,4.69-.02,0-.02,0-.02-.01Z"/><path class="cls-10" d="M27.19,31.04s-.01-.08-.01-.12c.04-.03,.07-.07,.11-.11,.15-.11,.27-.29,.36-.48,.16-.06,.34-.1,.51-.12,.31-.08,.6-.2,.87-.33-.04,.09-.07,.17-.11,.25t0,.01s0,0,0,.01h0c-.05,.11-.09,.22-.14,.33h0c-.09,.21-.16,.44-.27,.65h0c-.05,.09-.09,.17-.13,.26-.2,.07-.41,.13-.62,.17-.03,0-.06,.01-.09,.01-.25,0-.44-.29-.47-.54Z"/><path class="cls-10" d="M24.89,31.82h-.07v-.02s0,0,0,0c.01,0,.02-.01,.01-.03-.26-.41-.55-.79-.83-1.18,.26-.03,.53-.05,.78-.07,.16,.25,.38,.46,.63,.58v.06c0,.28-.18,.65-.5,.65h-.01Z"/><path class="cls-10" d="M21.98,41.26c-.18-.07-.21-.28-.22-.44,.03-.1,.06-.19,.08-.28,.05,.2,.12,.4,.17,.59h0c.02,.05,.03,.1,.03,.15-.02,0-.04,0-.06-.01Z"/><path class="cls-10" d="M22.38,41.02s0,.02,0,.02c-.05,.06-.1,.12-.15,.16,.05-.06,.11-.12,.16-.18Z"/><path class="cls-10" d="M22.83,37.69l.06-.14c0,.09,0,.18-.01,.28-.02-.05-.03-.1-.05-.14Z"/><path class="cls-10" d="M21.11,41.81c-.08-.08-.15-.16-.22-.24,.05-.03,.09-.06,.11-.09,0,0,.01,0,.02,0s.02-.01,.02-.03,0-.03,0-.04c0,.01,0,.02,0,.03h0s.01,.03,.02,.03c0,0,.01,0,.02-.02,.01-.02,.01-.04,.02-.05,0,0,0,.01,.01,.01,.01,0,.02,0,.02-.02,0-.31-.1-.65-.23-.93,0,0,0,.01,.01,.02-.04-.09-.09-.18-.14-.27,.64,.47,1.17,.98,.93,1.55-.08,.11-.19,.16-.3,.16-.1,0-.19-.04-.27-.11Z"/><path class="cls-10" d="M21.32,42.96h.02s.02-.03,0-.03c-.21-.05-.51,.05-.71,.21,.07-.23,.14-.46,.23-.68,.08-.22,.32-.39,.55-.25,.3,.27,.22,.77-.03,1.28,0-.18-.02-.36-.06-.53Z"/><path class="cls-10" d="M28.34,36.38c.32-.1,.65-.2,.98-.29-.07,.08-.13,.18-.16,.27-.03,.05-.05,.09-.07,.14t-.01,0c-.08,.17-.05,.43,.08,.57-.24,.06-.49,.13-.73,.2-.39,0-.49-.76-.1-.89Z"/><path class="cls-10" d="M28.4,38.6c-.19-.14-.21-.43-.11-.62,.1-.19,.32-.27,.5-.13,.3,.23,.61,.47,.91,.72-.22-.11-.45-.2-.68-.3-.03-.03-.06-.05-.1-.08h0s-.02-.02-.03-.03c0,0,0-.01,0-.02,0-.02-.02-.02-.03-.01,0-.01-.02-.02-.02-.02,0-.02-.01-.03-.02-.04,0-.01-.01-.01-.02-.01-.01,0-.02,0-.02,.01,0,.01,0,.02-.01,.02-.13,.26-.13,.53-.05,.78-.11-.09-.23-.19-.34-.28Z"/><path class="cls-10" d="M28.16,44.99s0-.05-.01-.08c.06,.17,.13,.31,.23,.45-.13-.08-.21-.23-.22-.38Z"/><path class="cls-10" d="M28.82,46.33c-.31-.1-.39-.49-.3-.79,.06,.07,.11,.11,.16,.11,.04,0,.08-.03,.11-.09,.09-.09,.15-.2,.2-.31,.02-.03,.04-.06,.05-.09,.02,0,.04,0,.05,.02,.38,.15,.76,.26,1.15,.33-.21,.07-.41,.19-.61,.33h0s-.02,0-.03,.02c-.06,.04-.12,.08-.17,.12-.04,.02-.07,.05-.1,.08l-.06,.06s0,.01,0,.02c-.05,.02-.09,.04-.12,.09,0,.01,0,.03,.02,.03h0l.02-.02s0,0,.01,0h0s.01-.01,.02-.01c.13,.13,.29,.24,.47,.32-.3-.03-.6-.1-.88-.21Z"/><path class="cls-10" d="M33.69,18.24c2.21,.03,4.44-1.47,5.04-3.61,.48-2.7-.94-5.61-3.61-6.46-.1,0-.21,0-.31,0-6.3,0-8.8,9.87-1.13,10.08Zm-1.27,.75c-5.19-.53-5.31-7.75-1.44-10.17,.96-.75,3.1-1.79,4.18-.99,2.31-.22,3.66,2.28,4.1,4.22,.97,3.68-2.11,7.06-5.68,7.06-.39,0-.78-.04-1.17-.12Z"/><path class="cls-10" d="M34.19,6.22c-.69-1.1-.04-3.17,.51-4.3,.27,1.2,.05,2.62-.11,3.88-.05,.16-.16,.42-.34,.43-.02,0-.04,0-.06,0Z"/><path class="cls-10" d="M33.34,24.06c-.73-1.05-.47-2.36-.51-3.56-.03-.24,.09-.55,.36-.6,.26-.05,.46,.21,.48,.45,.12,1.23,.27,2.59-.32,3.72,0,0-.01,0-.01,0Z"/><path class="cls-10" d="M23.1,14.23h.02c-.63-.08-1.44-.1-1.97-.24,1.39-.78,2.99-.87,4.53-.61,.51,.2,.76,.37,.16,.69-.43,.17-.89,.22-1.37,.22s-.93-.04-1.37-.06Z"/><path class="cls-10" d="M42.69,14.38c-.56-.08-1.83,.09-1.45-.84,.06-.12,.18-.23,.32-.22,1.71-.04,3.43-.02,5.07,.54-.84,.4-1.87,.58-2.87,.58-.36,0-.73-.02-1.08-.07Z"/><path class="cls-10" d="M39.23,8.67c-.11-.21-.07-.5,.11-.65,.8-.87,1.84-1.53,2.97-1.91-.23,.5-1.95,2.72-2.78,2.72-.12,0-.22-.05-.3-.15Z"/><path class="cls-10" d="M27.91,9.07c-1.01-.97-2.21-1.86-2.8-3.19,0-.07,.09,.03,.11,.04,1.32,.55,2.45,1.42,3.31,2.57,.23,.24,.35,.72,0,.9-.04,.02-.08,.03-.12,.03-.2,0-.36-.2-.5-.34Z"/><path class="cls-10" d="M38.91,19.64c-.26-.23-.64-.45-.48-.85,.43-1.14,3.78,2.9,4.04,3.48-1.51-.32-2.58-1.55-3.57-2.63Z"/><path class="cls-10" d="M26.49,20.42c.28-.97,.93-1.73,1.69-2.37,.23-.21,.56-.06,.69,.19,.42,1.08-1.58,2.04-2.39,2.18Z"/></g></g></g></svg>