<?xml version="1.0" encoding="UTF-8"?><svg id="Layer_1" xmlns="http://www.w3.org/2000/svg" xmlns:xlink="http://www.w3.org/1999/xlink" viewBox="0 0 56.69 56.69"><defs><style>.cls-1{fill:#51b848;}.cls-2{fill:#fff;opacity:0;}.cls-3{clip-path:url(#clippath-2);}.cls-4{fill:#f5f6f6;}.cls-5{clip-path:url(#clippath-1);}.cls-6{fill:#fedc00;}.cls-7{fill:#3db54a;}.cls-8{clip-path:url(#clippath);}.cls-9{fill:#faa51a;opacity:.1;}.cls-10{fill:none;}.cls-11{clip-path:url(#clippath-3);}.cls-12{fill:#158f45;}.cls-13{fill:#010101;}</style><clipPath id="clippath"><rect class="cls-10" x="5.92" y="1.65" width="43.97" height="53.46"/></clipPath><clipPath id="clippath-1"><rect class="cls-10" x="10.02" y="7.29" width="35.82" height="47.44"/></clipPath><clipPath id="clippath-2"><rect class="cls-10" x="14.04" y="6.72" width="28.85" height="40.59"/></clipPath><clipPath id="clippath-3"><rect class="cls-10" x="5.92" y="1.65" width="43.97" height="53.46"/></clipPath></defs><g id="Drivhus"><rect class="cls-2" x="1.42" y="1.42" width="53.86" height="53.86"/><g class="cls-8"><g class="cls-5"><path class="cls-9" d="M28.76,13.85c.02,.08,.02,.16,.02,.24l.1,.1c.06,.01,.12,.03,.17,.07,.07,.04,.13,.08,.19,.12-.07-.07-.13-.13-.18-.21-.11-.16-.16-.36-.14-.55-.05,0-.1-.02-.15-.05,.02,.1,0,.2-.01,.29Zm6.8,9.48s.03,.09,.04,.14c.05,.17,.03,.37-.04,.53l.21-.12s.05-.03,.07-.04c-.07-.19-.14-.38-.21-.57-.03,.02-.05,.04-.08,.06Zm-1.24,.94c.09,.09,.18,.19,.27,.28,.01,.01,.04,.03,.05,.05,.1-.07,.2-.13,.3-.2-.02,0-.04-.01-.06-.02-.14-.07-.27-.15-.39-.25-.06,.05-.12,.1-.18,.14Zm1.03,1.75s-.03,.06-.04,.09c-.02,.04-.05,.08-.08,.12,.07-.04,.13-.08,.19-.12,.01-.06,.02-.11,.03-.16-.03,.03-.06,.05-.1,.08Zm-11.09,.58c-.04,.25-.07,.49-.1,.74,.84-.66,1.61-1.4,2.4-2.12,0-.04,.01-.08,.02-.11-.03-.09-.07-.17-.1-.25,0-.02-.01-.04-.02-.06-.74,.6-1.47,1.2-2.2,1.8Zm-4.2,3.08c0,.13-.01,.25-.02,.38,.02,0,.03-.01,.04-.02,.13-.04,.25-.04,.35,.01,.02-.25,.05-.5,.06-.75,.02-.13,.03-.26,.04-.39-.15,.26-.3,.52-.46,.77Zm1.82-.51c-.08,.62-.17,1.25-.25,1.87,.23-.34,.75-.4,.96-.01,.09-1.07,.11-2.14,.21-3.21-.11,.09-.21,.18-.33,.24-.15,.08-.31,.08-.45,0-.05,.37-.1,.74-.15,1.11Zm2.74,2.17c.22,.13,.34,.4,.33,.65,.04-.05,.07-.09,.1-.13-.11-.59,.38-1.03,.72-1.44h0s-.08-.03-.12-.05c-.37,.31-.93,.9-1.34,.31-.46-.67,.23-1.31,.69-1.73,.01-.07,.04-.13,.06-.19,.02-.06,.05-.11,.07-.17,0-.03-.02-.07-.03-.11-.02-.01-.04-.03-.06-.05-.1,.09-.21,.18-.33,.24-.26,.13-.54,.04-.7-.18-.03,.24-.06,.47-.1,.7-.08,.59-.16,1.18-.23,1.78,.15,.1,.25,.26,.29,.44,0,.02,.01,.04,.02,.06,.1-.12,.25-.2,.39-.2,.08,0,.16,.02,.23,.07Zm9.12,15.5c.14-.01,.28-.03,.42-.04,0-.08-.02-.16-.02-.24-.14,.1-.27,.19-.4,.28Zm-1.59,2.5s.02,.04,.03,.07c.11-.05,.22-.09,.34-.12,.08-.03,.15-.06,.22-.08-.37-.1-.74-.19-1.12-.25-.03,0-.07-.02-.1-.02-.29,.12-.57,.24-.85,.36,0,0,.01,.01,.01,.02,.3-.07,.68-.28,1-.28,.19,0,.36,.08,.47,.31Zm-14.95,4.94c-.3-.06-.61-.11-.91-.15-.33-.04-.66-.06-.99-.11-.28-.04-.57-.09-.85-.14,.02,0,.04,0,.05,.01-.09-.01-.17-.03-.26-.04h0l-.11-.02s.02,0,.03,0h0s-.03,0-.04,0h0s-.01,0-.02,0c0,0,0,0,.02,0l-.08-.02h-.02c-.51-.1-1.01-.22-1.53-.27-.4-.05-.8-.09-1.2-.15-.07-.01-.14-.02-.21-.05-.12-.04-.24-.09-.35-.13-.13-.05-.26-.09-.4-.12,0-.52,.12-1.12,.33-1.77,.38-3.54,.35-7.16,.95-10.68-.51-.67-.11-1.65-.17-2.43-.23-.06-.39-.28-.44-.5-.06-1.72,.38-3.45,.54-5.16-.28-.61-.05-1.32-.08-1.96-.19-.38,.01-.73,.04-1.1-.41-.3-.37-.91-.12-1.3-.5-.81-.14-2.01-.32-2.95-.7-.61-.7-2.96,.27-3.27h0c1.21-1.69,3.07-2.85,4.73-4.13,2.59-1.8,4.56-4.36,7.12-6.18,1.14-1.16,2.45-2.28,3.03-3.8,.17-.17,.42-.28,.66-.18,2.89,3.63,6.56,5.81,9.65,9.19,1.84,1.55,3.79,3.18,5.63,4.81,.63,.53,.88,1.31,1.11,2.06,.19,.08,.34,.27,.38,.48,.08,.92,0,1.86,.03,2.79,.55,.67,.15,1.72,.29,2.54,.58,1.05,0,2.72,.21,3.95,.18,1.34,.1,2.77,.32,4.13,.01,.52,.23,1.18-.19,1.6,.03,.67,.04,1.34,.09,2.01,.18,.14,.26,.38,.26,.6,0,1.26,.07,2.53,.13,3.8,.01,1.21,.64,2.59,.2,3.73,.02,.15,.03,.3,.04,.45,.38,.22,.4,.72,.42,1.1,.08,.38,.05,.75-.09,1.08-.08-.02-.16-.04-.23-.05-.12,0-.23-.03-.35-.04-.3-.04-.59-.06-.88-.07-.68-.02-1.37,.04-2.04,.12h0s-.02,0-.03,0c-.03,0-.06,0-.09,.01,.03,0,.05,0,.07,0-.03,0-.06,0-.08,.01-.01,0-.03,0-.04,0,.01,0,.03,0,.04,0-.47,.06-.95,.15-1.41,.24-.2,.04-.41,.09-.6,.15-.13,.04-.26,.08-.38,.14-.09,.02-.19,.04-.28,.07-.05,.01-.09,.02-.13,.04-.22-.25-.38-.56-.45-.93l-.02-.02c-.38,.58-1.18,.33-1.21-.35-.02-.02-.04-.05-.05-.07-.3,.31-.84,.25-.99-.17-.58,.4-1.7,.97-1.86-.12-.23-.05-.45-.16-.59-.35-1.19,.27-2.38,.67-3.59,.86-.34,.05-.65-.13-.78-.44-.31-.02-.67,.14-1.04,.29-.66,.28-1.34,.56-1.67-.15-.27,.13-.62,.26-.87,.03-.75,.37-2.84,2.41-3.31,1.01-.36,.03-.73-.01-.98-.22-.24,.03-.47,.02-.68-.05-1.11,.7-2,1.81-3.15,2.46-.16-.05-.33-.09-.49-.12Z"/></g><g class="cls-3"><path class="cls-12" d="M22.69,39.31c.04,.17,.07,.33,.06,.45-.01,.18-.08,.29-.26,.29-.06,0-.14-.01-.22-.05-.24,.09-.37-.18-.44-.37-.05-.19-.1-.38-.15-.57-.04-.15-.08-.3-.11-.45-.05-.24-.09-.48-.09-.71v-.03c0-.14,0-.27,.03-.4-.05-.33,.1-.78,.26-.7,.03,.01,.07,.05,.1,.11,.02,.03,.05,.09,.07,.15,0,0,0,.01,0,.02h0s.01,.06,.03,.1c.03,0,.05,.03,.07,.05,.25,.19,.2,.62,.31,.9,0,0,0,0,0,.01,0,.05,.01,.12,.04,.2v.02s0,.01,0,.01h0s0,.03,0,.03c.01,.03,.02,.07,.03,.1,.08,.25,.19,.56,.26,.85h0Z"/><path class="cls-1" d="M22.4,36.1c.17,.38,.27,.94,.2,1.29,0,.03-.01,.05-.02,.08v.05h-.01s-.02,.05-.04,.07c-.04,.06-.08,.1-.14,.12-.02,0-.04,.01-.06,.01,0,.11,.02,.25,.01,.39,0,.06-.01,.12-.03,.17,0,.01,0,.03-.02,.04,0,.01-.01,.03-.03,.04-.01,.02-.02,.04-.04,.05,0,.01-.02,.02-.04,.03-.03,.03-.08,.04-.13,.05,.12,.35-.03,.72-.21,.72-.06,0-.12-.04-.18-.12-.03-.05-.06-.1-.09-.17,0-.09,0-.19-.02-.28-.03-.24-.06-.47-.09-.71v-.03c-.07-.55-.11-1.11,.03-1.61,.05-.07,.13-.1,.19-.14,0-.06,.03-.11,.06-.16,.01-.03,.03-.05,.06-.07,.04-.07,.08-.12,.12-.16,.03-.02,.07-.04,.1-.04,.01,0,.02,0,.03,0,.13,0,.25,.16,.34,.38,0,0,0,0,0,0Z"/><path class="cls-1" d="M22.89,40.19c-.05-.14-.07-.29-.11-.44-.15,.06-.29-.09-.32-.22-.23-.86-.43-1.74-.55-2.6-.11-.58,.25-1.56,.64-.55,.36,.22,.33,.79,.51,1.14,.09,.41,.44,.84,.26,1.26,.05,.23,.19,.53-.03,.71,0,.29,.21,.65-.07,.84-.04,.02-.07,.03-.11,.03-.11,0-.21-.08-.24-.19Z"/><path class="cls-12" d="M22.14,37.65c-.3-.34-.26-.82-.16-1.23,.23,.29,.34,.86,.17,1.23,0,0,0,0,0,0Z"/><path class="cls-12" d="M22.14,37.64c-.28-.34-.32-.92-.18-1.27,.23,.37,.35,.87,.18,1.28h0Z"/><path class="cls-12" d="M22.3,38.19c-.4-.48-.33-1.15-.26-1.72,.26,.44,.5,1.19,.28,1.73,0,0-.01,0-.01,0Z"/><path class="cls-12" d="M21.98,36.07c.25,.52,.77,1.46,.37,2.02-.65-.37-.38-1.39-.37-2.02Z"/><path class="cls-12" d="M22.21,38.14c-.25-.58-.22-1.39-.11-1.96,.21,.66,.68,1.35,.47,2.05-.03,.09-.07,.13-.12,.13-.09,0-.2-.12-.25-.21Z"/><path class="cls-12" d="M22.45,38.1c-.62-.54-.53-1.47-.42-2.19,.35,.57,.65,1.49,.42,2.19h0Z"/><path class="cls-12" d="M22.07,35.84c.16,.5,1.12,2.23,.22,2.3-.54-.53-.33-1.66-.22-2.3Z"/><path class="cls-12" d="M22.17,38.37c-.33-.84-.41-1.95-.21-2.79,.19,.36,1.17,2.88,.49,2.88-.08,0-.17-.03-.28-.1Z"/><path class="cls-1" d="M22.01,37.93c-.23-.83-.4-1.84-.12-2.64,.32,.83,.99,2.24,.51,3.05-.19-.02-.34-.25-.4-.41Z"/><path class="cls-12" d="M22.12,38.28c-.25-.67-.22-1.6-.07-2.25,.1,.36,.91,2.33,.32,2.33-.07,0-.15-.03-.25-.08Z"/><path class="cls-12" d="M22.74,39.42c-.28-.56-.54-1.39-.28-1.97,.37,.09,.9,2.02,.43,2.02-.04,0-.09-.02-.15-.05Z"/><path class="cls-6" d="M38.16,16.12c-.65,.03-1.19-.45-1.7-.8-.8,.13-1.44-.37-1.77-1.06-.67-.41-1.09-1.11-1.22-1.88-.07-.55-.32-1.27,.13-1.71,.08-.5-.03-1.26,.51-1.5,.08-.35,.22-.86,.66-.84,.11-.16,.29-.29,.48-.28,.11-.46,.64-.73,1.01-.37,.05-.01,.09-.03,.14-.03,.07,0,.13,.01,.19,.04,.18-.34,.63-.45,.92-.18,.19-.18,.51-.18,.7-.02,.56-.46,1.14,.26,1.32,.77,.11,.08,.21,.18,.28,.29,.29-.06,.54,.15,.68,.38,.08,0,.15,.02,.21,.05,.12,.05,.2,.13,.28,.23,1.07,.08,1.6,4.61,.65,4.89-.11,.34-.23,.73-.59,.87-.15,.47-.7,.82-1.11,.45-.17,.22-.44,.32-.71,.3-.27,.16-.54,.44-.87,.44-.07,0-.13-.01-.2-.04Z"/><path class="cls-6" d="M36.43,15.98c-.88-.5-2.12-1.34-2-2.47,.1-.3,.46-.44,.7-.21,.18-.08,.37-.02,.5,.12,.54,.53,1.18,1.11,1.87,1.41,.52,.11,1.06,.21,1.53-.03,.66-.2,.85,.94,.28,1.15,0,0,0,0,0,0-.34,.28-.78,.38-1.25,.38-.57,0-1.17-.16-1.62-.36Z"/><path class="cls-4" d="M18.11,15.56c.46-.39,.92-.78,1.39-1.16h.05c-.45,.46-.89,.95-1.37,1.33-.02-.06-.05-.11-.07-.17Z"/><path class="cls-1" d="M33.18,26.63c.54-.29,1.47-.23,1.15,.61-.13,.44-.55,.73-.8,1.11,.01,.1,0,.21-.05,.29-.09,.16-.22,.29-.34,.42,0,.13-.04,.26-.12,.36-.1,.12-.2,.23-.3,.34-.2,.88-1.21,1.42-1.71,2.17-.21,.22-.45,.74-.81,.49,0,0-.03,.02-.03,.03-.09,.07-.19,.09-.28,.07-.16,.21-.46,.28-.62,.04-.21,.15-.49,.32-.74,.25-.05,.05-.1,.08-.15,.11-.14,.08-.31,.04-.41-.09-.12,.09-.28,.09-.39,0-.1,.15-.27,.27-.43,.27-.1,0-.19-.05-.26-.16-.1-.14-.12-.32-.07-.47-.2-.18-.2-.52-.03-.72,0-.02-.02-.04-.02-.07-.05,.05-.1,.08-.17,.09-.04,.05-.1,.09-.16,.11-.01,.24-.13,.58-.41,.57-.01,.06-.03,.11-.06,.16-.06,.12-.19,.2-.31,.19,0,.19-.16,.4-.34,.4-.04,0-.09-.01-.13-.04-.52-.54-.92-1.24-1.24-1.92,0,0-.01,0-.02,0,.11,.24,.05,.59-.22,.68,.01,0,.02,.01,.03,.02,.21,.12,.27,.39,.21,.61,.29,.05,.38,.42,.25,.65-.1,.16-.25,.2-.43,.2-.12,0-.25-.03-.38-.05-.13-.02-.26-.05-.36-.04-.17-.01-.35,0-.55,.02-.5,.04-1.03,.08-1.34-.32-.17,.24-.48,.08-.67-.03-.84-.12-1.4-1.08-2.02-1.61-.55-.77-1.53-1.28-1.91-2.14-.21-.26-.56-.6-.29-.93,0-.07,.03-.14,.06-.2,.05-.07,.12-.11,.2-.11,.13-.34,.47-.14,.7-.04,.1-.07,.22-.03,.32,0,.15-.42,.67-.19,.99-.15,.12-.84,1.59,.26,2.11,.33,.47,.29,1.68,.27,1.43,1.06,.34,.27,.95,.42,1.12,.84-.14-1.76,.37-4.75,.75-5.11-.11-.48,.21-.88,.41-1.29,.38-.68,.62-1.5,1.13-2.08,.5-.16,.41,.61,.29,.89,0,.01,.03,.04,.03,.05,.13-.06,.29,.02,.34,.15,.29,1.03,.39,2.12,.55,3.18,.23,1.8,.32,3.6,.21,5.41,.03-.04,.07-.08,.1-.11-.08-.23,0-.48,.17-.64-1.33-.47,3.6-4.47,4.27-3.93,.37-.14,.97-.42,1.2,.05,.08-.01,.17-.03,.25-.03,.1,0,.19,.04,.26,.1h0Z"/><path class="cls-1" d="M31,39.66s0,0,0,0c.02,.11,0,.23-.04,.34,.06-.04,.12-.07,.21-.08l-.03-.11c-.03-.12-.07-.23-.11-.35h0c0,.06,0,.12-.02,.19Zm1.34,.57c-.02,.2-.06,.41-.12,.6,.01,.12,.03,.25,.05,.37v.02c.07-.21,.33-.33,.51-.17,.04-.08,.1-.12,.16-.14-.08,0-.16-.05-.23-.14-.07-.1-.1-.25-.07-.37-.09-.06-.15-.17-.17-.28h0s-.08,.09-.13,.11Zm3.41,4.87c-.1-.02-.19-.07-.28-.11-.07-.03-.13-.06-.19-.1-.07,0-.15,0-.23-.02-.03,.02-.07,.03-.11,.03h0c-.25-.06-.47-.17-.69-.3-.25,0-.51-.1-.71-.26-.36-.22-.74-.51-1-.86-.08,0-.15-.02-.22-.08-.44-.49-.83-1.06-1.04-1.69-.09-.19-.27-.5-.39-.81,.03-.01,.06-.03,.08-.04h0s.03-.01,.05-.02h0c.1-.05,.21-.11,.31-.17,.01-.01,0-.03-.01-.03-.06,0-.13,.02-.18,.04,0,0,0-.01,0-.02,.05-.03,.09-.05,.14-.08,.01,0,0-.03-.01-.03-.09,.01-.18,.03-.26,.06,.05-.02,.09-.04,.14-.07,.01,0,.01-.03,0-.03-.04,0-.08,0-.12,0l.03-.05s0-.03-.02-.03c0,0,0-.01,.01-.02,.04-.06-.03-.12-.08-.08-.05,.04-.1,.09-.15,.14-.02-.11-.01-.2,0-.29-.06,.05-.12,.07-.19,.07s-.15-.03-.23-.09c-.09-.05-.17-.11-.24-.18-.4-.19-.58-.67-.58-1.2-.05,0-.09-.03-.14-.07-.18-.25-.22-.55-.17-.86,0-.1,.01-.2,.05-.29,.21-.5,1-3.13,1.61-1.73,.05,.04,.09,.08,.12,.14,.03,.07,.05,.14,.07,.21,.06,0,.12,.02,.18,.06,.11,.09,.17,.22,.21,.35,.35-.03,.4,.4,.41,.65,.16,.01,.26,.11,.32,.23,.3-.39,.82-.76,1.03-1.07,.45-.3,1.05-1.43,1.59-1.13,.18-.2,.41-.32,.6-.33,.25-.27,.53-.5,.86-.44,.19-.14,.51-.29,.68-.13,.12-.13,.24-.24,.36-.36,.18-.03,.33,0,.44,.08,.31-.1,.44,.42,.2,.58-.03,.1-.1,.2-.2,.28-.01,.12-.07,.22-.13,.32-.06,.12-.12,.23-.18,.34,.33,.69-.54,1.55-.75,2.22-.36,.44-.56,1.54-1.18,1.48-.13,.2-.26,.4-.4,.59-.11,.15-.3,.22-.46,.14-.12,.06-.26,.05-.38-.05,0-.01-.02-.02-.03-.03-.23,.17-.43,.49-.74,.5-.12,.12-.28,.31-.44,.37,.12,0,.24,.08,.33,.18,.08-.56,.56-.33,.73,.05,.36,.12,.49,.58,.72,.86,.25,.38,.73,.83,.7,1.3,.15,.37,.69,.58,.51,1.04,.01,.06,.02,.1,.02,.14,.17,.22,.06,.66-.24,.66-.02,0-.03,0-.05,0Z"/><path class="cls-1" d="M22.7,40.08c.38,.38,.12,.96,.06,1.42,.14,1.06-.18,2.14-.5,3.15-.05,.2-.25,.42-.45,.26-.04,.08-.09,.15-.13,.22-.06,.09-.14,.21-.25,.25-.12,.21-.23,.64-.54,.52-.23,.16-.37,.61-.68,.52-.04,.04-.09,.08-.13,.12-.11,.1-.27,.28-.43,.25-.06,.12-.18,.2-.29,.2-.08,0-.16-.05-.21-.15-.17-.39,.23-.74,.32-1.1-.15-.38,.19-.75,.3-1.11,.31-.7,.6-1.41,1.03-2.03-.17,.08-.45,.03-.71-.03-.17-.03-.33-.07-.44-.06-.03,.1-.13,.19-.24,.19,0,0-.03,0-.03,0-.64-.28-1.39-.39-1.97-.74-.26-.12-.68-.2-.61-.57-.43-.27-1.04-.37-1.33-.79-.29-.13-.71-.35-.51-.72,0-.01,0-.02,0-.03-.59-.18-.29-.91,.28-.6,.04-.02,.07-.03,.11-.03,.03,0,.05,0,.08,0-.02-.46,.47-.46,.84-.45,.07,0,.13,0,.19,0,.16-.19,.42-.16,.68-.14,.13,.02,.26,.03,.38,.02-.1-.38,.32-.52,.61-.4,.86,.3,2.04,.2,2.71,.8,.3,.11,.76,.28,.61,.68,.72,.13,.8,1.09-.07,.78-.01,.04-.02,.08-.04,.12,.27,.15,.26,.58,.03,.76,.59,.33,.58,.82,.19,.92h0c.04,.11,.03,.23-.03,.37,.01,0,.03,0,.04,0,.18-.27,.27-.65,.53-.82,.21-.58,.1-1.37,.61-1.78Z"/><path class="cls-1" d="M26.78,31.98c-.49-2.22-.16-4.62-.54-6.86-.01-.18,.06-.41,.27-.45,.2-.04,.35,.16,.36,.34,.09,.82,.21,1.62,.26,2.44-.06,.53,.53,5.26-.34,4.53Z"/><path class="cls-1" d="M26.68,30.14c-.58-1.54-.19-3.24-.34-4.86,0-.21,.13-.45,.36-.45s.36,.24,.36,.45c.08,1.61,.49,3.38-.36,4.87,0,0,0,0-.01-.01Z"/><path class="cls-1" d="M21.79,37.94c-.1-.67-.07-1.43-.04-2.07,0-.19,.12-.41,.33-.41s.32,.22,.33,.41c.02,.62,.1,1.21,.13,1.81,.06,.59-.53,.98-.74,.26Z"/><path class="cls-1" d="M21.82,39.61c-.49-.45-.52-4.02,.34-3.92,.21,.08,.27,.33,.23,.53-.17,.78-.16,1.58-.05,2.36,.18,.39,.14,1.59-.52,1.03Z"/><path class="cls-1" d="M22.68,40.44c-.98-.4-.25-2.02-.57-2.84-.29-.85-.07-1.52,.44-1.01,.42,1.09,.77,2.41,.46,3.56-.06,.12-.17,.3-.33,.29Z"/><path class="cls-1" d="M22.84,40.77c-.64-.5-.15-1.5-.26-2.15,.05-.46-.46-1-.08-1.38,.12-.1,.29-.09,.4,.04,.53,.67,.97,3.22-.06,3.5Z"/><path class="cls-1" d="M22.88,41.06c-.56-.23-.33-1.01-.34-1.48,.04-.34-.08-1.25,.5-1.02,.3,.31,.19,.81,.27,1.2,.03,.42,.15,1.23-.42,1.29Z"/><path class="cls-1" d="M22.24,40.44c-.41-.32-1.1-2.56-.19-2.44,.26,.13,.2,.5,.26,.74,.13,.56,.12,1.17-.06,1.7,0,0,0,0,0,0Z"/><path class="cls-1" d="M21.72,41.61c-.36-.14-1.05-2.31-.19-1.83,.35,.23,1.01,1.99,.19,1.83Z"/><path class="cls-1" d="M21,41.29c.02-.4,.36-.77,.69-.97,1.37-.16-.48,2.48-.69,.97Z"/><path class="cls-1" d="M21.44,41.51c-.56-.41,.07-1.32,.64-1.31,.11,.41-.01,1.53-.64,1.31Z"/><path class="cls-1" d="M21.04,43.65c-.28-.7,.27-2.13,1-2.37,.14,.47-.22,3.11-1,2.37Z"/><path class="cls-1" d="M32.41,42.31c-.16-.09-.25-.27-.31-.44-.35-.25-.54-.78-.54-1.2-.29-.27-.84-.35-.77-.84,.1-.67,.78-.3,1.11-.03,.54-1.16,1.67,.02,1.48,.92-.09,.49-.22,1.89-.97,1.58Z"/><path class="cls-1" d="M31.21,41.46c-.08-.17-.2-.34-.35-.52,.04-.02,.07-.03,.11-.05h0s.03-.02,.04-.02h0c.11-.05,.21-.11,.31-.17,.02-.01,0-.03,0-.03-.06,0-.13,.02-.19,.04,0,0,0-.01,0-.02,.05-.03,.09-.06,.14-.08,.01-.01,0-.03-.02-.03-.08,0-.16,.03-.24,.05,.04-.02,.08-.04,.12-.06,.02,0,.01-.03,0-.03-.05,0-.09,0-.13,0,.01-.02,.02-.03,.03-.04,.01-.01,0-.03-.02-.03h0l.02-.02c.05-.06-.03-.12-.08-.08-.07,.06-.15,.14-.23,.22-.04,.01-.08,.03-.11,.04-.53-.59-1.09-1.18-.49-1.87,.01-.02,.03,.02,.04,.03,.73,.52,1.25,1.38,1.64,2.19,.1,.19,.07,.46-.1,.6-.06,.05-.12,.07-.18,.07-.12,0-.24-.08-.3-.2Z"/><path class="cls-1" d="M31.22,41.36c-.19-.09-.37-.2-.54-.32,.03-.02,.07-.04,.1-.07h0c.07-.04,.13-.07,.19-.09h0s.03-.01,.04-.02h0c.11-.05,.21-.11,.31-.17,.01,0,0-.03-.01-.03-.07,0-.13,.02-.19,.04,0,0,0-.01-.01-.02,.05-.03,.1-.06,.14-.09,.01-.01,0-.04-.01-.03-.09,.01-.17,.04-.25,.06l.12-.06s0-.03-.01-.03c-.04,0-.08,0-.12,.01,0-.02,.02-.03,.03-.04,.01-.01,0-.03-.02-.02,0,0,0,0,0,0,0,0,.02-.02,.02-.03,.04-.05-.02-.12-.08-.08-.07,.06-.15,.14-.23,.22-.13,.04-.24,.09-.35,.16-.3-.33-.47-.75-.35-1.23,.03-.16,.19-.31,.36-.27,.03-.04,.05-.14,.09-.12,.07,.21,.15,.42,.24,.62,.24,.46,.7,.61,1.13,.8,0,0,0,0,0,0,.39,.33,.12,.92-.29,.92-.1,0-.2-.03-.31-.11Z"/><path class="cls-7" d="M30.6,40.98l.08-.08s.07-.03,.11-.05c-.05,.04-.1,.09-.15,.15l-.04-.03Z"/><path class="cls-1" d="M16.29,29.02c-.13-.09-.27-.23-.38-.4,0-.17-.03-.35-.05-.52,.02-.03,.03-.05,.05-.07,0,0,0,0,0,.01,.03-.04,.05-.07,.07-.1h-.01s.01,0,.02-.02l.3-.21c.05,.04,.1,.09,.13,.15,.22,.37,.52,.76,.46,1.21-.08,.03-.17,.05-.26,.05-.11,0-.23-.03-.32-.1Z"/><path class="cls-7" d="M25.48,21.27c.11-.1,.22-.2,.34-.31,.29-.03,.45,.51,.19,.69-.18,.12-.41,.25-.6,.27-.04-.23-.02-.46,.08-.66Z"/></g><g class="cls-11"><path class="cls-13" d="M6.24,25.95c.45-1.06,1.41-1.68,2.26-2.38,1.91-1.58,3.78-3.22,5.64-4.85,.03-.02,.06-.05,.09-.07,.11-.09,.21-.18,.31-.27,.15-.13,.3-.26,.44-.39,.1-.08,.2-.17,.3-.26,.34-.28,.7-.56,.99-.88,.43-.37,.86-.74,1.29-1.1,.22-.2,.44-.39,.67-.58,.33-.24,.64-.5,.93-.8,1.76-1.51,3.54-3,5.21-4.59,.03-.04,.07-.07,.11-.1t0-.01c.55-.52,1.08-1.06,1.59-1.61,.14-.14,.34-.12,.45,.04,.11,.16,.11,.42-.03,.56-3.53,3.78-7.55,7.03-11.42,10.45-2.23,1.98-4.48,3.94-6.79,5.84-.53,.46-1.22,1-1.93,1-.04,0-.07,0-.1,0Z"/><path class="cls-13" d="M31.41,12.45c-.47-.53-6.87-5.5-4.56-5.08,1.56,1.53,3.27,2.89,4.94,4.29,4.08,3.42,7.75,7.31,11.61,10.94,1.97,2.07,4.68,3.53,6.18,5.95-7.1-3.91-11.83-11.1-18.16-16.1Z"/><path class="cls-13" d="M10.64,53.66c-1.02-2.01-.27-4.53-.38-6.73,.18-7.3,.44-14.67,.24-21.96,.11-.64-.54-1.68,.15-2.05,.24-.05,.39,.18,.42,.39,.21,1.26,.27,2.53,.3,3.81,.21,6.54-.04,13.07-.17,19.6-.29,2.29,.34,4.82-.55,6.96,0,0,0,0-.01,0Z"/><path class="cls-13" d="M45.42,53.22c-.87-.89-.39-2.39-.6-3.5-.18-2.85-.52-5.77-.64-8.57-.45-5.59-.65-11.26-1.18-16.84-.03-.41-.37-.97,.09-1.23,.7-.06,.51,1.26,.69,1.72,.56,5.24,.79,10.45,1.25,15.67,.15,2.99,.5,6.01,.7,8.95-.07,1.22,.56,2.75-.29,3.8,0,0,0,0,0,0Z"/><path class="cls-13" d="M16.85,54.66c-.12-.17-.1-.41,.04-.56,1-1.16,2.31-2.28,3.85-2.57,.41-.02,.77,.18,1.13,.36,.42,.22,.83,.44,1.3,.35,1.61-.25,2.98-1.38,4.62-1.51,1.76,.5,3.36-.32,5.07-.49,2.64,.73,5.2,1.79,7.98,2.03-1.7,.82-3.86,.46-5.62-.2-.93-.29-1.72-.84-2.68-.79-1.54,.39-3.02,.86-4.6,.44-1.81,.08-3.33,1.59-5.19,1.43-.67-.05-1.16-.51-1.72-.71-.87-.14-1.68,.57-2.38,.98-.63,.35-.97,1.04-1.56,1.37-.09,0-.19-.05-.25-.14Z"/><path class="cls-13" d="M27.3,49.9c.21-2.7-.98-5.31-.83-8.01-.28-2.76-1.05-5.56-.31-8.33,.07,.04,.05,.25,.08,.33,1.14,4.8,1.27,9.73,1.98,14.6-.07,.61,.28,1.92-.56,2.02-.27-.05-.39-.37-.36-.61Z"/><path class="cls-13" d="M23.3,31.28c.2,.44,.53,.81,.91,1.1h0s.03-.02,.02-.03c-.3-.32-.59-.64-.84-.99-.02-.03-.03-.05-.05-.08h0s-.02-.02-.03-.03c0,0,0,0-.01,0,0,0-.02,0-.01,.02Zm2.38,2.47c-.54-.19-1-.44-1.4-.74,.01,0,.01,0,.03,.01h0s.02-.02,0-.03c-.07-.05-.13-.09-.2-.14-.02-.02-.03-.04-.05-.06,0,0,0-.01,0-.01l-.02-.02h0c-.09-.1-.17-.2-.26-.29,0,0,0,0,0,0-.02-.02-.04-.04-.06-.07,0-.04,0-.08-.02-.12-.09-.22-.29-.38-.52-.53-.05-.06-.1-.12-.15-.18-1.57-2.91-.11-7.56,2.04-9.91,.25-.25,.58-.67,.83-.78-.43,.68-.8,1.43-1.11,2.12-1.1,2.81-2.74,6.84,0,9.18,.07,.06,.15,.11,.24,.16,.07,.04,.13,.08,.2,.1,.06,.03,.11,.07,.17,.1,.08,.04,.15,.06,.22,.06h.03c.34,.15,.61,.35,.52,.78-.04,.19-.21,.38-.4,.38-.04,0-.09-.01-.13-.03Z"/><path class="cls-13" d="M26.05,33.44c-.41-.35,.02-.86,.15-1.23,.84-1.86,.95-3.93,.58-5.89-.36-2.18-1.64-4.43-.83-6.65,.91,3.65,2.51,7.67,1.53,11.44-.02,.07-.05,.15-.07,.22,0,0,0-.02,0-.02-.11,.31-.23,.62-.31,.94-.15,.36-.32,.71-.53,1.06-.06,.14-.19,.22-.32,.22-.07,0-.14-.02-.2-.08Z"/><path class="cls-13" d="M26.76,33.63c-.45-.1-.38-.93,.11-.88,.96,.22,1.95,.06,2.83-.36,2.34-1.04,3.18-3.56,4.69-5.43,.33-.38,.71-.9,1.06-1.14-.09,.19-.18,.39-.26,.56-1.23,3.27-3.47,7.36-7.29,7.36-.37,0-.75-.04-1.14-.12Z"/><path class="cls-13" d="M27.62,29.38c-.17-.06-.16-.29-.17-.44,.24-.9,.92-1.68,1.64-2.25,1.36-.99,2.95-.89,4.54-.78,.98,.07,1.96,.14,2.89-.06-.52,.86-1.7,1.16-2.7,1.05-2.06-.23-4.52-.11-5.59,1.95-.13,.23-.28,.52-.56,.52-.02,0-.03,0-.05,0Z"/><path class="cls-13" d="M15.79,27.68c.82,2.08,2.85,3.94,4.82,5.11,1.15,.56,2.42,.57,3.62,.27h.01c.36-.09,.72-.21,1.06-.36,.29-.11,.53,.14,.6,.4,.24,1.2-2.67,1.36-3.51,1.43-3.3-.28-6.75-3.46-6.6-6.86Z"/><path class="cls-13" d="M21.99,29.78c-.53-1.02-1.61-1.66-2.73-1.76-.45-.03-.89,.03-1.34,.1-.69,.1-1.37,.2-2.05-.04,1.27-1.49,3.74-1.66,5.33-.5,.56,.48,1.78,1.44,1.33,2.24-.08,.08-.17,.12-.26,.12-.11,0-.22-.06-.29-.16Z"/><path class="cls-13" d="M27.23,41.81c-.02-.19,.08-.48,.3-.5,1.39-.14,2.9-.55,4.24-.57-.59,.32-2.71,1.43-3.85,1.43-.35,0-.6-.11-.69-.37Z"/><path class="cls-13" d="M31.16,40.74c-.35-.17-.41-.54-.35-.95,0-.02,0-.04,.01-.06h0s.02-.08,.04-.12h0c.08-.27,.17-.54,.24-.82,.07-.18,.13-.34,.17-.46,1.25-2.65,4.14-4.95,7.18-4.33-.35,.16-.91,.36-1.3,.56-2.04,.8-4.02,2.01-5.02,3.98-.19,.29-.34,.66-.39,.99-.12,.45,.03,1.21-.57,1.21h0Z"/><path class="cls-13" d="M32.67,41.11c-.21-.05-.43-.08-.67-.1,0,0,.02,0,.02,0-.09-.01-.17,0-.24,0-.16-.04-.33-.05-.49,0h0c-.1-.08-.15-.21-.15-.35,.04-.53,.63-.46,1.2-.39,.33,.04,.65,.08,.86,0,1.47-.12,2.92-1.18,3.3-2.61,.33-1.55,1.07-3.19,2.33-4.1-1.46,3.49-1.73,7.35-5.72,7.58-.15-.03-.3-.06-.45-.07Z"/><path class="cls-13" d="M30.3,40.74c-2.87-1.23-1.2-4.52,.67-5.72-.68,1.22-1.86,2.73-1.33,4.12,.08,.14,.22,.25,.38,.35,.15,.17,.29,.33,.47,.45,.02,.02,.03,.04,.05,.06h0s0,.02,.01,.02h.03s.02,0,.02,0t0,0s.09,.05,.13,.07c0,0,0,0,.01,0h0s.02,0,.03,.01h0s0,0,.01,0c.06,.12,.07,.25,.02,.42-.05,.15-.19,.28-.34,.28-.05,0-.11-.02-.16-.05Z"/><path class="cls-13" d="M31.6,37.12c-.37-.7-.97-1.47-.99-2.25,.66,.49,2.09,1.33,1.58,2.3-.08,.08-.18,.12-.28,.12-.12,0-.24-.06-.31-.17Z"/><path class="cls-13" d="M34.8,45.47c-2.14-.25-3.55-2.16-4.29-4.04-.08-.17-.01-.43,.16-.52,.55-.18,.67,1.04,.96,1.33,1.13,2.07,3.67,3.09,5.92,2.51-.56,.5-1.43,.75-2.24,.75-.17,0-.34-.01-.5-.03Z"/><path class="cls-13" d="M37.18,45.65c-1.77-.38-1.5-2.78-2.54-3.9-.26-.26-.62-.33-.98-.39-.18-.08-.37-.14-.57-.19-.12-.21-.02-.59,.25-.54,2.36-.04,2.51,2.35,3.49,3.89,.32,.39,.66,.74,1.06,1.04-.09,.09-.26,.11-.43,.11-.1,0-.2,0-.28-.02Z"/><path class="cls-13" d="M26.1,43.83c-1.15-1.08-2.82-1.57-4.09-2.34,1.31,.02,5.16,.24,4.78,2.16-.09,.17-.27,.29-.44,.29-.09,0-.18-.03-.25-.11Z"/><path class="cls-13" d="M18.34,43.42c-2.14-.54-3.63-2.41-4.66-4.18,2.12,.58,3.33,3.2,5.68,3.18,.16,.06,.32,.09,.47,.09,.26,0,.51-.08,.72-.21,.3-.08,.49-.32,.58-.59l.05-.04c.09-.05,.17-.1,.24-.18,.26-.12,.49-.28,.59-.51,0,0,0,0,0-.01h0s0-.07,0-.09c0,0,0,0,0-.01,.43-.4,.83,.38,.49,.7-.87,.98-2.09,1.94-3.44,1.94-.24,0-.48-.03-.72-.09Z"/><path class="cls-13" d="M21.93,41.12s.06-.08,.08-.13c0,0,0-.01,0-.02h0s0-.06,0-.08c.01-.06,.01-.12,0-.18,.02-.08,.02-.16,0-.25-.04-.18-.15-.29-.29-.36,0,0,.01,0,.02,.01-.01,0-.02-.01-.03-.02h0s-.03-.01-.04-.02l-.03-.02c-.2-.24-.46-.43-.74-.59-1.12-.87-2.88-1-4.23-.67-1.13,.31-1.99,1.1-3.19,1.1,.12-.23,.43-.46,.61-.68,1.8-2.09,5.42-2.26,7.46-.47,.09,.09,.18,.21,.29,.33,.06,.23,.18,.45,.34,.63,.02,.01,.03,.03,.04,.05,.07,.1,.14,.19,.22,.27,.23,.49,.32,.99,0,1.29-.05,.03-.11,.05-.16,.05-.15,0-.29-.1-.35-.25Z"/><path class="cls-13" d="M21.73,40.11h0s-.02,0-.02,0c0,0,.01,0,.02,0-.01,0-.03-.01-.04-.02h0s0,0-.01-.01h-.02c-.15-.18-.33-.33-.53-.47-.46-1.53-.27-3.45,.97-4.42-.42,.88-.47,1.97-.46,2.92-.15,.72,.68,1.69,.35,2.28-.05-.13-.14-.21-.26-.28Z"/><path class="cls-13" d="M22.56,41.72c-.28-.41,.11-.78,.36-1.16l.17,.17s.01,0,.01,0c.01,0,.02,0,.02-.03-.02-.04-.04-.08-.06-.12,.06-.14,.09-.29,.1-.44,.02-.08,.02-.17,.03-.25,.43-1.64-.98-2.96-1.11-4.54,2.06,1.17,2.48,4.51,.94,6.33-.06,.09-.15,.14-.24,.14-.08,0-.15-.03-.21-.1Z"/><path class="cls-13" d="M18.95,47.08c1.78-1.1,3.96-2.55,3.76-5,0-.3-.16-.75,.22-.87,.19-.03,.33,.15,.35,.32,.43,2.56-1.31,5.56-4.07,5.56-.09,0-.17,0-.26,0Z"/><path class="cls-13" d="M20.64,42.27c.26-.11,.42-.33,.5-.58,.1-.04,.2-.11,.28-.2l.12-.06c.14,.12,.2,.4,.05,.55-1.36,1.52-1.95,3.57-2.71,5.37-.44-1.8,.69-3.57,1.76-5.08Z"/><path class="cls-13" d="M25.62,32.62s.03,0,.04,0c.13,0,.23-.08,.3-.2,.12-.06,.2-.16,.27-.29,.14,.35,.13,.65-.38,.76-.08-.08-.16-.17-.24-.26Z"/><path class="cls-13" d="M26.64,32.29c-.08-.21-.02-.48,.18-.6,.21-.13,.41-.27,.61-.42,0,.02,0,.04-.02,.06,0,0,0-.02,0-.02-.11,.31-.23,.61-.31,.92-.02,.07-.05,.14-.07,.21h0v.03s-.05,0-.07,0c-.14,0-.26-.06-.34-.19Z"/><path class="cls-13" d="M24.23,33.02s-.04-.04-.06-.06c0,0,.01,0,.02,0h0s.08,.04,.13,.05h0s.02-.01,.01-.03c-.07-.04-.13-.09-.19-.13-.02-.02-.04-.05-.06-.07,0,0,0,0,0-.01h0c-.09-.11-.17-.21-.26-.31,0,0,0,0,0,.01-.01-.02-.04-.04-.05-.06,0-.04,0-.08-.02-.12-.08-.21-.29-.37-.51-.52,0,0-.01-.01-.02-.02,.13,.02,.27,.03,.4,.05,.17,.21,.37,.4,.58,.57,0,0,0,0,0,0,.02,0,.03-.01,.02-.03-.16-.17-.33-.35-.48-.53,.26,.02,.51,.04,.77,.04,.13,.15,.27,.28,.42,.38,.09,.08,.19,.15,.29,.19h0c0,.5-.38,.6-.79,.6-.07,0-.13,0-.2,0Z"/><path class="cls-13" d="M30.55,40.02h0s.01,.01,.01,.01c.01,0,.02,0,.01-.03h0s.08,.04,.12,.06c0,0,0,.01,.01,.01h.01s.01,0,.03,.01h0s.03-.02,.01-.03c-.01,0-.02-.02-.03-.03,.02-.09,.04-.17,.06-.26h0s.01-.03,.02-.06h0s.02-.07,.04-.12h0c.07-.21,.14-.43,.2-.64,.39,.71,.68,1.41-.18,1.45-.12-.11-.23-.25-.31-.4Z"/><path class="cls-13" d="M30.95,39.8c-.05-.2,.02-.45,.23-.53,.24-.1,.48-.19,.72-.29-.12,.27-.19,.55-.18,.8-.02,.07-.03,.14-.04,.2-.13,.05-.26,.1-.4,.14-.16,0-.29-.15-.33-.31Z"/><path class="cls-13" d="M31.99,41s.01,0,.02,0c-.09-.01-.17,0-.24,0-.14-.03-.29-.04-.43,0-.15-.31-.22-.62,.03-.88,.09-.08,.21-.09,.3-.06,0,.1,.05,.17,.14,.17,.02,0,.04,0,.05-.01,0,.01,.01,.02,.02,.04,.11,.26,.23,.52,.36,.77-.08-.01-.16-.02-.25-.03Z"/><path class="cls-13" d="M22.01,41.35c-.09-.02-.18-.03-.27-.03,.12-.1,.22-.2,.28-.33,0,0,0,0,0-.01s0-.01,0-.01c0-.03,0-.05,0-.08,.01-.06,.01-.11,0-.17,.02-.08,.02-.16,0-.25-.04-.18-.15-.29-.29-.36,0,0,.01,0,.02,.01-.01,0-.02-.01-.03-.02h0s-.03-.01-.04-.02l-.03-.02-.03-.03c.55,.07,.92,.3,.93,.8-.03,.27-.22,.51-.5,.51-.02,0-.04,0-.05,0Z"/><path class="cls-13" d="M22.44,40.73c-.13-.32-.22-.65-.25-1h0v.02l.04,.04c.1,.13,.2,.25,.31,.37,0,0,0,0,0-.01,.18,.2,.36,.39,.56,.58,0,0,0,0,0,0,.01,0,.02,0,.02-.03-.03-.05-.05-.09-.07-.13,.06-.14,.09-.29,.1-.44,.12,.3,.14,.6-.16,.85-.06,.03-.12,.05-.17,.05-.17,0-.33-.14-.39-.31Z"/><path class="cls-13" d="M21.85,42.28c.05-.07,.12-.12,.19-.14-.06,.04-.12,.09-.17,.15-.01,.01-.03,.02-.04,.03l.02-.04Z"/><path class="cls-13" d="M37.84,16.24c1.2-.81,3.29-1.05,3.87-2.55,.44-1.73-.3-3.83-1.76-4.86-1.7-1.24-4.75-1.42-5.7,.78-.39,.75-.41,1.61-.07,2.39,.2,.46-.41,.93-.64,.38-.38-.93-.47-1.95-.09-2.91,.98-3.3,5.51-3.13,7.63-1.07,2.78,2.86,2.31,8.05-1.75,8.05-.45,0-.95-.07-1.49-.21Z"/><path class="cls-13" d="M32.76,6.98c-1.16-.9-2.24-2.06-3.06-3.23,1.16,.22,4.5,1.49,3.92,3.01-.11,.22-.32,.35-.53,.35-.12,0-.23-.04-.33-.13Z"/><path class="cls-13" d="M46.04,20.59c-1.3-1.03-2.33-2.32-3.24-3.71-.18-.26-.17-.66,.05-.89,.22-.23,.54-.19,.72,.06,1.03,1.37,2.06,2.87,2.47,4.54h0Z"/><path class="cls-13" d="M41.36,7.47c-.92-1.07,1.14-2.92,2.06-3.22-.48,.61-.88,3.3-1.78,3.3-.09,0-.19-.03-.29-.08Z"/><path class="cls-13" d="M36.95,5.51c-.28-1.14-.31-2.58,.35-3.53,.07,.53,.23,1.1,.37,1.57,.17,.52,.33,1,.45,1.52,.16,.54-.24,.96-.62,.96-.23,0-.45-.15-.55-.53Z"/><path class="cls-13" d="M46.3,12.38c-.8-.16-2.52,.12-2.49-1.04,.03-.29,.27-.63,.6-.56,1.42,.28,2.79,.74,4.03,1.49-.42,.1-.92,.12-1.41,.12-.25,0-.49,0-.72,0Z"/><path class="cls-13" d="M39.33,18.44c-1.66-2.2,.8-2.62,0,0,0,0,0,0,0,0Z"/><path class="cls-13" d="M31.89,10.64c-.8-.03-1.53-.33-2.23-.7,.63-.56,2.73-1.55,2.85-.07,0,.33-.22,.77-.59,.77,0,0-.02,0-.02,0Z"/><path class="cls-13" d="M23.44,10.63s.08-.07,.11-.11c.16-.14,.32-.29,.47-.44l.15-.13,.02-.02h0s.09-.08,.13-.12c.01,.48-.09,.9-.52,1.01-.16,0-.29-.08-.37-.19Z"/><path class="cls-13" d="M14.52,18.4c.18-.15,.35-.29,.51-.45,.1-.09,.2-.17,.3-.26,0-.01,.03-.02,.04-.03l.24-.2c.16-.14,.33-.27,.48-.42,.34-.12,.66-.25,.97-.37-.64,1.01-1.67,1.87-2.86,1.99,.12-.09,.23-.19,.34-.28Z"/><path class="cls-13" d="M18.75,42.7c-.02-.29,.27-.35,.49-.33,.53,.06,1.02-.39,1.5-.17,.23,.25-.29,.61-.54,.65-.41,.06-1.37,.48-1.45-.15Z"/><path class="cls-13" d="M19.4,43.07c-.22-.09-.21-.43-.03-.56,.6-.23,1.25-.45,1.81-.74,.24-.19,.61-.15,.56,.22-.03,.3-.39,.37-.61,.49-.55,.22-1.13,.6-1.72,.6Z"/><path class="cls-13" d="M20.4,42.38c.11-.54,.77-.67,1.17-.94,.14-.08,.29,.02,.34,.16,.06,.15,.02,.35-.13,.43-.42,.22-.9,.61-1.38,.36Z"/><path class="cls-13" d="M18.44,43.05c-.34-.02-.34-.63,0-.64,1.01-.03,1.98-.34,2.91-.71,.28-.1,.48,.24,.33,.47-.89,.61-2.16,.8-3.24,.88Z"/><path class="cls-13" d="M24.05,32.6c-.41-.41-.76-1.03-.74-1.59,.51,.33,.95,.84,1.18,1.37,.07,.28-.25,.43-.44,.22Z"/><path class="cls-13" d="M24.1,32.69c-.44-.45-.96-1.07-.86-1.73,.51,.26,.77,.83,1.14,1.19,.26,.19,.04,.77-.28,.54Z"/><path class="cls-13" d="M24.37,33.27c-.52-.49-1.16-1.17-1.08-1.94,.52,.04,.69,.7,1.01,1.04,.11,.15,.26,.27,.37,.41,.16,.21-.01,.63-.3,.49Z"/><path class="cls-13" d="M24.02,32.76c-.38-.18-1.91-2.52-.72-2.13,.18,.24,.24,.58,.4,.81,.17,.31,1.16,1.31,.32,1.32Z"/><path class="cls-13" d="M23.81,32.58c-.37-.48-.9-.96-.88-1.59,.06-.2,.18-.25,.33-.16,.35,.47,.58,1.03,1.04,1.43,.38,.48-.17,.85-.49,.31Z"/><path class="cls-13" d="M23.9,32.77c-.42-.58-.88-1.18-1.1-1.86-.01-.12,.03-.27,.15-.33,.11-.06,.22,0,.29,.08,.27,.55,.6,1.11,.95,1.56,.56,.39,.3,1.21-.28,.55Z"/><path class="cls-13" d="M24.34,33.15c-.6-.4-1.18-1.1-1.31-1.83,0-.09,.02-.28,.14-.29,.44,.03,.48,.67,.76,.93,.23,.31,1.22,1.04,.41,1.19Z"/><path class="cls-13" d="M22.89,30.78c-.41-.14-.49-.63-.76-.94-.15-.29-.54-.68-.24-.99,.42-.21,.6,.62,.89,.84,.24,.25,.71,1.03,.1,1.09Z"/><path class="cls-13" d="M23.1,31.28c-.54-.67-1.02-1.42-1.43-2.18-.06-.14,0-.35,.13-.43,.29-.14,.37,.27,.5,.44,.26,.67,1.53,1.53,1.17,2.21-.11,.09-.27,.03-.37-.05Z"/><path class="cls-13" d="M22.85,31c-.25-.48-.6-.85-.76-1.35-.02-.12-.08-.39,.11-.36,.59,.16,.74,.93,1.08,1.36,.18,.29-.22,.72-.43,.35Z"/><path class="cls-13" d="M22.92,31.3c-.45-.55-.74-1.25-1.13-1.83-.26-.21-.29-.91,.18-.7,.19,.27,2.34,3.13,.95,2.52Z"/><path class="cls-13" d="M23.6,32.5c-.28-.21-2.36-3.64-1.16-3.11,.53,.84,.9,1.77,1.5,2.56,.31,.31,.09,.92-.35,.55Z"/><path class="cls-13" d="M24.01,32.74c-.28-.18-1.71-1.94-.71-1.79,.19,.28,1.7,1.93,.71,1.79Z"/><path class="cls-13" d="M24.03,32.88c-.26-.3-1.55-1.54-.66-1.65,.41,.33,.64,.87,1.04,1.22,.22,.3-.04,.71-.38,.43Z"/><path class="cls-13" d="M24.32,33.17c-.36-.15-1.73-1.65-.82-1.71,.26,.14,.35,.5,.56,.7,.17,.27,.48,.36,.6,.65,.11,.24-.1,.47-.35,.37Z"/></g></g></g></svg>