<?xml version="1.0" encoding="UTF-8"?><svg id="Layer_1" xmlns="http://www.w3.org/2000/svg" xmlns:xlink="http://www.w3.org/1999/xlink" viewBox="0 0 56.69 56.69"><defs><style>.cls-1{fill:#fff;}.cls-2{clip-path:url(#clippath-2);}.cls-3{clip-path:url(#clippath-1);}.cls-4{clip-path:url(#clippath-4);}.cls-5{fill:#fedc00;}.cls-6{fill:#3db54a;}.cls-7{clip-path:url(#clippath);}.cls-8{fill:none;}.cls-9{clip-path:url(#clippath-3);}.cls-10{clip-path:url(#clippath-5);}.cls-11{fill:#3bb54a;opacity:0;}.cls-12{fill:#e82425;}.cls-13{fill:#010101;}</style><clipPath id="clippath"><rect class="cls-8" x="2.83" y="1.4" width="51.02" height="53.89"/></clipPath><clipPath id="clippath-1"><rect class="cls-8" x="18.92" y="1.4" width="25.24" height="31.01"/></clipPath><clipPath id="clippath-2"><rect class="cls-8" x="30.5" y="12.04" width="23.36" height="43.25"/></clipPath><clipPath id="clippath-3"><rect class="cls-8" x="34.26" y="14.81" width="12.37" height="35.97"/></clipPath><clipPath id="clippath-4"><rect class="cls-8" x="2.99" y="19.6" width="31.08" height="24.4"/></clipPath><clipPath id="clippath-5"><rect class="cls-8" x="2.83" y="19.05" width="31.7" height="34.97"/></clipPath></defs><rect class="cls-11" width="56.69" height="56.69"/><g class="cls-7"><g class="cls-3"><path class="cls-13" d="M34.81,22.42c3.89-.33,5.09-4.56,4.78-7.88,.04-.72-.4-1.56-.02-2.2-1.15-3.31-5.49-3.67-8.39-2.84-2.66,.84-4.36,3.7-4.56,6.37-.2,4.11,4.54,6.72,8.19,6.55Zm-1.02,1.11c-13.96-1.65-7.76-20.25,4.33-14.49,2.45,1.2,2.36,4,2.42,6.35,.33,3.99-2.23,8.69-6.75,8.15Z"/><path class="cls-13" d="M33.21,6.39c0-1.57-.41-3.2,.32-4.68,.06,.01,.06,.2,.1,.25,.47,1.43,.47,2.94,.49,4.43,0,.25-.15,.56-.45,.56s-.46-.31-.45-.56Z"/><path class="cls-13" d="M40.23,9.55c-.17-.24-.15-.6,.04-.81,1.03-1.28,1.88-2.78,3.58-3.21-.65,1.51-1.91,2.81-2.98,4.08-.19,.21-.49,.17-.65-.06Z"/><path class="cls-13" d="M26.06,9.46c-.85-1.45-2.51-2.31-3.3-3.74,1.83,.15,3.1,1.47,4.03,2.94,.18,.25,.16,.64-.05,.86-.2,.22-.52,.18-.69-.06Z"/><path class="cls-13" d="M24.26,16.58c-1.69-.02-3.48-.1-5.03-.65,1.11-.81,2.52-.95,3.86-.84,.64,.07,1.75-.18,1.75,.77,0,.31-.21,.74-.58,.72Z"/><path class="cls-13" d="M22.96,27.25c.78-2.06,2.41-3.57,3.92-5.12,.24-.24,.59-.21,.78,.07,.19,.28,.18,.72-.06,.98-1.34,1.58-2.85,3-4.62,4.09h0s-.02-.01-.01-.02Z"/><path class="cls-13" d="M33.65,32.1c-.77-1.93-.28-4.03-.68-6.03-.05-.27,.1-.61,.36-.72,.3-.11,.6,.14,.65,.44,.31,2.09,.63,4.35-.32,6.32,0,0,0,0-.01-.01Z"/><path class="cls-5" d="M39.59,14.54c.31,3.32-.89,7.55-4.78,7.88-3.65,.17-8.39-2.44-8.19-6.55,.2-2.66,1.9-5.53,4.56-6.37,2.9-.84,7.24-.47,8.39,2.83-.37,.64,.06,1.48,.02,2.2Z"/></g><g class="cls-2"><path class="cls-13" d="M38.64,53.42c-6.94-1.27-7.83-10.06-3.02-14.29,.42-.33,1.23-.84,1.61-.23,.25,.58-.11,.92-.63,1.02-2.54,1.78-3.54,5.44-2.66,8.31,.7,2.28,3.19,3.65,5.39,3.98,4.22,.71,8.31-2.82,8.02-7.09-.17-1.83-1.41-3.42-2.58-4.7-1.2-.66-.51-2.41,.59-1.22,6.48,5.71,1.83,15.78-6.72,14.22Z"/><path class="cls-13" d="M43.89,39.47c-.09-4.68,.09-9.36-.02-14.06-.08-3.26,.49-6.54,.03-9.78-.2-2.01-4.59-2.17-5.8-1.11-2.11,5.47-.78,11.8-.94,17.57,.03,2.24,.08,4.47-.02,6.7,0,.22-.14,.49-.39,.49s-.4-.27-.39-.49c-.02-3.21-.1-6.42-.18-9.63-.19-4.89-.55-10.03,.79-14.8,1.09-2.01,4.08-1.91,5.95-1.16,2.26,.6,2.05,3.28,2.19,5.14-.04,3.28-.26,6.56-.18,9.84,.19,3.65-.08,7.35,0,10.99,.13,.72-.83,1.13-1.04,.29Z"/><path class="cls-13" d="M46.53,38.36c-.55-.24-.25-1.02,.4-.77,1.74,.09,3.49-.16,5.24-.1,.17-.02,.35,.06,.42,.22,.2,.36-.11,.79-.51,.68-1.85-.06-3.71,.26-5.54-.02Z"/><path class="cls-13" d="M52.34,32.88c-1.84,0-3.66-.29-5.5-.28-.38-.01-.37-.7,0-.72,1.85-.03,3.71,.12,5.56,.17,.43,.08,.38,.83-.07,.83Z"/><path class="cls-13" d="M46.44,26.38c0-.2,.12-.42,.34-.43,1.09-.02,2.19-.03,3.28-.07,.69,.13,3.07-.61,2.68,.65-.08,.13-.19,.22-.36,.22-1.86,0-3.73,.08-5.6,.07-.22,0-.34-.24-.34-.43Z"/><path class="cls-13" d="M49.78,21.05c-.94,0-1.89,0-2.83,0-.49,0-.49-.92,0-.92,1.91,.1,3.96-.21,5.8,.11,.8,1.4-2.26,.66-2.97,.82Z"/><path class="cls-13" d="M46.49,14.93c-.02-.17,.07-.43,.26-.45,1.81-.23,3.69-.16,5.49-.08,1.26,1.38-2.83,.64-3.47,.77-.67-.03-1.31,0-1.97,.09-.18,0-.3-.16-.32-.33Z"/><path class="cls-13" d="M47.86,18.18c-.48-.07-1.3,.13-1.3-.58,0-.23,.15-.55,.42-.53,.41,.07,.9-.07,1.27,.15,.44,.32,.14,1.07-.4,.96Z"/><path class="cls-13" d="M46.5,23.85c-.09-.81,.86-.67,1.41-.74,.29-.05,.62,.01,.76,.31,.32,.84-.63,.87-1.2,.85-.4,.07-.92,.12-.97-.42Z"/><path class="cls-13" d="M46.43,29.52c-.02-.64,.66-.58,1.12-.62,.3-.02,.53,.27,.53,.56,0,.67-.76,.58-1.23,.63-.27,0-.42-.34-.42-.56Z"/><path class="cls-13" d="M46.55,34.97c0-.27,.16-.55,.45-.57,.53-.02,1.43-.29,1.47,.49-.03,.77-.94,.55-1.47,.64-.29,.02-.45-.33-.45-.57Z"/><path class="cls-1" d="M47.35,45.11c.29,4.28-3.81,7.81-8.02,7.09-2.21-.33-4.69-1.69-5.4-3.97-.88-2.87,.12-6.53,2.67-8.31,.51-.1,.88-.44,.63-1.02-.03-.04-.06-.08-.09-.11h0c.11-2.24,.05-4.46,.02-6.7,.16-5.77-1.17-12.1,.94-17.57,1.21-1.06,5.59-.9,5.79,1.11,.46,3.24-.11,6.52-.03,9.78,.12,4.69-.06,9.38,.02,14.06,.07,.27,.21,.41,.37,.45,.1,.19,.26,.37,.5,.5,1.17,1.27,2.42,2.86,2.58,4.69Z"/></g><g class="cls-9"><path class="cls-12" d="M38.2,48.74c-.1-.07-.21-.15-.31-.22,0,.03,0,.07,0,.1,.1,.05,.21,.09,.32,.12Zm2.83,1.73c-1.8-.23-3.91-.38-5.07-1.99-1.4-2.67-.54-6.58,2.49-7.64,.43-.61,.07-1.38,.15-2.07,.24-1.93-.14-3.81-.06-5.69,.49-5.67-.79-11.41,.5-17.01,.41-.74,1.33-.95,2.13-.83,1.85,.69,.96,3.14,1.12,4.64,.65,6.91,.17,13.74,.1,20.64,2.64,1.25,3.93,4.82,2.58,7.42-1.01,1.14-2.39,2.32-3.94,2.53Z"/></g><g class="cls-4"><path class="cls-6" d="M14.83,29.54c-1.99-.88-3.65-2.48-4.8-4.31-.96-1.47-1.91-3.12-2.45-4.77,.1-.56,.62-.35,.73,.1,.25,0,.37,.28,.54,.44h0c.1-.12,.26-.14,.39-.07,.53,.47,.96,1.08,1.45,1.6,.56-.11,.65,.82,.97,1.16,.55,.87,2.12,1.93,1.87,3.01,.43,.6,1.03,1.13,1.36,1.83,.6,.06,.59,1.15-.05,1.01Z"/><path class="cls-6" d="M15.98,29.23c-.11-.21-.09-.55,.12-.7,.06-.04,.11-.09,.17-.13-.04-.11-.05-.24-.02-.35,.03-.12,.07-.23,.12-.34-.12-.89,.68-1.7,1.04-2.49,.51-.63,.81-1.73,1.58-2.02,.42-.41,.67-1.21,1.26-1.33,.12-.24,.45-.41,.65-.15,.68,.14,.24,.97-.02,1.29-.41,.76-.7,1.58-1.18,2.31,.25,.24,.18,.6,.06,.88-.25,.52-.42,1.21-1,1.44-.3,.41-.65,1.76-1.3,1.11-.23,.22-.46,.61-.81,.56-.2,.2-.52,.2-.66-.08Z"/><path class="cls-6" d="M24.12,36.84c-.4-.27-.72-.61-1-1-.9,1.07-2.55-3.08-2.79-3.78-.12-.59-.21-1.2-.26-1.8,0-.21,.05-.48,.26-.56,.21-.08,.39,.07,.46,.26,.58,.32,.76,1.09,1.21,1.56,.65-.13,.97,1.23,1.38,1.66,.29,.72,1.46,1.73,.77,2.46,.05,.16,.17,.26,.3,.35,.42,.23,.18,1.1-.32,.86Z"/><path class="cls-6" d="M24.43,36.42c-.55-.41-.36-1.11,.03-1.56,.7-1.16,1.35-2.37,2.11-3.49,.09-.1,.22-.15,.34-.13,.4-.47,1.43-3.07,2.1-1.91,.28,.24,.25,.63,.1,.93-.35,.65-.62,1.32-.96,1.98-.32,1.11-.84,2.18-1.3,3.24-.1,.15-.28,.23-.45,.2-.04,.03-.08,.06-.13,.08-.16,.37-.64,.64-.92,.23-.07,.09-.17,.16-.27,.15-.14,.21-.39,.43-.65,.27Z"/><path class="cls-6" d="M28.77,42.87c-.54-.23-.58-.98-.74-1.48-.17-.89-.7-1.84-.44-2.75,.04-.53-.45-2.23,.44-2.11,.6,.45,.39,1.46,.64,2.13,.42,.8,.52,1.83,.65,2.73,1.06-1.63,1.84-3.54,3.59-4.62,.4-.41,.87,.22,.67,.63-.51,.71-.99,1.52-1.63,2.11-.05,.25-.24,.45-.39,.66-.05,.63-.74,.95-1.01,1.49-.22,.29-.4,.89-.85,.77-.27,.2-.57,.46-.92,.44Z"/><path class="cls-6" d="M8.56,43.36c-.51-.07-.87-.52-1.26-.81-.47-.2-.74-.71-1.09-1.06-.45-.56-1.18-1.03-1.37-1.73-.5-.64-.99-1.28-1.29-2.02-.25-.42,.23-1.03,.62-.62,.53,.25,.87,.85,1.32,1.25,.22-.3,.62-.12,.81,.12,.7,.74,1.58,1.44,1.99,2.38,.38,.32,.78,.65,1.19,.94,.36,.21,.88,.44,.68,.95-.1,.29-.42,.36-.65,.17-.09,.23-.36,.34-.58,.19-.07,.14-.21,.26-.37,.25Z"/><path class="cls-6" d="M11.83,42.46s-.05-.07-.07-.11c-1.49,.59,.86-4.59,1.13-5.17,.13-.41,.25-1.27,.86-1.05,.57,.45-.09,1.21-.05,1.79,.15,.72-.68,5.77-1.87,4.54Z"/></g><g class="cls-10"><path class="cls-13" d="M16.09,53.51c-.16-.61,.74-.74,1.1-1.05,.68-.56,1.5-.53,2.29-.44,1.82-.43,3.64-.69,5.51-.83,.81,.17,2.2,.37,2.78,.9-.82,.66-1.76,.1-2.64-.07-.97,.01-1.92,.26-2.88,.25-1.02,.09-2.02,.6-3.07,.52-.41-.06-.82-.21-1.2,.03-.57,.25-1.07,.67-1.63,.91-.12,0-.22-.09-.26-.21Z"/><path class="cls-13" d="M25.64,50.65c-.21-1.76,.33-3.34,1.46-4.67,.85-1.26,1.02-2.88,1.68-4.13,.28,2.22-.91,4.22-2.15,5.95-.23,.36-.36,.8-.38,1.22-.14,.57,.31,1.78-.31,2.02-.2,0-.31-.21-.31-.38Z"/><path class="cls-13" d="M22.58,51.47c-.17-.1-.21-.33-.14-.49,.61-1.49,.69-3.15,.41-4.71-.23-1.25-.77-2.51-.5-3.8,.61-2.11,1.49-4.32,2.42-6.24-.04,2.41-1.52,4.45-1.9,6.74,.35,2.77,1.38,5.59,.1,8.32-.05,.17-.23,.27-.39,.18Z"/><path class="cls-13" d="M19.39,51.59c-.42-.13-.19-.78-.21-1.07,.37-3.31-2.26-5.82-2.59-8.97-.31-1.98,.23-3.97,.19-5.95-.22-1.97-1.39-3.85-1.24-5.82,.83,1.95,1.89,3.92,1.9,6.09-.05,2.01-.56,4.03-.17,6.02,.73,3.16,3.09,5.93,2.45,9.38,0,.17-.16,.35-.34,.31Z"/><path class="cls-13" d="M16.12,52.44c-1.67-1.51-2.86-3.5-3.16-5.74-.47-1.41-1.87-2.4-2.39-3.71,1.06,.82,2.3,1.58,2.83,2.88,.47,1.44,.6,3.01,1.59,4.22,.49,.61,1.04,1.16,1.57,1.72,.14,.15,.15,.42,.03,.59-.12,.16-.33,.19-.47,.04Z"/><path class="cls-13" d="M8,43.44c-2.71-1.22-4.52-4.1-4.86-6.93,1.47,2.89,3.58,6.7,7.34,6.26,.24,0,.38,.26,.38,.48s-.14,.48-.38,.48c-.84,0-1.69,.03-2.48-.28Z"/><path class="cls-13" d="M9.99,43.37c-1.12-3.02-4.43-4.24-6.45-6.42,1.89-.21,7.53,4.7,6.9,6.54-.15,.12-.36,.05-.45-.12Z"/><path class="cls-13" d="M10.6,43.56c-.19-.07-.25-.32-.21-.5,.59-2.67,1.49-5.61,3.31-7.62-.2,2.03-1.7,3.7-2.14,5.66-.23,.72-.39,1.46-.56,2.19-.04,.18-.22,.34-.4,.27Z"/><path class="cls-13" d="M10.48,43c-.13-.57,.6-.63,.95-.84,2.72-1.26,1.77-4.85,2.38-7.19,.72,1.48,.39,3.29,.1,4.87-.24,1.69-1.41,2.95-3.02,3.44-.19,.08-.37-.1-.41-.28Z"/><path class="cls-13" d="M14.99,30.02c-4.26-.52-7.44-6.88-7.91-10.67,1.95,3.61,3.38,9.07,8.01,9.86,.41,.08,.34,.87-.1,.81Z"/><path class="cls-13" d="M15.12,29.57c-1.06-2.66-2.94-4.87-4.92-6.87-1.07-1.1-2.68-1.83-3.39-3.21,1.04-.02,1.76,.8,2.51,1.39,2.67,2.26,5.05,5.08,6.39,8.34,.19,.41-.39,.87-.6,.35Z"/><path class="cls-13" d="M15.72,29.77c-.19-.07-.24-.3-.21-.48,.51-3.54,2.72-7.37,6.2-8.53-1.53,2-3.9,3.31-4.77,5.78-.42,.95-.64,1.95-.83,2.97-.03,.17-.21,.33-.38,.26Z"/><path class="cls-13" d="M16.01,30.02c-.2-.89,1.38-1.03,1.79-1.65,1.22-1.23,1.96-2.82,2.47-4.42,.39-1.22,.46-2.65,1.49-3.56-.51,3.63-1.61,8.13-5.26,9.85-.19,.11-.41-.02-.49-.22Z"/><path class="cls-13" d="M24.02,37.23c-2.82-1.48-4.98-5.14-3.96-8.25,.43,2.23,.79,4.63,2.48,6.26,.56,.52,1.14,.85,1.75,1.25,.18,.12,.23,.35,.16,.54-.06,.17-.26,.31-.43,.2Z"/><path class="cls-13" d="M24.43,36.55c-.14-3.53-4.25-5.04-4.77-8.39,.71,.5,1.28,1.43,1.84,2.13,1.54,1.78,3.32,3.56,3.5,6.05,.11,.41-.44,.71-.57,.21Z"/><path class="cls-13" d="M24.84,36.42c-.09-.73,1.09-.72,1.5-1.14,1.95-2.13,1.96-5.51,3.4-7.97,.18,1.76-.66,3.56-1.22,5.24-.5,1.2-.74,2.7-1.91,3.46-.44,.17-1.53,1.13-1.77,.41Z"/><path class="cls-13" d="M24.38,35.84c-.17-.06-.25-.3-.2-.48,.73-3,2.89-5.72,5.37-7.39-.68,1.95-2.72,3.08-3.68,4.84-.53,.89-.81,1.8-1.1,2.77-.05,.17-.2,.33-.38,.25Z"/><path class="cls-13" d="M28.16,42.43c-1.22-1.83-1.61-4.35-.27-6.23,.06,.27-.02,.67-.02,.99-.14,1.05-.36,2.17,.01,3.18,.05,.73,1.14,1.51,.7,2.17-.15,.12-.33,.05-.42-.11Z"/><path class="cls-13" d="M28.81,42.68c-.56-.3,.11-1.52,.02-2.06,0-1.15-.42-2.21-.82-3.24-.15-.39-.28-.88-.14-1.27,.34,.29,.62,.65,.76,1.08,.72,1.66,.99,3.44,.5,5.2-.02,.16-.14,.33-.32,.29Z"/><path class="cls-13" d="M28.97,42.34c-.15-.09-.2-.3-.13-.46,.9-2.42,2.41-5.36,5.21-5.64-1.06,1.16-2.68,1.67-3.4,3.16-.55,.9-.92,1.8-1.31,2.76-.06,.15-.22,.26-.37,.17Z"/><path class="cls-13" d="M28.54,42.94c-.07-.65,1.08-.56,1.46-.86,2.04-1.42,2.17-4.51,4.24-6.01-.53,1.39-1.44,2.77-2.12,4.15-.49,.97-.96,2.12-2.06,2.53-.42,.08-1.29,.75-1.52,.2Z"/></g></g></svg>