<?xml version="1.0" encoding="UTF-8"?><svg id="Layer_1" xmlns="http://www.w3.org/2000/svg" xmlns:xlink="http://www.w3.org/1999/xlink" viewBox="0 0 56.69 56.69"><defs><style>.cls-1,.cls-2{fill:#fff;}.cls-2{opacity:0;}.cls-3{fill:#ffc808;}.cls-4{clip-path:url(#clippath-2);}.cls-5{clip-path:url(#clippath-1);}.cls-6{fill:#ee3b95;}.cls-7{clip-path:url(#clippath);}.cls-8{fill:none;}.cls-9{clip-path:url(#clippath-3);}.cls-10{fill:#dd4298;}.cls-11{fill:#010101;}</style><clipPath id="clippath"><rect class="cls-8" x="23.2" y="24.42" width="52.91" height="8.07" transform="translate(20.09 77.46) rotate(-88.71)"/></clipPath><clipPath id="clippath-1"><rect class="cls-8" x="5.39" y="2.61" width="47.38" height="48.07" transform="translate(1.79 55.12) rotate(-88.71)"/></clipPath><clipPath id="clippath-2"><rect class="cls-8" x="8.83" y="7.15" width="37.36" height="39.43" transform="translate(.03 53.76) rotate(-88.71)"/></clipPath><clipPath id="clippath-3"><rect class="cls-8" x="9.52" y="5.09" width="41.04" height="40.42" transform="translate(4.07 54.76) rotate(-88.71)"/></clipPath></defs><g id="Spiselig"><rect class="cls-2" x="1.42" y="1.42" width="53.86" height="53.86"/><path class="cls-11" d="M6.41,17s0,0,0,.01c.04,.07,.14,.12,.19,.13,.06,.02,.17,.04,.19,0,.33-.55,.26-1.25,.29-1.89,.07-1.81,.4-3.62,.47-5.4,.27-2.04-.15-4.47,.87-6.25,.26-.14,.4,.25,.4,.49,.22,4.3-.67,8.72,.12,12.95,.36-2.51,.56-5.16,.8-7.68,.17-.78,.14-6.2,1.1-5.58,.48,1.98,.04,5.06,.25,7.25-.09,2.75,.6,5.52,.09,8.21-.3,1.24-1.05,2.32-1.68,3.34-.42,.7-.58,1.5-.81,2.28,.29,4.72,.16,9.51,.23,14.25-.07,1.8,.98,18.48-2.67,14.2-1.71-3.86-.48-8.43-.36-12.54,.18-4.07,.57-8.12,.77-12.17,.06-1.38,.17-2.77,.21-4.15-.31-.17-.02-.95-.22-1.28-.18-.49-.62-.75-.93-1.13-1.12-1.14-1.05-2.98-1.05-4.57,.16-4.44,.25-9,1.05-13.35,.68-1.73,.92,1.29,.87,1.87,0,3.66-.75,7.41-.19,11.03Z"/><g class="cls-7"><path class="cls-11" d="M51.36,44.79c-.01,2.37,1.39,9.84-2.91,8.28-1.75-1.83-.23-5.06-.3-7.32,.46-5.45,.09-10.93,.07-16.37-.23-.26-.19-.71-.28-.99-.13-.62-.5-1.11-.89-1.57-1.01-1.51-.7-3.35-.66-5.06,.67-6.25,.17-13.09,3.66-18.58,.4-.68,1.01-.79,1.4,0,.26,.59,.12,1.23,.05,1.85-.76,10.63-.3,21.34-.23,31.97,.1,2.6,0,5.19,.09,7.79Z"/></g><g class="cls-5"><path class="cls-1" d="M21.91,13.9c1.01-2.74,4.01-4.04,6.66-4.75,.71-.1,2.08-.57,2.37,.34,.04,.14-.03,.35-.18,.39-1.06-.12-1.91,.08-2.91,.46-2.1,.89-4.48,1.78-5.92,3.59,0,0-.02-.02-.01-.03Z"/><path class="cls-1" d="M20.78,13.56c-.72-2.15,9.41-6.99,9.56-3.93-.02,.24-.33,.45-.52,.22-.18-.34-.6-.25-.91-.26-3.04,.48-5.63,2.42-8.12,3.98,0,0-.01,0-.01-.01Z"/><path class="cls-1" d="M17.57,13.36c1.08-2.79,8.32-6.21,11.15-5.13,.31,.12,.52,.7,.12,.83-1.62-.6-3.34,.24-4.86,.86-2.11,1.11-4.59,2.12-6.42,3.44Z"/><path class="cls-1" d="M19.12,11.26c1.74-2.29,4.67-3.55,7.45-4,.56-.09,1.73,.04,1.45,.86-.11,.24-.39,.15-.57,.04-2.85-.1-5.86,2.04-8.33,3.09Z"/><path class="cls-1" d="M18.53,9.48c.86-1.53,7.8-5.08,8.64-2.71-.19,.28-.56,.17-.83,.11-2.81-.08-5.23,2.03-7.8,2.59Z"/><path class="cls-1" d="M18.87,8.56c1.08-1.43,2.84-2.02,4.48-2.52,.86-.22,2.03-.64,2.78-.03-2.38,.87-4.9,1.83-7.26,2.54Z"/><path class="cls-1" d="M17.76,8.65c1.22-1.77,3.36-2.59,5.36-3.14,.53-.11,2.11-.49,1.74,.51-.13,.23-.42,.15-.62,.17-2.31,.28-4.29,1.97-6.47,2.46Z"/><path class="cls-1" d="M14.46,11.15c1.16-2.95,4.73-4.33,7.54-5.29,.28-.02,.64-.17,.86,.06,.2,.22,.05,.61-.23,.66-3.04,.83-5.54,3.04-8.17,4.56Z"/><path class="cls-1" d="M12.04,13.29c.29-2.45,2.98-3.67,4.74-5.06,.93-.47,2.38-1.79,3.39-1.23-.16,.33-.46,.53-.78,.67-2.67,1.55-5.08,3.58-7.32,5.62,0,0-.03,0-.03,0Z"/><path class="cls-1" d="M10.16,15.33c.32-2.45,2.63-4.1,4.35-5.68,.4-.29,3.01-2.35,2.54-.89-2.58,1.8-4.59,4.29-6.81,6.48t0-.01s-.02,.04-.03,.05c0,.02-.01,.03-.02,.05,0,0,0,0-.01,0,0,0-.01,0-.01-.01Z"/><path class="cls-1" d="M8.9,18.67c-.59-2.93,2.07-5.69,4-7.63,.39-.3,.87-.93,1.4-.61,.07,.32-.3,.66-.54,.84-2.3,1.99-3.51,4.8-4.85,7.41,0,0,0,0-.01-.01Z"/><path class="cls-1" d="M10.24,18.39c.82-2.36,1.95-5.3,4.21-6.47-1.46,2.13-3.08,4.16-4.2,6.49,0,0-.02-.01-.01-.02Z"/><path class="cls-1" d="M8.48,18.71c-.22-.72,2.71-6.05,3.21-4.39-.02,.16-.15,.32-.26,.42-1.17,1.13-1.91,2.84-2.95,3.97Z"/><path class="cls-1" d="M8.32,18.14c.11-1.45,.89-2.86,2.07-3.72,.18-.15,.57-.11,.57,.18-.68,1.25-1.9,2.29-2.63,3.56,0,0-.01,0-.01-.02Z"/><path class="cls-1" d="M7.74,19.22c-.15-1.66,.9-3.1,1.96-4.27,.27-.43,1-.54,.84,.15-1.03,1.29-1.92,2.78-2.79,4.13,0,0-.01,0-.01-.02Z"/><path class="cls-1" d="M7.25,20.97c-.04-2.02,.92-4.11,2.24-5.59,.12-.07,.32-.13,.43-.05-.66,1.95-1.7,3.85-2.65,5.65,0,0-.01,0-.01-.02Z"/><path class="cls-1" d="M6.69,23.09c-.49-1.91,.58-3.82,1.41-5.49,.25-.46,.55-1.01,1.13-1.06,.02,.7-.5,1.34-.77,1.97-.71,1.54-1.04,3.12-1.76,4.59,0,0-.01,0-.01-.01Z"/><path class="cls-1" d="M6.25,25.23c-.61-2.24,.57-5.13,2.05-6.82-.63,2.19-1.39,4.67-2.05,6.82Z"/><path class="cls-1" d="M6.8,28.58c-1.39-2.4-.66-5.62,.67-7.91-.38,2.56-.89,5.33-.67,7.91Z"/><path class="cls-1" d="M7.54,33.57c-1.61-2.31-1.73-5.7-.93-8.34,.24,2.71,.5,5.64,.94,8.34,0,0,0,0,0,0Z"/><path class="cls-1" d="M8.93,36.41c-2.05-1.62-2.46-4.97-2.25-7.36,.75,2.42,1.33,5.07,2.25,7.36Z"/><path class="cls-1" d="M9.79,38.45c-1.74-1.6-3.02-4.88-3.05-7.17,1.12,2.31,2.16,4.83,3.05,7.17Z"/><path class="cls-1" d="M10.38,39.92c-2.18-1.61-3.22-4.85-3.52-7.46,1.05,1.45,1.46,3.46,2.47,5.02,.46,.75,.89,1.6,1.06,2.44h0Z"/><path class="cls-1" d="M11.23,37.11c.03,.07,.07,.14,.11,.21,.01-.03,.02-.06,.04-.09,.05-.09,.12-.16,.2-.21-.09-.15-.17-.3-.25-.46-.02,.13-.08,.26-.19,.36l.1,.19Zm5.45,9.34c-.4-.19-.71-.55-1.06-.83-.63,.26-1.17-.9-1.67-1.22-.55,.08-.79-.71-1.15-1.03-.89-1.28-2.21-2.47-2.71-3.92-1.3-1.93-2.72-3.84-3.23-6.17-.29-.5,.18-1.23,.55-.5-.14-.99-.82-2.66-.49-3.52-.03-.29-.05-.59-.06-.88,0-.12-.01-.24-.02-.37-.06-.05-.1-.13-.12-.2-.34-.17-.24-.61-.22-.91,.3-2.28,.29-4.78,1.18-6.89,.05-.19,.11-.39,.17-.58,.01-.03,.02-.06,.04-.09,.31-1.95,1.82-3.62,2.87-5.27,.62-.56,1.16-1.83,2.06-1.84,1.24-.97,2.23-2.95,3.69-3.42,.31-.22,.79-.58,1.13-.24,.44-.46,1.34-1.26,1.49-.12,.37-.36,1.02-.36,1.08,.25,.49-.44,1.11,.09,.93,.67,.21-.12,.45-.24,.67-.13,.19,.09,.3,.27,.34,.46,.59-.37,1.07,.54,.68,.99-.19,.24-.42,.46-.63,.69,.26,.23,.28,.64,.13,.93-.75,1.14-1.58,2.24-2.39,3.34-.69,.95-1.41,1.89-2.03,2.88-.18,.39-.69,.73-1.04,.32-.45,.44-1.09,.09-1.11-.5-.43,.4-1.01,.03-1.03-.51-.26,.58-.53,1.15-.78,1.73,1.96-.84,.34,3.12,.42,4.02,.05,.09,.08,.18,.09,.28,0,.03,0,.05,0,.08,.13-.04,.29-.02,.39,.06,1.63-1.06,1.42,1.59,1.4,2.53-.09,.71,.23,1.87-.54,2.24-.04,.13-.1,.25-.18,.37-.1,.15-.26,.23-.43,.24-.12,1.21-1.45,1.4-1.39,.03-.08,.01-.16,0-.24-.03-.02,0-.03-.02-.05-.02-.05,.67-.77,1.36-1.18,.51-.08,.12-.19,.21-.35,.23-.08,.01-.15,0-.22-.03,.04,.08,.08,.17,.12,.26,.16,0,.32,.07,.42,.22,.52,.9,.99,1.82,1.54,2.68,1.53,1.19,2.4,3.23,3.7,4.69,.66,1.05,1.85,1.92,2.32,3.05,.41,.45,1.04,1.05,.62,1.69,.29,.47-.04,1.38-.69,1.11,.28,.42,.09,1.25-.51,1.19-.71-.25-1.33-.79-1.92-1.19,.48,.57,1.11,1.06,1.45,1.73,.13,.31,.07,.74-.28,.88-.45,.14-.79-.35-1.15-.55,.06,.34-.2,.8-.6,.66Z"/><path class="cls-1" d="M24.28,49.6c-.47-.1-.93-.24-1.38-.41-.12,.2-.32,.3-.55,.23-1.55-.73-3.07-1.56-4.45-2.57-.59-.65-2.45-1.27-1.98-2.31-.46-.57-1.14-1.25-.94-2.04-.33-.41-.65-.84-.97-1.27-.05-.06-.09-.13-.14-.19-.71-.57-5.61-6.65-3.69-6.89-.18-.41,.14-1.22,.64-.81,1.06,1.47,2,3.05,3.14,4.45-.92-.36-1.76-1.33-2.39-2.16,1.75,2.56,3.25,5.37,5.5,7.53,.06-.14,.15-.29,.29-.34,.04-.19,.15-.38,.31-.47-.25-.27-.25-.73,0-1.01-.39-.59,.19-1.43,.87-1.02,.1-.23,.37-.39,.62-.28,.1-.19,.3-.32,.52-.28,1.26,.4,2.45,1.03,3.7,1.47,.82,.3,1.61,.51,2.44,.75-.46,.17-1.2,.17-1.76,.2,.81,.54,3.49,.75,2.39,2.16,.33,.27,.31,.83,.02,1.12,.43,.43,.04,1.45-.63,1.1,.12,.19,.17,.41,.13,.65-.03,.14-.08,.27-.17,.37,.09,.52-.4,.97-.89,.65,.55,.56,.21,1.67-.66,1.36Z"/><path class="cls-1" d="M45.72,23.09c.11-.13,.27-.2,.44-.17-.11-.08-.2-.2-.28-.32-.08-.12-.15-.25-.22-.38,.02,.29,.04,.58,.06,.87Zm.88,.3c0-.13,0-.25-.01-.38h-.03c-.07,.02-.13,.01-.19,0,.12,.09,.2,.23,.23,.38Zm-1.68,10.33c.12-.19,.2-.33,.31-.49-.02-.02-.04-.04-.06-.06,0-.01-.02-.02-.03-.03l-.07,.07c-.05,.17-.1,.34-.15,.51Zm-10.51,10.12c.4-.27,.8-.55,1.2-.82,0-.01,0-.02,0-.03-.43,.21-.87,.43-1.3,.66,.04,.06,.07,.12,.09,.19Zm-9.35,5.69c-.63-.07-1.8-.26-1.48-1.14,.09-.23,.37-.43,.62-.27,.45-.23,1.48,.28,2.18,.12-.76-.17-2.47,.1-2.2-1.12-.23-.33-.19-.87,.15-1.11-.16-.1-.27-.3-.31-.47-.04-.21-.02-.47,.1-.66-.9-.58-.32-1.61,.77-1.48,3.01-.39,5.97-1.65,8.98-1.72,.63-.23,1.25-.46,1.88-.69,.23-.08,.46-.17,.68-.25h0c3.67-3.43,6.85-8.17,7.64-13.17-1.24-4.6-2.24-9.4-5.12-13.31-.41-.93-2.72-2.78-.97-3.38,.53,.07,.87,.62,1.26,.95,1.38,1.59,2.93,3.1,3.94,4.97-1.09-2.32-2.88-4.36-3.98-6.59,.44-3.35,5.75,6.79,5.96,7.67-.62-3.16-3.38-5.79-4.59-8.36-.07-.92,.82-1.18,1.32-.42,.11,.02,.23,.05,.34,.09,.31-.3,.74-.06,.94,.24,.72,.84,1.66,1.55,2.23,2.44,.41,0,.64,.42,.82,.73,.31,.43,.74,.78,1.01,1.25,.52-.14,.81,.55,1.07,.89,3.68,6.84,4.4,15.67,.76,22.68-1.8,2.72-3.74,5.45-6.21,7.62-1.32,1.23-3.13,1.55-4.65,2.39-1.72,1.05-3.76,1.92-5.78,2.24-.19,.01-.37-.07-.48-.23-.58,.02-1.37,.36-1.82-.12-1.68,.13-3.37,.4-5.05,.22Z"/><path class="cls-1" d="M21.55,34.6c-.13,.22-.26,.45-.38,.68,.88-.77,1.33-1.92,2.09-2.8-.57,.71-1.19,1.38-1.71,2.12Zm9.43,12.26c-.83-.39-.26-1.39,.07-1.95-.77,1.2-1.75,.06-.95-.85-.17,.09-.36,.08-.52-.06-.06-.05-.1-.11-.14-.17-.75,.51-2.52,2.87-3.16,1.25-.24,.25-.66,.24-.84-.07-.43-.9,.54-1.78,.91-2.56-.03-.06-.05-.12-.06-.18-.7,.53-2.32,2.64-3.06,1.33-.53-.09-.63-.8-.35-1.18-.67,1.08-1.53-.18-.92-.94h-.02s-.07,0-.1-.01c-.49,.4-1.32,.25-1.35-.47-.33,.06-.59-.26-.62-.57-.13,.04-.27,.01-.38-.05-.21-.13-.31-.39-.31-.64-.32,.34-.54,1.02-1.09,.96-.54-.16-.55-.87-.36-1.31-.76,.19-.89-.85-.56-1.34-.28,.31-.8,.13-.88-.27-.6,.71-1.22-.31-.86-.91-.37-.13-.45-.58-.38-.92-.69,.45-1.03-.5-.79-1.04-.78-.29-.34-1.25-.1-1.79-.61-.37-.26-1.16-.02-1.66-.01-.05-.02-.1-.02-.15,0-.05,0-.1,0-.14-.23,.34-.4,.59-.58,.88-.46,.59-1.11-.19-.85-.71,.26-.54,.57-1.05,.86-1.58-.1-.13-.16-.31-.15-.47,0-.05,.01-.1,.02-.15-.09,.02-.18,.04-.27,.05-.24,.22-.62,.09-.74-.19-.76-.73-.11-1.83,.19-2.64-.33-.6,.25-1.17,.52-1.68-.29-.1-.46-.52-.36-.84,.01-.04,.03-.09,.04-.13-.34,.56-1.02,.34-1.01-.31,1.1-2.77,3-5.3,4.82-7.66-.88-1.3,1.39-1.98,2.12-2.73-.86,.32-3.36,2.7-3.89,1.29-.1-.32,.02-.66,.28-.87,.81-.68,1.67-1.29,2.54-1.88-.59,.32-1.58,.25-1.46-.62,.18-.83,1.22-1.12,1.83-1.61-1.69-1.28,3.49-3.46,4.43-4.02,6.09-2.03,12.98-.52,18.44,2.66,.51,.36,1.48,.73,1.15,1.5,.1,.25,.1,.56-.09,.75,.03,.19,.02,.38-.06,.56-.06,.15-.15,.28-.24,.41,.03,0,.07-.02,.1-.02,.51-.07,.69,.62,.49,.99,.48-.18,.96-.4,1.45-.52,.84,.01,.63,1.22,.01,1.47,.48,.16,.51,.87,.16,1.17,.98-.65,1.78,.13,1.03,1.04,.87-.21,.88,1.07,.21,1.34,1.21-.7,1.89,.34,.9,1.22,.33-.09,.7-.37,1.03-.2,.33,.16,.45,.63,.25,.95-.69,.95-1.82,1.51-2.72,2.24,.74-.36,2.18-1.11,1.87,.4-.34,.61-1.02,.97-1.54,1.43,.59-.26,1.17-.61,1.79-.78,1.43,.35-.08,1.71-.77,2.14,.82-.46,1.85-.78,1.56,.6-.33,.6-.95,.99-1.44,1.47,.02,.06,.03,.13,.03,.2,.66-.38,1.66-.68,1.51,.47-.23,.74-.93,1.22-1.44,1.77,.29,1.01-1.07,1.51-1.63,2.15,.59-.47,1.2,.31,.86,.88-.16,.31-.42,.55-.66,.8,.12,.37-.03,.74-.33,.98,.84,.77-.4,1.65-.88,2.26-1.53,1.63-3.08,3.24-4.61,4.87-1.4,1.44-2.68,3.02-4.04,4.48-.15,.1-.32,.07-.46,0-.14,0-.28-.05-.39-.17-.1-.12-.16-.26-.17-.41-.81,.78-1.57,1.62-2.38,2.39-.13,.1-.31,.15-.47,.08Z"/></g><path class="cls-11" d="M30.27,49.6c16.26-.83,26.4-19.59,18.1-33.57C39.63,.28,15.72,1.28,8.25,17.62c-7.47,15.17,5.29,33.44,22.02,31.98Zm-2.93,1.03C11.73,50.12,.91,32.82,6.95,18.5,14.3-.25,40.68-1.36,49.6,16.69c8.14,15.63-4.6,35.28-22.25,33.94Z"/><path class="cls-11" d="M29.95,42.3c9.4-.43,16.55-10.46,13.66-19.44-2.81-10.74-17.08-14.8-25.12-7.19-10.89,9.69-2.96,27.77,11.46,26.64Zm-5.76,.35c-10.96-2.99-15.2-17.76-7.58-26.14,8.65-10.4,26.35-5.32,28.13,8.12,1.97,11.4-9.53,21.61-20.59,18h.04Z"/><g class="cls-4"><path class="cls-10" d="M29.4,23.93c-.16-.05-.25-.22-.26-.37-.24-2.13,.65-4.33,1.65-6.04-.4,1.92-.89,3.92-.94,5.86,.04,.26-.12,.66-.44,.56Z"/><path class="cls-10" d="M29.03,23.3c.2-2.47,.81-5.04,2.42-6.99-.05,.45-.25,1.05-.32,1.5-.34,1.86-1.09,3.64-1.25,5.51,0,.68-.88,.67-.85-.02Z"/><path class="cls-10" d="M29.22,22.61c-.52-2.23,.2-5.57,1.63-7.35-.27,2.25-.96,4.45-1.09,6.7-.02,.24,0,.5-.22,.65-.1,.08-.23,.08-.32,0Z"/><path class="cls-10" d="M29.42,20.56c-.49-2.25,.34-5.02,1.91-6.7-.33,2.22-1.02,4.61-1.9,6.71,0,0,0,0-.01,0Z"/><path class="cls-6" d="M29.88,18.14c-.83-2.17,.59-5.19,2.52-6.23-.6,1.23-1.2,2.47-1.7,3.74-.27,.84-.33,1.82-.82,2.49Z"/><path class="cls-6" d="M30.31,15.96c-1.06-.59,1.6-5.64,2.78-5.07-.52,1.52-1.73,2.8-2.26,4.33-.09,.27-.16,.76-.52,.74Z"/><path class="cls-6" d="M30.98,13.86c-.66-1.18,1.83-4.5,3.23-3.54,.02,.06-.14,.08-.18,.13-.93,.95-2.03,1.9-2.56,3.17-.1,.14-.33,.45-.49,.24Z"/><path class="cls-10" d="M32.34,12.04c.07-1.66,2.4-2.35,3.67-1.55,.35,.28,.35,1.02-.22,.99-.46-.09-.84-.26-1.3-.24-.51,.03-1.04,.23-1.38,.62-.16,.31-.56,.78-.78,.19Z"/><path class="cls-10" d="M37.13,11.73c-.96-.26-2.05-1.19-3.06-.49-.18,.11-.38-.04-.44-.21-.17-.56,.54-.75,.94-.92,1.03-.37,2.87,.34,2.56,1.62Z"/><path class="cls-10" d="M33.61,11.77c-.39-.1-.36-.58-.26-.88,.33-1.3,2.5-1.19,2.71,.13-.57,.4-1.48-.26-1.96,.24-.02,.25-.19,.58-.48,.52Z"/><path class="cls-6" d="M38.33,14.36c-.72-.71-.7-1.95-1.32-2.72-.7-.64-1.81-.65-2.71-.54-.06,.02-.11,.04-.17,.06-.31,.34-.77,.05-.65-.38,.71-1.26,2.81-.86,3.86-.3,.86,.72,2.18,3.06,.99,3.9Z"/><path class="cls-6" d="M38.84,15.7c-.29-.78,.01-1.7-.23-2.44-.21-.7-.61-1.41-1.18-1.79-.18-.1-.33-.13-.51-.13-.33-.02-.44-.49-.23-.71,2.19-.99,4.63,4.39,2.16,5.08,0,0,0,0,0-.01Z"/><path class="cls-6" d="M31.33,25.08c-.18,0-.35-.14-.44-.27-.53-.61-1.18-.92-1.95-.95-.61-.28-.43-1.36,.28-1.34,.87-.14,1.54,.53,2.15,.99,1.92-1.89,3.9-3.88,5.74-5.82,.98-1.24,1.86-2.63,1.61-4.21-.09-.35-.31-.81,.09-1.05,.23-.13,.45,.04,.53,.26,.49,1.2,.58,2.64-.05,3.8-1.31,2.92-3.94,4.71-6.01,7.03-.63,.48-1.17,1.42-1.95,1.55Z"/><path class="cls-6" d="M28.07,32.99c-.09-.1-.15-.23-.18-.37-3.59,.31-4.95-3.9-3.96-6.78,.67-2.25,3.09-3.56,5.31-3.71,.76,.05,.73,1.41-.03,1.44-.52,0-1.16,.16-1.61,.35-1.37,.58-2.6,1.48-2.71,3.05-.24,1.41-.06,2.56,1,3.53,1.29,1.1,3.11,.4,4.6,.4,.54-.53,1.19-1.04,1.49-1.7,.21-.88,.08-1.78-.09-2.65-.27-.78-.4-1.67-.81-2.36-.36-.18-.83-.28-.67-.8,.06-.23,.26-.39,.49-.32,1.86,.56,2.22,3.25,2.42,4.93,.3,1.99-1.13,3.5-2.6,4.62-.7,.25-2.01,.85-2.64,.35Z"/><path class="cls-6" d="M26.16,23.84c-1.64-2.31-3.44-4.56-4.79-7.08-.62-1.11-1.33-2.36-.95-3.67,.8-2.83,4.07-4.62,6.85-3.5,2.71,1.45,2.15,5.24,2.45,7.85-.11,1,.22,2.31-.58,3.06-.26,.22-.51-.07-.59-.32-.32-1.32,.14-2.74-.12-4.11-.28-1.71,.15-4.38-1.75-5.19-2.18-.78-5.22,.83-5.14,3.26,1.34,3.38,3.87,6.02,5.48,9.22,.28,.59-.59,1.24-.87,.48Z"/><path class="cls-6" d="M32.96,27.64c-.75-.85,.37-1.7,1.24-1.57,2.8-.15,5.59-.57,8.33-1.11,.85-.34,1.94-.2,2.63-.83,.46-1.24,.34-2.87-.43-3.98-1.06-1.47-3.04-.45-4.24,.25-1.97,1.07-3.98,2.12-5.65,3.64-.69,.58-1.38,1-1.95,1.63-.19,.21-.5,.15-.65-.07-.52-2.08,9.22-8.12,11.34-7.64,2.97,.42,3.4,4.29,2.79,6.67-.4,1.22-1.82,1.64-2.91,1.82-1.1,.31-2.22,.58-3.37,.67-2.3,.22-4.91,1.05-7.13,.53Z"/><path class="cls-6" d="M40.71,38.56c-2.49-.43-4.72-1.57-6.4-3.47-1.02-1.2-2.92-2.36-2.67-4.12,.04-.16,.25-.17,.39-.17,1.16,.18,1.68,1.68,2.54,2.32,1.8,1.94,4.14,3.68,6.88,3.73,1.38-.42,2.49-1.57,2.89-2.92,.32-.96,.8-2.08,.2-3.02-.82-1.5-2.76-1.46-4.21-1.71-2.47-.14-4.89-.47-7.33-.48-.67-.03-.65-1.25,.03-1.27,2.79-.15,5.61,0,8.38,.34,2.17,.11,4.42,1.33,4.68,3.69,.12,3.1-1.92,7.13-5.37,7.09Z"/><path class="cls-6" d="M32.93,43.96c-2.53-.49-2.93-3.42-4.02-5.29-.45-.87-2.14-7.34-.27-6.71,.28,.17,.35,.49,.37,.77,.12,1.59,.32,3.18,.8,4.69,1.83,3.55,1.7,6.21,6.55,4.4,.8-.7-.02-2.16-.37-2.89-1.55-2.54-3.9-4.44-5.1-7.15-.29-.47,.39-1.18,.72-.56,.13,.26,.3,.49,.46,.74,1.24,1.81,2.95,3.28,4.18,5.11,.51-.25,.82,.4,1.09,.73,.99,1.2,1.43,4.05-.01,4.97-1.03,1.15-2.92,1.27-4.38,1.21Z"/><path class="cls-6" d="M23.89,44.23c-1.91-.11-3.57-1.78-3.84-3.65-.74-1.37,.24-3.03,.62-4.38,.07-.14-.01,.01,.56-.95-1.74,2.49-5.56,3.37-8.01,1.45-5.15-6.61,1.32-10.24,7.73-8.64-2.85-.68-6.27-1.42-8.06-3.94-1.24-2.07-1.47-5.23,.43-6.98,3.06-3.51,9.17-.09,10.97,3.25,.52,1.06,1.53,2.2,1.28,3.43-.15,.52-.79,.54-1.05,.1-.5-1.22-1.16-2.57-1.91-3.61-1.7-1.85-4.4-3.33-6.96-2.99-.85,.38-1.61,1.05-2.09,1.83-.39,1.06-.32,2.3,.13,3.32,.83,1.97,3.24,2.55,5.04,3.34,1.31,.34,8.32,1.66,5.6,3.75-3.27,.6-6.68-1.24-9.8,.23-1.22,.47-2.09,1.5-1.9,2.83,.37,1.08,.67,2.23,1.52,2.93,1.22,.73,2.82,.74,4.1,.32,1.29-.52,2.15-1.76,3.08-2.72,.9-.94,2.36-3.84,3.89-2.78h0c1.42-.05,.59,1.69-.13,2.19-1.25,1.08-2.23,2.44-3.15,3.79,.27,.35,.13,.79,.01,1.17-.26,.97-.42,2.02-.68,2.93,.26,.85,.91,1.52,1.64,1.94,.85,.31,1.77,.41,2.6,.33,.73-.99,.95-2.19,1.07-3.37,.22-2.21,.75-4.4,.75-6.63-.09-.28,0-.68,.3-.79,1.44,.01,.28,5.45,.26,6.58-.26,2.36-.6,6.68-3.99,5.71Z"/><path class="cls-6" d="M30.9,24.33s-.07-.08-.1-.12c-.05,.04-.11,.07-.18,.09-.28,.08-.51-.07-.63-.31h0c-.76,.45-1.01-.68-.84-1.23-.3,.24-.71,.07-.84-.28-.05,.03-.1,.04-.15,.05-.05,.24-.16,.46-.37,.59-.16,.1-.34,.05-.47-.06-.5,.69-.94-.22-1.03-.7-.02,.01-.05,.02-.08,.04-.16,.06-.34,.02-.47-.09-.3,.19-.66,.04-.79-.28-.48,.31-.9-.22-.99-.67-1.54,.75-1.13-2.45-1.32-3.31-1.5,1.23-1.46-1.96-1.46-2.8,.09-.81-.48-4.04,.88-3.63,.08-.03,.16-.03,.24-.02,.14-.33,.3-.7,.7-.74,.11-.17,.26-.32,.47-.37,.19-.05,.38,0,.52,.13,.06-.05,.12-.09,.18-.12,.1-.05,.22-.07,.33-.06,.18-.52,.89-.96,1.27-.37,.26-.43,.93-.46,1.14,.03,.25-.03,.49,.18,.57,.41,.14-.03,.3,0,.42,.1,.14,.11,.21,.26,.25,.42,.4-.08,.66,.35,.64,.71-.04,1.45,.02,2.88,.12,4.32,.52,.41,.41,1.2,.47,1.81,.12-.38,.2-.98,.67-1.05,.61-1.84,1.07-3.92,2.35-5.41,.14-.1,.29-.11,.43-.06,.24-.34,.78-.66,1.09-.24,.3-.44,.93-1.18,1.42-.57,.18-.16,.47-.27,.69-.12,.18,.12,.3,.29,.33,.51,.21-.03,.42,.11,.54,.27,.59-.62,1.32,.08,1.09,.78,.12,.04,.23,.13,.3,.23,.08,.13,.13,.25,.15,.39,.11,0,.21,.04,.3,.11,.07,.07,.13,.14,.18,.22,.2-.22,.55-.19,.72,.08,.4,1.18-1.01,2.49-1.37,3.59-.44,1-1.04,1.92-1.43,2.93-.2,.42-.49,1.32-1.1,.99-.2,.51-.73,1.67-1.34,.93-.25,.53-.42,1.7-1.21,1.52-.07,.63-.68,1.88-1.31,.98-.15,.4-.64,.73-.99,.34Z"/><path class="cls-6" d="M32.85,27.23c-.37-.73,.03-1.59,.06-2.37-.02-.5,.39-1.45,.93-.82h.02c.1-.47,.47-1.37,1.03-.81,.17-.44,.56-1.23,1.1-.78,.21-.38,.46-1.18,1.03-.87,.17-.35,.64-.41,.87-.09,.11-.27,.4-.51,.7-.37,.11-.4,.5-.95,.93-.57,.13-.22,.44-.3,.65-.15,.15-.34,.29-.89,.77-.83,.1-.33,.41-.74,.79-.53,.19-.13,.46-.09,.61,.09,.15-.21,.47-.26,.66-.08,.05,0,.1,0,.16,0,.13,.03,.23,.11,.3,.22,.01-.02,.03-.04,.04-.06,.15-.18,.4-.18,.57-.07,.45-.26,.79,.3,.74,.7,.16,.02,.31,.14,.39,.3,.09,.18,.12,.38,.13,.59,.64,.14,.53,.94,.48,1.44,.75,.38,.08,1.37-.01,1.9-.09,.46-.51,1.23-1.05,.8-.13,.08-.28,.1-.41,.05-.1,.41-.6,.68-.92,.33-.06,.04-.12,.07-.19,.08-.12,.02-.26-.02-.35-.1-.12,.95-1.16,1.2-1.25,.1-.04,0-.08,0-.12,0-.1,.48-.59,1.24-1.11,.77-.05,.05-.1,.1-.16,.14-.16,.12-.36,.12-.53,.04-.15,.06-.34,.05-.47-.03-.19,.24-.56,.31-.78,.07-.16,.22-.49,.38-.74,.22-.22,.39-.78,.37-.97-.03-.15,.11-.33,.12-.5,.04-.21,.68-1.05,.82-1.21,.04-.08,.02-.17,.01-.26-.03-.13,.46-.62,1.14-1.11,.64-.2,.3-.67,.35-.87,.02Z"/><path class="cls-6" d="M39.48,37.81c-.14-.11-.22-.26-.26-.43-.35,.23-.76,0-.86-.38-.44,.45-1.07-.05-1.01-.6-.39,.35-.97,.04-1.02-.45-.48,.07-.75-.49-.67-.9-.64,.38-1.16-.38-.95-.98-.16,0-.3-.09-.4-.22-.58,.37-1.12-.32-.98-.89-.12-.14-.17-.31-.17-.49-.44,.57-1.19,.07-1.05-.56-.8-.69,.17-1.72,.53-2.41,.25-.79,1.71-3.41,2.09-1.35h0s.07,.07,.09,.1c.13-.07,.27-.14,.42-.15,.27-.34,.76-.19,.87,.2,.3-.19,.71-.3,1-.05,.42-.32,1.11-.3,1.31,.26,.29-.16,.68-.22,.96,0,.3-.15,.67-.17,.92,.06,.46-.34,1.22-.37,1.49,.2,.64-.46,1.5,.04,1.37,.83,.04,.05,.07,.09,.09,.14v.03c.47-.25,1.08-.47,1.29,.2h0c.11,.09,.18,.18,.23,.32,.08,.18,.09,.39,.09,.59,1.4,0-.38,3.75-.84,4.27-.06,.1-.13,.2-.22,.29,.06,.51-.4,.76-.66,1.1-.36,.44-1.08,1.39-1.55,.55-.27,.37-.78,.98-1.24,.52-.21,.24-.59,.44-.87,.19Z"/><path class="cls-6" d="M24.07,44c-.14-.13-.22-.27-.24-.47,0-.1,0-.19,.01-.29-.03,0-.07,0-.1,0-.19-.01-.34-.14-.43-.3-.15,.54-.91,.63-1.03,.02-.09,.05-.19,.07-.29,.04-.4-.08-.49-.54-.43-.89h-.02c-.32,0-.5-.35-.5-.64-.13,.19-.42,.33-.63,.18-.72-.76,.17-1.93,.34-2.79-.59-.71,.34-1.56,.58-2.25,.75-1.31,1.42-2.73,2.44-3.84,.09-.05,.19-.06,.28-.04,.37-.45,.47-1.58,1.2-1.47,.28,.11,.38,.47,.32,.74,.04,0,.07,.01,.11,.03,.04,.02,.07,.04,.1,.06,.12-.1,.27-.15,.43-.08,.1,.04,.17,.1,.22,.18,.16-.12,.39-.11,.54,.02,.05,.04,.09,.09,.12,.14,.82-.04,.57,.98,.31,1.45,.41-.45,.99-1.86,1.7-1.17,.35-.27,.84-1.05,1.3-.56,.24-.16,.58-.07,.7,.2,.59-.68,1.4-.17,1.03,.63,.1,.12,.16,.28,.17,.44,.35-.09,.62,.31,.6,.63,.15,0,.29,.11,.38,.22,.13,.18,.17,.42,.11,.63h0c.05,.04,.1,.08,.15,.13,.51-.31,.9,.42,.69,.84,.19,.05,.33,.24,.38,.44,.03,.13,.04,.26,0,.39,.01,0,.02,.02,.04,.03,.16,.13,.23,.32,.24,.51,.43-.15,.68,.4,.59,.75,.14,.1,.2,.27,.23,.43,0,.03,0,.06,0,.08,.09,.05,.17,.13,.22,.23,0,.02,.02,.04,.03,.05,.67-.96,1.38,.02,.87,.81,.08,.1,.11,.23,.11,.36,.34,.38-.06,.86-.18,1.25-.21,.38-.36,.97-.8,1.11-.13,.43-.57,1.18-1.02,.61-.16,.37-.68,.43-.85,.03-.17,.64-.94,.67-1.01-.03-.01,0-.03,0-.04-.01-.13-.05-.22-.16-.28-.29-.38,.68-1.1,.1-.9-.52-.14,.02-.3-.04-.4-.16-.14-.15-.18-.36-.15-.55-.09,0-.19-.03-.28-.11-.09-.08-.15-.18-.19-.29-.59,.06-.7-.72-.45-1.12-.09-.02-.17-.07-.23-.15-.14-.17-.19-.41-.15-.63-.11,.03-.23,.02-.34-.05-.17-.11-.27-.31-.29-.52-1.07,.14-.65-1.23-.26-1.73-.37-.24-.35-.79-.09-1.11-.06,0-.12-.03-.16-.06,0,0-.01-.01-.02-.01-.12-.08-.2-.2-.25-.34-.04,.02-.07,.04-.12,.05-.26,.09-.49-.08-.59-.31-.11,.16-.22,.33-.32,.49-.22,.36-.43,.71-.63,1.08,.86,.4,.18,1.67,.15,2.39,.89,.37,.11,1.51-.05,2.15-.35,.64-.97,3.36-1.83,1.98-.23,.4-.51,1.37-1.12,.94Z"/><path class="cls-6" d="M15.41,36.67h0c-.17,.03-.35-.02-.48-.16-.04-.05-.08-.1-.11-.16-.5,.78-1.4,.34-1.19-.51-.1-.05-.18-.14-.24-.26-.03-.07-.06-.14-.08-.22-.61,.35-.96-.56-.7-1.02-.69-.2-.46-1.05-.28-1.55-.7-.49,1.02-4.09,1.84-3.66,.24-.3,.67-.76,1.07-.48,.31-.33,.94-.6,1.23-.11,.34-.4,1.07-.44,1.2,.16,.48-.62,1.87-1.55,1.92-.16,.34-.15,.72,.05,.82,.4,.45-.47,1.54-1.23,1.87-.26,.25-.18,.63-.21,.83,.07,.61-.56,1.38-.18,1.1,.65,.71,.43-.21,1.47-.67,1.77-.06-.09,.02-.28,.03-.41-.76,.85-1.35,1.85-2.08,2.71,.09,.89-.79,1.36-1.28,1.96-.26,.26-.6,.73-1,.47-.4,.44-1.11,1.61-1.67,.77-.26,.39-.85,.53-1.05,0-.26,.44-.89,.55-1.08-.01Z"/><path class="cls-6" d="M23.4,27.58c-.47,.42-1.54-.55-2.07-.73,.04,1.8-2.05-.03-2.78-.38-1.02,.8-5.99-3.84-5.53-5.11-.18-.35-.29-.85,.02-1.16-.04-.17-.04-.35,0-.52,.03-.1,.08-.2,.16-.29-.14-.5,.24-1.3,.84-.99-.02-.42,.25-.97,.73-.91,.06-.15,.17-.29,.3-.36,.17-.09,.34-.07,.49,0,.06-.35,.46-.66,.81-.44,.23-.59,.87-.36,1.18,.02,.16-.09,.35-.08,.5,.04,.18,.15,.35,.3,.53,.44,.63-.4,1.33,.77,1.92,1.02,.16-.1,.36-.08,.51,.04,.65,.61,1.29,1.25,1.96,1.85,.6,.79,2.56,1.73,1.84,2.86,.4,.38,.85,.98,.43,1.52,.06,.26-.02,.61-.25,.76,.08,.28-.02,.65-.28,.78-.08,.04-.16,.06-.23,.06,.07,.22,.03,.51-.13,.69,.42,.78-.25,1.25-.96,.79Z"/><path class="cls-3" d="M28.23,31.11c-.1-.04-.19-.11-.25-.19-.28,.13-.63,.13-.84-.12-.59,.02-.86-.6-1.04-1.06-.77-.22-.68-1.1-.81-1.71-.23-1.56,1.13-2.88,2.46-3.43,.06-.06,.12-.12,.19-.18,.26-.24,.66-.32,.95-.08,.11-.02,.24-.02,.35,0,.12,.03,.23,.1,.32,.19,.2-.04,.42,.03,.55,.19,.53-.22,.99,.33,.96,.84,.02,.02,.04,.04,.06,.06,.09,.1,.14,.22,.17,.35,1.35,.69-.06,4.93-1.5,4.82-.23,.21-.59,.41-.89,.24-.19,.12-.45,.19-.66,.1Z"/></g><g class="cls-9"><path class="cls-11" d="M28.15,30.78c4.24,.17,5.01-5.34,.93-6.33-4.26-.18-5.24,5.61-.91,6.34h-.03Zm.08,.95c-5.04-.56-4.55-8.04,.48-8.07,5.46,.35,4.98,8.24-.48,8.07Z"/><path class="cls-11" d="M25.24,43.91c3.23-.62,2.49-7.05,2.76-9.58,.07-1.11-.5-2.59,.14-3.5,.27-.16,.56,.14,.55,.4,.4,3.7-.32,8.18,2.29,11.17,1.56,1.41,4.15,1.32,5.74,.01h0c3.74-3.36-3.09-6.88-4.58-9.72-.4-.67-1.89-1.55-1.11-2.34,.1-.05,.21-.05,.3-.01h0c3.22,3.58,9.66,12.43,13.5,4.83,1.05-2.17,1.08-5.09-.99-6.68-2.24-1.34-5.17-.43-7.64-.55-.75-.01-4.95,.69-3.74-.88,1.17,.09,2.36,.09,3.54-.08,4.28-.36,12.1,.94,10.1-5.92-.99-3.47-3.17-3.13-5.91-1.79-3.04,1.2-5.34,3.51-7.73,5.66-.33,.18-.47,.53-.8,.6-.71-.21-.08-.97,.3-1.21,2.76-2.57,10.97-9.57,6.07-13.08-7.78-4.99-8.8,7.48-8.98,12.49,.15,.38-.37,.86-.61,.39-.17-.54-.1-1.13-.09-1.7,.1-1.25,.22-2.48,.28-3.72,.12-2.03,.87-4.09,.55-6.1-.15-1.11-.79-2.19-1.74-2.75-2.09-.71-4.69,.2-5.97,1.91-.72,1.13-1.03,2.56-.6,3.79,1.85,2.85,3.8,5.66,5.69,8.47,.23,.34,.36,1.15-.25,1.11-2.75-2.72-4.8-10.09-9.67-9.05-2.83,.48-4.45,3.42-4.12,6.06,.24,1.68,1.66,2.72,3.01,3.55,2.84,2.01,6.64,1.62,9.83,1.9,.58,1.02-.93,.9-1.54,.95-3.1,.42-6.39-1.15-9.35,.14-1.13,.58-2.14,1.7-2.58,2.89-.31,2.38,1.66,4.59,3.72,5.37,1.7,.51,3.64-.22,5.02-1.22,1.6-1.95,3.06-4.11,5.22-5.5,.47-.43,.9,.4,.52,.74-2.58,2.51-7.74,6.42-5.93,10.49,1.03,1.57,2.96,2.63,4.84,2.45Zm-.93,.99c-3.78-.3-6.47-4.27-4.43-7.73-3.55,2.16-7.46,.18-8.66-3.58-1.09-3.16,2.13-6.16,5.14-6.36-4.09-1.64-6.11-5.33-3.71-9.35,1.33-2.46,5.14-3.85,7.46-1.97-2.19-6.95,9.9-10.78,9.92-2.39,1.83-5.09,6.89-5.57,9.78-1.17,1.36,2.73-1.02,5.51-2.5,7.67,2.17-1.18,4.84-3.2,7.38-2.19,2.25,1.53,2.9,5.06,1.87,7.5-.61,1.19-1.99,1.66-3.19,2.03,6.42,2.95,.83,15.47-5.46,10.8,2.08,2.95-.93,6.23-4.06,6.26-2.96,.25-4.83-2.41-5.34-5.04-.23,2.42-1.07,6.05-4.21,5.54Z"/><path class="cls-11" d="M30.08,24.56c-.24-.14-.29-.48-.19-.73,.61-1.55,1.41-3.23,2.53-4.38-.66,1.6-1.05,3.28-1.75,4.86-.09,.23-.36,.39-.59,.25Z"/><path class="cls-11" d="M32.06,26.29c-.02-.18,.08-.39,.27-.43,1.71-.54,3.54-1.45,5.24-1.69-.89,.28-5.26,3.29-5.51,2.12Z"/><path class="cls-11" d="M35.24,31.72c-1.17-.52-2.16-1.45-3.3-2.04-.2-.09-.27-.35-.22-.54,.6-1.15,3.06,2.05,3.52,2.58Z"/><path class="cls-11" d="M30.92,35.85c-.32-.58-2.4-4.65-1.22-4.48,.73,1.29,.9,3.09,1.22,4.48Z"/><path class="cls-11" d="M25.11,36.33c.32-1.55,.62-3.18,1.28-4.65,.12-.25,.38-.56,.68-.52-.2,1.77-1.36,3.6-1.96,5.17Z"/><path class="cls-11" d="M21.16,31.03c1.2-.89,2.5-1.61,3.87-2.18,.2-.11,.39,.03,.46,.22,.07,.19,.02,.48-.18,.58-1.29,.6-2.86,1.04-4.15,1.37Z"/><path class="cls-11" d="M24.7,26.06c-1.49-.62-3.28-1.17-4.26-2.47,.8,.46,5.8,1.13,4.68,2.48-.13,.1-.29,.08-.42,0Z"/><path class="cls-11" d="M27.15,23.94c-.8-1.51-1.03-3.23-.91-4.91,.15,.33,.19,.92,.34,1.34,.32,1.07,.81,2.03,1.27,3.03,.1,.23,.08,.54-.14,.7-.2,.16-.44,.05-.56-.16Z"/></g></g></svg>