<?xml version="1.0" encoding="UTF-8"?><svg id="Layer_1" xmlns="http://www.w3.org/2000/svg" xmlns:xlink="http://www.w3.org/1999/xlink" viewBox="0 0 56.69 56.69"><defs><style>.cls-1{fill:#fff;}.cls-2,.cls-3{fill:#3bb54a;}.cls-4{clip-path:url(#clippath-2);}.cls-5{clip-path:url(#clippath-1);}.cls-6{clip-path:url(#clippath-4);}.cls-7{fill:#fedc00;}.cls-8{clip-path:url(#clippath);}.cls-9{fill:none;}.cls-10{clip-path:url(#clippath-3);}.cls-11{clip-path:url(#clippath-5);}.cls-3{opacity:0;}.cls-12{fill:#e82425;}.cls-13{fill:#010101;}</style><clipPath id="clippath"><rect class="cls-9" x="4.25" y="1.39" width="48.19" height="53.91"/></clipPath><clipPath id="clippath-1"><rect class="cls-9" x="17.59" y="1.39" width="25.18" height="30.94"/></clipPath><clipPath id="clippath-2"><rect class="cls-9" x="29.14" y="12" width="23.3" height="43.14"/></clipPath><clipPath id="clippath-3"><rect class="cls-9" x="32.89" y="14.76" width="12.34" height="35.88"/></clipPath><clipPath id="clippath-4"><rect class="cls-9" x="6.02" y="18.1" width="21.82" height="33.65"/></clipPath><clipPath id="clippath-5"><rect class="cls-9" x="4.25" y="18.09" width="24.99" height="37.22"/></clipPath></defs><rect class="cls-3" x="0" y="0" width="56.69" height="56.69"/><g class="cls-8"><g class="cls-5"><path class="cls-13" d="M33.44,22.36c3.88-.33,5.08-4.55,4.77-7.86,.04-.72-.4-1.56-.02-2.19-1.15-3.3-5.47-3.66-8.37-2.83-2.65,.83-4.35,3.69-4.55,6.35-.2,4.1,4.53,6.7,8.17,6.53Zm-1.02,1.11c-13.92-1.65-7.74-20.2,4.32-14.46,2.44,1.2,2.36,3.99,2.42,6.33,.33,3.98-2.23,8.67-6.73,8.13Z"/><path class="cls-13" d="M31.85,6.37c0-1.57-.41-3.19,.32-4.67,.06,.01,.06,.2,.1,.25,.47,1.43,.46,2.93,.48,4.42,0,.25-.15,.56-.45,.56s-.46-.31-.45-.56Z"/><path class="cls-13" d="M38.85,9.52c-.17-.24-.15-.59,.04-.81,1.03-1.27,1.87-2.77,3.58-3.2-.65,1.51-1.9,2.8-2.97,4.07-.18,.21-.49,.16-.65-.06Z"/><path class="cls-13" d="M24.71,9.43c-.85-1.45-2.51-2.31-3.29-3.73,1.82,.15,3.09,1.47,4.02,2.93,.18,.25,.16,.64-.05,.86-.2,.22-.52,.18-.69-.06Z"/><path class="cls-13" d="M22.92,16.53c-1.68-.02-3.47-.1-5.02-.65,1.11-.81,2.52-.95,3.85-.84,.64,.07,1.75-.18,1.74,.77,0,.31-.21,.74-.58,.72Z"/><path class="cls-13" d="M21.62,27.18c.78-2.05,2.4-3.56,3.91-5.1,.23-.24,.58-.21,.78,.07,.19,.28,.18,.72-.06,.97-1.34,1.58-2.84,2.99-4.61,4.08h0s-.02-.01-.01-.02Z"/><path class="cls-13" d="M32.28,32.01c-.77-1.92-.28-4.02-.68-6.01-.05-.27,.1-.61,.36-.71,.3-.11,.59,.14,.65,.44,.31,2.08,.63,4.34-.32,6.3,0,0,0,0-.01-.01Z"/><path class="cls-7" d="M38.21,14.5c.31,3.31-.89,7.53-4.77,7.86-3.64,.17-8.37-2.43-8.17-6.53,.2-2.66,1.89-5.52,4.55-6.35,2.89-.83,7.22-.47,8.37,2.83-.37,.64,.06,1.47,.02,2.2Z"/></g><g class="cls-4"><path class="cls-13" d="M37.25,53.28c-6.93-1.27-7.81-10.04-3.01-14.25,.42-.33,1.22-.84,1.61-.23,.25,.58-.11,.92-.63,1.02-2.54,1.78-3.53,5.42-2.66,8.29,.7,2.28,3.18,3.64,5.38,3.97,4.21,.71,8.29-2.81,8-7.08-.17-1.82-1.41-3.41-2.57-4.69-1.2-.65-.51-2.4,.59-1.21,6.47,5.7,1.82,15.74-6.7,14.18Z"/><path class="cls-13" d="M42.5,39.36c-.09-4.67,.09-9.34-.02-14.02-.08-3.25,.49-6.52,.03-9.76-.2-2-4.58-2.16-5.78-1.11-2.1,5.46-.78,11.77-.94,17.53,.03,2.23,.08,4.45-.02,6.69,0,.22-.14,.49-.39,.49s-.4-.27-.39-.49c-.02-3.2-.1-6.41-.18-9.61-.19-4.88-.55-10,.79-14.77,1.09-2.01,4.07-1.9,5.94-1.15,2.25,.59,2.05,3.27,2.19,5.13-.04,3.27-.26,6.54-.18,9.82,.19,3.65-.08,7.33,0,10.96,.12,.71-.83,1.13-1.04,.29Z"/><path class="cls-13" d="M45.13,38.26c-.55-.24-.25-1.01,.4-.77,1.74,.09,3.49-.16,5.23-.1,.17-.02,.35,.06,.42,.22,.2,.36-.11,.79-.51,.68-1.84-.06-3.7,.26-5.53-.02Z"/><path class="cls-13" d="M50.92,32.79c-1.83,0-3.65-.29-5.48-.28-.38-.01-.37-.7,0-.71,1.85-.03,3.7,.12,5.55,.17,.43,.08,.38,.83-.07,.82Z"/><path class="cls-13" d="M45.04,26.3c0-.2,.12-.42,.34-.43,1.09-.02,2.18-.03,3.27-.07,.69,.13,3.06-.61,2.67,.65-.08,.13-.19,.22-.35,.22-1.86,0-3.72,.08-5.58,.07-.22,0-.34-.24-.34-.43Z"/><path class="cls-13" d="M48.37,20.99c-.94,0-1.88,0-2.83,0-.49,0-.49-.92,0-.92,1.91,.1,3.95-.21,5.79,.11,.8,1.39-2.26,.66-2.96,.81Z"/><path class="cls-13" d="M45.09,14.89c-.02-.17,.07-.43,.26-.45,1.81-.23,3.68-.16,5.48-.08,1.26,1.38-2.82,.64-3.46,.77-.67-.03-1.31,0-1.96,.09-.18,0-.3-.16-.32-.33Z"/><path class="cls-13" d="M46.46,18.12c-.48-.07-1.3,.13-1.29-.58,0-.23,.15-.55,.42-.53,.41,.07,.89-.07,1.27,.15,.44,.32,.14,1.06-.4,.96Z"/><path class="cls-13" d="M45.1,23.78c-.09-.81,.86-.67,1.4-.73,.29-.05,.62,.01,.76,.31,.32,.84-.63,.87-1.2,.85-.4,.07-.92,.12-.97-.42Z"/><path class="cls-13" d="M45.03,29.43c-.02-.64,.66-.58,1.12-.62,.3-.02,.53,.27,.53,.56,0,.66-.75,.58-1.23,.62-.27,0-.42-.33-.42-.56Z"/><path class="cls-13" d="M45.15,34.88c0-.27,.16-.55,.45-.57,.53-.02,1.43-.29,1.47,.49-.03,.76-.94,.55-1.47,.64-.29,.02-.45-.33-.45-.57Z"/><path class="cls-1" d="M45.95,44.99c.29,4.27-3.8,7.79-8,7.07-2.2-.33-4.68-1.69-5.38-3.96-.88-2.87,.12-6.51,2.66-8.29,.51-.1,.88-.44,.63-1.02-.03-.04-.06-.08-.09-.11h0c.11-2.23,.05-4.45,.02-6.69,.16-5.76-1.16-12.07,.94-17.53,1.2-1.06,5.58-.9,5.78,1.11,.46,3.23-.11,6.5-.03,9.75,.11,4.68-.06,9.36,.02,14.02,.07,.27,.21,.41,.37,.45,.1,.19,.26,.36,.5,.5,1.16,1.27,2.41,2.86,2.57,4.68Z"/></g><g class="cls-10"><path class="cls-12" d="M36.82,48.61c-.1-.07-.21-.15-.31-.22,0,.03,0,.07,0,.1,.1,.04,.21,.09,.32,.12Zm2.82,1.72c-1.79-.23-3.9-.38-5.06-1.99-1.39-2.67-.54-6.56,2.49-7.62,.43-.61,.07-1.38,.15-2.06,.24-1.92-.14-3.8-.06-5.68,.49-5.66-.79-11.39,.5-16.97,.41-.74,1.33-.95,2.13-.82,1.84,.68,.96,3.13,1.12,4.63,.65,6.89,.17,13.7,.1,20.59,2.63,1.25,3.92,4.81,2.58,7.4-1,1.14-2.38,2.32-3.93,2.52Z"/></g><g class="cls-6"><path class="cls-2" d="M12.63,31.03c-.56,0-1.06-.19-1.61-.25-.39-.1-.9-.03-1.17-.36-.45-.15-1.09-.29-1.16-.86-.39-.25-1-.06-1.25-.5-.23-.45,.21-1.32,.77-1.03,.05-.85,1.04-.54,1.61-.56,.91-.07,2.37,.37,3.32,.55-.68-1.79-1.07-3.73-.71-5.64-.02-.46,.12-3.98,1.02-2.87,.08,.06,.13,.15,.16,.25,.01,.05,.02,.11,.03,.16,.15,0,.27,.11,.32,.25,.08,.19,.14,.38,.21,.57,.34,.22,.43,.69,.6,1.02,1.02,1.23,1.44,3.64,1.52,5.25,.5-.69,2.75-2.4,3.44-1.42,.29-.04,.58-.14,.87-.11,.52,.11,.52,1.01,.06,1.12h0s0,0,0,0c-.07,.03-.13,.08-.17,.11-.02,.42-.43,.6-.7,.85-.18,.65-.92,1-1.37,1.46-.57,.35-1.2,1.35-1.92,1.03-.23,0-.38-.15-.46-.35-.04,0-.09,0-.13-.02-.2-.04-.34-.19-.41-.36-.02,0-.05,0-.07,0-.05,.06-.11,.1-.18,.13-.01,.02-.03,.04-.04,.06-.12,.13-.29,.13-.42,.03-.09,0-.2-.02-.29-.03l-.18-.03v.03c.03,.22-.05,.49-.2,.67,.14,.88-.87,.96-1.49,.85Z"/><path class="cls-2" d="M20.17,35.41c-.09-.02-.16-.07-.21-.14-.37-.08-.84-.26-.85-.71-.14,0-.27-.04-.38-.13-.06-.05-.1-.11-.14-.17-.03,.12-.1,.24-.24,.26-.54-.03-.34-.88-.38-1.25-.37-.67,1.54-3.7,2.32-3.28,1.06-.24,.18,2.08-.24,2.32h0c-.02,.05-.06,.09-.1,.12-.12,.28-.19,.68-.49,.81-.05,.13-.11,.26-.17,.39-.01,.02-.02,.05-.03,.07,.09,0,.19,0,.28,.01,.06,0,.12,.01,.18,.02,.04-.04,.09-.07,.14-.1,.13-.08,.27-.16,.41-.24,.28-.33,.79-.34,1.15-.56,.31-.11,.64-.33,.98-.24,.92-.22,1.85-.5,2.8-.55,.22,0,.49,0,.58,.25,.18,.48-.35,.61-.71,.69-.08,.28-.4,.34-.63,.46,.2,.35-.07,.69-.41,.78-.86,.32-1.56,.88-2.44,1.09-.4,.24-.94,.04-1.39,.1Z"/><path class="cls-2" d="M11.84,35.14s.03,.01,.05,.02c.02-.18,.04-.37,.08-.55-.09-.02-.17-.04-.26-.06-.02,0-.05-.01-.07-.02,.04,.19,.1,.4,.05,.59,.05,0,.1,0,.16,.02Zm.65,3.2l.03-.02s.06-.05,.09-.07v-.02c0-.07,0-.13,0-.2-.08,.09-.13,.17-.2,.26,.03,0,.05,.02,.08,.04Zm-2.75,3.9c-.93-.73,.22-2.32,.8-3.01,.13-.19,.43-.35,.61-.12,.07-.08,.14-.17,.21-.25,.03-.04,.07-.08,.1-.12,.01-.1,.04-.2,.07-.29,.04-.1,.09-.2,.14-.29-.19,.07-.37,.14-.56,.21-.17,.06-.35,.1-.5-.02h0c-.34,.05-.74,.22-1.05,.03-.58,.04-1.75,.5-2.18,.01-.31-.05-.75,.04-.88-.34-.16-.4,.17-.81,.6-.68,.11-.13,.26-.24,.41-.33,.17-.11,.36-.21,.55-.29,.65-.92,2.06-1.1,3.08-1.49-.02-.03-.04-.07-.06-.11-.01-.03-.02-.07-.03-.1-.09,.31-.52,.43-.68,.11-.26,.49-.74,.1-.84-.29-.14,.04-.29,0-.4-.11-.03-.03-.05-.05-.08-.08-.42,.07-.61-.49-.78-.79-.98,.14-.88-2.3,.23-1.86,1.35-.17,2.76,.29,3.96,.93,.06-.01,.12,0,.18,.03,.09,.05,.16,.13,.22,.21,.42,.1,1.29,1.16,.66,1.47,.03,.14-.01,.31-.12,.4-.05,.04-.1,.06-.15,.05,.11,.57,.11,1.15,.14,1.73,.06,.02,.11,.04,.17,.08,.74-.45,.82,.66,.86,1.15,.03,.34,.1,.91-.35,.97-.05,.33,.01,.91-.43,.96v.02c-.08,.12-.23,.21-.37,.19h0c-.25,.31-.4,.88-.83,.93-.31,.21-.64,.69-1.06,.57-.17,.16-.44,.32-.64,.11-.3,.17-.62,.64-.99,.41Z"/><path class="cls-2" d="M13.03,47.12s.1-.08,.15-.1c.02-.08,.03-.17,0-.25-.1,.02-.14,.05-.19,.08-.02,.07-.05,.13-.1,.18,.05,.02,.1,.05,.15,.09Zm-2.99,3.72c.24-1.07,.89-2.1,1.45-3.05-.37,.05-.73,.07-1.1,.02-.49,.14-1.34,.48-1.55-.21-.41,.04-.87,.29-1.26,.1-.33-.22-.31-.74-.04-1,.6-.43,1.27-.77,1.97-1.03,.57-.79,1.84-.67,2.72-.83-.39-.52-.69-1.1-1.03-1.67-.17-.4-.67-.9-.33-1.32,.32-.32,.58,.14,.7,.41-.02-.18,.05-.39,.21-.48,.07-.04,.14-.05,.2-.04,.15-.28,.51-.22,.63,.06,.06-.27,.41-.42,.59-.18,.54,.43,.67,1.27,1.06,1.86,.44,.08,.43,.67,.47,1.02,.14,.43-.1,1.42-.42,1.75l-.02,.06c-.04,.14-.09,.27-.14,.41,.47,.52-1.25,4.51-2.05,3.78-.2,.3-.59,.69-.88,.27-.1,.07-.21,.1-.34,.05-.2,.43-.78,.62-.86,.01Z"/><path class="cls-2" d="M23.87,50.21s-.01-.04-.02-.06c-.11-.03-.21-.1-.27-.19-.03-.04-.05-.09-.07-.14-.03,0-.07,0-.1,0-.05,0-.09-.02-.13-.04-.11,.13-.26,.21-.42,.18-.13-.02-.23-.09-.3-.18-.04,.02-.08,.03-.13,.03-.16,.02-.29-.05-.39-.15-.15,.1-.34,.13-.51,.03-.19-.11-.28-.3-.32-.51-.51,.05-.67-.52-.89-.86-.92-.27-.34-1.49,.13-1.95,0-.08,0-.16,0-.24,0-.12,0-.26,0-.4-.2-.33-.06-.71,0-1.06-.5,.23-.78-.44-.7-.85-.39-.71-1.36-1.92-.62-2.64,.06-.41,.19-.92,.67-.99,.31-.6,.57-1.49,1.27-1.7,.08-.08,.17-.16,.26-.21,.1-.05,.21-.1,.32-.09,.43-.63,1.2-.87,1.06,.14-.25,.36-.37,.81-.41,1.24,.35,.49,.67,3.42-.23,3.36,0,.13-.01,.26-.03,.39,.88-.42,1.83-1.11,2.83-1.05,.37-.11,.87-.25,1.09,.17,.5-.16,1.4-.57,1.5,.24h0c.05,.35-.18,.6-.48,.73h-.01c-.08,.07-.15,.12-.23,.18-.13,.44-.67,.56-.96,.84-.64,.65-1.35,1.24-2.06,1.81,.64,1.11,.8,2.39,.99,3.64,.12,.55-.62,.94-.85,.32Z"/><path class="cls-2" d="M20.66,38.09c-.77-.02-1.56-.41-1.93-1.12-.46,.16-.94-.49-.75-.92-.4-.91,.38-1.42,.88-.47,.01,0,.02-.01,.04-.02l.02-.03s.04-.05,.06-.07c-.16-.6,.49-.7,.67-.15,.09,.03,.18,.08,.26,.13,.59,.03,1.06,.54,1.55,.83,.28-.11,.47,.21,.57,.42,.22,0,.31,.27,.47,.39,.37,.34-.07,1.04-.49,.61-.06,.05-.13,.08-.21,.09h-.01c-.05,.06-.1,.1-.17,.14-.14,.42-.65,.44-.95,.17Z"/></g><g class="cls-11"><path class="cls-13" d="M17.35,53.65c-.86-3.88-.19-7.9-.7-11.81-.49-3.98-1.73-7.93-1.49-11.91,1.09,4.19,1.84,8.48,2.36,12.77,.4,3.57-.26,7.21,.38,10.74,.12,.39-.42,.69-.55,.21Z"/><path class="cls-13" d="M14.63,30.57c-3.46-2.69-4.11-7.94-1.65-11.43-.46,2.43-1.17,5.16-.17,7.54,.55,1.2,1.26,2.26,2.24,3.07,.4,.28,.06,1.16-.42,.81Z"/><path class="cls-13" d="M14.66,30.1c-.22-.52,.36-.69,.69-.93,1.1-1.43,.68-3.46,.37-5.08-.44-1.92-1.96-3.28-2.33-5.19,.06-.02,.16,.17,.22,.2,2.75,2.24,4.53,7.91,2.13,10.87-.3,.22-.87,.66-1.08,.12Z"/><path class="cls-13" d="M14.45,29.16c-.16-2.15-.81-4.22-.73-6.38,.23,.44,.41,1.12,.61,1.65,.27,.43,1.54,6.7,.12,4.73Z"/><path class="cls-13" d="M15.65,30.76c-.37-.14-.93-.36-.74-.86,.07-.19,.27-.32,.46-.21,.27,.15,.47,.28,.77,.25,1.92-.42,2.98-2.2,4.29-3.46,.45-.33,1.07-.72,1.54-.83-1.69,2-3.31,5.35-6.32,5.11Z"/><path class="cls-13" d="M16.22,27.46c-.76-1.12,1.7-3.07,2.84-2.79,1.02,.23,1.93,.83,2.87,1.24-.09,.15-.36,.25-.54,.31-.82,.27-1.53-.34-2.25-.59-.71-.2-1.43,.28-1.94,.73-.45,.24-.45,1.31-.98,1.1Z"/><path class="cls-13" d="M15.57,29.87c-.48-.87,1.02-1.65,1.63-2.08-.22,.69-.7,1.4-1.12,2.03-.13,.18-.36,.21-.51,.04Z"/><path class="cls-13" d="M10.72,31.68c-1.75-.37-3.32-1.72-4.11-3.24,1.4,.53,2.6,1.5,4.01,2,1,.24,2.08,.19,3.03-.03,.15-.05,.31-.1,.41-.16,.58-1.32,1.47-.24,.8,.68-.97,1.11-2.8,.93-4.14,.76Z"/><path class="cls-13" d="M6.2,28.38c1.21-1.23,3.05-1.98,4.8-1.61,.64,.15,2.01,.54,1.68,1.41-.11,.21-.35,.29-.55,.14-.89-.7-2.15-.62-3.17-.4-.89,.23-1.89,1.25-2.77,.45Z"/><path class="cls-13" d="M13.9,30.18c-1.08-.22-2.35-.47-3.17-1.19,.83-.16,1.7-.3,2.52,0-.02,0-.04,0-.06-.01,.46,.17,1.27,.09,1.18,.78-.02,.23-.21,.48-.46,.43Z"/><path class="cls-13" d="M16.15,36.46c-.24-1.02,1.62-1.26,2.28-1.3-.44,.39-1.81,2.22-2.28,1.3Z"/><path class="cls-13" d="M15.65,36.98c-.7-.21-1.47-.47-2.09-.75,.33-.21,.65-.38,1.03-.47,.59-.12,1.7-.15,1.62,.71-.03,.25-.26,.59-.55,.5Z"/><path class="cls-13" d="M17.16,46.78c-.39-1.39,2.58-1.76,3.54-1.59-.84,.54-1.88,1.03-2.76,1.6-.23,.22-.6,.35-.78-.01Z"/><path class="cls-13" d="M16.53,47.33c-.83-.33-1.81-.63-2.51-1.1,.85-.34,3.23-.73,3.12,.69-.07,.27-.33,.51-.61,.41Z"/><path class="cls-13" d="M18.44,35.51c-.46-.48,.15-1.13,.38-1.58,1.48-2.27,4.67-2.86,6.99-1.74-1.47,.61-3.15,.32-4.59,.96-.96,.48-1.84,1.23-2.25,2.21-.1,.21-.35,.29-.53,.14Z"/><path class="cls-13" d="M20.22,36.34c-.8,.07-2.84-1.25-1.53-1.86,.15,0,.25,.11,.34,.22,.4,.56,1.17,.57,1.79,.56,1.93-.14,3.13-1.75,4.54-2.83,.16-.14,1.19-.31,1-.04-1.23,2.08-3.59,4.15-6.15,3.96Z"/><path class="cls-13" d="M17.38,35.25c-1.05-3.01,.77-6.18,4.05-6.02-1.16,1.12-3.06,1.74-3.45,3.47-.11,.76,.03,1.52,.18,2.25,.05,.24-.02,.55-.27,.64-.23,.09-.47-.12-.51-.34Z"/><path class="cls-13" d="M19.74,33.15c-.29-.44,.26-.76,.44-1.11,.16-.27,.24-.68,.29-.95,.08-.72,.23-1.79,1.06-1.92-.3,1.39-.13,2.99-1.33,4.02-.13,.16-.35,.12-.46-.04Z"/><path class="cls-13" d="M18.78,35.4c-.18-1.18,2.27-1.42,3.13-1.43-.78,.64-1.83,1.24-2.77,1.71-.16,0-.3-.13-.35-.28Z"/><path class="cls-13" d="M18.38,35.37c-.87-.46,.12-2.09,.51-2.67,.06,.71,0,1.52-.05,2.25-.02,.23-.22,.47-.46,.42Z"/><path class="cls-13" d="M20.24,45.34c-.58-.82,.62-1.8,1.2-2.3,2.16-1.41,5.16-2,7.49-.8-1.33,1.05-3.19,.01-4.67,.65-1.33,.41-2.87,.94-3.46,2.3-.11,.21-.37,.3-.56,.15Z"/><path class="cls-13" d="M21.35,46.76c-.66-.16-1.59-1.74-.89-2.19,.22-.08,.4,.11,.45,.3,.08,.62,.48,1.05,1.12,1.05,1.5,.08,2.85-.83,3.9-1.79,.8-.74,1.53-1.82,2.74-1.77-1.47,2.28-4.31,5.21-7.31,4.4Z"/><path class="cls-13" d="M19.91,45.19c-3.01-2.83-.82-7.54,3.07-7.93-.85,.99-2.09,1.73-3,2.71-.88,1.07-.74,2.71-.13,3.86,.13,.23,.31,.39,.48,.54,.39,.29,.06,1.16-.43,.82Z"/><path class="cls-13" d="M20.02,44.85c-.09-.17-.03-.38,.09-.52,.84-.9,2.19-1.72,2.33-3.05-.08-1.36-.93-3.1,.74-3.86-.11,.65-.31,1.42-.16,2.09,.8,2.46-.53,3.92-2.4,5.3-.16,.17-.46,.3-.6,.04Z"/><path class="cls-13" d="M24.35,51.16c-1.57-.67-3.79-.59-4.55-2.37-.46-.69-.4-4.42,.82-3.97,.43,.37,0,.86-.12,1.27-.26,1.08-.21,2.53,.98,2.98,.89,.38,1.82,.41,2.67,.85,.47,.26,.86,.73,1.04,1.22-.28,.05-.55,.06-.83,.02Z"/><path class="cls-13" d="M24.84,50.86c-1.03-.39-.26-1.82-.42-2.64-.03-.45-.17-.91-.6-1.1-.25-.14-.56-.05-.77-.25-.44-.75,.68-.62,1.07-.41,1.36,.62,1.12,2.37,1.06,3.59,0,.27,.01,.78-.34,.81Z"/><path class="cls-13" d="M20.19,44.18c-.15-.78,0-1.6,.5-2.23,.05,.09,0,.33,.02,.44,.03,.57,.13,1.1,.22,1.65,.09,.57-.66,.76-.74,.13Z"/><path class="cls-13" d="M20.59,45.37c-.06-1.1,2.19-.68,2.85-.65-.56,.37-2.59,1.79-2.85,.65Z"/><path class="cls-13" d="M21.86,48.05c-.85-.04-2.04-1.63-1.32-2.31,.47-.22,.58,.4,.7,.72v-.02c.21,.52,.48,1.09,.62,1.61Z"/><path class="cls-13" d="M5.43,38.14c1.93-1.86,4.21-4.29,7.16-3.61,.73,.13,2.04,1.1,1.54,1.9-.17,.18-.42,.14-.56-.05-.8-1.39-2.77-1.03-4.02-.5-1.4,.69-2.43,2.37-4.12,2.26Z"/><path class="cls-13" d="M8.9,39.63c-.67,.05-4.34-.93-2.54-1.6,.85-.13,1.66,.43,2.52,.43,1.61,.14,3.59-.34,4.49-1.78,.11-.26,.14-.55,.16-.83,.07-.62,.83-.44,.73,.13-.03,2.61-3.09,3.87-5.36,3.64Z"/><path class="cls-13" d="M13.66,36.17c-.42-.28,0-.75,.02-1.12,0-.78-.47-1.53-1.09-1.98-1.64-1.06-3.68-.79-5.46-.93,2.37-1.92,7.33-.7,7.24,2.77-.05,.4-.14,1.41-.71,1.25Z"/><path class="cls-13" d="M9.9,35.56c-1.2-.31-2.43-1.05-2.49-2.42-.02-.29-.08-.77,.2-.94,.68,.05,.49,.93,.72,1.35,.34,.67,1.14,.89,1.79,1.13,.44,.15,.28,1.03-.22,.88Z"/><path class="cls-13" d="M8.44,43.04c.58-1.03,2.05-1.04,2.97-1.56,1.68-.72,3.32-2.5,2.45-4.41-.38-.46-.06-1.34,.45-.75,2.13,3.54-2.45,7.38-5.86,6.72Z"/><path class="cls-13" d="M9.33,42.76c-.69-1.22-.02-3.01,1.06-3.8,.44-.3,.73,.47,.37,.72-.14,.1-.31,.24-.39,.34-.26,.38-.45,.91-.53,1.31-.08,.48-.04,1.11-.5,1.43,0,0,0,0-.01,0Z"/><path class="cls-13" d="M8.89,48.47c-.71-.04-1.38-.35-1.91-.82,1-.38,2.18-.08,3.26-.16,1.29-.13,2.65-.61,3.43-1.67,.13-.19,.38-.22,.55-.05,.58,1.26-2.08,2.36-3.06,2.59-.74,.17-1.51,.18-2.27,.11Z"/><path class="cls-13" d="M6.02,47.75c1.57-1.86,3.85-3.92,6.5-3.45,.81-.02,2.12,1.14,1.55,1.92-.58,.34-.54-.72-.97-.82-1.37-.49-2.94-.05-4.11,.76-.93,.63-1.68,1.85-2.97,1.59Z"/><path class="cls-13" d="M14.22,46.13c-.34-.4,.22-.77,.31-1.13,.14-1.07-.6-2-1.16-2.84-.15-.27-.42-.53-.54-.78,.89-.14,1.58,.51,1.91,1.28,.53,1.08,.83,2.47-.07,3.44-.11,.16-.31,.18-.45,.04Z"/><path class="cls-13" d="M11.78,44.74c-.56-.44-1.19-1.3-.62-1.95,.39,.38,.76,.79,1.16,1.17,.39,.35-.06,1.23-.54,.78Z"/><path class="cls-13" d="M10.86,51.72c-1.94-.24,.99-1.48,1.51-1.81,.85-.59,1.84-1.6,1.53-2.71-.15-.38-.71-.7-.41-1.16,.42-.47,.78,.38,1,.68,.94,2.26-1.51,4.68-3.63,4.99Z"/><path class="cls-13" d="M10.18,52.3c-.5-1.34-.14-2.86,.48-4.09,.16-.24,.3-.56,.57-.68,.34-.05,.48,.44,.29,.67-.58,.74-.82,1.72-.88,2.61,0,.52,.05,1.18-.45,1.5,0,0,0,0-.01,0Z"/><path class="cls-13" d="M12.76,48.53c.15-.5,.27-1.18,.77-1.43,1.03,.17,.06,1.4-.77,1.43Z"/><path class="cls-13" d="M13.58,46.56c-.66-.08-1.45-.18-2-.5,.6-.31,2.43-1.1,2.45,.08-.03,.24-.21,.45-.46,.42Z"/><path class="cls-13" d="M13.68,45.72c-.3-.51-.55-1.16-.39-1.73,.48,.26,.92,.61,1.15,1.12,.32,.51-.38,1.28-.76,.62Z"/><path class="cls-13" d="M12.55,36.85c-2.68-.31,.14-.89,1.15-1.01,.23-.03,.4,.17,.42,.39,.05,.78-1.06,.59-1.58,.62Z"/><path class="cls-13" d="M13.4,35.56c-.53-.32-.92-.89-1.12-1.45,.64,.03,1.94,.32,1.69,1.19-.09,.23-.35,.4-.57,.26Z"/><path class="cls-13" d="M12.21,39.95c.27-.96,.57-1.91,.94-2.84,.08-.19,.28-.34,.48-.22,.2,.11,.26,.4,.18,.6-.31,.91-.87,1.9-1.6,2.45Z"/><path class="cls-13" d="M12.16,21.49c-.39-.24,0-.79,.04-1.14,.21-.46,.26-1.23,.81-1.38,.16,.81-.44,1.53-.54,2.31-.04,.14-.16,.26-.31,.21Z"/><path class="cls-13" d="M12.4,20.87c-.43-.39,.12-1.14,.13-1.65,.1-.27,.09-.74,.43-.83,.31,.24,.12,.69,.05,1.01-.21,.4-.07,1.44-.61,1.47Z"/><path class="cls-13" d="M13.71,19.98c-.25-.3-.57-.64-.52-1.05,.44-.01,1.08,.58,.87,1.02-.08,.12-.25,.14-.34,.03Z"/><path class="cls-13" d="M20.42,38.58c-1.33-.45-2.79-1.42-2.81-2.96,0-.18,.12-.4,.32-.4,.29,0,.32,.35,.33,.57,.05,.25,.17,.55,.32,.73,.81,1.06,2.2,1.11,3.19,1.92-.35,.27-.92,.27-1.35,.14Z"/><path class="cls-13" d="M22.71,38.1c-.48-.24-.5-.93-.84-1.28-.22-.31-.78-.58-.5-1.02,.49-.67,2.3,2.23,1.34,2.3Z"/><path class="cls-13" d="M19.41,36.99c-.63-.15-1.59-1.56-1.02-2.08,.18-.11,.39,.02,.45,.2,.14,.52,.52,1.01,.82,1.42,.11,.18,.31,.32,.38,.48-.22,.03-.42,.03-.64-.03Z"/><path class="cls-13" d="M13.95,54.8c-.06-.15-.02-.36,.13-.45,1.25-.7,2.55-1.73,4.07-1.28,1.07,.48,2.22,.42,3.34,.67,.51,.2,1.31,.27,.27,.56-.85,.14-1.74-.08-2.58-.16-.94-.35-2.02-.72-2.97-.25-.68,.33-1.32,.8-2.01,1.1-.11,0-.21-.09-.25-.2Z"/></g></g></svg>