<?xml version="1.0" encoding="UTF-8"?><svg id="Layer_1" xmlns="http://www.w3.org/2000/svg" xmlns:xlink="http://www.w3.org/1999/xlink" viewBox="0 0 56.69 56.69"><defs><style>.cls-1{fill:#fff;opacity:0;}.cls-2{clip-path:url(#clippath-2);}.cls-3{clip-path:url(#clippath-1);}.cls-4{fill:#fedc00;}.cls-5{fill:#3db54a;}.cls-6{clip-path:url(#clippath);}.cls-7{fill:none;}.cls-8{fill:#010101;}</style><clipPath id="clippath"><rect class="cls-7" x="2.08" y="4.42" width="52.51" height="48.1"/></clipPath><clipPath id="clippath-1"><rect class="cls-7" x="2.37" y="9.52" width="51.57" height="35.04"/></clipPath><clipPath id="clippath-2"><rect class="cls-7" x="2.08" y="4.42" width="52.51" height="48.1"/></clipPath></defs><g id="Kræver_lys"><rect class="cls-1" x="1.42" y="1.42" width="53.86" height="53.86"/><g class="cls-6"><g class="cls-3"><path class="cls-4" d="M34.74,21.92c-.17-.04-.29-.16-.39-.3-.05-.07-.08-.15-.1-.24-.63,.1-1.32,.71-1.93,.24-.27,.03-.55-.06-.72-.27-.97,.63-1.64-.33-1.72-1.23h0s-.08,0-.12-.01c-.36-.07-.66-.38-.76-.73-.76-.72-.5-1.88-.33-2.8-.46-1.04,.39-2.19,1-2.99,.52-.64,1.3-.97,1.89-1.54,1.04-.62,2.14-2.21,3.52-1.52,.51-.17,1.19,.02,1.31,.6,.13,.04,.25,.12,.34,.21h0c.13-.01,.27,0,.4,.06,.48-.11,.94,.22,1.02,.69,.06,.04,.12,.08,.16,.14,.48,.05,.77,.52,.78,.97,.29,.29,.55,.63,.44,1.07-.05,.16-.03,.32,0,.49,.36,.24,.35,.68,.27,1.1,.02,.04,.04,.09,.05,.15,.05,.2,.01,.39-.04,.58,1.12,.31-1.86,4.86-2.68,4.28-.66,.38-1.35,1.07-2.15,1.07-.07,0-.15,0-.23-.02Z"/><path class="cls-5" d="M8.23,39.49c.04,.41-.16,.58-.44,.63-.07,.07-.16,.11-.27,.11-.01,0-.03,0-.05,0-.43-.07-.88-.2-1.29-.37,0,0-.01,0-.02,0-.45-.17-.86-.44-1.21-.77-.81-.44-1.73-1.05-2.14-1.88h-.12s.01-.03,.02-.05c0,0,0-.02,0-.03,0-.04,.02-.08,.03-.12,0-.05,.01-.09,.01-.14,0,0,0,0,0,0,0-.04,0-.09,0-.13,0-.04-.02-.09-.03-.13,0,0,0-.02,0-.03,0-.02-.01-.04-.02-.07,.27-.03,.59-.06,.73,.15h0s0,0,0,0h.12c.13,.03,.25,.07,.35,.13,.09,.01,.19,0,.3,0,.35,0,.73-.01,.74,.42,0,.06,0,.11-.02,.15,.7-.09,1.44,.36,1.98,.79,.14,.09,.28,.26,.35,.43h0c.13,.12,.22,.26,.24,.42,.08,0,.16,.02,.24,.03,.29-.03,.48,.21,.51,.47Z"/><path class="cls-5" d="M15.45,26.68c.47,.1,.41,.96-.06,.96-.02,0-.04,0-.06,0-.27-.11-.54-.26-.81-.43,0,0-.02,0-.04,0-.02,0-.05,0-.07,0-.41-.19-.81-.43-1.19-.7-.19-.02-.4-.12-.56-.19-1.5-.97-2.94-2.9-3.5-4.65-.4-.73-.69-1.53-.9-2.34-.05-.22-.08-.51,.12-.66-.08-.21-.17-.33-.23-.54-.11-.41,.41-.7,.57-.23,.03,0,.07,.02,.09,.04,.55,.06,.73,1.33,1.11,1.76,.4-1.27,2.97,2.7,3.35,3.21,.12-.01,.22,.03,.31,.11,.06,.05,.11,.11,.16,.17,.73,.89,1.28,2.08,1.72,3.15,.02,.11,0,.23-.06,.32,0,0,.02,.02,.03,.02Z"/><path class="cls-5" d="M22.06,22.52c.13-.02,.24-.03,.32,0-.34,.63-.88,1.19-1.44,1.62-.14,.14-.3,.32-.5,.32-.02,0-.04,0-.06,0,0,0,0,.01-.02,.02,0,0,0,0,0,0-.16,.6-1.08,2.2-1.76,2.66-.55,.72-1.15,1.31-1.54,1.31-.13,0-.24-.06-.31-.2,0-.02-.02-.04-.03-.07-.15,.07-.29,.12-.41,.12-.2,0-.36-.1-.46-.35-.1-.34,.16-.65,.46-.77,.07-.06,.15-.12,.23-.18-.01-.11,0-.23,.06-.32,.61-1.07,1.37-2.19,2.57-2.64,.14-.06,.29-.1,.45-.14,.12-.11,.25-.22,.38-.3,0,0,0,0,0,0,.58-.59,1.25-1.14,2.1-1.14,0,.02-.02,.05-.04,.07Z"/><path class="cls-5" d="M10.81,33.56c.18,0,.36,.2,.22,.61,.29,.9-.21,3.72-.49,3.97-.12,.34-.23,.8-.61,.93-.06,.13-.18,.24-.32,.24,0,0-.01,0-.02,0-.02,.06-.04,.12-.07,.19-.06,.2-.25,.34-.44,.34-.07,0-.13-.01-.2-.05-.27-.15-.33-.53-.23-.8,.16-.58,.28-1.2,.44-1.8,0,0,0-.02,0-.02,.12-.55,.32-1.1,.57-1.61,0-.32,.06-.65,.15-.96h0c.06-.51,.29-.98,.6-1.39,.16-.35,.37-.68,.58-.99-.03,.42-.08,.89-.19,1.35Z"/><path class="cls-5" d="M24.88,38.82c.44,.02,.44,.82,0,.84h0c-.09,.13-.29,.19-.5,.19-.19,0-.38-.04-.54-.13-.09-.03-.18-.08-.26-.13h0c-.88-.31-1.51-1.22-1.84-2.13-.52-.67-1.04-1.72-.78-2.34,.24,.13,.85,.95,1.26,1.68,.16,.17,.32,.36,.47,.51,.59,.28,.99,.88,1.5,1.26,.04,.03,.08,.08,.1,.14,.2,.05,.39,.09,.59,.11Z"/><path class="cls-5" d="M27.9,36c.63,.36-.05,1.24-.07,1.8,0,.4-.49,2.06-.93,2.06-.04,0-.08-.01-.12-.04-.04,.08-.09,.15-.14,.22-.07,.17-.24,.31-.41,.31-.07,0-.15-.02-.22-.08-.2-.17-.26-.52-.12-.74,.1-.18,.2-.35,.3-.53,.14-.65,.47-1.26,.89-1.78,.15-.38,.29-.76,.46-1.12,.09-.12,.25-.18,.38-.1Z"/><path class="cls-5" d="M33.32,33.74c.47,.08,.41,.95-.07,.95h-.04c-1.29-.47-2.64-1.15-3.46-2.27h0c-.25-.17-.48-.33-.7-.51-.12-.2,0-.58,.28-.53,.16,.07,.32,.15,.48,.23,1.03,.37,2.08,.93,2.97,1.58,.13,.15,.19,.29,.19,.4h0c.12,.06,.25,.1,.37,.14Z"/><path class="cls-5" d="M39.44,31.14c.62-.16,.58,.74,.11,.94-.39,.3-.76,.64-1.15,.94-.23,.38-.54,.74-.89,1.02-.41,.54-.98,.95-1.62,.95-.02,0-.04,0-.06,0-.24,.16-.47,.27-.66,.27s-.35-.1-.46-.33c-.07-.28,.06-.58,.33-.67,.38-.21,.69-.48,1.02-.71h0c-.13-.57,.65-.86,1.02-1.18,.58-.35,1.26-.98,1.95-.94,.17-.12,.32-.22,.42-.27Z"/><path class="cls-5" d="M47.77,22.85c.51-.35,.52,.48,.38,.78-.05,.17-.05,.46-.11,.7,.02,.3,0,.6-.17,.76-.04,.59-.16,1.32-.29,1.98,0,0,0,.01,0,.02,0,.1-.02,.2-.04,.3,.13,.14,.16,.4,.03,.55-.32,.65-.14,1.76-.84,2.1,0,.22-.18,.35-.33,.35-.14,0-.27-.1-.3-.33-.14-1.16-.05-2.37,.37-3.45h0s0-.04,0-.06c-.02-.79,.23-1.58,.65-2.25,0,0,0,0,0,0,.07-.13,.16-.25,.24-.37,.03-.17,.09-.32,.18-.45h0c.07-.26,.15-.49,.21-.62Z"/><path class="cls-5" d="M52.72,41.51c.42-.26,.9-.4,.88,.29-.11,.55-.63,.91-.96,1.34-.13,.15-.28,.37-.5,.37-.12,.17-.29,.26-.44,.27-.28,.27-.61,.46-.99,.46-.14,0-.28-.02-.43-.08-.31-.11-.73-.37-.88-.69h0s-.02-.03-.03-.04c-.09-.19-.08-.35-.01-.49-.08,.08-.18,.14-.29,.14-.12,0-.24-.08-.32-.27-.03-.08-.06-.16-.09-.26-.02,0-.03,0-.05,0-.26-.05-.35-.34-.34-.57,0-.11,.02-.23,.02-.34-.05-.09-.09-.2-.12-.3-.06-.5-.14-1.05-.15-1.59,0,0,0-.01,0-.02-.13-.33-.12-.76,0-1.15,0-.43,.1-.84,.33-.91,.11,.1,.19,.47,.23,.88h0c.03,.12,.07,.24,.1,.35,.02-.05,.05-.09,.08-.14,.11,.22,.19,.44,.25,.67,.23,.09,.34,.56,.32,.82,.31,.25,.21,.71,.1,1.04-.01,.22,.03,.6-.08,.84,.03,.1,.07,.19,.1,.29,.08,.16,.05,.33-.02,.45,.18-.25,.58-.41,.85-.54,.53-.21,1.07-.56,1.63-.64h0s.03-.02,.05-.03c.19-.1,.53-.2,.78-.14Z"/><path class="cls-5" d="M53.21,29.8c-.02,.08-.06,.17-.13,.25-.03,.04-.06,.09-.11,.13-.16,.18-.37,.32-.57,.35-.07,.03-.15,.06-.22,.06h0s-.09,.01-.13,.01h-.02c-.15,.02-.3,.04-.45,.05,0,0,0,.01-.02,.02-.3,.34-.71,.61-1.15,.81-.63,.33-1.32,.55-2.02,.55-.14,0-.27,0-.41-.02-.06,0-.11-.03-.15-.07h0c-.09,.01-.18,.02-.28,.02-.22,0-.44-.03-.66-.11-.47-.1-.39-.98,.11-.92,.05,.01,.11,.02,.16,.03,.04-.1,.12-.18,.23-.21,.72-.25,1.44-.56,2.18-.71,.67-.2,1.38-.36,2.03-.18h0s0,0,0,0c.1-.18,.39-.29,.7-.29,.29-.09,.7,0,.91,.23Z"/></g><g class="cls-2"><path class="cls-8" d="M11.67,52.05c-.24-.69,.82-1.03,1.24-1.39,.29-.17,.58-.09,.87-.02,.19,.04,.37,.09,.56,.07,1.06-.15,1.94-.73,2.95-1,.93-.29,1.89,.02,2.83,.12,.91,.08,1.77-.17,2.64-.42,.74-.22,1.49-.43,2.27-.43,1.9,.38,3.69,1.31,5.63,.56,1.11-.25,2.26-.66,3.4-.37,1.18,.34,2.36,.87,3.61,.67,2.07-.2,3.92-1.35,5.99-1.45,2.25,.46,4.56,.4,6.73,1.2-1.43,.73-2.96,.47-4.49,.21-1.22-.2-2.44-.41-3.59-.11-2.03,.56-4.1,1.54-6.25,1.1-1.64-.58-3.25-.99-4.95-.32-2.05,.78-4.07,.07-6.03-.49-1.51,0-2.81,.81-4.3,.85-.49,.04-.96-.05-1.44-.14-.61-.11-1.23-.23-1.84-.06-1.37,.37-2.74,1.42-4.17,.77-.25-.02-.49,.19-.72,.4-.23,.2-.44,.4-.65,.4-.1,0-.19-.04-.29-.16Z"/><path class="cls-8" d="M29.46,14.05c-2.3,3.77-.03,7.81,4.43,7.45h-.06c2.82-.15,5.73-1.87,5.64-4.97,.04-.75,.1-1.54-.06-2.26-.36-1.09-1.27-1.83-1.94-2.71-.38,.2-.74-.35-1.15-.39-.41-.09-.82-.13-1.24-.13-2.2,0-4.41,1.22-5.62,3.01Zm3.07,8.52c-6.63-.79-6.07-9.9-.52-11.93,1.69-.75,3.84-.98,5.43,.11,.17,.1,.24,.32,.2,.52,3.03,.89,3.07,4.44,2.48,7-.69,2.95-3.85,4.35-6.7,4.35-.3,0-.6-.01-.9-.05Z"/><path class="cls-8" d="M33.24,7.58c0-.18,0-.35,0-.54,0,.03,0,.07,0,.1-.03-.78-.07-1.68,.15-2.41,.46,.6,.83,1.28,.89,2.05,.02,.5,.18,1.39-.51,1.46-.34,0-.53-.36-.53-.66Z"/><path class="cls-8" d="M34.75,27.55c-2.1-5.16,1.64-5,.01,0,0,0,0,0-.01,0Z"/><path class="cls-8" d="M42.06,16.04c-.01-1.4,3.29-.51,4.07-.27-.59,.23-2.13,1.01-3.14,1.01-.5,0-.87-.19-.93-.74Z"/><path class="cls-8" d="M23.57,18.14c-.3-.02-.59-.04-.81,0-.68-.05-1.48-.15-2.05-.43,1.29-.43,2.59-.96,3.97-.9,.33,0,.53,.36,.53,.65-.05,.59-.54,.71-1.09,.71-.18,0-.37-.01-.56-.02Z"/><path class="cls-8" d="M27.65,11.62c-1.48-.53-3.22-1.15-4.15-2.44,1.58,.08,3.01,.59,4.44,1.23,.3,.11,.41,.5,.34,.79-.05,.24-.25,.45-.48,.45-.05,0-.1,0-.15-.03Z"/><path class="cls-8" d="M40.3,10.92c-.85-1.13,1.35-2.54,2.25-2.96,.02,.09-.17,.26-.21,.37-.6,.84-.89,1.96-1.62,2.67-.04,.02-.09,.02-.14,.02-.1,0-.2-.03-.28-.1Z"/><path class="cls-8" d="M27.88,23.26c.12-.1,.27-.11,.41-.06,1.08,.87-2.23,3.01-2.89,3.43,.65-1.23,1.47-2.41,2.48-3.37Z"/><path class="cls-8" d="M41.19,24.79c-.57-.37-1.01-.89-1.47-1.38-.23-.24-.24-.66-.05-.93,.55-.66,1.06,.36,1.48,.68l-.06-.06c.74,.71,1.46,1.56,1.99,2.41-.68-.11-1.31-.34-1.89-.72Z"/><path class="cls-8" d="M12.79,50.68c-.91-3.68-3.18-6.99-4.51-10.42,.93,1.71,2.42,3.06,3.18,4.87,.78,1.72,1.47,3.49,2.01,5.29,.05,.2-.03,.47-.24,.55-.03,.01-.07,.02-.1,.02-.16,0-.29-.15-.34-.31Z"/><path class="cls-8" d="M17.96,49.69c-.19,0-.33-.19-.34-.36-1.05-7.02-2.55-15.37-2.41-21.85,1.54,6.38,1.41,13.13,2.84,19.55,.12,.72,.19,1.45,.25,2.17,0,.2-.07,.45-.29,.49h-.05Z"/><path class="cls-8" d="M25.59,49.02c.01-3.18-.36-6.62,.18-9.69-.06,.65,1.2,9.93,.16,9.93-.09,0-.21-.07-.34-.24Z"/><path class="cls-8" d="M34.15,48.52c.09-4.66-1.03-9.59,.32-14.1,.05,4.35,.14,8.69,.44,13.01-.12,.53,.24,1.67-.47,1.77-.31-.06-.31-.44-.29-.69Z"/><path class="cls-8" d="M42.41,48.59c-.23-.04-.31-.3-.3-.51,.07-.82,.07-1.62,.1-2.44,.09-5.31,1.04-10.85,4.22-15.14-2.49,4.58-3.22,9.74-3.45,14.87-.04,.95-.08,1.9-.16,2.85,0,.18-.17,.38-.36,.38-.01,0-.03,0-.05,0Z"/><path class="cls-8" d="M46.59,47.71c.39-1.77,1.42-3.3,2.36-4.81-.6,1.54-1.29,3.31-1.74,4.98-.07,.21-.22,.49-.46,.51-.16-.18-.17-.44-.16-.67Z"/><path class="cls-8" d="M48.35,43.27c-.92-1.75-1.08-3.8-.09-5.56,.06-.01-.01,.16,0,.19-.21,1.19-.1,2.46,.26,3.57,.07,.64,.95,1.47,.35,2.02-.05,.03-.1,.04-.15,.04-.15,0-.29-.12-.35-.27Z"/><path class="cls-8" d="M48.84,43.47c-.4-.36,.14-.89,.26-1.23,.76-1.8-1.11-3.42-.68-5.28,.94,1.88,2.43,4.34,.88,6.39-.06,.11-.17,.19-.28,.19-.06,0-.12-.02-.18-.07Z"/><path class="cls-8" d="M48.93,43.29c-.09-.18-.06-.42,.09-.56,1.02-.98,2.31-1.9,3.79-1.84,.48,.04,.9,.21,1.31,.44-.29,.16-.76,.18-1.13,.29-1.43,.15-2.63,.8-3.62,1.79-.05,.04-.1,.06-.16,.06-.11,0-.23-.08-.29-.19Z"/><path class="cls-8" d="M50.37,44.64c-.65-.05-1.85-.88-1.42-1.6,.14-.15,.35-.12,.47,.04,.26,.52,.81,.78,1.36,.7,1.72-.07,2.09-2.01,3.31-2.86-.53,1.58-1.36,3.75-3.33,3.75-.12,0-.25,0-.38-.03Z"/><path class="cls-8" d="M45.72,30.94c-.88-3.25,.73-6.63,2.82-8.94-1.12,2.02-2.16,4.16-2.28,6.49-.02,.83,.08,1.53,.22,2.32,.04,.22-.09,.5-.32,.55-.02,0-.04,0-.06,0-.21,0-.35-.21-.38-.41Z"/><path class="cls-8" d="M46.15,31.44c-.39-.42,.19-.88,.38-1.19,1.54-2.4,.86-5.3,1.65-7.89,.65,2.93,.41,6.56-1.53,9.04-.06,.1-.17,.16-.28,.16-.08,0-.17-.03-.23-.11Z"/><path class="cls-8" d="M46.05,31.49c-.08-.21-.02-.46,.17-.59,2.11-1.53,5.26-2.46,7.6-1.09-2.52,.03-5.22,.35-7.3,1.89-.04,.03-.09,.05-.14,.05-.14,0-.29-.13-.33-.27Z"/><path class="cls-8" d="M47.85,32.74c-.6-.07-1.9-.68-1.53-1.43,.38-.45,.73,.39,1.09,.47,2.51,.7,4.47-1.82,6.87-2.2-1.84,1.18-3.84,3.16-6.22,3.17-.07,0-.14,0-.21,0Z"/><path class="cls-8" d="M34.18,35.3c-.15-.16-.17-.46-.03-.64,1.4-2.19,3.89-3.66,6.4-3.79-1.59,.75-3.2,1.61-4.47,2.8-.67,.51-.99,1.36-1.67,1.74-.08,0-.16-.03-.23-.11Z"/><path class="cls-8" d="M35.37,35.43c-.42-.12-1.24-.21-1.12-.81,.11-.51,.64-.18,.9-.07,2.09,.37,3.31-1.91,4.53-3.2,.39-.38,.92-.9,1.35-1.06-1.59,1.88-2.69,5.14-5.59,5.14-.02,0-.05,0-.08,0Z"/><path class="cls-8" d="M33.55,34.82c-.91-2.43-4.02-3.04-6.29-3.55,2.29-.74,5.23,.13,6.58,2.25,.2,.45,.73,1.14,.22,1.54-.05,.03-.1,.04-.15,.04-.15,0-.3-.12-.36-.28Z"/><path class="cls-8" d="M34.03,35.41c-2.43-.5-5.27-1.86-6-4.38,.73,.32,1.29,.96,1.83,1.48,.62,.55,1.41,.91,2.13,1.28,.68,.33,1.39,.61,2.15,.71,.23,.03,.33,.31,.31,.52-.02,.2-.16,.39-.36,.39-.01,0-.03,0-.05,0Z"/><path class="cls-8" d="M25.28,39.76c-1.68-1.64-4.54-2.89-4.46-5.56,.86,2.22,3.32,3.09,4.87,4.75,.33,.23,.15,.88-.2,.88-.06,0-.14-.02-.21-.07Z"/><path class="cls-8" d="M24.23,40.53c-2.42-.55-3.75-3.49-3.64-5.75,.75,1.31,1.2,2.91,2.24,4,.45,.39,.99,.81,1.58,.84,.3-.05,.5-.34,.73-.53,.17-.15,.41-.04,.51,.14,.25,.66-.73,1.3-1.35,1.3h-.07Z"/><path class="cls-8" d="M25.68,39.96c-.26-1.72,1.3-3.68,2.71-4.43-1.01,1.19-1.84,2.59-2.19,4.13,0,.18-.16,.41-.33,.41-.06,0-.13-.03-.19-.1Z"/><path class="cls-8" d="M25.93,40.26c-.1-.63,.83-.57,1.12-.99,.98-1.16,.77-2.85,1.18-4.25,.52,1.86,.31,4.8-1.92,5.5-.03,0-.05,.01-.08,.01-.14,0-.26-.13-.29-.27Z"/><path class="cls-8" d="M14.98,28.36c-4.82-1.52-7.84-7.16-6.89-12.03,.05-.18,.04-.47,.13-.57-.05,.79-.08,1.59,.02,2.38,.59,3.11,2.15,6.27,4.74,8.15,.67,.49,1.44,.85,2.22,1.12,.24,.08,.32,.39,.27,.62-.04,.19-.2,.35-.38,.35-.03,0-.07,0-.11-.02Z"/><path class="cls-8" d="M15.26,27.58c-.25-4.98-5.83-6.9-7.71-11.08,3.32,2.96,8.06,6.18,8.37,11.08,0,.27-.17,.4-.33,.4s-.33-.13-.32-.4Z"/><path class="cls-8" d="M15.7,27.35c1.7-2.91,4.83-4.75,7.91-5.88-2.51,1.89-5.84,3.54-7.53,6.4-.08,.2-.23,.43-.47,.43-.32-.19-.04-.7,.09-.94Z"/><path class="cls-8" d="M15.23,27.98c.04-.17,.21-.34,.39-.27,.44,.23,1,.29,1.46,.13,1.92-.7,2.58-2.88,3.91-4.24,.77-.84,1.82-1.67,2.79-2.07-.84,.87-1.6,1.8-2.35,2.69-1.47,1.63-2.43,4.44-4.98,4.5-.44-.04-1.35-.12-1.23-.75Z"/><path class="cls-8" d="M6.72,40.7c-2.19-.49-4.12-2.26-4.33-4.57,.16,.16,.27,.58,.46,.82,.94,1.37,3.37,3.59,5.12,2.75,.2-.09,.38,.11,.42,.28,.06,.6-.62,.75-1.19,.75-.18,0-.35-.01-.48-.03Z"/><path class="cls-8" d="M8.15,40.11c-.37-.93-1.05-1.76-1.97-2.16-.98-.49-2.44-.52-3.03-1.5,2.23,.14,4.69,.92,5.49,3.26,.15,.24-.04,.56-.26,.56-.08,0-.16-.05-.23-.17Z"/><path class="cls-8" d="M8.54,39.72c-.21-.2-.17-.52-.13-.78,.24-2.41,.97-5.17,2.67-6.87-1.27,2.26-1.84,4.82-2.15,7.36-.03,.12-.15,.32-.28,.32-.03,0-.07,0-.1-.04Z"/><path class="cls-8" d="M8.64,40.05c-.37-.07-.31-.77,.09-.72,.29,.02,.55,.05,.78-.08,2.08-1.78,.6-4.83,1.6-7.08,.09,2.26,1.17,7.89-2.38,7.89h-.09Z"/></g></g></g></svg>