<?xml version="1.0" encoding="UTF-8"?><svg id="Layer_1" xmlns="http://www.w3.org/2000/svg" xmlns:xlink="http://www.w3.org/1999/xlink" viewBox="0 0 56.69 56.69"><defs><style>.cls-1{fill:#fff;opacity:0;}.cls-2{clip-path:url(#clippath-2);}.cls-3{clip-path:url(#clippath-1);}.cls-4{fill:#fedc00;}.cls-5{clip-path:url(#clippath);}.cls-6{fill:none;}.cls-7{fill:#010101;}</style><clipPath id="clippath"><rect class="cls-6" x="1.48" y="1.71" width="53.63" height="53.15"/></clipPath><clipPath id="clippath-1"><rect class="cls-6" x="4.16" y="3.52" width="49.59" height="49.99"/></clipPath><clipPath id="clippath-2"><rect class="cls-6" x="1.48" y="1.71" width="53.63" height="53.15"/></clipPath></defs><g id="Fuld_Sol"><rect class="cls-1" x="1.42" y="1.42" width="53.86" height="53.86"/><g class="cls-5"><g class="cls-3"><path class="cls-4" d="M28.04,21.27s-.05,.03-.08,.05c-.02,.06-.05,.13-.08,.2,0,.03-.02,.06-.03,.08,.09-.06,.18-.12,.26-.17l.08-.04c.03-.07,.06-.14,.09-.22-.08,.03-.17,.06-.25,.1Zm-1.95,6.02c-.02,.1-.05,.2-.07,.31,0,.03,0,.06,0,.08h0c1.39-.77,2.17-2.46,2.78-3.87-.74,1.25-1.53,2.59-2.71,3.48Zm3.42,12.17s-.02,0-.04,0c-.16-.03-.27-.16-.33-.3-.12-.02-.21-.12-.29-.22,0,0,0,0,0-.01-.27,.61-.91,.32-.99-.24-.13,.26-.51,.33-.7,.1-.25,.62-.86,.22-.95-.28-.23,.19-.56,.05-.67-.2-.43,.4-.82-.19-.96-.57-.45,.41-.79-.24-.96-.59-.17,.51-.78,.38-.97-.05-.7,.2-.89-.89-1.21-1.33-.61,.09-.9-.72-1.18-1.15-.68-.38-.88-1.37-1.2-2.05-1.89-2.05-.78-9.44,1.37-11.07,.19-.3,.38-.58,.63-.84,.12-.12,.27-.23,.45-.24,.24-.26,.5-.61,.87-.62,.28-.26,.64-.63,1.06-.5,.42-.33,1.26-.83,1.59-.15,.47-.3,1.33-.47,1.5,.25,.32-.01,.67,.15,.78,.47,.32-.05,.63,.12,.76,.4,.67-.28,1.28,.38,.98,1.03,.37,.17,.45,.61,.37,.97,.06,.07,.11,.15,.16,.25,.01,.03,.02,.05,.03,.08,.2,.02,.5,.22,.47,.42-.11-.13-.27-.17-.44-.14,.36,1.35-3.88,8.25-4.34,4.78-1.03,1.09-1.89,.09-1.27-1.08-.59,.11-.86-.63-.62-1.09-.65,.27-1.1-.53-.78-1.07-.52,.01-.72-.63-.51-1.04-.15,.02-.27-.06-.37-.17-.04-.04-.07-.09-.1-.15-.06,.03-.13,.06-.2,.07-.04,0-.07,0-.1,0-.11,.1-.25,.19-.41,.19-.45,.66-.74,1.42-1.17,2.11-.21,1.63,.13,3.24,.05,4.88,.18,.4,.26,.83,.41,1.26,.03-.03,.06-.06,.11-.09,0,0,0,0,0,0,.61-.25,.63,.67,.8,1.04,.7-.16,.64,.92,.91,1.34-.19-.44-.26-1.54,.5-1.17,.27,.28,.35,.7,.51,1.04-.06-.32,.25-.76,.6-.56,.36,.32,.38,.86,.58,1.28,.06-.75,.84-.56,.89,.09-.02-.39-.26-.96,.21-1.17,.35-.12,.54,.29,.57,.58,.76-1.22,.98,.97,1.12,1.48,.06-.53-.4-2.35,.61-1.96,.47,.7,.35,1.72,.57,2.54,.03-.81,.05-1.65,.28-2.43,.47-.67,.89,.21,.82,.7,.08-.15,.24-.27,.42-.24,.2,.04,.32,.24,.35,.44,.36-.99,1.07-.2,.85,.54,.17-.51,.54-2.52,1.23-1.37,.19-.71,.79-1.39,1.08-.37,.13-.57,.78-1.12,1.01-.29,.2-.57,.82-1.19,1.07-.28,.13-.32,.56-.37,.71-.05,.12-.3,.5-.57,.76-.27,.17-.3,.34-.89,.79-.7l.14-.28c.03-.06,.06-.13,.1-.19-.08-.39,.19-.73,.28-1.1-.47-.38-.06-.98,.07-1.44-.51-.11-.44-.74-.32-1.12-.82-.02-.43-1-.23-1.46-.55,.25-.76-.54-.61-.92,.18-.57,.03-1.23,.25-1.77-.04-.11-.06-.18-.11-.26-.42,.07-.59-.46-.81-.74-.28-.45-.77-.93-.6-1.51-.42-.4-.05-1.4,.54-.91,.48,.04,.63,.63,.88,.96,.29,.1,.4,.42,.54,.67,.49,.34,.46,1.09,.8,1.57,.61-.12,.71,.67,.54,1.1,.13,.05,.24,.19,.29,.32,.08,.2,.05,.4,0,.61,.85,.02,.43,1.09,.31,1.59,.23,.31,.05,.69-.03,1.01,.63,.32,.13,1.07,.02,1.56,.18,.81-.56,1.71-.69,2.5-.25,.76-.38,1.52-.71,2.22-.09,.15-.22,.25-.38,.25-.12,.31-.24,.82-.66,.77-.13,.4-.45,1.28-.98,.83-.17,.37-.43,1.05-.93,.82-.09,.42-.48,1.23-.97,.74-.13,.37-.62,.62-.87,.21-.12,.38-.44,1.02-.9,.71-.1,.52-.77,.96-1.03,.3-.13,.19-.43,.26-.61,.11-.11,.4-.61,.87-.95,.41-.07,.13-.2,.23-.35,.23-.02,0-.05,0-.07,0Z"/><path class="cls-4" d="M26.3,36.55c-.42-.1-.41-.62-.31-.95-.44,.76-1-.07-.79-.64-.14-.09-.23-.29-.22-.45v-.06c-.09-.03-.16-.1-.2-.18,.03,.54-.69,.72-.81,.15-.02-.15-.04-.31-.12-.45-.05,.08-.11,.15-.2,.2-.12,.07-.25,.06-.36,0,.27,.98-.71,1.54-.98,.38-.67,.13-.74-.87-.97-1.31-.51,.25-.7-.44-.84-.8-.14,.03-.27-.05-.36-.16-.05-.06-.07-.13-.09-.19-.72-1.13-.55-3.27-.7-4.64-.02-.8-.32-1.84,.21-2.52,.07-.31,.29-.75,.67-.64,.14-.51,.35-1.89,1.12-1.42,0,0,.02,0,.04,0,.1-.01,.19,.01,.27,.07,.12-.4,.62-.76,.89-.27,.16-.3,.56-.37,.7-.02,.94-.81,.76,.93,.73,1.46,.22,.53,.03,1.15,.08,1.72,.21-.73,.26-1.74,.94-2.2,.6-.21,.6,.61,.52,1,.19-.74,1.02-.7,.89,.11,.13-.14,.37-.24,.54-.13,.02-.31,.25-.52,.43-.76-.31-.24-.29-.76-.04-1.03-.01,0-.02,0-.03,0-.23,0-.41-.19-.46-.41-.56,.55-1.64,1.14-1.57-.15-.13,0-.24-.11-.31-.2-.08-.12-.13-.26-.12-.41-.25,.17-.53,.44-.86,.39-.4-.09-.53-.64-.3-.95,.47-.5,1.02-.92,1.49-1.42-1.36,.75-2.43,1.91-3.69,2.76-1.4-.18,.33-1.87,.72-2.4-.1-.57,.55-.79,.92-1.09,1.53-1,3.54-1.58,5.34-1.45,2.18-.17,4.39,.22,6.3,1.26,.62,.23,1.33,.61,1.43,1.34,.53,.39,.88,.99,.82,1.66,.57-.02,.57,.7,.3,1.04,.13,.13,.19,.34,.17,.52,0,.06-.02,.11-.04,.16,.66,.08,.44,.9,.19,1.3,.3-.41,.83-.08,.8,.37,0,.4-.26,.73-.42,1.08,.73,.16,.35,1.07,.13,1.52,.65-.18,.7,.71,.44,1.11,.43,.12,.46,.73,.19,1.02-.94,1.31-1.36,3.02-2.39,4.22-.22,.4-.65,1.33-1.14,.68-.14,.33-.24,.97-.73,.83-.24-.09-.35-.38-.32-.62,.25-.96,.61-1.9,.96-2.84-.07,0-.14-.04-.2-.08-.45,.52-1.42,4.19-2.2,3.07-.47,.31-.82-.36-.67-.77-.19,.46-.61,1.88-1.2,.97-.19,.33-.21,.82-.59,.98-.44,.15-.67-.4-.58-.76-.09,.23-.37,.39-.59,.25-.63-.52,.08-1.4,.17-2.04-.4,.81-.56,1.71-.94,2.52-.11,.18-.34,.25-.53,.14-.19-.11-.27-.34-.26-.56-.11,.13-.27,.19-.43,.13-.13-.04-.21-.13-.25-.24-.05,.32-.12,.84-.52,.84-.02,0-.04,0-.06,0Z"/><path class="cls-4" d="M28.9,13.66c-.17-.07-.32-.17-.47-.28-.01,0-.03-.02-.05-.04-.29,.01-.49-.28-.63-.5-.53-.92-.76-2.03-.74-3.09-.25-.47,0-1.09-.01-1.63,.14-.8,.05-1.81,.57-2.46,.06-.22,.07-.45,.18-.67-.13-.32-.6-1.19,.05-1.17,.35,.25,.83,1.32,1.09,1.81,.85-.39,1.46,2.62,1.44,3.21,.31,.49,.07,1.14,.15,1.69,0,.39,.18,.89-.15,1.2-.05,.46,.06,1.33-.57,1.37-.05,.08-.12,.14-.22,.18-.03,.01-.06,.02-.1,.02-.04,.19-.22,.39-.42,.39-.05,0-.09,0-.13-.03Z"/><path class="cls-4" d="M22.77,14.92c-.65-.91-1.15-2.06-1.32-3.17-.63-1.04,.21-1.49,.97-.51,.66-.16,.78,.93,1.05,1.36,.14,.52,.8,1.53,.02,1.8-.01,.03-.04,.06-.06,.09-.02,.02-.04,.04-.07,.06,0,.23-.18,.45-.39,.45-.06,0-.13-.02-.2-.07Z"/><path class="cls-4" d="M16.15,17.58c-.05-.05-.1-.1-.15-.15-.45,.42-.76-.37-1.01-.65-.36,.1-.51-.38-.73-.57-.49-.71-1.35-1.37-1.46-2.25-.33-.58-.68-1.1-1.26-1.45-.26-.15-.65-.31-.61-.68-.13-.25,0-.68,.33-.64,.44,.19,.75,.51,1.17,.72,.13-.21,.37-.13,.53-.02,.46-.09,.91,.31,1.36,.42,.31-.34,.72,.11,1.01,.27,.43-.15,.79,.35,1.1,.59,.05-.01,.11,0,.17,.02,.21,.09,.37,.29,.5,.49,.31,.17,.32,.56,.51,.82,.17,.38,.55,.8,.3,1.22,.08,.38,.22,.96-.26,1.13h0c-.06,.13-.19,.24-.33,.25,.03,.35-.34,.71-.66,.44-.06,.08-.18,.13-.29,.13-.08,0-.16-.03-.23-.08Z"/><path class="cls-4" d="M15.21,23.04c-.1-.02-.19-.08-.28-.14-.56-.19-1.28-.4-1.55-1,.08-.05,.25-.03,.36-.07,0-.01,0-.03,0-.04-.16,0-.37,.03-.58,.07-.49,.09-1.03,.18-1.18-.32-.03-.18,.08-.4,.27-.43,.05-.11,.15-.19,.28-.2,.08,0,.15,0,.23,0,.16-.16,.4-.13,.63-.1,.17,.02,.35,.04,.5,0,.3-.42,.95,.15,1.25,.35,.07,0,.14,.03,.21,.06h0c.57-.07,.82,.42,.8,.92-.02,.47-.29,.93-.77,.93-.06,0-.12,0-.18-.02Z"/><path class="cls-4" d="M7.54,30.35c-.18-.08-.28-.25-.31-.44-.27,.02-.46-.25-.47-.51-.35,.13-.8,.51-1.1,.13-.57,.54-1.2-.09-.7-.65,1.77-.89,3.57-2.26,5.61-2.25,.53-.17,1.28-.57,1.76-.12,.15,0,.29,.01,.44,.06,.02,0,.04,0,.06,.02,.48-.15,1.08,.02,1.12,.58,.46,.07,.72,.7,.51,1.1,.5,.51-.05,.86-.49,1.09-.22,.15-.46,.45-.75,.39-.06,.03-.13,.05-.19,.06-.09,0-.18-.01-.24-.06-.2,.2-.55,.37-.8,.15-.31,.17-.8,.39-1.01-.03-.37,.19-.95,.65-1.23,.1-.34,.22-.9,.57-1.12,.02-.29,.12-.6,.38-.92,.38-.05,0-.1,0-.15-.02Z"/><path class="cls-4" d="M11.58,36.4c0-.81,.95-1.35,1.44-1.93,.31-.2,.7-.82,1.07-.49,.23-.17,.52-.59,.83-.32,.68-.43,1.01,.54,.79,1.06-.18,.23-.67,.84-.97,.77-.26,.2-.54,.68-.92,.48-.27,.26-.68,.79-1.03,.36-.02,.02-.05,.04-.08,.06-.04,.03-.09,.04-.13,.05l-.02,.02c-.08,.06-.18,.08-.27,.06-.08,.14-.22,.21-.35,.21-.16,0-.31-.11-.35-.32Z"/><path class="cls-4" d="M12.57,46.42c-.17-.32-.03-.67,.13-.96,.29-.67,.5-1.38,.86-2.03-.13-.65,.44-1.21,.69-1.78,.49-.72,.8-1.7,1.55-2.18,.38-.41,.84-1.15,1.48-.96,.21-.1,.49-.17,.7-.04,.34-.13,.82-.1,.9,.33,1.08,.01-.19,3.14-.94,2.59-.46,.5-.76,1.79-1.56,1.67-.36,.37-.67,1.31-1.29,1.1-.23,.31-.48,.97-.95,.77-.26,.39-.66,1.71-1.19,1.71-.12,0-.25-.07-.39-.23Z"/><path class="cls-4" d="M21.85,45.58c-.08-.1-.12-.22-.11-.35,0-.12,0-.24,.02-.36-.32-.8,.18-1.77,.41-2.57,.12-.27,.24-.76,.61-.7,.3-.57,.82-.05,.7,.43,.3,.73-.28,2.08-.66,2.73-.04,.11-.08,.2-.17,.27-.08,.06-.18,.08-.26,.06,0,.21-.14,.58-.35,.58-.06,0-.12-.03-.19-.09Z"/><path class="cls-4" d="M29.61,53.03c-1.71-1.72-2.36-4.41-2.53-6.81-.45-.55,.66-4.27,1.57-3.31,.14-.13,.34-.2,.52-.14,.2-.12,.43,.01,.52,.2,.37,.19,.26,.66,.29,1.01,.43,.37,.08,1.03,.13,1.52-.14,1.06-.05,2.14-.24,3.18,.04,.59,.31,1.29-.05,1.82,.09,.44,.34,.92,.16,1.36,.12,.3,.29,.6,.3,.92,0,.25-.18,.42-.38,.42-.11,0-.22-.06-.3-.18Z"/><path class="cls-4" d="M35.48,45.59c-.22-.17-.36-.43-.52-.64-.25,0-.41-.27-.56-.45-.4-.26-1.89-2.93-.61-2.66,.76-.59,1.81,2.12,1.84,2.7,.15,.22,.44,.31,.51,.57,.1,.22-.14,.45-.36,.36-.05,.09-.13,.14-.21,.14-.04,0-.07,0-.11-.03Z"/><path class="cls-4" d="M46.15,45.44c-.61-.16-1.21-.36-1.81-.57-.38,.9-1.6-.2-2.16-.45-.5,.38-.97-.39-1.37-.64-1-.92-2.23-1.85-2.54-3.23-.3-.5-.29-1.14,.18-1.52-.02-.32,.19-.77,.57-.67,.03-.02,.06-.03,.1-.04,0,0,.01,0,.02,0,.08-.19,.25-.34,.46-.34,.28-.25,.61,0,.83,.19,0,0,.02,0,.03,0,.05,0,.09,0,.14,0,.34-.32,.61,.17,.83,.39,.62,.72,2,1.55,2.02,2.58,.34,.67,1.69,1.03,1.36,1.92,.15,.15,.3,.3,.4,.49,.02,.03,.03,.06,.04,.08,.25,.21,.61,.37,.67,.72,0,0,0,0,0,0,.23-.39,1.45,.27,.83,.69,.05,.29-.15,.47-.39,.47-.07,0-.14-.02-.22-.05Z"/><path class="cls-4" d="M44.16,35.71c-.86-.05-1.79-.47-2.16-1.3-.17-.5,.34-.9,.81-.7,.6-.32,2.05-.05,2.03,.8,.29,.03,.46,.19,.61,.41,.04,.06-.06,.12-.09,.16-.02,.13-.09,.24-.21,.29-.07,.03-.14,.05-.22,.05-.1,.24-.36,.3-.6,.3-.06,0-.11,0-.16,0Z"/><path class="cls-4" d="M45.28,30.46c-.18-.04-.31-.16-.42-.3-.04-.04-.07-.09-.09-.14-.05-.02-.1-.05-.14-.09-.05-.04-.09-.09-.13-.13-1.73-.45-.63-3.15,.9-2.98,.78-.43,1.75-.34,2.55-.01,.18,.01,.38,0,.58-.03,.43-.05,.87-.1,1.14,.23,.37-.06,.89-.16,.99,.33,.17-.09,.33-.24,.53-.23,.26-.14,.51-.43,.82-.43,.39-.13,1.18-.99,1.4-.33,.05,.39-.42,.5-.67,.7-.69,.37-1.23,1.04-1.93,1.33-.51,.23-1.09,1.06-1.65,.86-.31,.13-.59,.39-.93,.39-.62,.27-1.34,.93-2.03,.69-.23,.08-.47,.17-.7,.17-.07,0-.14,0-.2-.02Z"/><path class="cls-4" d="M42.64,23.25c-.06,0-.11,0-.16-.03-.07-.03-.14-.06-.2-.11-1.21,.03-.66-1.53,.11-1.84,.38-.23,.81-.28,1.14-.57,.39-.25,1.09-.59,1.39-.05,.25-.16,.37-.55,.7-.58,.24,0,.35,.31,.3,.5-.32,.73-.94,1.3-1.39,1.94-.11,.16-.32,.38-.52,.26-.13,.16-.3,.34-.52,.28-.18,.12-.4,.26-.62,.26-.07,0-.15-.02-.22-.06Z"/><path class="cls-4" d="M39,18.07l-.1-.13c-.34,.19-.75-.03-.85-.39-.38-1.74,1.07-3.66,2.55-4.43,.75-.83,1.61-1.75,2.59-2.27,.16-.24,.36-.63,.7-.46,.16-.25,.3-.63,.65-.57,1.01-.15,.12,2.02-.04,2.51,.23,.76-.54,1.46-.82,2.12-.33,.43-.49,1.18-1.05,1.35-.45,.49-1.95,3.06-2.58,2.06h0c-.21,.13-.48,.34-.73,.34-.11,0-.22-.04-.32-.15Z"/><path class="cls-4" d="M34.8,15.57c-.06-.04-.1-.06-.15-.11l-.02-.02c-.86-.14-.97-3.06,0-3.05,.27-.54,.06-1.14,.22-1.68,.48-.61,.76,.3,.68,.73,.64,.25,.25,1.22,.37,1.76-.08,.55,.17,1.63-.44,1.87-.04,.24-.27,.54-.53,.54-.05,0-.09,0-.13-.03Z"/></g><g class="cls-2"><path class="cls-7" d="M23.09,14.45s-.01,0-.02,0c.26-.03,.54-.19,.69-.38,.01-.06-.02-.25-.02-.28-.24-1.25-1.01-2.32-2.16-2.85,.69,1.01-.08,3.4,1.51,3.51Zm-.44,1c-1.95-.76-1.12-3.56-2.33-5.04-.28-.01-.46-.33-.26-.56-.06-.18-.2-.37-.2-.53,.77,.12,1.22,.82,1.95,1.05,2,.54,4.31,5.08,1.08,5.08-.08,0-.16,0-.24,0Z"/><path class="cls-7" d="M16.55,17.27c.83-.07,1.39-.83,1.31-1.64-.34-2.85-4.61-3.58-6.95-3.94,2.58,1.12,2.51,5.39,5.64,5.58Zm-1,1.07c-1.77-.67-2.69-2.45-3.48-4.03-.73-1.21-2.14-1.68-2.99-2.79-.14,0-.28,0-.43,0-.32,0-.32-.59,0-.59,2.22,.13,4.5,.09,6.62,.86,1.46,.55,3.15,1.39,3.5,3.04,.57,1.68-.58,3.74-2.26,3.74-.31,0-.63-.07-.97-.23Z"/><path class="cls-7" d="M11.85,21.3c1.3,.2,2.41,1.18,3.67,1.35,1.02-.11,.17-1.09-.26-1.37-.42-.24-.89-.33-1.35-.33-.7,0-1.41,.19-2.05,.35Zm3.23,2.58c-2.39-.79-4.82-2.28-7.35-1.6,.95-.68,2.01-1.03,3.13-1.26,1.54-.54,3.49-1.22,4.95-.16,1.44,.89,1.23,3.03-.49,3.03-.08,0-.16,0-.24-.01Z"/><path class="cls-7" d="M5.09,29.34h.25c.91,0,1.83,.12,2.73,.22,1.37,.17,2.74,.34,4.12,.13h-.08c1.03-.13,2.9-.32,2.28-1.74-.12-.4-.32-.81-.74-.97-.66-.25-1.32-.35-1.97-.35h-.01c-2.36,0-4.64,1.41-6.58,2.71Zm6.59-3.44c1.65-.09,3.4,.63,3.58,2.47,.32,3.24-4.34,2.9-7.65,2.57-1.03-.11-1.93-.21-2.5-.2-1.2,.1-2.33,.71-3.33,1.14,2.36-3.04,5.94-5.8,9.91-5.97Z"/><path class="cls-7" d="M11.9,36.28c1.31-.5,3.07-.71,3.74-2.12h0c-.25-.3-.52-.42-.82-.42-1.12,0-2.44,1.76-2.92,2.54Zm-1.02,.63c.08-.07,.16-.14,.24-.21,.73-1.53,1.8-3.24,3.57-3.63,1.36-.09,2.08,1.38,1.08,2.37-1.46,1.73-4.12,1.68-5.77,3,.2-.56,.44-1.12,.89-1.53Z"/><path class="cls-7" d="M12.86,46.28c1.45-2.82,4.94-3.72,6.1-6.62,.15-.51-.52-.94-.95-.99h-.06c-3.25,0-4.37,5.09-5.09,7.61Zm-.82,3.68c0-.32,0-.65,0-.97-.32-.82,.28-1.94,.35-2.8,.57-2.76,1.46-5.73,3.57-7.71,1.28-1.15,3.87-.7,3.83,1.29-.13,.99-.78,1.83-1.41,2.56-.88,1.01-1.98,1.84-2.99,2.69-1.39,1.42-2.49,3.21-3.33,4.95,0,0,0,0,0-.01Z"/><path class="cls-7" d="M22.69,41.81c-.95,1.03-.79,2.54-.65,3.81,.51-1.23,1.69-2.45,1.47-3.81-.08-.13-.23-.19-.38-.19-.16,0-.33,.07-.44,.19Zm-1.08,6.25c.18-1.9-.65-3.83,.04-5.66,.24-.67,.75-1.52,1.57-1.45,2.7,.89-1.08,5.51-1.59,7.12,0,0,0,0-.01-.01Z"/><path class="cls-7" d="M28.22,43.01c-.57,.27-.93,.81-1,1.42-.5,3.14,.81,6.23,2.77,8.62-1.05-2.8,.09-5.71,.07-8.52,.03-.82-.51-1.67-1.27-1.67-.18,0-.38,.05-.58,.16Zm2.37,11.22s-.04-.04-.06-.06c-2.76-2.02-4.79-6.95-3.77-10.45,.39-1.11,1.78-1.96,2.88-1.34,1.15,.67,1.14,2.16,1.07,3.32-.18,1.94-.56,3.88-.25,5.82,.14,1.08,.72,2,.81,3.05-.27-.03-.5-.14-.69-.33Z"/><path class="cls-7" d="M33.47,42.08c-.08,.09-.09,.27-.07,.37,.23,1.05,1.1,1.77,1.9,2.41,.18,.14,.36,.29,.54,.43-.53-.95-.46-2.21-1.31-2.98-.19-.19-.46-.38-.71-.38-.12,0-.24,.05-.34,.16Zm-.47,.79c-.23-.59-.01-1.44,.7-1.53,.92-.06,1.52,.89,1.93,1.58,.42,1.49,1.17,2.81,2,4.04-1.82-.83-3.87-2.14-4.63-4.08Z"/><path class="cls-7" d="M39.15,38.25c-3.51,3.33,3.97,7.01,6.88,6.66,.13,0,.26,0,.4,0-2.47-1.46-3.58-6.72-6.66-6.72-.19,0-.4,.02-.62,.06Zm-1.39,1.47c.53-3.37,3.74-2.22,5.34-.32,1.51,1.81,2.8,3.86,4.73,5.24,.17,.16,.3,.28,.49,.4-.23,.26-.69,.34-1.04,.27-.03,.11-.1,.19-.22,.19-.19,0-.38,.01-.58,.01-3.61,0-8.49-1.74-8.71-5.8Z"/><path class="cls-7" d="M44.1,35.4c.47-.06,.97-.18,1.38-.38-.87-.32-1.5-1.15-2.41-1.28-2.23,.16-.22,1.93,1.02,1.67Zm-.82,.58c-2.74-.69-1.8-3.73,.8-2.69,.86,.44,1.65,1.05,2.59,1.33,.15,.06,.4,.05,.49,.13-.23,.17-.48,.31-.77,.36-.67,.59-1.57,.94-2.47,.94-.21,0-.43-.02-.64-.06Z"/><path class="cls-7" d="M44.82,27.14c-.41,.13-.81,.28-1.03,.65-.05,.25,.06,.54,.17,.78,.53,1.05,1.72,1.5,2.84,1.34,2.58-.54,4.92-2.15,6.88-3.84-1.73,1.25-3.96,1.76-6.04,1.22-.58-.17-1.21-.31-1.83-.31-.34,0-.67,.05-.98,.15Zm.37,3.57c-2.27-.51-3.38-3.96-.55-4.55,1.34-.47,2.69,.06,4.02,.23,1.8,.18,4.28-.69,5.67-.79,.48,.56-.99,1.4-1.35,1.79-2.06,1.36-4.31,3.4-6.88,3.41-.3,0-.61-.03-.92-.09Z"/><path class="cls-7" d="M43,23.03c1.38-.25,2.3-1.62,2.85-2.8-1.04,.98-2.83,.7-3.71,1.9-.11,.19-.17,.39-.08,.58,0-.01-.01-.03-.02-.05,.16,.37,.61,.37,.96,.37Zm-.85,.6c-.82-.26-.94-1.36-.49-2,1-1.4,2.88-1.5,4.37-2.01,.03-.18,.25-.3,.43-.15,.03-.01,.06-.02,.03,.04-.17,1.72-1.88,4.2-3.78,4.2-.19,0-.37-.02-.56-.07Z"/><path class="cls-7" d="M38.07,16.78c-.06,.89,.63,1.21,1.42,1.08,1.35-.05,2.3-1.14,3.09-2.1,1.41-1.68,2.16-3.77,2.19-5.91-1.62,2.85-5.96,3.56-6.7,6.92Zm.48,2.03c-.8-.18-1.22-1.03-1.24-1.79,.09-3.17,3.6-4.48,5.63-6.31,.95-.93,1.95-2.07,1.75-3.46-.02-.17,.12-.41,.32-.32,.06-.14,.04-.33,.13-.39,.06,.62,.12,1.25,.12,1.88,.36,3.8-1.81,10.41-6.34,10.41-.12,0-.24,0-.36-.01Z"/><path class="cls-7" d="M34.75,16.08c-2.74-1.15-.55-3.96,.15-5.76,.38,1.46-.71,2.43-.9,3.7-.04,.78,.93,1.76,1.54,.98,.5-1.4,.05-3.11-.45-4.45-.09-.3-.44-.66-.16-.95,.12-.09,.28-.04,.34,.09,.7,1.42,2.28,6.38-.38,6.38h-.13Z"/><path class="cls-7" d="M27.34,11.88c.32,.62,.69,1.44,1.45,1.51h-.06c1.77-.06,1.84-1.94,1.71-3.26-.18-2.29-1.23-4.54-2.83-6.19,.75,2.67-1.47,5.4-.28,7.94Zm.92,2.33c-2.18-1.38-2.31-4.44-1.56-6.68,.41-1.51,.34-3.02,.04-4.52-.21-.25-.7-.44-.52-.82,.06-.12,.22-.19,.33-.09,1.3,1.22,2.6,2.53,3.47,4.11,1.2,2.15,2.37,8.05-1.19,8.05-.18,0-.36-.01-.57-.05Z"/><path class="cls-7" d="M18.42,26.17c-1.05,5.16,2.54,10.71,7.62,11.99,.63,.17,1.27,.29,1.84,.34,.7,.06,1.39,.06,2.09,0h-.08c.65-.05,1.28-.17,1.9-.33,0,0-.02,0-.03,0,5.16-1.34,8.59-6.75,7.62-11.92-.36-1.97-1.27-3.78-2.27-5.47-2.2-2.29-5.11-3.37-7.98-3.37-4.94,0-9.76,3.17-10.71,8.75Zm9.96,13.75c-14.21-1.01-14.68-21.51-.6-23.25,3.38-.27,7.51,1.07,9.5,3.88,7.54,6.55,1.45,19.4-7.99,19.4-.3,0-.61-.01-.91-.04Z"/><path class="cls-7" d="M22.27,26.34c-.25-3.8,3.24-5.15,4.16-.94,.03,1.34-.79-.35-.9-.76-.23-.51-.55-1-1.1-1.14-.92-.01-1.4,1.02-1.53,1.79-.18,.44,.18,1.24-.35,1.4-.18,0-.28-.19-.28-.35Z"/><path class="cls-7" d="M31.59,26.09c-.18-2.13,1.57-4.57,3.55-2.47,.6,.73,1.03,1.78,.83,2.73-.2-.11-.35-.39-.48-.59-.33-.98-.8-2.15-1.97-2.23-.8,.13-1.14,1.06-1.29,1.74-.15,.37,.16,1.08-.35,1.19-.19,0-.3-.2-.3-.37Z"/><path class="cls-7" d="M23.72,33.42c.84-.9,2.15-1.53,2.62-2.81,.23-.4,.67,.06,.47,.38-.51,1.06-1.42,2.47-2.7,2.47-.13,0-.25-.01-.39-.04Z"/><path class="cls-7" d="M33.55,32.32c-.58-.35-1.78-1.34-1.28-2.06,.38-.26,.54,.35,.7,.57,.67,.78,1.72,1.01,2.58,1.49-.24,.22-.57,.31-.9,.31-.38,0-.79-.12-1.1-.31Z"/><path class="cls-7" d="M27.62,33.79c-.65-.19-2.18-.6-1.93-1.49,.09-.18,.3-.26,.47-.13,1.4,1.13,3.56,.99,5.14,.39,.45-.12,1.24-1.1,1.6-.53-.2,1.46-2.16,1.9-3.79,1.9-.57,0-1.1-.06-1.5-.14Z"/></g></g></g></svg>