<?xml version="1.0" encoding="UTF-8"?><svg id="Layer_1" xmlns="http://www.w3.org/2000/svg" viewBox="0 0 56.69 56.69"><defs><style>.cls-1{fill:#fff;opacity:0;}.cls-2{fill:#f68b1f;}.cls-3{fill:#f57f20;}.cls-4{fill:#ed2024;}.cls-5{fill:#f7ec13;}.cls-6{fill:#65cbe4;}.cls-7{fill:#010101;}</style></defs><g id="Insekt"><rect class="cls-1" x="0" y="0" width="56.69" height="56.69"/><g><g><g><path class="cls-4" d="M55.05,10.02c-.35-.03-.58,.26-.73,.54-.66,.59-1.08,1.44-1.59,2.17-.18,.36-.51,.71-.43,1.13-.45,.75-.9,1.5-1.27,2.3-.44,.13-.5,.72-.71,1.08-.01-.04-.03-.09-.06-.12-.08-.99,1.37-5.95,.13-5.92-.94-.09-.73,1.48-.86,2.12-.1,1.6-.27,3.18-.33,4.76,0,.4-.05,.8-.11,1.2-.47-.62-1.4-1.28-1.67-1.71-.02-.1-.05-.19-.1-.27-.1-.15-.2-.3-.31-.44-.06-.68-.79-1.1-1.17-1.62-.19-.17-.38-.51-.67-.44-.26-.46-.86-.29-.85,.23-.07,.05-.13,.11-.16,.18-.02,.04-.04,.08-.05,.12-.21-.15-.48-.01-.54,.22-.16,.62,.45,1.15,.76,1.65,.46,.51,.82,1.08,1.14,1.67-.33,.22-.68,.6-.91,.74-1.47,.79-2.97,2.19-4.39,3.23-.14-.11-.33-.12-.48,0-1.73,1.4-3.46,2.8-5.03,4.39-.45,.2-.75,.67-1.14,1-.33,.06-.56,.38-.8,.58-1,.55-1.96,1.59-2.38,2.67-.06,.07-.13,.15-.17,.23-.09,.19-.1,.42,0,.61,.08,.16,.23,.26,.39,.26,.07,0,.15-.02,.21-.07,.33-.03,.59-.27,.85-.51,2.37-.6,4.84-.81,7.3-.78,.1,.21,.27,.31,.45,.37-.09,.26-.07,.58,.12,.77,.46,.59,.62,1.34,.76,2.09,.2,1.36,.64,2.9,.45,4.31-.25,.31-.47,.91-.54,1.46-.81-.66-2.07-1.3-2.41-1.73-1.49-1.55-3.5-2.7-5.12-4.17-.64-.46-2.5-2.58-2.41-.61-.47,.34-.2,.96,.21,1.21,.95,1.05,2.22,1.95,3.36,2.81,1.73,1.51,3.34,3.21,5.12,4.64,.04,.01,.08,.02,.12,.02h0c.13,.32,.35,.63,.5,.84,.29,.3,.49,.74,.81,1.01-.76,.02-.86,1.53-1.39,2.01-.08,.02-.16,.06-.23,.14-.13,.14-.24,.3-.34,.46-.56,.27-.83,.97-1.23,1.43-.53,.19-1.11,.7-.86,1.32-.02,.11-.02,.23,0,.33,.05,.21,.25,.47,.49,.46,.27,.67,.91,1.18,1.54,1.49,.17,.07,.32,.1,.44,.1,.17,0,.29-.08,.38-.18,.09,0,.17,0,.26-.02,.09,.05,.19,.07,.3,.08,.14,.14,.32,.19,.5,.19,.22,0,.44-.07,.63-.13,.71,.26,1.4-.32,1.99-.67,1.03-.43,1.72-1.52,2.6-2.23,.4-.08,.54-.55,.75-.84,.88-1.21,1.57-2.61,1.73-4.13,.11-.1,.18-.23,.22-.37,.02-.07,.03-.13,.04-.2,.17-.19,.21-.48,.22-.74,0-.04,0-.07,0-.11,.26-1.44-.36-3.43-.67-4.91,.06-.57,.01-1.28-.5-1.64-.4-.59-.58-1.58-1.32-1.8-.15-.15-.32-.27-.52-.26-.22-.24-.51-.56-.87-.4-.1-.07-.21-.13-.33-.18-.07-.03-.16-.03-.23-.02-.61-.15-1.2-1.17-1.81-.83-.16-.06-.29-.05-.4,0-.1-.2-.2-.4-.32-.59-.05-.14-.15-.27-.27-.37,.05,.01,.11,0,.16,.02,.54,.42,1.19,.36,1.84,.65,.53,.48,1.46,.21,2.07,.66,.1,.24,.31,.42,.56,.45,.06,.02,.11,.02,.16,.02,.71,0,1.06-1.25,1.4-1.76,.4-.11,.74-1.84,.37-2.33,.38-1.22,.11-3,.81-4.19,.35-.9,.63-1.83,.92-2.75,.08-.05,.15-.11,.19-.2,1.25-2.96,2.94-5.77,4.27-8.67,.5-1.09,1.29-2.01,1.8-3.06,.08-.4-.38-.83-.7-.47Zm-8.43,8.56s.06,.04,.1,.05c.1,.05,.2,.03,.29-.03,.01,.01,.02,.02,.03,.04-.15-.01-.27,.09-.35,.22-.01,.02-.02,.04-.03,.06-.03-.07-.04-.14-.07-.21,.02-.04,.03-.09,.03-.13Zm-6.03,13.05h0l.04-.02s-.02,0-.03,.02Zm1.59,11.48c.48-1.23,.64-2.67,.73-3.99-.11-1.53-.13-3.1-.46-4.59,.16,.06,.32,.1,.46,.16,.98,1.16,1.75,2.42,2.28,3.85-.09,3.85-.06,7.56-3.42,10.11-.23-.04-.45-.03-.67-.01-.26,.01-.52,.02-.77-.04,.06-.19,.12-.38,.19-.54,.35-1.38,1.04-2.69,1.35-4.07,.16-.26,.23-.62,.31-.88Zm3.52-13.85c-.42-.21-.91-.19-1.38-.18-.17,0-.33,.01-.49,.01-.21,0-.43,0-.64-.01-.76-.02-1.57-.04-2.21,.31-2.16-.05-4.32,.04-6.43,.44,.3-.3,.53-.74,.47-1.13,.73-.61,1.36-1.4,2.12-1.96,.84-.26,2.02-1.74,2.92-2.33,.03-.04,.09-.07,.13-.11,.16-.09,.31-.21,.47-.3,1.38-.48,2.51-1.66,3.88-2.22,.56,.03,1.04-.46,1.53-.68,.13-.05,.26-.14,.37-.24,.41,1.3,.39,2.66,.29,4.02,.02,.13,.08,.26,.18,.35,0,.08,.01,.17,.03,.25-.07,.34-.14,.67-.2,1.01-.01,.8-.4,1.89-.26,2.72-.25-.06-.53-.03-.78,.04Z"/><path class="cls-4" d="M26.59,33.02c-.07-.25-.34-.44-.59-.32-.09-.07-.19-.1-.29-.08-.89,.41-1.43,1.29-2.24,1.84-1.59,.86-2.99,2.15-4.47,3.2-.4,.38-1.03,.61-1.2,1.16-.22,.25-.84,.65-1.45,1.1,.03-1.24,.1-2.49,.03-3.71,.18-1.06,.47-2.12,.63-3.17-.03-.17-.12-.35-.26-.44,.08-.26,.12-.69,.01-.97,.48-.02,.96-.02,1.44,.02,1.13,.47,2.42,.39,3.71,.31,1.1-.07,2.21-.14,3.21,.14h0c.14,.1,.27,.22,.41,.32,.08,.06,.16,.08,.23,.08,.07,0,.13-.02,.18-.05,.02,0,.04,0,.06,0,.16-.02,.28-.16,.33-.31,.12-.08,.2-.23,.23-.36,.05-.21,.01-.44-.13-.6,.08-.07,.14-.17,.17-.27,.34-.18,.23-.9-.21-.75-1.46-1.48-3.2-2.82-4.93-3.89-.16-.11-.32-.22-.48-.33,.06-.36-.21-.65-.48-.85-1.78-1.32-3.71-2.46-5.32-3.99-.91-.92-1.87-1.81-2.86-2.67,.06-.13,.1-.26,.14-.4,.21-.02,.45-.11,.67-.36,.7-.52,2.2-1.95,.55-2.23-.03-.33-.36-.65-.68-.44-.42-.03-.76,.45-1.05,.71-.58,.39-1.13,.81-1.49,1.41-.75,.31-1.27,1.14-1.81,1.74-.06,.08-.13,.17-.2,.26-.07-1.31-.1-2.63,.08-3.92,.4-.73,.31-1.62,.54-2.43,.12-.35,.11-1.03-.42-.94-.02-.17-.12-.34-.28-.4-.12-.04-.24-.01-.33,.06,0,0-.01,0-.02-.01h-.03c-.58-.82-.91,.2-.88,.77-.18,.06-.28,.25-.31,.43-.14,1.34-.3,2.7-.35,4.05-.24-.49-.24-1.13-.6-1.54-.35-.69-.34-1.7-.91-2.2-.33-.65-.24-1.65-.8-2.13-.11-.88-.68-2.12-1.12-1.08-.54-.06-.59,.8-.38,1.14,.34,2.43,1.52,4.73,2.2,7.09,1.08,2.62,1.48,5.52,2.74,8.04,.37,1.55-.23,3.49,.52,4.9,.07,.13,.19,.19,.31,.19,.02,0,.04-.02,.07-.02-.02,.35,.23,.74,.79,.76,.3,.21,.69,.21,1.09,.21,.25,0,.51,0,.73,.06,.09,0,.18,0,.27,0s.18,.01,.27,.01c.23,0,.44-.04,.6-.21,.47-.18,1.02-.01,1.47-.24,.62,.04,1.25,0,1.87-.02-.17,.38-.19,.99-.31,1.27,0-.79-.57-1.21-.79-.28-.14-.03-.33,.02-.42,.15-.11-.41-.6-.43-.79-.07-.63-.07-.77,.88-1.11,1.28-.14,.23-.36,.62-.47,.98-.65,.48-.79,1.59-1.15,2.27-.3,.14-.41,.47-.52,.74-.82,.77-.74,2.18-.87,3.23-.13,2.62,.41,5.19,1.26,7.64,.1,.43,.45,.88,.78,.88,.1,0,.19-.05,.27-.14,.16,.19,.33,.36,.47,.52-.02,.27,.18,.46,.39,.6,.66,.42,1.23,1.13,1.99,1.35,.17,.11,.34,.23,.54,.28,.11,.03,.23-.02,.32-.09,.01,0,.02,0,.03,0,.15,.05,.3,.09,.45,.11,.17,.03,.34,.06,.51,.07h.04c.12,0,.24-.04,.32-.11,.65,.09,1.27-.14,1.87-.37,.39-.11,.8-.39,.71-.85,0,0,0-.02,0-.02,.27,0,.52-.3,.59-.54l.06-.03c.07-.04,.13-.1,.18-.17,1.06-.15,.3-1.45-.18-1.89-.98-1.1-1.45-2.46-2.06-3.78-.24-.62-.55-1.28-.82-1.94,.43-.38,.8-.89,1.27-1.18,.85-.38,1.55-1.09,2.34-1.57,.7-.13,1.26-.84,1.92-1.15,.87-.58,1.78-1.2,2.42-2.01,.45-.48,1.27-.72,1.46-1.37,.07-.05,.13-.11,.19-.17,.15-.15,.19-.39,.13-.6,.23-.21,.3-.55,.14-.82,.22-.28,.17-.73-.16-.92Zm-13.4-2.98c-.21,.03-.48-.03-.75-.08-.27-.05-.54-.1-.78-.08-.02-.01-.03-.03-.05-.03-.12-.36-.53-.4-.83-.55-.32-.15-.77-.41-1,0,.2-1.04,.29-2.08,.47-3.13,.03-.5,.4-1.17-.09-1.53,0-.41,.17-.84,.03-1.24-.03-.8,.5-1.76,.19-2.5,.03-.01,.05-.03,.07-.05,.04-.03,.05-.08,.08-.11,.03,.02,.05,.05,.09,.07-.1,.29-.01,.62,.24,.79,1.96,1.64,4.29,2.72,6.35,4.21,.95,1.23,2.58,2.1,3.86,3.02,.73,.5,1.4,1.07,2.07,1.65-.37,0-.75,0-1.12,0-.45,.01-.91,.03-1.36,.01-.22-.31-.61-.27-1-.23-.21,.03-.41,.05-.58,.02-1.15-.25-4.59-.29-5.88-.25Zm4.03,19.19s.02,.03,.03,.04c-.81-.14-1.63-.24-2.42-.52-1.38-1.3-2.21-3.08-3.26-4.6-.13-1.5-.22-3-.19-4.51,.55-1.15,1.14-2.31,1.48-3.55,.09-.18,.25-.45,.35-.71,.37-.35,.68-.8,1.02-1.19,.02,.37,.06,.74,.03,1.07-.42,.89-.21,1.99-.31,2.95,.09,.88-.34,1.99,.19,2.74,.16,.71-.04,1.51,.28,2.16,.28,.92,.06,2.31,.83,2.95,.35,.77,.43,2.04,1.25,2.41,.18,.29,.34,.7,.72,.75Z"/></g><path class="cls-3" d="M55.91,10.91c.34,0,.34,.64,0,.64s-.34-.64,0-.64Z"/><path class="cls-3" d="M52.35,18.78c-.26,2.04-1.29,4.41-2.6,5.96,.26-2.14,1.4-4.22,2.6-5.96Z"/><g><path class="cls-2" d="M44.37,17.66c-.36-.68-1.36-1.46-1.8-1.06-.3-.1-.59,.15-.8,.33-.98,.92-2,1.78-2.98,2.69-1.91,1.97-4.04,3.76-5.58,6.05-.17,.25-.31,.54-.22,.83-1.69,1.76-3.59,3.88-2.89,4.82,.05,.03,.11,.05,.16,.05,.16,0,.32-.12,.38-.29,.26-.64,.66-1.21,1.11-1.75,.51-.52,1-1.12,1.57-1.56,1.25-1.31,2.7-2.45,4.1-3.64,.65-.28,1.17-1.05,1.77-1.43,.02-.02,.04-.04,.06-.06,.17-.08,.34-.23,.49-.32,1.1-.44,1.96-1.47,2.92-2.17,.35,.14,.64-.25,.9-.43,.29-.21,.73-.43,.95-.73,.04,0,.07,.01,.11,.01,.56,0,.79-.86,.28-1.15-.13-.06-.31-.14-.5-.2Zm-1.54,.94c0-.11-.03-.22-.09-.32-.03-.05-.06-.09-.09-.12,.03-.04,.06-.08,.09-.11,0,.19,.05,.36,.17,.51-.03,.02-.05,.03-.07,.05Z"/><path class="cls-2" d="M26.16,28.64h0c-.49-1.85-2.29-3.09-3.54-4.47-.27-.19-.79-.92-1.17-1.11-.76-.91-1.62-1.75-2.48-2.53-.29-.21-.58-.61-.98-.54-.12-.13-.24-.26-.36-.39-.24-.27-.48-.53-.71-.8-.09-.9-1.09-1.5-1.63-2.18-.04-.58-.72-.72-1.05-.27-.6,.03-1.19,.67-.94,1.27-.39,.19-.48,.71-.24,1.05,.34,.33,.84,.49,1.21,.81,2,1.88,4,4.29,6.54,5.36,.15,.13,.29,.25,.44,.38,1.73,1.91,3.55,3.7,5.5,5.42,.08,.08,.18,.12,.27,.12,.12,0,.24-.06,.32-.18,.15-.21,.14-.55-.04-.74-.37-.42-.76-.82-1.16-1.21Z"/><path class="cls-2" d="M56.11,11.11s.01-.05,.02-.07c.05-.2-.03-.47-.24-.54-.21-.08-.38,.1-.43,.29-.2,.86-.59,1.68-.85,2.52-.58,1.11-1.39,2.16-1.72,3.32-.38,.72-.72,1.44-.96,2.19-.42,.75-.78,1.53-1.01,2.35-.64,.76-1.02,1.77-1.45,2.66-.47,1.36-1.16,2.93-1.07,4.33,.07,.06,.14,.09,.19,.09,.26,0,.37-.49,.41-.73,.26-.61,.54-1.27,.76-1.93,.41-.56,.75-1.26,1-1.97,.16-.31,.33-.63,.5-.94,.22-.1,.44-.43,.5-.72,.12-.33,.28-.65,.45-.98,.15-.27,.3-.54,.43-.81h0c.21-.4,.42-.79,.61-1.19,.11-.16,.19-.36,.26-.49,.09-.2,.2-.4,.3-.59,.46-.48,.8-1.82,1.04-2.18,.32-.8,.73-1.57,.97-2.4,.11-.28,.14-.66-.05-.9,.16-.37,.27-.76,.34-1.13,.01-.05,0-.11-.01-.17Z"/><path class="cls-2" d="M4.68,17.93c-.05-.11-.14-.19-.25-.22-.35-.87-.43-1.86-.92-2.66-.45-1.46-.89-2.95-1.28-4.42-.3-.37-.79,.1-.65,.47-.02,.04-.03,.07-.03,.11-.18,.21-.2,.47-.26,.73-.66,2.51,.3,5.47,1.61,7.66,.42,.79,.52,2.02,1.31,2.49,.44,.71,.46,1.91,1.21,2.32,.49,1.03,.76,2.24,1.35,3.18,.22,.43,.29,.94,.47,1.38,.08,.05,.15,.08,.21,.08,.86,0-1.27-5.79-1.33-6.4-.54-1.55-.98-3.14-1.43-4.71Z"/><path class="cls-2" d="M26.28,35.68c-.37-.3-.76,.19-1,.44-.68,.76-1.31,1.55-1.88,2.4-1.61,1.06-3.12,2.31-4.93,3.03-.32,.12-.56,.39-.53,.74-.97,.66-.2,1.82,.26,2.56,.47,.92,.69,2,1.28,2.85,.34,.6,.4,1.6,1.06,1.88,.06,.02,.11,.03,.16,.03,.44,0,.61-.68,.64-1.06,.3-.21,.33-.61,.47-.92,1.02-1.66,1.89-3.7,2.13-5.67,.53-1.48,1.49-2.81,2.04-4.24,.2-.39,.56-.81,.42-1.26,.14-.24,.12-.58-.1-.76Z"/><path class="cls-2" d="M39.37,43.72c-.16-.33-.47-.62-.72-.83-.73-.61-1.26-1.6-2.11-2-1.63-2.07-3.58-3.84-5.54-5.6-.08-.1-.23-.15-.35-.11-.36-.26-.81,.21-.69,.59,.14,.32,.36,.61,.56,.91h0c-.33,.21-.17,.62-.04,.89,.34,.79,.77,1.6,1.24,2.34,.66,2.43,1.83,4.77,2.9,7.06,.08,.43,.51,1.53,.92,1.66,.09,.16,.19,.32,.39,.33,.03,0,.06,0,.08,0,.05,.02,.09,.03,.14,.03,.2,0,.37-.21,.43-.38,.17-.5,.52-.96,.49-1.49,.04-.07,.08-.15,.11-.22,.04-.05,.09-.1,.14-.15,.54,.14,.83-.65,1.22-.93,.51-.25,.67-.89,1.1-1.28,.18-.6,0-.8-.29-.81Zm-1.93,.3s.04,0,.05,0c.06,.05,.12,.11,.19,.17-.11,.02-.22,.05-.29,.15,.01-.11,.03-.22,.05-.33Z"/></g><g><path class="cls-5" d="M48.73,15.18c.72-.93,.77-2.21,.99-3.33,.03-.61-.73-.71-.84-.09-.33,.08-.37,.48-.56,.7-.13,0-.25,.09-.32,.19-.03,.03-.05,.07-.06,.11-.09,0-.18,.02-.25,.06-.11-.11-.28-.16-.43-.1-.15,.06-.25,.18-.34,.32-.37,.14-.58,.59-.69,.95-.05,0-.09,.01-.14,.03-.51,.02-.43,.72-.08,.92,.79,.8,1.43,1.72,2.13,2.59,.06,.17,.13,.34,.26,.48,.08,.08,.16,.12,.24,.12,.25,0,.46-.34,.38-.61-.18-.76-.36-1.52-.3-2.33Z"/><path class="cls-5" d="M12.62,13.94c-.11-.15-.27-.25-.51-.21-.58-.3-1.23-1.25-1.89-1.07-.05,.03-.06,.09-.1,.14-.04-.39-.19-.6-.66-.18-.39,1.34-.38,2.8-.57,4.19-.12,.31-.12,.73,.2,.94,.06,.02,.12,.03,.17,.03,.34,0,.44-.37,.51-.77,.12-.05,.24-.14,.31-.31,.07-.13,.16-.24,.25-.36,.32,.15,.58-.21,.64-.5,.31,.06,.47-.2,.58-.46,.3-.18,.59-.35,.84-.35,.37,.11,.57-.22,.58-.55,0-.25-.11-.48-.34-.54Z"/><path class="cls-5" d="M23.64,32.58c-.26,.01-.52,.02-.74-.03-1.36-.38-2.8-.12-4.18-.3-.35-.05-.66,.12-.88,.37-.04-.05-.09-.09-.15-.11-.09-.04-.18-.02-.25,.03-.33-.08-.45,.29-.53,.54-.13,1.9,.17,3.89-.42,5.72,.04,.4,.17,.56,.33,.56,.24,0,.53-.34,.71-.77,.12,0,.23-.07,.3-.18,.03-.05,.06-.1,.09-.15,.57-.11,.82-.83,1.24-1.2,.56-.1,.89-.71,1.34-1.03,.55-.57,1.3-.88,1.94-1.34,.64-.41,1.32-.73,2.02-1.02,.14-.09,.25-.26,.27-.44,.05-.7-.5-.68-1.09-.66Zm-5.3,3.5c-.06,.07-.12,.14-.18,.21h-.08c-.02-.05-.04-.11-.07-.16-.02-.03-.04-.05-.06-.07,.01-.07,.03-.13,.04-.19,0,0,.02,0,.03,0,.12-.02,.21-.09,.31-.16,.03,.08,.08,.16,.14,.22-.05,.05-.09,.1-.13,.14Zm2.88-2.06c-.11,.08-.22,.15-.33,.23h-.03c-.1,.01-.19,.06-.28,.12,.04-.11,.07-.21,.1-.32,.25-.07,.51-.13,.76-.17-.08,.05-.15,.1-.23,.15Z"/><path class="cls-5" d="M39.62,32.76c0-.41-.33-.62-.69-.7-.34-.11-.75-.28-1.07-.09-.02,0-.03,0-.05,0l-.15-.02c-.67-.31-1.48-.25-2.26-.2-.33,.03-.66,.05-.96,.05-.18,.05-.39,.05-.6,.04-.45,0-.91-.01-1.05,.47-.07,.01-.14,.04-.2,.1-.02,.02-.04,.04-.06,.07-.39-.15-.83-.2-1.16-.14-.13-.06-.25-.04-.35,.02-.1-.04-.2-.05-.28,.03-.37-.15-.56,.12-.55,.38,0,.22,.15,.43,.45,.42h0c.12,.14,.31,.21,.45,.31,.62,.8,1.85,.96,2.7,1.5,1.71,1.31,3.57,2.58,5.44,3.6,.31,.16,.46,.48,.73,.69,.08,.02,.14,.03,.2,.03,.62,0,.36-1.09,.24-1.52,.23-1.67-.69-3.36-.79-5.04Z"/></g><g><path class="cls-6" d="M22.79,30.03c-.03-.22-.22-.28-.4-.3-.29-.34-.91-.34-1.45-.4,0-.01,.02-.01,.02-.03,.07-.67-.61-.69-1.22-.7-.03-.01-.06-.03-.09-.04,.26-.62-.54-.84-.94-1.1-2.13-1.26-4.11-2.79-6.08-4.29-.27-.16-.56-.61-.89-.41-.13-.15-.27-.18-.39-.15-.16-.3-.39-.48-.59-.19-.33,.39,.11,1.42,.04,2.01-.11,1.08,.02,2.17-.29,3.22-.08,.23-.14,.6-.05,.85-.21,.17-.21,.6,.07,.7,.12,.04,.23,.06,.35,.08,.24,.19,.57,.19,.9,.19,.2,0,.4,0,.57,.05,.25,0,.52,.03,.78,.07,.48,.07,.95,.13,1.36-.03,1.35,.09,2.7,.09,4.05,.16h.08c.15,0,.3-.03,.42-.13l.05,.02c.78,.72,2.31,.83,3.35,1.12,.08,.04,.15,.05,.21,.05,.39,0,.57-.54,.14-.73Zm-11.16-4.2c0-.08,0-.15-.01-.23,.03,.01,.05,.04,.07,.05-.04,.05-.04,.12-.06,.17Z"/><path class="cls-6" d="M54.12,9.57c-.5-.18-1.05,.16-1.46,.46-.13,.03-.25,.06-.37,.07-.38,.02-.84,.19-.98,.48-.14-.03-.28,.01-.38,.26-.29,.59-.09,1.31-.1,1.94,.1,.65-.09,1.32,.02,1.96,.05,.13,.16,.26,.3,.28,.02,0,.04,0,.06,0,.1,0,.21-.05,.27-.12,.32-.63,.35-1.36,.59-2.03,.25-.2,.32-.55,.5-.8,.25-.1,.37-.36,.55-.54,.31-.11,.48-.43,.76-.59,.24-.22,.82-.31,.9-.71,.12-.4-.24-.87-.66-.67Z"/><path class="cls-6" d="M46.46,24.96c-.08-.66,.16-1.41-.1-2.02-.04-.51,.42-1.55-.17-1.78-.22-.03-.36,.17-.48,.32-.34,.46-.84,.72-1.27,1.09-.85,.08-1.57,.65-2.3,1.08-2.03,1.25-3.96,2.63-5.66,4.27-.52,.21-1.41,.68-.9,1.33,.09,.1,.19,.14,.3,.14s.22-.04,.32-.11c.09,0,.18-.02,.27-.06,1.53-.06,3.06-.59,4.62-.53,.32-.08,.68-.06,1.03-.04,.48,.03,.95,.05,1.34-.15,.64-.03,1.27,.02,1.89,.17,.15,.59,.92,.41,.92-.16,.21-.41,.09-.96,.04-1.4,.36-.63,.08-1.46,.15-2.17Z"/><path class="cls-6" d="M44.47,39.32c-.11-1.32-.5-2.69-1.01-3.93-.1-.2-.34-.28-.51-.14-.2,.16-.21,.46-.1,.67-.03,.79,.55,1.55,.48,2.4-.53,1.78-.19,3.75-.86,5.54-.37,.6-.74,1.41-.67,2.13-.03,.06-.05,.13-.08,.19-.04,.12-.08,.24-.13,.36-.32,.37-.81,1.18-.59,1.68,.13,.17,.26,.24,.38,.24,.5,0,.94-1.17,1.16-1.53,.51,.05,.59-.63,.78-.98,.08,0,.16-.04,.23-.09,.52-.82,.59-1.92,1.05-2.81,.15-.25,.14-.6-.06-.82,.04-.29,.13-.56,.17-.85,.24-.29,.11-.68,.12-1.01,0-.36,.04-.86-.35-1.04Z"/><path class="cls-6" d="M15.47,47.65c.13-.15,.11-.38-.01-.52-.43-.48-.77-1.03-1.11-1.58,.44-.98-.44-2.52-.47-3.62-.16-1.57,.17-3.22-.09-4.75,.1-.48,.2-.98,.23-1.46-.01-.37-.5-.55-.67-.18-.3,.86-.62,1.72-.72,2.64-.12,.05-.2,.16-.24,.27l-.05,.14c-1.05,.77-.27,6.49,.83,7.15,.03,.1,.07,.2,.13,.28,.07,.09,.16,.16,.26,.18,.13,.19,.25,.38,.35,.59-.03,.53,.58,.84,.84,1.26,.45,.52,.88,1.12,1.55,1.36,.08,.05,.16,.07,.23,.07,.28,0,.5-.31,.34-.61-.43-.44-.97-.76-1.39-1.21Z"/><path class="cls-6" d="M6.68,10.98c.07-.51-.04-1.16-.7-.76-.07-.03-.14-.04-.22-.02-.05,.01-.1,.03-.14,.06-.32-.12-.75-.55-.98-.08-.13-.25-.44-.63-.66-.26-.13,.59,.37,1.16,.55,1.72,.57,1.11,.98,2.31,1.66,3.34,.1,.06,.18,.08,.24,.08,.31,0,.25-.62,.13-.89,.01-.47,0-.94-.03-1.41,.2-.28,.08-.64,.09-.96,.24-.19,.31-.62,.06-.82Z"/></g></g><g><path class="cls-7" d="M28.85,24.76c-2.23,4.9-2.81,9.93-1.3,15.13,.04,.46,.81,1.69,.15,1.78-2.43-5.04-2.83-12.58,1.15-16.91Z"/><path class="cls-7" d="M27.62,41.54c-.15-.63,.55-.51,.8-.84,2.07-4.04,1.32-8.93,.7-13.26-.24-1.06-.51-2.12-.42-3.22,.33,.34,.68,.85,.88,1.33,1.2,4.81,1.67,10.2-.03,14.95-.12,.45-.96,1.34-1.52,1.34-.18,0-.33-.09-.42-.3Z"/><path class="cls-7" d="M27.55,31.71c-.49-2.18,.37-4.37,.88-6.47,.06-.2,.29-.33,.48-.22,.2,.12,.24,.39,.17,.59-.63,2-.71,4.17-1.51,6.1,0,0-.01,0-.01,0Z"/><path class="cls-7" d="M28.61,25.97c-.58,3.18-1.54,6.4-1.52,9.59-.93-3.01-.3-7.11,1.52-9.59Z"/><path class="cls-7" d="M26.84,33.3c.16-1.83,.04-3.87,1-5.5,.07,2.22-.44,4.59-.29,6.84,.09,1.27,.33,2.64,.23,3.86-1.07-1.48-.96-3.45-.95-5.2Z"/><path class="cls-7" d="M27.49,40.36c-1.15-.89-1.15-8.42,0-9.28-.05,2.57-.36,5.19,.11,7.72,.03-.4-.02-.93,.07-1.26,.05,.6,.84,2.82-.14,2.82h-.04Z"/><path class="cls-7" d="M27.74,41.02s-.04-.05-.05-.08c-.06-.14-.08-.26-.09-.41-.12-.05-.22-.16-.27-.28-.39-1.39-.28-2.88-.35-4.32,.07-.43-.32-2.65,.47-2.1,.11,1.4,.05,2.9,.24,4.33,.07-1.04,.02-2.09,.11-3.13,.04-.14,.16-.28,.32-.25,.45,.2,.19,.86,.26,1.26,.06,.01,.12,.05,.17,.1,.07,.07,.11,.16,.11,.26,.03-.09,.06-.17,.14-.22,0-.01,.02-.02,.03-.02,.08-.29-.03-.8,.36-.88v-.31c-.36-.57-.02-1.39-.12-2.04-.18-2.34-.21-4.6-.39-6.91-.14,.17-.14-.34-.16-.44-.02-.24,.11-.7,.43-.56,.33,.27,.22,.81,.29,1.19,.5,1.62,.24,3.41,.4,5.1,.09,.08,.14,.22,.14,.34v.06c0,.48,0,1.01,0,1.5,.69-.12,.31,.86,.29,1.24-.31,1.05-.05,2.3-.49,3.26-.18,.61,.1,2.08-.63,2.25-.04,.33-.12,1.08-.6,.85-.05,.18-.21,.34-.37,.34-.08,0-.16-.04-.22-.13Z"/><path class="cls-7" d="M28.3,26.46c-.34-2.69,1.36-2.45,0,0,0,0,0,0,0,0Z"/><path class="cls-7" d="M28.82,24.37c.18,.96-.49,2-.9,2.75,.17-.9,.18-2.15,.9-2.75Z"/><path class="cls-7" d="M28.83,24.62c-.25,1.68-1.1,3.35-1.56,4.89,.04-1.67,.4-3.7,1.56-4.89Z"/><path class="cls-7" d="M28.6,24.36c.11-.2,.34-.29,.52-.14,.39,.34,.02,.8-.16,1.15-.83,1.49-1.16,3.59-2.11,4.82-.3-2.09,.85-4.03,1.74-5.82Z"/><path class="cls-7" d="M28.43,24.71c.11-.18,.32-.28,.5-.13,.46,.44-.2,1.02-.33,1.45-.85,2.09-1.64,4.38-1.98,6.53-.7-2.69,.63-5.48,1.81-7.85Z"/><path class="cls-7" d="M28.95,31.25c-.4-2.15,.09-4.33-.33-6.47-.08-.51,.59-.68,.67-.12,.35,2.2,.36,4.49-.33,6.61,0,0,0,0,0-.01Z"/><path class="cls-7" d="M29.36,30.54c-.58-1.87-.11-3.87-.74-5.72-.2-.42,.41-.87,.61-.36,.62,1.94,.92,4.18,.15,6.09,0,0,0,0,0,0Z"/><path class="cls-7" d="M28.21,38.46c-.14-.06-.22-.19-.26-.32-.01-.06-.02-.12-.03-.18-.57,.02-.41-.74-.4-1.1-.28-2.39,.07-4.91,.19-7.33,.13-.46-.05-1.38,.53-1.5,.16-.47-.13-1.49,.43-1.64,.13-.58-.47-1.6,.14-1.93,.21-.04,.34,.17,.37,.35,.39,1.79,.15,3.63,.15,5.43,.34,1.73-.06,3.62,0,5.4-.08,.51,.29,1.77-.53,1.71-.03,.37-.01,1.12-.5,1.12-.03,0-.07,0-.1,0Z"/><path class="cls-7" d="M27.53,38.96c-.08-2.79-.64-5.69,.13-8.42,.16-.45,.62-.37,.65,.11,.07,.81,.12,1.76,.04,2.51-.14-.42-.25-.84-.34-1.27-.04,.31,.01,.62,0,.94,.18,1.97,.18,4.06,.26,6.06,0,.29-.19,.45-.38,.45-.17,0-.33-.12-.36-.38Z"/><path class="cls-7" d="M27.22,26.47c-2.7-4.74-2.47-10.66-.25-15.45-1.24,4.35-1.49,9,.17,13.24,.1,.77,1.13,1.72,.61,2.35-.06,.05-.13,.08-.2,.08-.13,0-.25-.09-.33-.22Z"/><path class="cls-7" d="M29.7,26.66c-.31-.27-.07-.63,.08-.92,1.86-4.87,2.88-10.17,4.39-15.07-.55,4.69-1.5,9.38-3.13,13.8-.26,.7-.54,1.4-.89,2.07-.06,.11-.17,.19-.28,.19-.06,0-.12-.02-.18-.07Z"/><path class="cls-7" d="M33.59,11.04c-.23-.74,1.01-2.26,1.25-.89,0,.39-.11,1.06-.63,.96-.04,.18-.16,.26-.29,.26-.16,0-.32-.12-.33-.33Z"/><path class="cls-7" d="M26.78,11.69c-.57-.34-.28-1.68,.3-1.61,.75,.04,.61,1.67-.06,1.67-.08,0-.16-.02-.25-.07Z"/><path class="cls-7" d="M45.67,34.23c-3.92-1.75-8.13-3.08-12.41-1.83-.76,.12-1.5,.64-2.19,.13,.05-.56,.57-.87,1.07-.96,4.68-1.62,9.52-.43,13.82,1.63,.83-.14,1.09-1.22,1.42-1.81,1.16-3.04,2.1-6.15,3.95-8.86,4.67-8.13,9.07-18.01-4.51-9-6.08,4.37-12.27,9.35-15.84,16.04-.07,.14-.24,.19-.36,.1-.29-.28,.06-.67,.16-.96,2.15-4.43,5.86-7.89,9.47-11.16,15.93-13.38,21.84-11.01,10.28,8.08-1.28,2.02-2.08,8.62-4.75,8.62-.04,0-.08,0-.12,0Z"/><path class="cls-7" d="M39.35,53.07c-4.23-1.52-5.81-6.44-7.4-10.25-.08-1.19-4.37-8.81-1.12-5.19,2.49,4.34,3.09,10.07,7.14,13.39,2.52,2.16,5.76-.17,7.59-2.1,1.77-2.29,3-5.09,2.66-7.99-.27-2.02-.33-4.31-1.64-5.93-.27-.51-1.21-.81-1.03-1.4,.07-.13,.24-.21,.36-.1,3.06,2.22,3.2,6.53,3.05,9.99-.71,4.39-4.29,9.59-9.09,9.59-.18,0-.35,0-.53-.02Z"/><path class="cls-7" d="M5.92,27.59C3.97,22.39-.8,17.61,.37,11.71c.2-1.58,1.29-3.25,3.09-2.96,5.88,.74,10.35,5.21,14.27,9.3,2.69,2.6,5.26,5.33,7.46,8.37,.59,.75,1.22,1.5,1.63,2.38,.11,.2,.08,.49-.11,.64-.18,.15-.41,.06-.51-.14-2.68-3.57-5.64-6.91-8.88-10-3.5-3.67-7.29-7.45-12.27-8.95-1.29-.36-3.23-.76-3.59,.99-1,2.91,.24,5.82,1.57,8.36,1.24,2.59,2.8,5.06,3.86,7.72,.84,1.69,.93,4.58,3.31,4.58,4.78-.35,9.56-.95,14.34-.12,.59,.06,1.25,.2,1.48,.82-.35,.56-1.06,.46-1.61,.33-4.78-.9-9.56-.15-14.33,.11-2.94-.03-3.21-3.5-4.18-5.55Z"/><path class="cls-7" d="M15.28,53.23c-5.85-1.3-7.5-8.35-6.55-13.52,.7-2.51,2.14-4.76,3.4-7.02,.17-.22,.37-.4,.56-.58,.43-.3,.71,.45,.37,.7-.82,.77-1.1,1.92-1.63,2.9-.76,1.51-1.6,2.91-1.91,4.53-.72,4.82,1,11.42,6.66,11.98,2.58,.22,4.02-2.4,5.22-4.23,1.21-2.04,2.01-4.32,2.67-6.55,.37-1.03,.49-2.16,1.2-3.03,.25-.27,.61-.59,.9-.71-.33,1.38-.78,2.72-1.18,4.06-1.31,3.95-3.71,11.56-8.7,11.56-.32,0-.66-.04-1-.1Z"/><path class="cls-7" d="M31.78,29.69c-1.04-.45,15.42-14.06,13.68-10.54-4.74,3.05-9.23,6.68-13.31,10.58-.05,.05-.12,.08-.18,.08-.08,0-.15-.04-.2-.11Z"/><path class="cls-7" d="M15.85,21.87c-1.23-1.17-2.91-2.24-3.69-3.74,1.6,.04,2.52,1.84,3.76,2.68,2.37,2.05,4.86,3.94,7.28,5.95,.34,.39,2.72,2.04,1.59,2.18-2.96-2.36-6.05-4.61-8.94-7.07Z"/><path class="cls-7" d="M21.72,29.95l.04,.02c-2.78-1.88-5.51-3.89-8.19-5.9-1.26-.79-2.75-1.56-3.38-2.96,4.18,1.89,7.62,5.23,11.36,7.89,.3,.31,.84,.5,.86,.98-.03,.15-.11,.2-.21,.2-.16,0-.37-.13-.48-.23Z"/><path class="cls-7" d="M10.1,25.23c.07-1.36-.07-2.72,.1-4.07,.03-.21,.19-.43,.42-.39,.45,.13,.28,.66,.27,1-.11,2.55,.26,5.51-.83,7.86-.89-1.26,.1-3.02,.05-4.41Z"/><path class="cls-7" d="M20.61,30.86c-3.32-1.15-6.88-.11-10.23-1.12-.19-.04-.27-.25-.25-.41,.02-.17,.15-.35,.33-.31,1.57,.43,3.17,.39,4.78,.34,1.05-.03,2.11-.06,3.16,.05,.94,.19,2.03,.2,2.79,.83,.63,.54,.24,.63-.26,.63-.11,0-.22,0-.33,0Z"/><path class="cls-7" d="M34.44,29.83c-.56-1.31,10.78-9.49,12.06-8.81-2.53,2.34-5.89,3.64-8.48,5.95-1.1,.93-2.19,1.84-3.16,2.9-.06,.06-.13,.09-.2,.09-.09,0-.17-.05-.23-.13Z"/><path class="cls-7" d="M46.47,30.16c-.58-3.09-.07-6.46,.22-9.53,.31-.23,.41,.5,.38,.71-.2,2.92,.21,5.99-.58,8.83,0,0-.01,0-.01,0Z"/><path class="cls-7" d="M35.07,29.97c-.2-.01-.31-.2-.31-.38,.05-.46,.5-.42,.94-.39,.26,.02,.51,.04,.69-.03,2.75-.4,5.5-.89,8.3-.72,.73,0,1.44,.26,1.97,.76-.66,.29-1.4,.22-2.15,.16-.48-.05-.97-.09-1.43-.04-1.32-.04-2.63,.14-3.94,.32-1.18,.17-2.37,.33-3.57,.33-.17,0-.34,0-.5,0Z"/><path class="cls-7" d="M49.34,20.13c-.21-.03-.32-.27-.38-.44-.81-1.41-2.07-2.62-2.98-4-.22-.45-1.14-.83-.86-1.41,.1-.14,.27-.16,.39-.04,1.19,1.13,2.08,2.54,3.18,3.74-.19-1.89,.16-3.76,.84-5.53,.11,.22,.09,.59,.12,.87-.04,2.14-.61,4.29,.12,6.35,0,.23-.15,.46-.37,.46-.02,0-.04,0-.06,0Z"/><path class="cls-7" d="M43.02,16.45c-.14-.16-.15-.41-.03-.58,.11-.17,.33-.19,.47-.05,.83,.9,1.73,1.92,2,3.11-1.07-.55-1.66-1.63-2.44-2.48Z"/><path class="cls-7" d="M50.31,19.21c-.17-.09-.21-.31-.22-.48-.02-1.46,.43-2.89,.53-4.35,.17-.95-.21-2.09,.26-2.94,.1-.08,.18,.07,.23,.14,.31,1.05,.11,2.24,.08,3.33,.7-1.64,1.56-3.72,3.22-4.48-1.68,2.45-3.13,5.07-3.55,8.07-.07,.25-.12,.75-.42,.75-.04,0-.08,0-.13-.03Z"/><path class="cls-7" d="M47.78,31.22c-.76-5,2.34-9.57,4.1-14.03,.97-2.02,2.08-4.01,3.27-5.89,.1-.16,.3-.17,.43-.04,.13,.15,.13,.37,.03,.53-1.05,1.74-1.92,3.59-2.86,5.4-1.07,2.7-2.44,5.25-3.42,7.94-.66,2-.87,4.12-1.53,6.1,0,0,0,0,0-.01Z"/><path class="cls-7" d="M8.53,19.57c-.23-.14-.23-.41-.24-.62-.12-2.38-.03-4.98,1-7.12,.48,1.98-.55,3.96-.31,5.97,.37-.75,3.76-4.26,4.31-2.94,.03,.2-.07,.39-.26,.45-1.24,.4-2.15,1.45-2.99,2.42-.42,.54-.82,1.09-1.07,1.72-.07,.1-.18,.16-.29,.16-.05,0-.1-.01-.15-.05Z"/><path class="cls-7" d="M6.47,17.12c-.34-.2-.42-.64-.57-.96-.62-1.69-1.67-3.51-1.38-5.32,.71,1.49,1.2,3.13,1.86,4.68,.09-1.5,.19-3,.52-4.46,.06-.13,.19-.28,.34-.23,.16,.07,.2,.27,.19,.43-.21,1.09-.33,2.23-.39,3.29-.09,.81,.04,1.67-.21,2.45-.07,.09-.16,.14-.26,.14-.04,0-.07,0-.1-.01Z"/><path class="cls-7" d="M7.7,30.83c-.63-7.18-3.99-13.71-5.7-20.64,.58-1.47,1.66,3.79,1.84,4.2,1.69,5.47,4.79,11.1,4.3,16.9-.22-.05-.36-.27-.44-.46Z"/><path class="cls-7" d="M12.06,18.11c-.09-.29,.17-.47,.41-.54,.65-.33,1.36-.99,2.1-.8-.5,.8-1.36,1.29-2.23,1.6-.13,0-.25-.14-.27-.26Z"/><path class="cls-7" d="M15.9,40.07c.05-1.08,.34-2.13,.4-3.21,.13-1.23,.2-2.44,.33-3.66,.02-.18,.17-.38,.37-.34,.2,.04,.29,.28,.27,.46-.19,1.97-.23,3.9-.56,5.87,2.67-2.05,5.13-5.26,8.57-5.82-1.29,1.43-3.29,2.18-4.73,3.51-1.48,1.11-2.79,2.69-4.34,3.59-.18-.04-.3-.23-.31-.4Z"/><path class="cls-7" d="M19.86,48.81c-.89-.72-1.16-1.89-1.83-2.8-.47-1.1-1.47-2.26-1.24-3.49,2.43-2.23,5.82-3.22,7.9-5.92,.14-.14,.34-.12,.45,.04,.33,.73-1.15,1.51-1.56,2.08-1.76,1.8-4.23,2.64-6.13,4.24,.49,1.39,1.24,2.7,2.05,3.92,.41,.54,.73,1.29,.37,1.93h0Z"/><path class="cls-7" d="M40.12,40.11c-2.75-1.66-5.4-3.63-7.86-5.68-.47-.35-.18-1.25,.3-.7,1.89,1.58,5.63,4.13,7.75,5.4,.3-2.26-.76-4.38-.84-6.55,1.29,.2,2.6,7.62,.99,7.62-.1,0-.22-.03-.34-.09Z"/><path class="cls-7" d="M39.7,44.21c-1.7-1.77-3.33-3.6-5.15-5.24-.79-.67-1.66-1.24-2.36-2.01-.13-.14-.13-.37-.03-.51,.14-.2,.37-.12,.5,.05,2.84,2.16,5.59,4.58,7.88,7.3,.29,.44,.06,.94-.29,1.26-.73,.79-1.53,1.52-2.21,2.35-.56,.53-.83,1.6-1.67,1.67-1-.86,2.68-4.06,3.33-4.87Z"/><path class="cls-7" d="M42.23,34.84c-.02-.47,.42-.4,.54-.02,1.47,3.48,.63,7.45-.6,10.88-.49,1.19-.81,2.89-2.14,3.37,1.37-4.57,4.02-9.41,2.2-14.24Z"/><path class="cls-7" d="M40.71,48.93c.28-.97,1.42-1.37,2-2.12,2.55-3.28,2.45-7.93,.4-11.37-.13-.21-.29-.41-.48-.55-.29-.2-.05-.84,.31-.59,3.11,3.25,3.27,8.71,.99,12.46-.59,.9-1.51,2.28-2.67,2.28-.18,0-.36-.03-.54-.1Z"/><path class="cls-7" d="M15.51,49.14c-5.45-2.5-5.47-10.88-1.61-14.82,.31-.29,.6,.28,.36,.51-.14,.14-.27,.28-.38,.4-2.53,3.55-2.82,9.06,.59,12.08,.67,.51,1.16,1.2,1.77,1.75-.09,.08-.24,.11-.4,.11-.12,0-.24-.01-.34-.03Z"/><path class="cls-7" d="M16.27,48.77c-1.06-.74-1.38-2.18-1.87-3.32-1.08-3.64-1.18-7.5-.46-11.19,.15-.31,.47-.14,.46,.17-.51,4.47-.43,9.37,2,13.27,.25,.37,.43,.81,.67,1.17-.07,.04-.14,.05-.22,.05-.19,0-.41-.08-.57-.16Z"/><path class="cls-7" d="M19.81,44.51s-.07-.03-.1-.05c-1.56-.07-.85-2.69,.5-2.31,1,.35,.88,2.38-.19,2.38-.07,0-.14,0-.22-.03Z"/><path class="cls-7" d="M36.83,45.08h-.02c-1.09,0-1.16-2.09-.05-2.12,1.07,.05,1.26,2.12,.1,2.12h-.03Z"/><path class="cls-7" d="M37.82,36.35c-1.08-.91,.1-3.09,1.17-1.53,.38,.65,.07,1.75-.61,1.75-.17,0-.35-.07-.56-.22Z"/><path class="cls-7" d="M18.21,36.35c-.78-.58-.25-2.67,.86-1.9,.65,.47,.29,2.03-.47,2.03-.12,0-.25-.04-.39-.13Z"/><path class="cls-7" d="M12.17,27.37c-.89-.92-.28-2.75,1.12-2.08,.93,.58,.44,2.37-.47,2.37-.2,0-.42-.09-.65-.29Z"/><path class="cls-7" d="M43.95,27.14c-1.23,0-1.06-2.25,.09-2.36,.67-.04,.99,.57,.98,1.18,0,.59-.33,1.18-.94,1.18-.04,0-.09,0-.13,0Z"/><path class="cls-7" d="M41.87,19.33c-.22-.42-.24-.99,.01-1.37,.73-.88,1.49,.32,1.12,1.08-.08,.32-.38,.55-.68,.55-.17,0-.34-.08-.46-.26Z"/><path class="cls-7" d="M39.67,21.12c-.36-.18-.41-.76-.19-1.05,.06-.07,.12-.13,.18-.16,.29-.8,1.22-.2,1.12,.46-.08,.37-.47,.81-.87,.81-.08,0-.16-.02-.24-.06Z"/><path class="cls-7" d="M38.04,22.81c-.74-.04-.55-1.44,.17-1.16,.59,.14,.51,1.16-.12,1.16h-.05Z"/><path class="cls-7" d="M14.39,18.99c-.42-.33,.05-1.27,.56-1.03,.35,.22,.31,.93-.14,1.01-.07,.06-.15,.09-.22,.09-.07,0-.14-.02-.2-.07Z"/><path class="cls-7" d="M16.06,20.3c-.3-.18-.3-.57-.26-.88,.19-.73,1-.36,.97,.28,.1,.32-.15,.71-.45,.71-.09,0-.18-.03-.27-.11Z"/><path class="cls-7" d="M17.55,21.69c-.26-.33-.38-.79-.14-1.16,.68-.82,1.4,.7,.87,1.22-.1,.11-.22,.16-.34,.16-.15,0-.3-.08-.39-.22Z"/><path class="cls-7" d="M10.16,15.15c-.54-.11-.55-1.37,.08-1.31,.69,.09,.63,1.31-.05,1.31h-.03Z"/><path class="cls-7" d="M47.67,15.1c-.47-.29-.31-1.3,.23-1.42,.43-.02,.59,.35,.56,.73-.03,.37-.24,.74-.56,.74-.07,0-.15-.02-.23-.05Z"/><path class="cls-7" d="M46.35,37.66c-.07,0-.14-.03-.21-.07-.9-.18-.07-1.8,.56-1.05,.27,.33,.09,1.11-.34,1.11h-.01Z"/><path class="cls-7" d="M46.91,40.7c-.61-.13-.4-1.03-.02-1.29,.46-.2,.68,.22,.67,.63-.01,.34-.18,.69-.51,.69-.05,0-.1,0-.15-.02Z"/><path class="cls-7" d="M46.53,44.07c-.45-.43-.31-1.35,.38-1.42,.78,.06,.55,1.52-.08,1.52-.09,0-.19-.03-.3-.1Z"/><path class="cls-7" d="M45.3,46.92c-.52-.46,.29-1.77,.87-1.21,.39,.41-.01,1.37-.52,1.37-.12,0-.23-.05-.35-.16Z"/><path class="cls-7" d="M43.24,49.4c-.44-.5-.01-1.33,.65-1.17,.68,.26,.27,1.38-.27,1.38-.13,0-.26-.07-.39-.22Z"/><path class="cls-7" d="M41.16,51.03c-.4-.26-.32-1.04,.11-1.24,.44-.17,.62,.23,.58,.62-.03,.33-.21,.66-.51,.66-.06,0-.12-.01-.19-.04Z"/><path class="cls-7" d="M9.96,42.2c-.55-.41-.12-1.51,.56-1.03,.4,.31,.16,1.12-.29,1.12-.09,0-.18-.03-.27-.1Z"/><path class="cls-7" d="M10.41,45.13c-.71-.19-.38-1.75,.37-1.56,.53,.21,.6,1.22,.02,1.4-.08,.1-.19,.17-.32,.17-.03,0-.05,0-.08,0Z"/><path class="cls-7" d="M11.09,47.72c-.09-1.87,1.77-.84,.77,.21-.06,.2-.2,.28-.34,.28-.22,0-.45-.21-.43-.49Z"/><path class="cls-7" d="M12.84,49.69c-.1-.92,.89-1.46,1.22-.42,.14,.38-.12,1.12-.62,.87-.07,.05-.13,.06-.19,.06-.23,0-.44-.27-.42-.51Z"/><path class="cls-7" d="M15.37,51.53s-.03-.04-.04-.05c-.57-.29-.05-1.36,.52-1.19,.61,.24,.4,1.39-.14,1.39-.1,0-.22-.05-.34-.15Z"/><path class="cls-7" d="M17.09,51.35c-.41-.31,.17-1.3,.63-1.06,.39,.21,.32,1.11-.22,1-.07,.08-.16,.13-.25,.13-.06,0-.12-.02-.17-.06Z"/><path class="cls-7" d="M20.63,46.71c-.24-.2-.34-.61-.14-.87,.08-.11,.19-.17,.33-.13,.39-.09,.54,.23,.51,.54-.03,.28-.19,.56-.44,.56-.08,0-.17-.03-.27-.1Z"/><path class="cls-7" d="M21.87,42.83c-.85-.52-.27-1.87,.63-1.87,.87,.25,.44,1.94-.36,1.94-.09,0-.18-.02-.28-.07Z"/><path class="cls-7" d="M34.61,42.61c-.74-.02-.49-1.52,.09-1.65,.47-.05,.71,.4,.72,.85,.02,.43-.17,.85-.55,.85-.08,0-.17-.02-.26-.06Z"/><path class="cls-7" d="M36.08,46.76c-.05,0-.1-.03-.15-.06-.63-.04-.42-.91,.13-.96,.32-.06,.48,.23,.49,.5,0,.26-.14,.51-.42,.51h-.05Z"/><path class="cls-7" d="M35.87,35.12c-.65-.26-.55-1.39,.23-1.29,.64,.13,.53,1.31-.09,1.31-.05,0-.09,0-.14-.02Z"/><path class="cls-7" d="M20.59,34.78c-.62-.29-.26-1.45,.42-.99,.38,.27,.21,1.04-.22,1.04-.06,0-.13-.02-.2-.05Z"/><path class="cls-7" d="M15.06,28.16c-.55-.23-.53-1.17,.03-1.38,.57-.13,.83,.28,.82,.69,0,.36-.24,.71-.67,.71-.06,0-.12,0-.19-.02Z"/><path class="cls-7" d="M41.29,27.58c-.51-.24-.31-1.08,.01-1.4,.58-.43,.99,.59,.54,.95-.02,.23-.21,.47-.43,.47-.04,0-.08,0-.13-.02Z"/><path class="cls-7" d="M45.55,16.33c.97,1.47,2.48,2.86,2.66,4.65-.35-.32-4.4-5.4-2.66-4.65Z"/><path class="cls-7" d="M8.34,22.93c-.23-1.58,.78-2.95,1.61-4.2,.34-.41,1.14-1.71,1.63-.91,.08,.21,.03,.53-.19,.64-1.37,1.18-2.01,3.01-3.04,4.47-.01,0-.01,0-.01,0Z"/><path class="cls-7" d="M49.05,21c.21,.17,.26,.53,.13,.76-.53,.95-.99,2.06-1.6,2.89,.08-.78,.35-4.08,1.47-3.65Z"/><path class="cls-7" d="M8.04,24.2c-.08-.23-.03-.55,.2-.68,1.2-.28,.95,4.11,.77,4.85-.31-1.39-.59-2.8-.97-4.17Z"/><path class="cls-7" d="M16.21,44.63c-1.46-1.73-1.5-4.26-1.37-6.43,.03-.18,.17-.39,.38-.35,.59,.28,.07,1.46,.25,2.02,.13,1.61,.41,3.2,.75,4.76,0,0,0,0,0,0Z"/><path class="cls-7" d="M42,38.07c.03-.2,.18-.43,.41-.38,.23,.04,.34,.31,.31,.51-.27,2.09-.68,4.4-1.92,6.06,.17-2.11,.9-4.12,1.21-6.19Z"/></g></g></g></svg>