<?xml version="1.0" encoding="UTF-8"?><svg id="Layer_1" xmlns="http://www.w3.org/2000/svg" xmlns:xlink="http://www.w3.org/1999/xlink" viewBox="0 0 56.69 56.69"><defs><style>.cls-1,.cls-2{fill:#fff;}.cls-2{opacity:0;}.cls-3{clip-path:url(#clippath-2);}.cls-4{fill:#e01e26;}.cls-5{clip-path:url(#clippath-1);}.cls-6{clip-path:url(#clippath);}.cls-7{fill:none;}.cls-8{fill:#010101;}</style><clipPath id="clippath"><rect class="cls-7" x="1.65" y="6.3" width="53.44" height="46.16"/></clipPath><clipPath id="clippath-1"><rect class="cls-7" x="1.99" y="6.3" width="52.61" height="44.66"/></clipPath><clipPath id="clippath-2"><rect class="cls-7" x="1.65" y="6.43" width="53.44" height="46.04"/></clipPath></defs><g id="Hjemhørende"><rect class="cls-2" x="1.42" y="1.42" width="53.86" height="53.86" transform="translate(56.69 56.69) rotate(-180)"/><g class="cls-6"><g class="cls-5"><path class="cls-4" d="M47.55,43.67c.33-1.31,.55-2.64,.75-3.98,.03-.16-.06-.37-.23-.39-.17-.03-.29,.14-.32,.29-.19,1.33-.3,2.81-.2,4.09Z"/><path class="cls-4" d="M48.41,43.8c.07-.09,.09-.2,.11-.32,.01-.06,.02-.12,.03-.18,.58,.01,.37-.92,.5-1.32,.03,.17,.07,.34,.09,.49,.33-.09,.77-4.05-.23-3.22-.57-.32-.58,.67-.65,1.02-.13-.02-.27,.06-.33,.19-.33,.84-.37,1.78-.39,2.67,.21-.19,.34-.68,.49-.99,0,.42-.46,2.19,.39,1.65Z"/><path class="cls-4" d="M25.29,47.66c.35-.03,.46-.41,.55-.69,.29-1.32,.99-2.68,.93-4.01,.34-.74,.56-1.47,.74-2.23,.12,0,.25-.06,.33-.16,.03-.04,.06-.08,.09-.12,.05,.04,.12,.08,.19,.09,.1,.02,.2,0,.29-.05,.24,.29,.68,.14,.81-.18,.05,0,.09-.02,.13-.03,.05,.57,.78,.74,1.01,.18,.19,.22,.56,.19,.72-.06,.07,0,.14,0,.2-.03,.24,.24,.64,.11,.75-.19,.02,0,.04,0,.05,0,.05,0,.1-.03,.15-.06,.1,.1,.24,.16,.39,.14,.3,.49,.88,.14,.94-.33,.12,.17,.36,.25,.55,.16,.29,.36,.78,.08,.87-.3h.03c.1-.01,.18-.05,.25-.11,.41,.2,.72-.24,.77-.6,.04,0,.09,0,.13,0,.15,.44,.74,.42,.9,0,.02,0,.03,0,.05,.01,.19,.04,.35-.07,.44-.23,.1,.03,.21,.03,.31,0,.37,.51,.96,.05,1.01-.45,.12,.06,.26,.07,.37,.02,.13,.13,.3,.21,.49,.14,.22-.09,.33-.28,.4-.49,.2,.14,.5,.09,.63-.13,.11,.56,.85,.59,.97,.03,.02,.01,.04,.03,.06,.04,.05,.03,.1,.04,.16,.05,.36,.26,.75-.08,.82-.46,.13,0,.24-.09,.33-.19,.12,.14,.3,.23,.49,.15,.05-.02,.09-.04,.12-.07,.13,.1,.32,.12,.45,.03,.12-.08,.19-.18,.24-.29,.06,.05,.14,.09,.23,.1,.04,0,.07,0,.1,0,.13,.58,.85,.56,1,0,.08,.04,.17,.07,.26,.04,.05-.01,.09-.03,.12-.05,.19,.45,.78,.35,.9-.1,.06,.01,.13,0,.19-.02,.07-.03,.13-.07,.18-.12,.13,.34,.6,.41,.79,.09,.06,.09,.13,.17,.24,.21,.14,.05,.27,.02,.38-.07,.1,.29,.47,.39,.69,.17,.15,.26,.52,.26,.67,0-.15,.87-.36,1.84-.24,2.73-.01,.62-.26,1.3-.06,1.9-.01,.57-.58,1.46-.01,1.85,.02,.61-.64,.95-.8,1.49-.43,.31-1.08,1.11-.29,1.17l.02,.02,.02,.02c.12,.66,1.07-.18,1.28-.41,.39-.14,.51-.76,.07-.9,.28-.45,.34-.98,.47-1.49,.05-.25,.17-.67-.02-.88-.02-1.04,.33-2.14,.16-3.15v-.02c.37-.9,.36-2.18,.39-3.17,.03-.04,.05-.08,.06-.12,.5-.15,.43-1.56-.2-1.41-.07-.02-.15-.02-.23,.03h0c-.1-.31-.32-.89-.74-.63h0c-.07-.03-.14-.03-.21,0-.05-.11-.12-.2-.22-.26-.13-.07-.29-.06-.4,.03-.18-.26-.58-.17-.69,.12-.08-.05-.16-.08-.26-.06-.12,.03-.22,.08-.29,.18-.08-.17-.21-.31-.42-.31-.11,0-.21,.05-.29,.13-.15-.3-.57-.31-.72,0h-.02c-.14-.05-.27-.03-.37,.05-.2-.5-.83-.34-.92,.14h-.03c-.04-.07-.09-.12-.16-.16-.12-.06-.23-.05-.33,0l-.03-.02c-.16-.09-.33-.06-.46,.04-.04-.27-.27-.53-.57-.44-.76,.26-1.49,.51-2.23,.79h0c-.22-.35-.69-.25-.85,.1h0c-.11-.07-.24-.09-.38-.05-.17,.05-.27,.19-.35,.34-.05-.04-.1-.07-.17-.1-.17-.06-.32,0-.44,.1-.15-.09-.35-.09-.5,.03-.06,.05-.11,.1-.15,.16-.08-.04-.17-.05-.26-.03-.15-.24-.48-.35-.7-.14-.25-.48-.83-.21-.93,.24-.13-.01-.25,.04-.35,.14l-.02,.02c-.3-.31-.73,0-.81,.35-.04,0-.08,0-.12,0-.07-.09-.17-.16-.28-.18-.23-.05-.41,.11-.5,.31-.07-.01-.14,0-.21,.03-.15-.37-.64-.37-.81-.01-.22-.29-.64-.15-.75,.17-.04-.02-.08-.04-.13-.05-.04,0-.09,0-.13,0-.07-.1-.16-.18-.28-.2-.12-.02-.23,.02-.31,.09-.06-.04-.13-.07-.21-.07-.05,0-.1,.01-.15,.03-.14-.1-.34-.1-.48,.02-.04,.04-.07,.07-.1,.11h0s-.06-.02-.09-.02c-.05-.08-.13-.14-.22-.18-.23-.08-.42,.06-.53,.25-.04-.03-.07-.06-.12-.08-.04-.46-.65-.61-.84-.17-.15-.08-.31-.06-.45,.04-.02,.01-.03,.02-.04,.04-.04-.06-.1-.12-.16-.16-.17-.1-.39-.05-.51,.1h0c-.62-.29-.7,.61-.82,1.02-.15,.77-.48,1.44-.59,2.2,.12,.66-.11,1.31-.31,1.92-.33,.36-.37,.91-.53,1.36-.16,.44-.49,.92-.35,1.4l-.04,.15c-.05,.24-.1,.48-.15,.72-.55,.49-.42,1.44-.66,2.1-.17,.42,.16,1.22,.68,.83Z"/><path class="cls-4" d="M34.08,50.39c.08-.05,.15-.12,.21-.2,.31,.28,.81,.41,1.06-.01,.28,.24,.72,.23,.91-.1,.25,.19,.62,.16,.81-.1,.3,.25,.74,.12,.89-.22,.1,.07,.2,.14,.3,.2,.29,.18,.62,.06,.79-.2,.18,.12,.39,.19,.61,.06,.07-.04,.14-.1,.19-.16,.35,.37,.93,.19,1.06-.29,.09,.02,.18,.02,.28-.02,.08-.03,.14-.07,.2-.12,.31,.47,1.02,.49,1.15-.13,.07,0,.14,0,.21-.03,.07-.02,.13-.06,.19-.12,.28,.23,.7,.12,.85-.2,.03,0,.07,.01,.11,.01,.15,0,.26-.05,.35-.13,.27,.27,.74,.12,.88-.21,.05,0,.11-.01,.16-.03,.08-.03,.16-.09,.22-.15,.04,.02,.08,.03,.13,.04,.17,.03,.35-.04,.46-.17h0c.33,.26,.77,0,.87-.37,.12,0,.24-.03,.34-.11,.02-.02,.04-.03,.05-.05h.03c.26,.11,.48-.03,.62-.23,.05,0,.1,0,.15,0,.16-.04,.28-.14,.36-.27,.12,0,.23-.03,.34-.11,.2-.17,.27-.42,.25-.67,.14-.04,.27-.16,.33-.29,.04-.07,.06-.15,.08-.22,.1-.02,.2-.07,.28-.16,.27-.25,.24-.61,.14-.94,.21-.19,.27-.51,.19-.79,.41-.44,.12-1.05-.08-1.52,.13-.12,.21-.31,.23-.47,.03-.28-.05-.54-.14-.8,.21-.18,.28-.53,.21-.77-.05-.18-.12-.35-.2-.52,.05-.03,.1-.07,.13-.11,.31-.34,.22-.77,.08-1.16,.4-.55,.09-1.19-.19-1.72-.21-.35-.4-1-.91-.92-.29,.06-.45,.34-.47,.62-.27-.4-.85-.84-1.19-.25-.4-.69-1.23-.03-1.03,.6-.12,.01-.23,.07-.32,.17-.05,.06-.1,.13-.13,.2-.19-.54-.93-.53-1.07,.04-.48-.49-1.24-2.09-2-1.21-.32-.14-.71,.03-.84,.35-.39-.47-1.25-.8-1.49-.02-.29-.16-.66-.17-.9,.09-.13,.14-.2,.32-.21,.51-.36-.26-.88-.16-1.05,.27-.48-.4-1.12,.03-1.08,.61-.07,0-.15,0-.23,.01-.16,.02-.29,.14-.38,.28-.39-.41-1.2-.62-1.4,.07-.38-.31-1.06-.37-1.23,.19-.36-.37-1.06-.48-1.28,.09-.39-.36-1.15-.65-1.44-.02-.32-.22-.78-.19-.96,.19-.32-.15-.67-.02-.83,.28-.33-.33-.96-.42-1.2,.05-.43-.41-1.05-.03-1.06,.51-.16,.02-.3,.12-.4,.25-.15,.2-.18,.42-.16,.64-.08,.08-.14,.18-.17,.28-.07,.22-.07,.43-.03,.65-.38,.2-.43,.72-.31,1.08-.49,.4-.18,.99-.02,1.44-.36,.26-.3,.69-.29,1.07-.53,.06-.71,.71-.52,1.15h0l-.02,.03c-.58,0-.87,.7-.62,1.18-.97,.05-.14,1.6,.46,1.36,.16,.09,.33,.13,.5,.02h0s.04,.03,.04,.03c.23,.17,.53,.41,.81,.34,.17,.14,.34,.28,.58,.29,.1,0,.19-.02,.26-.07,.42,.27,1.01,.95,1.46,.4,.4,.26,1,.69,1.34,.12,.38,.24,.91,.63,1.26,.13,.39,.27,1,.63,1.31,.07,.34,.19,.72,.58,1.12,.36Z"/><path class="cls-4" d="M30.14,30.76c1.78-2.68,1.74-5.81,2.04-8.88,.8,.33,.73-.81,.71-1.3,.05,.03,.11,.05,.18,.05,.11,0,.21-.05,.29-.14,.06,.03,.12,.04,.19,.04,.05,0,.1-.02,.14-.03,.26,.52,.94,.28,1.03-.23,.41,1.21,1.34,.27,1.3-.6,.05,.57,.37,1.72,1.11,1.12,.08,.05,.16,.08,.26,.08,.26,0,.42-.18,.51-.4,.28,.98,1.2,.54,1.31-.28,.14,.43,.77,.53,.98,.1,.22,.67,1.03,.48,1.09-.17,.05,.04,.1,.07,.16,.09,.21,.06,.4,0,.54-.14,.11,.08,.24,.11,.38,.09,.24-.05,.42-.26,.48-.5,.05,.02,.11,.03,.17,.03,.19,0,.35-.11,.45-.26,.06,0,.12,0,.18-.04,.11-.05,.2-.12,.26-.21,.4,.59,1.09,.02,1.05-.55,.07,0,.15-.03,.21-.06,.05-.03,.1-.07,.14-.12,.13,.48,.79,.6,1.01,.12,.14,.13,.34,.18,.52,.11,.16-.06,.29-.21,.35-.37,.1,.16,.26,.29,.46,.29,.23,0,.44-.18,.52-.39,.07,0,.13,0,.2-.02,.26-.08,.36-.32,.42-.56,.19,.57,.96,.45,1.08-.11,.08,.06,.18,.09,.28,.09h.01c.12,.97,1.18,.77,1.19-.14,.03,.01,.06,.02,.09,.03,.08,.01,.14,0,.21,0,.02,.04,.04,.08,.07,.12,.05,.07,.12,.14,.2,.18,.08,.25,.33,.5,.61,.44,.02,0,.03,0,.05-.01-.03,.17-.06,.33-.09,.5-.5,.78-.31,1.95-.58,2.83-.05,.4-.26,.83,0,1.2-.11,.54-.11,1.13-.16,1.7-.48,.43-.23,1.24-.34,1.81-.27,.4-.17,.92-.18,1.38-.8-.18-2.08-.67-2.58,.2-.07,.79,.83,1.14,1.46,1.09,.38,.05,.78,.07,1.11,.27,.18,.14,.36,.36,.62,.3,.64-.21,.48-1.06,.53-1.6,.65-3.19,.53-6.57,1.31-9.78,.33-.36,.28-.91,.31-1.37,.21-.59,.25-2.16-.74-1.5-.07,0-.13,0-.2,0-.03-.02-.06-.04-.09-.06-.09-.05-.19-.07-.29-.06-.09-.15-.22-.26-.38-.29-.27-.35-.82-.26-1,.13-.11-.03-.23-.03-.34,.02-.1-.45-.67-.9-1.04-.45-.19,0-.38,.12-.49,.29-.04,.05-.07,.11-.09,.17-.13-.21-.34-.39-.6-.39-.22,0-.4,.14-.52,.32-.26-.31-.73-.14-.89,.19h0c-.1-.05-.21-.07-.34-.05-.21,.04-.35,.16-.45,.33-.13-.13-.3-.21-.5-.17-.19,.03-.33,.16-.42,.32-.3-.3-.81-.1-.94,.26-.11-.02-.22,0-.32,.06-.1,.06-.17,.14-.23,.22-.19-.1-.4-.05-.56,.07-.27-.48-.94-.33-1.07,.17-.08,0-.16,0-.24,.04-.05,.02-.09,.04-.14,.07-.29-.61-1.14-.45-1.22,.21-.48-.56-1.11-.43-1.25,.32-.09-.06-.19-.1-.31-.1-.19-.19-.42-.29-.69-.13-.08,.05-.15,.12-.2,.2-.07,0-.14,0-.21,.02-.18-.24-.49-.39-.79-.22-.08,.05-.15,.11-.2,.18-.06,0-.13,0-.19,.03-.25,.09-.37,.3-.44,.54-.19-.66-1.1-.82-1.3-.09-.11-.27-.31-.52-.62-.52-.24,0-.41,.17-.51,.37-.14-.59-.84-.68-1.02-.07-.01,0-.03,0-.04,.01-.04-.16-.11-.3-.25-.37-.17-.1-.36-.02-.46,.11-.02-.56-.79-.83-1.05-.27-.18,.36-.08,.81-.05,1.16-.19,2.55-.58,5.15-.68,7.68-.07,1.7-.64,3.15-1.28,4.67-.32,.51,.39,1.29,.77,.62Z"/><path class="cls-4" d="M34.14,31.09c5.23-.12,10.38-1.36,15.33-2.78,.33,.03,.54-.23,.58-.54-.08-1.71-3.04-.21-3.96-.05-1.84,.55-3.73,.8-5.6,1.17,.7-2.27,3.02-7.77,.66-9.43-.22-.51-.93-.46-1.1,.06-.09-1.3-1.39-.94-1.39,.21-.23-.69-1.13-.49-1.21,.19-.15-.39-.67-.58-.97-.23-.15-1.88-1.39-1.46-1.63,.14-.05-1.14-1.31-.99-1.28,.1-.14-.64-1-.68-1.18-.04-.12,.38-.11,.79-.12,1.18-.37,2.48-.89,5.08-1.78,7.42-.2,.52-.66,.74-.86,1.24-.17,.45-.02,1.02,.48,1.16,1.37,.16,2.67,.23,4.01,.21Z"/><path class="cls-4" d="M40.98,29.91c.2-.05,.34-.18,.44-.36,.04-.08,.07-.17,.1-.26,.16,.18,.39,.28,.65,.18,.19-.07,.31-.23,.39-.41,.34,.67,1.18,.32,1.23-.35,.38,.37,.94,.05,1.04-.41,.15,.61,.96,.76,1.19,.13,.35,.3,.84,0,.94-.4,.21,.39,.83,.37,1-.05,.25,.25,.65,.15,.83-.14,.29,.41,.89,.21,1.01-.24,.12,.06,.26,.08,.39,.04,.04,.16,.11,.32,.25,.43,.26,.2,.58,.1,.75-.16,.76-.21,.59-1.28,.74-1.9,.65-1.28,.38-2.99,.55-4.42,0-.84,.9-5.93-.84-4.85-.19-.28-.61-.36-.83-.08-.22-.5-.93-.43-1.08,.08-.22-.22-.61-.18-.79,.07-.06-.03-.12-.06-.2-.07-.22-.03-.41,.07-.54,.23-.23-.44-.85-.49-1.1-.03-.38-.32-.88,0-.97,.44-.25-.7-1.21-.63-1.33,.11-.53-.35-1.01,.31-.96,.81-.32-.66-1.18-.66-1.32,.11-.47-.2-.78,.37-.73,.77-.42-.09-.54,.46-.4,.76,.12,.48,.11,.93,.35,1.37-.21,.38-.12,.84-.15,1.26-.25-.04-.46,.09-.58,.3-.36,.9-.32,1.94-.5,2.9-.82,.51-.33,1.75-.38,2.56,.09,.56,.05,1.7,.89,1.59Z"/><path class="cls-4" d="M23.5,28.86c1.16-4.01,1.95-8.13,2.52-12.24,.04-.44,.21-1.09-.24-1.36-.05-.14-.15-.26-.3-.29-.15-.03-.28,.06-.35,.18-5.34-3.34-11.74-4.72-17.14-7.92-.59-.59-1.29,0-1.19,.73,.39,1.97,.91,4.1,.78,6.11-.18,2.16-.66,4.12-.91,6.24,0,.5,.67,.97,1.04,.51,4.86,2.62,11.14,3.34,14.72,7.81,.05,.56,.82,.8,1.07,.23Z"/><path class="cls-4" d="M20.67,34.95c-2.93-.7-5.22-2.98-7.95-4.22-.81-.53-2.69-.58-2.49-1.89-.59-.25-1.2-.46-1.82-.64-.32-.1-.66-.19-.97-.31-.12,2.52-1.13,5.04-2.35,7.23-.37,.68-.71,1.36-.75,2.15,4.23,2.38,9,3.78,12.89,6.79,1.35-2.98,2.47-5.96,3.45-9.1Zm-3.35,10.75c-1.21-.63-2.37-1.32-3.42-2.17-3.06-1.82-6.65-2.7-9.73-4.52-.88,.62-1.82-.74-1.12-1.46,.23-1.78,.49-3.55,.99-5.28,.44-1.21,1.12-2.29,1.29-3.61,.3-.77-.21-2.88,.97-2.9,.39-.22,.79,.11,1.13,.29,2.4,.71,4.8,1.56,6.79,3.16,2.38,2.12,4.81,2.95,7.17,4.58,.24-.19,.56-.1,.73,.14,.39,.63-.19,1.31-.35,1.93-.81,2.52-1.55,5.01-2.75,7.41,.12,.91-.14,1.75-.57,2.53-.27,.44-.9,.32-1.13-.09Z"/><path class="cls-4" d="M17.65,44.59c.19-.1,.33-.31,.39-.51,.13-.38,.12-.82-.03-1.19,.9-.05,1.31-1.34,.99-2.08,.51,0,.79-.42,.87-.89,.02-.13,.02-.26,0-.38,.91-.02,.82-1.32,.19-1.69l.02,.02c.56-.36,.44-1.18,.24-1.72,.44,.14,.74-.38,.68-.77-.06-.54-.4-.95-.81-1.29-2.5-1.88-5.48-2.95-8.2-4.49-1.22-.42-5.6-3.79-5.93-1.42-.04,.46,.07,.95,.39,1.3-.15,.07-.28,.18-.37,.32h0c-.28-.02-.57,.17-.69,.42-.16,.35-.12,.71,.05,1.03-.07,.28-.12,.58-.05,.86,.05,.25,.19,.44,.37,.59-.94-.19-1.14,1.12-.71,1.7-.07,.13-.13,.28-.17,.41-.9-.43-1.44,.43-1.27,1.26,0,1.02,.87,1.55,1.74,1.84,1.56,1.73,4.25,2.01,6.14,3.36,1.82,1.1,3.82,1.92,5.47,3.25,.22,.14,.48,.16,.71,.05Z"/><path class="cls-1" d="M28.37,31.28c.43-.11,.61-.59,.74-.97,1.3-3.57,1.9-7.18,1.89-10.96,0-.74,.08-1.45,.15-2.19,.12-.55-.62-1.04-.92-.44-.17-.28-.43-.5-.78-.37-.09,.03-.17,.09-.23,.15-.12-.27-.31-.51-.63-.51-.42,0-.66,.37-.82,.75-.09-.77-.96-2.28-1.55-.97-.44,1.75-.08,3.74-.48,5.42-.52,2.7-.95,5.42-1.93,7.99-.33,.67,.16,2.06,.92,1.09,.64,.97,1.43-.02,1.64-.76,.07,.55,.6,1.25,1.18,.82,.07,.44,.34,1,.85,.92Z"/><path class="cls-1" d="M23.35,34.03c.26-.26,.29-.7,.22-1.03-.08-.36-.25-.67-.47-.95,.21-.09,.38-.26,.48-.46,.48,.15,.81-.49,.68-.89-.97-2.23-3.88-2.8-5.6-4.34-3.24-2.53-7.27-3.79-11.09-5.17-.16-.41-.69-.49-.94-.12-.31,.58-.02,1.27-.19,1.9,.11,1-1,2.12-.04,2.75,3.91,1.47,8.05,2.83,11.28,5.57,1.61,1.09,3.12,2.59,5.07,2.98,.23,.02,.43-.08,.59-.24Z"/><path class="cls-1" d="M23.23,48.02c.67-.04,.76-.81,.84-1.34,1.27-3.88,2.88-7.74,3.22-11.84,.6-.81,.57-2.03,1.08-2.93-.01-.66,.39-2.27-.5-2.39-.12-.33-.55-.53-.83-.27-.13-.32-.46-.56-.8-.37-.12,.07-.2,.16-.26,.27-.27-.1-.54,.07-.67,.3-.01,.02-.02,.04-.03,.06-.61-.42-.97,.42-1.05,.92-.24-.15-.55-.09-.72,.17-.03,.05-.06,.1-.08,.14-.17-.44-.67-.96-1.11-.49-.5,.58,.01,1.37,.18,1.99-.29,.16-.37,.56-.22,.84,.4,4.01-2.55,8.48-3.22,12.46-.13,1.05,.66,1.24,1.51,1.33,.89,.35,1.68,1.01,2.65,1.14Z"/><path class="cls-1" d="M33.84,35.07c4.98-.44,9.87-1.56,14.89-1.4,.98,.07,1.57,.97,2.3,1.41,.25,.04,.49-.11,.59-.34,.32-1.2,.15-2.52,.55-3.68,.14-.56,.4-1.41-.18-1.79-.39-.13-.78-.11-1.18-.22-3.49-.87-6.88,.74-10.29,1.27-2.7,.29-5.47,.43-8.11,.91-1.68,.19-3.12-.37-4.69-.76-.33-.06-.57,.26-.6,.56-.1,.79,.66,.69,1.13,1-.73,.04-1.41-.34-2.03,.04-.37,.28-.32,.84,.02,1.12-.53,2.47,6.06,2,7.61,1.89Z"/></g><g class="cls-3"><path class="cls-8" d="M50.52,47.4c.87-1.58,.48-3.52,.8-5.26,.42-4.02,1.08-8,1.52-12.02,.6-4.66,.86-9.4,1.85-13.99,.05-.22-.03-.52-.26-.61-.23-.09-.44,.11-.49,.33-1.13,5.33-1.48,10.79-2.21,16.18-.5,3.9-1.12,7.79-1.45,11.71-.05,1.21-.43,2.57,.24,3.67,0,0,0,0,0,0Z"/><path class="cls-8" d="M36.64,17.45c3.4-.07,6.76-.69,10.04-1.54,1.91-.5,3.93-1.2,5.91-.74,.54,.02,1.36,.9,1.65,.19,.04-.19-.03-.43-.22-.51-3.49-1.74-7.26,.37-10.81,.84-3.31,.65-6.68,.87-10.05,.64-4.98-.56-9.85-2.23-14.4-4.26-3.26-1.56-6.31-3.5-9.71-4.71-1.08-.43-2.43-.59-3.45-.11,10.22,3.61,19.67,10.86,31.05,10.2Z"/><path class="cls-8" d="M37.41,50.8c4.26-.35,8.35-1.83,12.18-3.66,.21-.1,.29-.34,.24-.57-.04-.18-.24-.4-.45-.3-1.01,.47-2.03,.9-3.08,1.3-5.43,2.1-11.34,2.85-17.05,1.67-6.69-1.25-12.76-4.5-18.73-7.64-2.57-1.17-5.65-3.56-8.52-2.5,11.6,4.24,22.36,13.02,35.41,11.69Z"/><path class="cls-8" d="M3.33,38.5c-.29-2.74,.86-5.21,1.63-7.77,.72-2.43,1.23-4.91,1.65-7.41,.65-4.75,2.04-9.62,1-14.4-.13-.65-.39-1.47-.97-1.79-.13,2.33,.79,4.63,.41,6.99-.69,5.59-1.51,11.31-3.08,16.75-.81,2.47-1.72,4.97-1.43,7.62,0,.62,.81,.67,.8,0Z"/><path class="cls-8" d="M33.84,31.67c3.26-.11,6.51-.62,9.66-1.49,2.19-.5,4.54-1.41,6.8-1.05,.44,.04,1.13,.63,1.34,0-1.14-2.53-8.56,.38-10.85,.7-3.61,.7-7.36,1.09-11,.69,.98-3.73,2.2-7.48,2.07-11.39-.01-.39,.04-.8-.02-1.18-.14-.65-.81-.48-.83,.13,.19,4.35-1.04,8.54-2.26,12.66-.07,.28,.03,.69,.37,.72,1.61,.19,3.14,.29,4.75,.21Z"/><path class="cls-8" d="M24.11,48.25c.41-.07,.47-.6,.57-.94,1.07-3.74,2.01-7.5,3.03-11.21,7.51,1.24,15.14-3,22.53-1.15,.38,.14,.87,.82,1.2,.26-.94-4.82-19.27,1.39-23.81-.3-.11-.07-.44-.01-.54,.24-.8,1.65-.91,3.57-1.42,5.3-.68,2.17-1.29,4.22-1.84,6.4-.15,.43-.39,1.35,.29,1.39Z"/><path class="cls-8" d="M24.13,29.54c.55-.54,3.63-16.16,1.57-13.26-.38,4.18-1.1,8.38-2.24,12.39-4.56-3.82-9.99-6.26-15.58-8.17-.34-.23-.87-.12-.91,.35-.06,.44,.31,.72,.7,.83,3.28,1.22,6.64,2.32,9.64,4.11,2.07,1.06,3.82,2.58,5.72,3.9,.36,.22,.94,.38,1.1-.15Z"/><path class="cls-8" d="M19.13,45.57c-.12-1.81,5.51-12.03,3.08-12.07h.05s-.02,0-.02,.01c-.03-.01-.09-.03-.12-.05-4.18-2.83-8.36-5.71-13.12-7.49-.78-.1-3.82-1.74-3.53-.17,.28,.59,1.15,.44,1.69,.68,5.46,1.55,10.1,4.96,14.78,8.01-.79,3.2-2.21,6.27-3.23,9.42-.03,.6-.63,1.52-.04,1.96,.21,.08,.43-.1,.47-.31Z"/></g></g></g></svg>