<?xml version="1.0" encoding="UTF-8"?><svg id="Layer_1" xmlns="http://www.w3.org/2000/svg" xmlns:xlink="http://www.w3.org/1999/xlink" viewBox="0 0 56.69 56.69"><defs><style>.cls-1{fill:#51b848;}.cls-2{clip-path:url(#clippath-2);}.cls-3{clip-path:url(#clippath-1);}.cls-4{clip-path:url(#clippath);}.cls-5{fill:none;}.cls-6{fill:#010101;}</style><clipPath id="clippath"><rect class="cls-5" x="11.15" y="1.42" width="34.39" height="53.86"/></clipPath><clipPath id="clippath-1"><rect class="cls-5" x="11.45" y="3.45" width="24.68" height="45.58"/></clipPath><clipPath id="clippath-2"><rect class="cls-5" x="11.15" y="1.42" width="34.39" height="53.86"/></clipPath></defs><g id="Højde"><g class="cls-4"><g class="cls-3"><path class="cls-1" d="M35.2,14.08c.42-.49,.74,.26,.33,.55,0,.2-.15,.33-.27,.47-.64,.7-1.13,1.53-1.57,2.37-.09,.99-.92,1.84-1.27,2.78-.16,.24-.26,.62-.4,.93,.34,.27,.57,.66,.92,.91,.14,.11,.16,.32,.15,.48,.26,.44,.7,.87,.68,1.41,.18,.4,.56,.86,.35,1.3-.12,.5-.71,.49-1.06,.24-.09,.03-.18,.06-.27,.08-.04,0-.08,.02-.12,.02-.44,.45-1.2,.75-1.75,.32-.03,.02-.07,.03-.11,.05-.14,.23-.38,.36-.64,.36-.05,0-.1,0-.14-.01-.05,0-.11-.02-.17-.04-.37,.08-.7-.21-.92-.47-.79-.6-1.32-1.68-1.33-2.67-.05-.19-.08-.39,.02-.56,.06-.1,.17-.18,.28-.17,0-.08,.03-.14,.05-.19,.03-.21,.13-.44,.23-.58-.24,.15-.44-.17-.38-.39-.1,.12-.25,.17-.42,.04-.1,.24-.34,.2-.5,.04-.05,.12-.17,.2-.31,.16-.05-.02-.09-.04-.13-.07-.02,.14-.13,.24-.26,.24-.03,0-.06,0-.09-.02-.26-.12-.44-.35-.64-.55-.55,.63-1.76-2.21-1.41-2.56-.02-.6-.2-1.26-.03-1.83,.03-.65-.17-1.36,.01-1.97-.04-.22,.04-.52,.17-.7-.06-.06-.1-.16-.11-.24,0-.05,0-.1,0-.14-.18,.11-.4-.04-.44-.24h0c-.08-.03-.15-.07-.2-.14-.09,.04-.19,.06-.28,0-.02,0-.03-.02-.04-.03-.3,.41-.61,.11-.8-.24,.01,.06,0,.13,0,.2,.05,.06,.08,.13,.09,.21,.12-.06,.26-.03,.35,.07,.08,.08,.11,.19,.11,.3,.31-.42,.74-.12,.55,.33-.03,.39-.38,.62-.58,.92-.25,.25-.4,.74-.77,.8-.24,.21-.52,.77-.88,.5-.25,.2-.68,.55-.9,.13-.22,.12-.52,.34-.74,.12-.26,.06-.57,.25-.85,.25-.11,0-.22-.03-.31-.11-.25,.03-.52-.07-.62-.32-.44-.08-.94-.14-1.23-.5-.17-.05-.33-.11-.49-.18-.39-.03-.72-.33-1.05-.53-.21-.13-.45-.31-.44-.58-.3-.13-.3-.63,0-.76,.28-.07,.54,.17,.82,.2,1.63-.61,3.32-1.38,4.85-2.31,.19-.12,.47-.24,.61,.01,.23-.1,.49,.04,.51,.3,.14,.13,.16,.34,.09,.51,.02,0,.03-.02,.04-.02,.16-.06,.3,.04,.37,.17,.15-.1,.29-.05,.37,.05-.03-.06-.04-.11-.06-.16-1.11-1.14-.68-3.24-.36-4.65,.46-.95,.62-2.27,1.48-2.92,.08-.16,.16-.33,.26-.46,.16-.35,.32-.61,.47-.67,.03-.05,.05-.09,.08-.14,.07-.07,.18-.15,.28-.12,.03,.12,.03,.27,0,.42,.14-.08,.23,0,.23,.21,.03,0,.07,0,.1,.02,.59,.03,.62,1.08,.9,1.51,.44,.18,.29,.85,.44,1.23,.55-.07,.4,.85,.51,1.2,.22,.24,.07,.59,.09,.88,.02,.38,.08,.78-.07,1.14-.09,.52,0,1.28-.47,1.6-.12,.33-.12,.98-.58,.98-.08,.17-.14,.41-.24,.6,.05-.01,.11,0,.17,.02,.15-.7,.78-1.05,1.3-1.48-.06,0-.11-.03-.15-.06-.12-.09-.15-.27-.09-.41-.07-.43,.44-.65,.72-.88,.28-.12,.53-.54,.84-.43,.08-.03,.16-.05,.25-.04,.04,0,.08,.03,.11,.05,.03-.01,.06-.03,.09-.03,.02,0,.03,0,.05,0,.14-.19,.37-.06,.54,.02,.23-.23,.56,.06,.82,.13,.54,0,1.01,.43,1.49,.6,.18,.05,.31,.21,.3,.41,.04,.03,.08,.07,.11,.12,0,.01,.02,.03,.02,.04,.23,.08,.59,0,.65,.31,0,0,.02,0,.03,0,.19-.3,.56-.07,.43,.24-.17,.33-.61,.93-.97,1.02-.13,.16-.3,.27-.43,.42-.27,.79-1.36,1.38-1.96,1.99-.18,.17-.5,.41-.69,.11-.3,.16-.58,.55-.94,.48-.18,.07-.38,.18-.58,.12-.13,.03-.26,.06-.39,.08,.01,.05,.03,.09,.04,.13,.43-.2,.5,.43,.6,.71,.39,.48,.27,1.18,.5,1.73,0,.07,.03,.16,.07,.27,.23-.36,.49-.7,.58-.92,.47-.7,.96-1.44,1.63-1.97,.12-.09,.3-.11,.42,0,.35-.36,.67-.76,1.09-1.04,.09-.05,.22-.06,.3,0,.02,0,.05-.01,.07-.02,.09,0,.16,.02,.22,.07,.06-.04,.13-.05,.2-.03,.19-.14,.46-.46,.72-.28,.29-.18,.68-.87,1.03-.5,.06-.04,.12-.08,.19-.1,.04-.01,.07-.02,.11,0,.06-.07,.12-.15,.19-.21,.07-.08,.17-.1,.26-.05Zm-3.49,7.76v-.03s-.07-.08-.09-.14c-.03,.02-.06,.03-.09,.04,.07,.01,.13,.06,.18,.13Zm-3.67-1.18s-.02,0-.03,0c-.02,.02-.04,.04-.07,.06h-.01c.02,.07,.02,.14,.01,.2,.03-.09,.07-.17,.1-.26Zm-3.12-6.75c0-.06,0-.12,.03-.17-.03,0-.07,.02-.11,.02-.05,.1-.12,.23-.21,.31,0,0,.01,.01,.02,.02,.06-.1,.14-.17,.28-.17Z"/><path class="cls-1" d="M21.78,20.76c.45-.1,.63,.99,.27,1.23-.06,.39,.08,1.03-.31,1.26h0c-.1,.49-.33,.96-.43,1.43-.12,.29-.19,.83-.6,.8-.14,.26-.23,.76-.61,.72-.01,0-.03,0-.04,0-.31,0-.4-.42-.31-.67-.07-.04-.12-.11-.15-.19-.04-.11-.05-.22-.04-.33-.03-.02-.05-.04-.07-.07,0,.02,0,.03,0,.04,.02,.17-.04,.35-.17,.44-.03,.18-.21,.37-.41,.31,0,.04,0,.08,0,.12-.02,.12-.09,.23-.19,.28,0,.08-.02,.14-.05,.18,.1,.15,.12,.39-.03,.68h0s.02,.03,.02,.05c.3-.73,.93-.3,.69,.35,.03,.09,.05,.18,.04,.28,.14,.26-.03,.54-.13,.78-.29,.51-.29,1.17-.63,1.64-.04,.11-.08,.22-.11,.33-.04,.11-.14,.21-.25,.23-.06,.07-.15,.11-.23,.11-.12,.2-.23,.53-.51,.5-.05,.08-.1,.16-.16,.22-.06,.06-.13,.1-.22,.1-.16,.21-.41,.57-.69,.33-.14,.18-.42,.17-.53-.03-.1,.1-.23,.22-.38,.22-.02,0-.04,0-.06,0-.12-.02-.2-.12-.24-.23-.14-.03-.21-.16-.23-.29-.02-.1,0-.19,.05-.27,.01-.29,.42-.34,.57-.56,.35-1.33,.49-2.73,.97-4.02,.07-.14,.22-.28,.38-.22,.02-.05,.04-.1,.07-.14-.63-.18-1.17-.65-1.75-.93-.38,.16-.59-.3-.76-.56-.38-.01-.47-.51-.65-.77-.45-1.04-1.29-2.12-1.24-3.28-.19-.62-.43-1.28-.46-1.93-.13-.24-.55-.82-.44-1.06,.16-.38,.48-.07,.58,.18,.05,0,.1,.04,.14,.08,.03,.03,.06,.08,.09,.12,.04,0,.08,.02,.12,.04,.08-.06,.19-.09,.3-.02,.61,.51,1.25,.96,1.92,1.38,.34-.36,.7,.25,.99,.41,.54,.3,1.31,1.11,1.75,1.62,.6,.57,1.13,1.2,1.56,1.9,.14,.22,.18,.51-.01,.72,.06,.1,.12,.2,.17,.31,0-.33,.23-.71,.3-1.01-.04,0-.08,0-.13-.01-.03,0-.05-.03-.08-.04h0c-.15,.03-.24-.11-.26-.24-.06-.34,0-.67,.14-.97,0-.42,.36-.76,.56-1.11,.18-.23,.31-.54,.58-.67,.18-.26,.27-.76,.64-.77,.12-.19,.27-.58,.54-.33,.19,.24,.05,.57,.04,.84,.01,.02,.03,.05,.03,.07,.04,.14,.05,.28,.04,.43Zm-3.72,5.65s-.02,0-.03,0c-.1-.02-.19-.05-.29-.07-.02,.03-.05,.06-.09,.08,0,.01,.01,.03,.02,.04,.02,0,.04,0,.06,0,.09,.02,.16,.08,.21,.15,.03-.08,.07-.15,.11-.21Z"/><path class="cls-1" d="M23.25,44.84c.08,.5-.18,1.03-.23,1.53-.02,.24-.11,.59-.43,.54-.07,.19-.25,.46-.49,.35-.2,.33-.28,1.2-.82,.98-.06,.25-.25,.58-.47,.58-.09,0-.19-.06-.28-.2-.02-.04-.04-.09-.05-.13-.52,.04-.31-.84-.39-1.18-.06-.07-.1-.16-.11-.25-.02-.18,0-.36-.01-.53h0c-.42-.51-.03-1.32-.09-1.94,0-.32,.05-1.1,.54-.8,.07-.23,.14-.64,.47-.58,0-.04,0-.1,.02-.15-.16,.02-.31,.02-.46,.04-.09,.1-.22,.12-.35,.12-.1,0-.2-.02-.29-.03-.07,.03-.16,.04-.23,0l-.03-.02c-.1,0-.22,0-.35,.02-.33,.04-.68,.08-.77-.28-.03-.02-.05-.03-.07-.04,0,0-.02-.01-.03-.02-.24,.3-.52-.08-.7-.26-.2,.09-.37-.12-.46-.27-.72-1.06-1.51-2.08-2.27-3.09-.37-.14-.45-.88,.02-.91,.22,.09,.43,.23,.64,.34,.05-.1,.16-.17,.27-.14,.62,.16,1.24,.34,1.86,.5,.16-.24,.43-.06,.63,.03,.32,.22,.83,.19,1.05,.52,.07,.03,.15,.05,.22,.08,.25-.2,.55-.14,.84,0-.08-.13-.13-.31-.14-.44-.27-.32-.3-.77-.39-1.17-.96,.16,.07-2.69,.24-3.17,.14-.27,.11-.64,.36-.87,.17-.17,.5-.11,.63,.07,.02,0,.04,0,.06,.01,.13,.04,.2,.16,.25,.28,.51,.07,.59,1.04,.81,1.46,.22,.3,.21,.72,.34,1.06,.29,.18,.21,.6,.29,.89,.2,.26,.11,.63,.16,.94,.02,.52,.33,1.18-.01,1.64,.02,.32,.01,.99-.47,.85-.03,.02-.07,.02-.1,.02-.04,0-.08,0-.13-.03-.1,0-.18-.04-.25-.12-.02,.04-.04,.09-.07,.14,.33,.18,.47,.7,.05,.85,.03,.16-.03,.33-.16,.43,0,.06,0,.11,0,.17,.01,.01,.02,.02,.03,.03,.04-.53,.65-.66,.73-.08,.18,.02,.29,.2,.3,.36,.68,.06,.27,1.38,.28,1.85Zm-2.33-4.93c-.02-.09-.03-.17-.06-.23-.05,.06-.1,.1-.15,.11,.07,.04,.14,.08,.21,.12Z"/><path class="cls-1" d="M34.39,30.79c.67-.77,1.02,.19,.39,.68-.13,.55-.48,1.02-.65,1.56,.05,.54-.48,.98-.63,1.49-.37,.78-.72,1.63-1.3,2.28-.1,.15-.21,.47-.34,.73,.24-.05,.4,.24,.48,.44,.33-.05,.38,.38,.48,.62,.16-.02,.28,.13,.32,.28,.15,.73,.5,1.44,.57,2.17,.49,.18,.18,.92-.27,.55-.1-.05-.21-.09-.32-.13-.03,.06-.07,.1-.12,.13-.07,.04-.16,.05-.24,.03-.1,.49-.65,.25-.96,.15-.06,.27-.38,.33-.57,.14-.06,.11-.16,.19-.28,.19,0,0-.02,0-.03,0-.29-.07-.47-.35-.67-.55-.27,.65-.7-.05-.81-.41-.03,0-.05-.02-.08-.03-.14-.08-.22-.23-.28-.38-.46,.02-.39-.64-.57-.93-.07-.03-.12-.08-.16-.15-.17-.62-.32-1.24-.55-1.85-.08-.29-.25-.68,.01-.92,.07-.06,.15-.07,.23-.05-.04-.07-.06-.15-.06-.23-.43-.09-.29-.61-.12-.87-.09-.15-.05-.33,.03-.48,.05-.11,.1-.22,.16-.32-.03-.1-.04-.2-.03-.29-.15,.25-.48,.31-.62-.04-.1-.52,.1-1.07,.13-1.6-.02,0-.04,0-.06,0-.06-.02-.11-.04-.16-.08-.04,.83-.1,1.75,.22,2.52,.15,.25,.32,.83-.14,.83h0c-.26-.08-.26-.43-.39-.64-.63-.45-.54-1.49-.63-2.2,0-1.09,.02-2.37,.63-3.29,.27-.58,.52-1.18,.86-1.72,.09-.09,.22-.12,.33-.06,.06-.1,.17-.17,.28-.15,.42-.39,.66,.3,.43,.63,.02,0,.05,0,.07,.02,.02,0,.04,.02,.06,.03,.29-.11,.43,.23,.47,.45,.1,0,.18,.06,.23,.13,.08,.11,.1,.24,.13,.37,.45,.34,.16,1.07,.17,1.56-.09,.34,0,.88-.27,1.14-.04,.03-.08,.07-.13,.09,0,.02,0,.04-.01,.06,.04-.05,.1-.1,.15-.15,.26-.26,.54-.49,.87-.63,.08-.02,.15,0,.21,.05,.16-.09,.38-.15,.54-.03,.4-.23,1.04-1.08,1.5-.65h0c.08,0,.15,0,.21,.05,.23-.18,.55-.57,.86-.36,.08-.07,.17-.14,.27-.17,.05-.02,.1-.02,.14,0Zm-5.16,7.9c-.04-.28-.24-.61-.38-.94-.04,0-.08-.03-.11-.05,.12,.35,.29,.67,.5,.99Zm-.89-1.69h0s-.05,0-.07-.01h0s.04,0,.06,.01Z"/></g><g class="cls-2"><path class="cls-6" d="M17.17,54.95c-.04-.44,.75-.62,1.02-.9,1.3-.7,2.22-1.87,3.47-2.63,.87-.63,1.9-.08,2.8,.19,.88,.25,1.75,.18,2.58-.06,1.83-.49,3.86-1.61,5.69-.59,.58,.5,1.2,.77,1.93,.92,1.57,.46,3.16,1.01,4.79,1.09,.66,.07,1.38,.22,1.97,.37-1.89,.61-3.84,.2-5.72-.23-.94-.17-1.98-.37-2.78-.89-1.36-1.2-2.92-.67-4.49-.13-.91,.31-1.83,.63-2.72,.59-.63,.04-1.21-.18-1.79-.4-.55-.21-1.09-.42-1.66-.4-1.66,.78-3.11,2.23-4.89,3.16-.02,.02-.04,.02-.06,.02-.07,0-.13-.06-.16-.12Z"/><path class="cls-6" d="M24.89,51.81c-.2-4.73,0-9.54-.44-14.24-.68-7.54-2.24-15.2-.89-22.74,.09-.34,.19-.73,.33-1.02,.12,.48,.28,.95,.35,1.44-.55,6.68,.03,13.28,.92,19.9,.63,5.13,.48,10.29,.57,15.44-.11,.54,.24,1.53-.43,1.71-.24,0-.41-.27-.39-.5Z"/><path class="cls-6" d="M23.74,14.5c-5.02-1-3.35-8.3-.22-10.63,.34-.25,.76-.56,1.12-.7-.56,.83-1.11,1.7-1.63,2.54-1.49,2.14-2.75,6.22,.3,7.55,.47,.06,1.03,.14,.94,.75-.03,.24-.21,.49-.45,.49-.02,0-.04,0-.07,0Z"/><path class="cls-6" d="M24.03,14.35c-.24-.25-.14-.79,.23-.83,.19-.03,.4-.02,.57-.11,.7-.56,1.09-1.47,1.38-2.27,.35-1.37,.35-2.79-.23-4.07-.46-1.13-1.47-2.01-1.64-3.25-.1-.76,.28-1.59,.57-2.21-.05,.44-.07,.86-.04,1.29,.01,.25,.05,.5,.14,.7,.85,1.5,2.03,2.86,2.23,4.64,.2,1.76-.12,3.59-1.14,5.05-.33,.52-.97,1.17-1.62,1.17-.15,0-.3-.03-.45-.12Z"/><path class="cls-6" d="M24.05,25.27c-.75-1.07,2.96-3.55,3.97-3.55-.88,.88-1.75,1.91-2.75,2.72-.34,.2-.58,.94-.96,.94-.08,0-.17-.03-.26-.11Z"/><path class="cls-6" d="M27.7,22.35c-1.43-2.19,1.79-6.08,3.52-7.37,1.33-.93,2.96-1.13,4.55-1.08-.97,.74-2.37,1.08-3.48,1.58-1.76,.9-4.56,4.19-4.02,6.26,.1,.28-.11,.67-.4,.67-.05,0-.11-.02-.17-.05Z"/><path class="cls-6" d="M28.95,22.88c-.45-.16-1.38-.45-1.12-1.07,.09-.17,.27-.23,.43-.12,.96,.83,2.33,.39,3.13-.41,2.04-1.86,2.18-4.76,3.9-6.79,.31-.37,.67-.82,1.03-1.06-.03,.06-.06,.12-.09,.18-1.51,2.78-2.88,9.31-6.73,9.31-.18,0-.37-.02-.56-.04Z"/><path class="cls-6" d="M23.4,30.37c-1.5-1.16-2.78-2.59-4.13-3.86,.2-.02,.5,.08,.74,.13,1.61,.4,2.63,1.81,3.9,2.76,.4,.29,.18,1.07-.25,1.07-.08,0-.17-.03-.26-.09Z"/><path class="cls-6" d="M19.23,26.94c-.49-.33,.02-.99-.03-1.41-.09-2.39-1.67-4.69-3.82-5.67-1.43-.63-3.25-1.23-3.91-2.75,2.95,1.28,6.71,2.04,7.92,5.49,.58,1.28,.9,2.76,.34,4.1-.05,.16-.2,.28-.35,.28-.05,0-.1-.02-.16-.04Z"/><path class="cls-6" d="M17.5,27.27c-3.33-.45-4.97-3.6-5.56-6.58-.32-1.02-.59-2.06-.34-3.11,.27,.17,.47,.53,.6,.84,.88,2.95,1.41,6.9,4.98,7.67,.65,.18,1.34,.23,1.97,0,.25-.07,.46,.1,.52,.35,.11,.72-.71,.87-1.43,.87-.29,0-.56-.02-.75-.04Z"/><path class="cls-6" d="M25.07,40.03c-.31-.26-.17-.7,.07-.96,.76-1.01,1.55-2.21,2.7-2.72-.65,1.24-1.32,2.5-2.24,3.57-.07,.12-.2,.19-.32,.19-.07,0-.14-.02-.21-.08Z"/><path class="cls-6" d="M27.4,36.52c-.4-2.45,1.87-4.54,3.93-5.47,1.49-.56,3.14-.57,4.56-1.33,.03,0,.1-.07,.1-.03-.37,.36-.72,.71-1.14,1-1.3,.96-3.07,.82-4.36,1.8-1.22,.89-2.7,2.26-2.43,3.9,.05,.28-.15,.46-.34,.46-.15,0-.29-.1-.32-.34Z"/><path class="cls-6" d="M30.13,38.17c-.99-.03-1.92-.51-2.44-1.35-.11-.15-.1-.4,.03-.54,.13-.14,.32-.11,.43,.04,.58,.95,1.83,1.16,2.85,.93,1.37-.47,2.02-2,2.65-3.18,.7-1.94,1.21-3.93,2.93-5.23-1.75,2.82-2.23,9.33-6.42,9.33h-.03Z"/><path class="cls-6" d="M24.55,44.02c-.67-.59-1.3-1.34-1.66-2.13,.82,.22,2.68,.86,2.3,1.96-.08,.15-.24,.26-.41,.26-.08,0-.16-.03-.23-.09Z"/><path class="cls-6" d="M22.39,42.02c-.33-1.41-1.99-1.96-3.2-2.33-1.51-.34-3.08-.81-4.49-1.3,2.56-.42,7.59,.45,8.3,3.4,.08,.29-.12,.52-.33,.52-.12,0-.24-.08-.3-.28Z"/><path class="cls-6" d="M18.94,44.11c-1.88-.08-2.83-1.93-3.68-3.36-.42-.71-.8-1.49-.87-2.3,.21,.14,.42,.26,.62,.41,1.18,1.02,1.58,2.82,2.84,3.75,1.33,.77,3.84,.61,4.51-.95,.23-.56,.85-.08,.64,.37-.49,1.47-2.08,2.1-3.55,2.1-.17,0-.34,0-.51-.03Z"/><path class="cls-6" d="M18.68,17.7c-2.3-.45-5.3-2.26-5.71-4.42,1.36,1.08,2.74,2.04,4.29,2.81,2.12,1.14,5.09,.33,6.07-1.92,.09-.2,.34-.28,.52-.14,.48,.55-.27,1.28-.54,1.77-.95,1.19-2.54,1.94-4.06,1.94-.19,0-.38-.01-.57-.04Z"/><path class="cls-6" d="M14.42,14.28c-.76-.11-1.51-.59-1.79-1.33,.05-.02,.18,.09,.25,.09,.83,.1,1.66,.34,2.49,.3,1.67-.21,2.96-1.36,4.48-1.96,.41-.09,1.22-.49,1.33,.14,.02,.18-.07,.44-.28,.47-2.04,.38-3.67,2.36-5.8,2.36-.22,0-.45-.02-.68-.07Z"/><path class="cls-6" d="M26.34,16.83h0c-1.06-.27-1.92-1.08-2.23-2.13-.16-.37,.33-.75,.52-.3,.05,.14,.1,.28,.17,.41,.58,1.21,2.22,1.7,3.4,1.16,1.86-1.09,3.56-2.53,4.97-4.17-.96,2.1-3.42,5.13-6.02,5.13-.27,0-.54-.03-.81-.1Z"/><path class="cls-6" d="M32.18,11.72c-1.13-.47-2.15-1.41-3.43-1.4-.46,.03-.89,.23-1.19,.57-.29,.2-.48-.3-.25-.48,1.34-1.27,2.79-.54,4.27,.18,.98,.48,1.98,.96,2.96,.87-.31,.37-.77,.52-1.25,.52-.38,0-.78-.1-1.12-.28Z"/><path class="cls-6" d="M27.99,19.42c-.33-.08-.23-.5-.21-.74,.04-.68-.18-1.34-.53-1.89-.02-.05-.1-.11-.09-.16,.23-.06,.47-.02,.67,.1,.7,.53,.51,1.61,.48,2.38,0,.15-.13,.31-.29,.31-.01,0-.03,0-.04,0Z"/><path class="cls-6" d="M25.77,22.12c-2.36-.66-3.29-4.11-1.76-5.93-.11,.51-.05,1.09,0,1.62,.03,.87,.02,1.81,.64,2.49,.63,.83,1.71,1.21,2.71,.96,.22-.03,.37,.17,.4,.37,.05,.48-.47,.61-1.01,.61-.38,0-.77-.06-.97-.11Z"/><path class="cls-6" d="M30.02,26.85c-2.33-.09-3.32-2.63-2.72-4.64,.04-.17,.2-.32,.37-.25,.18,.07,.24,.3,.2,.47-.46,1.58,.34,3.56,2.16,3.59,1.62,.09,3.05-.72,4.6-1.01-1.09,1.02-2.61,1.88-4.17,1.88-.15,0-.3,0-.45-.03Z"/><path class="cls-6" d="M34.65,25.88c-1.28-.57-.79-2.4-1.55-3.36-.2-.36-.91-.43-.77-.92,.05-.13,.2-.23,.33-.15,1.36,.61,1.46,2.18,1.89,3.4,.23,.38,.63,.63,.92,.92-.17,.09-.36,.15-.55,.15-.09,0-.18-.01-.26-.04Z"/><path class="cls-6" d="M27.14,36.71c-2.53-2.35-1.94-7.78,1.61-8.81-.2,.21-.51,.49-.69,.75-1.74,2.02-2.57,5.33-.42,7.34,.29,.26,.07,.84-.25,.84-.08,0-.17-.03-.25-.12Z"/><path class="cls-6" d="M29.79,31.98c-.23-.25,.08-.55,.19-.75,.56-1.33-1.27-2-1.5-3.16-.05-.25-.08-.58,.02-.79,.48,.81,1.31,1.34,1.78,2.16,.5,.8,.51,1.8-.15,2.5-.05,.06-.11,.1-.18,.1-.05,0-.11-.02-.15-.07Z"/><path class="cls-6" d="M30.96,42.49c-2.37-.04-3.39-2.6-3.49-4.64,.06-.44-.26-1.3,.31-1.45,.21,0,.33,.22,.33,.41-.05,1.26,.17,2.56,.82,3.64,1.14,1.85,3.59,.96,5.34,.82-.71,.8-1.84,1.25-2.93,1.25-.13,0-.25,0-.37-.02Z"/><path class="cls-6" d="M34.39,42.12c-1.59-.88-.68-3.61-2.46-4.25-.33-.12-.22-.77,.16-.66,.28,.1,.55,.22,.77,.42,1.2,1.04,.8,2.97,2.03,3.96,.18,.18,.44,.33,.59,.5-.19,.09-.4,.15-.61,.15-.17,0-.33-.03-.49-.11Z"/><path class="cls-6" d="M19.94,25.85c.46-.1,.78-.48,.99-.86,1.39-2.07,.95-4.51,.35-6.75,1.78,1.01,1.57,3.58,1.15,5.33-.41,1.22-1.01,2.8-2.41,3.11-.36,0-.45-.7-.08-.83Z"/><path class="cls-6" d="M19.23,22.46c-.72-.72,.98-2.29,1.43-2.9,.26-.33,.48-.75,.88-.91,.3,1.31-1.33,2.05-1.82,3.12-.12,.22-.1,.7-.41,.7-.02,0-.05,0-.08,0Z"/><path class="cls-6" d="M14.54,32.54c-.32-.18-.64-.45-.81-.76,1.12-.14,2.29,.06,3.34-.34,1.58-.86,2.37-2.84,2.19-4.56-.07-.55,.63-.74,.71-.13,.45,2.57-1.36,6.11-4.03,6.11-.44,0-.91-.1-1.4-.31Z"/><path class="cls-6" d="M13.3,32.05c.41-.53,1.09-.9,1.53-1.43,.63-.72,.83-1.65,1-2.56,.1-.46,.21-.91,.32-1.36,.04-.17,.21-.34,.4-.27,.19,.07,.26,.32,.21,.5-.46,1.74-.72,5.17-2.98,5.17-.15,0-.31-.01-.49-.05Z"/><path class="cls-6" d="M19.21,49.18c.72-.68,1.8-1.12,2.58-1.75,1.22-1.12,1.81-2.88,1-4.37-.12-.28-.43-.69-.11-.96,.15-.12,.35-.05,.43,.11,.37,.78,.77,1.59,.8,2.47,.08,2.07-1.71,4.63-3.87,4.63-.27,0-.55-.04-.83-.13Z"/><path class="cls-6" d="M19.67,46.31c-.11-.87-.31-1.9,.38-2.6,.11-.14,.3-.1,.4,.03,.21,.3-.11,.56-.24,.8-.36,1.55,1.01,3.96-.65,5.01,0-1.09,.35-2.16,.12-3.25Z"/><path class="cls-6" d="M22.67,41.71c-.16-.13-.2-.4-.1-.57,.71-1.29,.33-3-.05-4.31-.32-1.32-1.1-2.34-2.02-3.25-.05-.07-.18-.12-.19-.19,.85-.11,1.67,.37,2.1,1.09,1.1,2.08,1.87,4.93,.71,7.12-.07,.11-.17,.19-.29,.19-.06,0-.11-.02-.17-.06Z"/><path class="cls-6" d="M19.72,39.14c-1.07-1.49-.26-3.37,.27-4.9,.23-.66,.47-1.9,.72-.43-.12,1.33-1.06,2.52-.87,3.91,.02,.34,.19,.66,.37,.93,.17,.24-.03,.61-.26,.61-.08,0-.16-.04-.23-.13Z"/><path class="cls-6" d="M23.93,13.59c-.57-1.39-.77-3.96-.02-4.88,.06,1.52,.08,3.12,.53,4.58,.12,.24-.08,.5-.28,.5-.09,0-.18-.06-.24-.2Z"/><path class="cls-6" d="M25.38,14.21c-.35,.04-.53-.15-.55-.35-.02-.2,.13-.4,.46-.34,1.55,.17,3.12-.26,4.42-1.12-.79,1.18-2.2,1.87-3.63,1.87-.24,0-.47-.02-.71-.06Z"/><path class="cls-6" d="M19.27,14.42c.57-.14,3.52-1.6,3.59-.63,.09,.55-.59,.54-.92,.64-.44,.16-.92,.25-1.39,.25-.44,0-.87-.08-1.28-.27Z"/><path class="cls-6" d="M27.11,21.56c-.73-1.07-1.82-2.12-1.7-3.52,.04,0,.05,.12,.08,.16,.56,1.02,1.55,1.77,2.15,2.79,.12,.18,.11,.45-.03,.62-.07,.07-.15,.1-.23,.1-.1,0-.2-.05-.27-.15Z"/><path class="cls-6" d="M27.94,21.5c-.06-.15-.02-.36,.13-.44,1.54-1.01,2.64-2.51,3.62-4.03-.47,1.86-1.67,3.67-3.4,4.64-.03,.02-.07,.03-.11,.03-.11,0-.21-.09-.25-.2Z"/><path class="cls-6" d="M27.75,22.17c.19-.27,.45,0,.6,.15,.99,.82,2.21,1.52,3.52,1.58-.29,.25-.81,.37-1.23,.35-.02,0-.04,0-.07,0-.76,0-3.24-1.36-2.82-2.09Z"/><path class="cls-6" d="M19.63,25.55c-.14-.11-.17-.34-.09-.5,.4-.75,.63-1.59,.9-2.38,.1-.27,.15-.6,.26-.8,.06,.64-.13,3.7-.97,3.7-.03,0-.07,0-.1-.02Z"/><path class="cls-6" d="M19.09,26.25c-1.67-.65-2.86-2.28-3.4-3.95,.03-.04,.1,.13,.14,.16,1.07,1.06,2.1,2.3,3.47,2.92,.4,.15,.3,.89-.1,.89-.03,0-.07,0-.11-.02Z"/><path class="cls-6" d="M18.61,26.66c.05-.18,.22-.37,.43-.29,.9,.57-1.23,3.54-2.01,3.7,.36-1.22,1.16-2.24,1.58-3.42Z"/><path class="cls-6" d="M27.2,35.27c-.1-1.52-.25-3.32,.61-4.62-.13,1.5,.04,2.99,.1,4.49,.04,.31-.17,.5-.37,.5-.16,0-.3-.11-.34-.37Z"/><path class="cls-6" d="M28.19,36.16c-.17,0-.26-.2-.26-.34,0-.16,.1-.33,.27-.34,1.55-.11,2.67-1.4,3.96-2.12-.95,1.25-2.21,2.8-3.96,2.8h0Z"/><path class="cls-6" d="M31.15,39.87c-1.35-.11-2.51-1.12-3.09-2.31-.08-.16-.06-.38,.09-.5,.29-.21,.43,.17,.54,.37,.25,.42,.56,.72,.93,.99,.74,.43,1.45,.93,2.21,1.31-.13,.11-.36,.13-.56,.13-.04,0-.08,0-.12,0Z"/><path class="cls-6" d="M22.01,40.94c-.07-1.38-.77-2.67-.93-4,.93,1.09,1.5,2.44,1.55,3.88,.01,.18-.06,.41-.26,.45-.02,0-.03,0-.05,0-.17,0-.3-.17-.31-.33Z"/><path class="cls-6" d="M18.21,40.81c1.19,.38,2.63,.69,3.86,.42,.23-.06,.39,.2,.42,.39,.07,.7-.89,.64-1.37,.67-1.1,0-2.39-.47-2.91-1.47Z"/><path class="cls-6" d="M21.23,46.52c.24-1.16,.69-2.34,.65-3.53,0-.48,.6-.49,.6,0,.08,1.29-.21,2.69-1.24,3.54h0s0,0,0-.01Z"/><path class="cls-6" d="M38.65,13.57c.92-.99,1.87-2.01,2.63-3.13,.1-.23,.28-.58,.57-.37,.16,.13,.18,.37,.1,.55-.33,.68-.81,1.27-1.27,1.83-.83,.81-1.56,2.43-2.82,2.47,.05-.54,.41-1,.8-1.36Z"/><path class="cls-6" d="M44.49,14.48c-.86-.34-3.67-3.9-2.72-4.64,.2-.07,.37,.1,.41,.28,.33,1.22,1.2,2.34,2.07,3.2,.35,.21,1.09,1.18,.4,1.18-.05,0-.1,0-.16-.02Z"/><path class="cls-6" d="M39.69,50.58c-.13-.13-.15-.31-.14-.48,.1-2.3,.13-4.59,.2-6.89,.18-4.38,.2-8.76,.41-13.13,.25-6.35,1.45-12.63,1.18-18.98-.06-.36,.44-.56,.5-.1,.43,7.79-1.19,15.51-1.16,23.3-.1,5.15-.29,10.3-.4,15.46,.04,.31-.03,.92-.35,.92-.07,0-.15-.03-.24-.1Z"/><path class="cls-6" d="M39.11,50.78c-.54-.14-2.24,.16-2.18-.6,.02-.17,.15-.34,.34-.31,1.63,.21,3.26,.19,4.86-.11,.39-.07,.88-.03,1.19,.23-.53,.68-1.5,.65-2.25,.74-.46,.05-.91,.07-1.37,.07-.2,0-.39,0-.59-.02Z"/></g></g></g></svg>