<?xml version="1.0" encoding="UTF-8"?><svg id="Layer_1" xmlns="http://www.w3.org/2000/svg" xmlns:xlink="http://www.w3.org/1999/xlink" viewBox="0 0 56.69 56.69"><defs><style>.cls-1{fill:#fff;}.cls-2,.cls-3{fill:#3bb54a;}.cls-4{clip-path:url(#clippath-2);}.cls-5{clip-path:url(#clippath-1);}.cls-6{clip-path:url(#clippath-4);}.cls-7{clip-path:url(#clippath);}.cls-8{fill:none;}.cls-9{clip-path:url(#clippath-3);}.cls-10{clip-path:url(#clippath-5);}.cls-11{fill:#54c9eb;}.cls-3{opacity:0;}.cls-12{fill:#010101;}</style><clipPath id="clippath"><rect class="cls-8" x="4.25" y=".57" width="48.19" height="55.56"/></clipPath><clipPath id="clippath-1"><rect class="cls-8" x="15.49" y=".57" width="27.05" height="30.5"/></clipPath><clipPath id="clippath-2"><rect class="cls-8" x="29.14" y="12.33" width="23.3" height="43.14"/></clipPath><clipPath id="clippath-3"><rect class="cls-8" x="32.88" y="15.08" width="12.35" height="35.88"/></clipPath><clipPath id="clippath-4"><rect class="cls-8" x="6.02" y="18.42" width="21.82" height="33.65"/></clipPath><clipPath id="clippath-5"><rect class="cls-8" x="4.25" y="18.41" width="24.99" height="37.71"/></clipPath></defs><rect class="cls-3" x="0" y="0" width="56.69" height="56.69"/><g class="cls-7"><g class="cls-5"><path class="cls-11" d="M30.24,29.72c.27-9.07-.14-18.17,.14-27.22-.39-.72,.5-1.63,.88-.62,.3,9.13,.19,18.37,.11,27.54,.15,.87-.93,1.34-1.12,.3Z"/><path class="cls-11" d="M20.96,25.79c-.32-.48,.13-.9,.46-1.21,1.41-1.16,2.68-2.46,4.04-3.67,4.96-4.89,9.67-9.99,14.31-15.17,.67-.45,1.13,.65,.67,1.11-1.23,1.13-2.22,2.48-3.38,3.7-4.15,4.73-8.63,9.17-13.26,13.42-.68,.67-1.57,1.2-2.2,1.89-.19,.2-.47,.16-.63-.06Z"/><path class="cls-11" d="M39.82,25.52c-6.35-6.08-11.91-13.08-18.59-18.78-.47-.25-.21-1.25,.36-.98,6.98,5.58,12.46,12.83,18.98,18.92,.76,.62-.06,1.8-.76,.83Z"/><path class="cls-11" d="M40.31,16.67c-7.77-.16-15.54-.53-23.31-.27-.6,0-.6-1.13,0-1.13,7.78-.54,15.57-.16,23.35-.07,1.16-.15,1.13,1.73-.05,1.48Z"/><path class="cls-11" d="M34.62,11.55c.05-1-.19-1.94-.23-2.93-.06-.44,.06-1.08,.6-1.1,.51-.01,.66,.7,.62,1.02,.08,.99,.16,2.05,.08,3.01-.01,.87-1.07,.87-1.07,0Z"/><path class="cls-11" d="M37.7,9c-.44-.16-.39-.73-.32-1.08,0-.59-.06-1.21-.06-1.79-.02-.55-.24-1.43,.46-1.62,.33-.06,.61,.23,.67,.53,0,.76,.46,4.23-.76,3.96Z"/><path class="cls-11" d="M38.38,9.3c-.74-.14-.62-1.54,.17-1.45,1.04,.17,2.08-.26,3.09-.15,.53,.23,.6,1.07,.16,1.42-1.05,.39-2.31,.27-3.42,.18Z"/><path class="cls-11" d="M35.09,11.8c-.06-1.3,1.74-.82,2.57-.99,.42-.03,.97-.27,1.24,.18,.75,1.48-1.17,1.44-2.13,1.39-.67-.1-1.57,.36-1.69-.57Z"/><path class="cls-11" d="M30.55,9.41c-.15-.29-.11-.71,.16-.92,.65-.55,1.02-1.35,1.63-1.95,.73-1.09,1.69,.19,.93,.94-.68,.46-1.9,3-2.72,1.92Z"/><path class="cls-11" d="M30.64,5.33c-.54-.91,.66-1.58,1.15-2.21,.54-.38,1.03-1.41,1.77-1.15,.55,.33,.42,1.18-.08,1.49-.74,.68-1.38,1.22-2.02,1.94-.23,.27-.63,.2-.82-.07Z"/><path class="cls-11" d="M30.06,5.63c-.66-.93-1.76-1.56-2.28-2.55-.11-.45,.12-1.02,.62-1.05,1.07,.36,1.68,1.67,2.45,2.46,.57,.53-.1,1.81-.8,1.15Z"/><path class="cls-11" d="M29.78,9.3c-.52-.7-1.28-1.29-1.7-1.99-.19-.46,.09-1.18,.66-1.1,.45,.13,.66,.63,.99,.94,.46,.63,1.6,1.37,.92,2.22-.23,.28-.67,.22-.86-.08Z"/><path class="cls-11" d="M23.35,8.88c-.45-.1-.53-.64-.43-1.01-.01-1.11-.53-2.33-.06-3.39,.66-.77,1.25,.3,1.06,.96-.17,.88,.71,3.32-.57,3.45Z"/><path class="cls-11" d="M26.04,10.94c-.56-.23-.36-.88-.32-1.34,.12-.89-.22-1.96,.27-2.76,.62-.58,1.15,.33,1.01,.92-.18,.8,.25,3.33-.96,3.17Z"/><path class="cls-11" d="M20.37,9.72c-.82-.15-.85-1.47-.1-1.75,1.02-.14,2.11-.11,3.16-.11,.88,.05,.88,1.64,0,1.67-1.05-.08-2.01,.25-3.06,.19Z"/><path class="cls-11" d="M22.7,12.36c-.55-.23-.64-.96-.23-1.37,1.05-.61,2.43-.34,3.61-.56,.84-.09,.97,1.39,.18,1.53-1.17,.13-2.39,.47-3.56,.4Z"/><path class="cls-11" d="M23.55,15.99c-.63-.77-1.56-1.35-1.96-2.26-.11-.48,.15-1.12,.73-1.05,.86,.42,1.32,1.49,2.06,2.13,.58,.54-.1,1.86-.82,1.18Z"/><path class="cls-11" d="M19.28,16.41c-.48-.06-.41-.63-.61-.92-.45-.61-1.12-1.12-1.39-1.83-.18-.53,.32-1.3,.91-.95,.58,.57,1.05,1.26,1.51,1.93,.33,.53,.48,1.8-.42,1.77Z"/><path class="cls-11" d="M17.43,19.13c-1.63-.91,1.29-2.99,2-3.72,.75-.52,1.25,.8,.65,1.25-.61,.54-1.15,1.13-1.67,1.76-.24,.31-.53,.84-.98,.72Z"/><path class="cls-11" d="M21.28,18.88c-.56-.94,.58-1.63,1.15-2.22,.63-.38,1.71-2.07,2.38-1.07,.17,.32,.12,.79-.18,1.03-.75,.64-1.4,1.3-2.07,2-.29,.41-.91,.81-1.28,.27Z"/><path class="cls-11" d="M24.4,21.08c-.55-.12-1.25,.14-1.68-.28-.31-.33-.28-.89,0-1.22,.95-.61,2.52,.16,3.58-.27,.4-.1,.69,.34,.73,.68,.08,1.33-1.75,1.05-2.63,1.1Z"/><path class="cls-11" d="M19.79,24.04c-.89-.19-.7-1.8,.25-1.66,.99,.15,3.88-.75,3.89,.74,0,.36-.23,.81-.65,.81-1.17-.02-2.34,.14-3.5,.12Z"/><path class="cls-11" d="M23.19,27.4c-.55-1.01-.08-2.38-.13-3.49-.02-.41,.07-1,.58-1.02,1.06,.27,.4,1.97,.62,2.79,.1,.71,.06,2.5-1.07,1.71Z"/><path class="cls-11" d="M26.15,24.61c-.75-.98,.03-2.55-.13-3.65,0-.91,1.12-.93,1.13,0-.09,.84,.61,4.34-1,3.65Z"/><path class="cls-11" d="M27.44,24.84c.06-.87,1.01-1.28,1.54-1.86,.55-.42,1.61-1.82,2.14-.72,.28,.65-.37,1.04-.79,1.38-.73,.54-2.47,3.32-2.89,1.2Z"/><path class="cls-11" d="M33.13,25.54c-.97-.45-1.58-1.42-2.23-2.23-.33-.32-.52-.83-.23-1.24,.19-.28,.59-.35,.82-.07,.69,.84,1.49,1.56,2.26,2.29,.29,.48,.02,1.36-.63,1.25Z"/><path class="cls-11" d="M27.87,29.3c-.63-1.33,1.35-2.09,2.06-2.95,.26-.38,.75-.66,1.08-.19,.57,1.28-1.33,2.11-1.97,3-.28,.38-.84,.61-1.17,.14Z"/><path class="cls-11" d="M33.25,29.54c-.88-.69-1.58-1.53-2.53-2.12-.33-.18-.4-.64-.28-.97,.57-1.28,2.54,1.09,3.27,1.47,.8,.39,.54,2.04-.46,1.62Z"/></g><g class="cls-4"><path class="cls-12" d="M37.25,53.6c-6.93-1.27-7.81-10.04-3.01-14.25,.42-.33,1.22-.84,1.61-.23,.25,.58-.11,.92-.63,1.02-2.54,1.78-3.53,5.42-2.66,8.29,.7,2.28,3.18,3.64,5.38,3.97,4.21,.71,8.29-2.81,8-7.08-.17-1.82-1.41-3.41-2.57-4.69-1.2-.65-.51-2.4,.59-1.21,6.47,5.7,1.82,15.74-6.7,14.18Z"/><path class="cls-12" d="M42.5,39.69c-.09-4.67,.09-9.34-.02-14.02-.08-3.25,.49-6.52,.03-9.76-.2-2-4.58-2.16-5.78-1.11-2.1,5.46-.78,11.77-.94,17.53,.03,2.23,.08,4.45-.02,6.69,0,.22-.14,.49-.39,.49s-.4-.27-.39-.49c-.02-3.2-.1-6.41-.18-9.61-.19-4.88-.55-10,.79-14.77,1.09-2.01,4.07-1.9,5.94-1.15,2.25,.59,2.05,3.27,2.19,5.13-.04,3.27-.26,6.54-.18,9.82,.19,3.65-.08,7.33,0,10.96,.12,.71-.83,1.13-1.04,.29Z"/><path class="cls-12" d="M45.13,38.58c-.55-.24-.25-1.01,.4-.77,1.74,.09,3.49-.16,5.23-.1,.17-.02,.35,.06,.42,.22,.2,.36-.11,.79-.51,.68-1.84-.06-3.7,.26-5.53-.02Z"/><path class="cls-12" d="M50.92,33.11c-1.83,0-3.65-.29-5.48-.28-.38-.01-.37-.7,0-.71,1.85-.03,3.7,.12,5.55,.17,.43,.08,.38,.83-.07,.82Z"/><path class="cls-12" d="M45.04,26.63c0-.2,.12-.42,.34-.43,1.09-.02,2.18-.03,3.27-.07,.69,.13,3.06-.61,2.67,.65-.08,.13-.19,.22-.35,.22-1.86,0-3.72,.08-5.58,.07-.22,0-.34-.24-.34-.43Z"/><path class="cls-12" d="M48.37,21.31c-.94,0-1.88,0-2.83,0-.49,0-.49-.92,0-.92,1.91,.1,3.95-.21,5.79,.11,.8,1.39-2.26,.66-2.96,.81Z"/><path class="cls-12" d="M45.09,15.21c-.02-.17,.07-.43,.26-.45,1.81-.23,3.68-.16,5.48-.08,1.26,1.38-2.82,.64-3.46,.77-.67-.03-1.31,0-1.96,.09-.18,0-.3-.16-.32-.33Z"/><path class="cls-12" d="M46.46,18.44c-.48-.07-1.3,.13-1.29-.58,0-.23,.15-.55,.42-.53,.41,.07,.9-.07,1.27,.15,.44,.32,.14,1.06-.4,.96Z"/><path class="cls-12" d="M45.1,24.1c-.09-.81,.86-.67,1.4-.73,.29-.05,.62,.01,.76,.31,.32,.84-.63,.87-1.2,.85-.4,.07-.92,.12-.97-.42Z"/><path class="cls-12" d="M45.03,29.76c-.02-.64,.66-.58,1.12-.62,.3-.02,.53,.27,.53,.56,0,.66-.75,.58-1.23,.62-.27,0-.42-.33-.42-.56Z"/><path class="cls-12" d="M45.15,35.2c0-.27,.16-.55,.45-.57,.53-.02,1.43-.29,1.47,.49-.03,.76-.94,.55-1.47,.64-.29,.02-.45-.33-.45-.57Z"/><path class="cls-1" d="M45.95,45.32c.29,4.27-3.8,7.79-8,7.07-2.2-.33-4.68-1.69-5.38-3.96-.88-2.87,.12-6.51,2.66-8.29,.51-.1,.88-.44,.63-1.02-.03-.04-.06-.08-.09-.11h0c.11-2.23,.05-4.45,.02-6.69,.16-5.76-1.16-12.07,.94-17.53,1.2-1.06,5.58-.9,5.78,1.11,.46,3.23-.11,6.5-.03,9.75,.11,4.68-.06,9.36,.02,14.02,.07,.27,.21,.41,.37,.45,.1,.19,.26,.36,.5,.5,1.16,1.27,2.41,2.86,2.57,4.68Z"/></g><g class="cls-9"><path class="cls-11" d="M41,40.73c2.64,1.25,3.93,4.81,2.58,7.4-1.01,1.14-2.39,2.31-3.93,2.52-1.79-.23-3.91-.38-5.06-1.99-1.39-2.67-.54-6.56,2.49-7.63,.43-.61,.07-1.38,.15-2.06,.23-1.92-.14-3.8-.06-5.68,.48-5.66-.79-11.39,.5-16.97,.41-.74,1.33-.95,2.13-.82,1.84,.68,.95,3.13,1.12,4.62,.65,6.89,.17,13.7,.1,20.59Zm-4.17,8.2c-.11-.08-.21-.15-.31-.23,0,.03,0,.07,0,.1,.1,.05,.21,.09,.32,.12Z"/></g><g class="cls-6"><path class="cls-2" d="M12.63,31.35c-.56,0-1.06-.19-1.61-.25-.39-.1-.9-.03-1.17-.36-.45-.15-1.09-.29-1.16-.86-.39-.25-1-.06-1.25-.5-.23-.45,.21-1.32,.77-1.03,.05-.85,1.04-.54,1.61-.56,.91-.07,2.37,.37,3.32,.55-.68-1.79-1.07-3.73-.71-5.64-.02-.46,.12-3.98,1.02-2.87,.08,.06,.13,.15,.16,.25,.01,.05,.02,.11,.03,.16,.15,0,.27,.11,.32,.25,.08,.19,.14,.38,.21,.57,.34,.22,.43,.69,.6,1.02,1.02,1.23,1.44,3.64,1.52,5.25,.5-.69,2.75-2.4,3.44-1.42,.29-.04,.58-.14,.87-.11,.52,.11,.52,1.01,.06,1.12h0s0,0,0,0c-.07,.03-.13,.08-.17,.11-.02,.42-.43,.6-.7,.85-.18,.65-.92,1-1.37,1.46-.56,.35-1.2,1.35-1.92,1.03-.23,0-.38-.15-.46-.35-.04,0-.09,0-.13-.02-.2-.04-.34-.19-.41-.36-.02,0-.05,0-.07,0-.05,.06-.11,.1-.18,.13-.01,.02-.03,.04-.04,.06-.12,.13-.29,.13-.42,.03-.09,0-.2-.02-.29-.03l-.18-.03v.03c.03,.22-.05,.49-.2,.67,.14,.88-.87,.96-1.49,.85Z"/><path class="cls-2" d="M20.17,35.73c-.09-.02-.16-.07-.21-.14-.37-.08-.84-.26-.85-.71-.14,0-.27-.04-.38-.13-.06-.05-.1-.11-.14-.17-.03,.12-.1,.24-.24,.26-.54-.03-.34-.88-.38-1.25-.37-.67,1.54-3.7,2.32-3.28,1.06-.24,.18,2.08-.24,2.32h0c-.02,.05-.06,.09-.1,.12-.12,.28-.19,.68-.49,.81-.05,.13-.11,.26-.17,.39-.01,.02-.02,.05-.03,.07,.09,0,.19,0,.28,.01,.06,0,.12,.01,.18,.02,.04-.04,.09-.07,.14-.1,.13-.08,.27-.16,.41-.24,.28-.33,.79-.34,1.15-.56,.31-.11,.64-.33,.98-.24,.92-.22,1.85-.5,2.8-.55,.22,0,.49,0,.58,.25,.17,.48-.35,.61-.71,.69-.08,.28-.4,.34-.63,.46,.2,.35-.07,.69-.41,.78-.86,.32-1.56,.88-2.44,1.09-.4,.24-.94,.04-1.39,.1Z"/><path class="cls-2" d="M11.84,35.46s.03,.01,.05,.02c.02-.18,.04-.37,.08-.55-.09-.02-.17-.04-.26-.06-.02,0-.05-.01-.07-.02,.04,.19,.1,.4,.05,.59,.05,0,.1,0,.16,.02Zm.65,3.2l.03-.02s.06-.05,.09-.07v-.02c0-.07,0-.13,0-.2-.08,.09-.13,.17-.2,.26,.03,0,.05,.02,.08,.04Zm-2.75,3.9c-.93-.73,.22-2.32,.8-3.01,.13-.19,.43-.35,.61-.12,.07-.08,.14-.17,.21-.25,.03-.04,.07-.08,.1-.12,.01-.1,.04-.2,.07-.29,.04-.1,.09-.2,.14-.29-.19,.07-.37,.14-.56,.21-.17,.06-.35,.1-.5-.02h0c-.34,.05-.74,.22-1.05,.03-.58,.04-1.75,.5-2.18,.01-.31-.05-.75,.04-.88-.34-.16-.4,.17-.81,.6-.68,.11-.13,.26-.24,.41-.33,.17-.11,.36-.21,.55-.29,.65-.92,2.06-1.1,3.08-1.49-.02-.03-.04-.07-.06-.11-.01-.03-.02-.07-.03-.1-.09,.31-.52,.43-.68,.11-.26,.49-.74,.1-.84-.29-.14,.04-.29,0-.4-.11-.03-.03-.05-.05-.08-.08-.42,.07-.61-.49-.78-.79-.98,.14-.88-2.3,.23-1.86,1.35-.17,2.76,.29,3.96,.93,.06-.01,.12,0,.18,.03,.09,.05,.16,.13,.22,.21,.42,.1,1.29,1.16,.66,1.47,.03,.14-.01,.31-.12,.4-.05,.04-.1,.06-.15,.05,.11,.57,.11,1.15,.14,1.73,.06,.02,.11,.04,.17,.08,.74-.45,.82,.66,.86,1.15,.03,.34,.1,.91-.35,.97-.05,.33,.01,.91-.43,.96v.02c-.08,.12-.23,.21-.37,.19h0c-.25,.31-.4,.88-.83,.93-.31,.21-.64,.69-1.06,.57-.17,.16-.44,.32-.64,.11-.3,.17-.62,.64-.99,.41Z"/><path class="cls-2" d="M13.03,47.44s.1-.08,.15-.1c.02-.08,.03-.17,0-.25-.1,.02-.14,.05-.19,.08-.02,.06-.05,.13-.1,.18,.05,.02,.1,.05,.15,.09Zm-2.99,3.72c.24-1.07,.89-2.1,1.45-3.05-.37,.05-.73,.07-1.1,.02-.49,.14-1.34,.48-1.55-.21-.41,.04-.87,.29-1.26,.1-.33-.22-.31-.74-.04-1,.6-.43,1.27-.77,1.97-1.03,.57-.79,1.84-.67,2.72-.83-.39-.52-.69-1.1-1.03-1.67-.17-.4-.67-.9-.33-1.32,.32-.32,.58,.14,.7,.41-.02-.18,.05-.39,.21-.48,.07-.04,.14-.05,.2-.04,.15-.28,.51-.22,.63,.06,.06-.27,.41-.42,.59-.18,.54,.43,.67,1.27,1.06,1.86,.44,.08,.43,.67,.47,1.02,.14,.43-.1,1.42-.42,1.75l-.02,.06c-.04,.14-.09,.27-.14,.41,.47,.52-1.25,4.51-2.05,3.78-.2,.3-.59,.69-.88,.27-.1,.07-.21,.1-.34,.05-.2,.43-.78,.62-.86,.01Z"/><path class="cls-2" d="M23.87,50.53s-.01-.04-.02-.06c-.11-.03-.21-.1-.27-.19-.03-.04-.05-.09-.07-.14-.03,0-.07,0-.1,0-.05,0-.09-.02-.13-.04-.11,.13-.26,.21-.42,.18-.13-.02-.23-.09-.3-.18-.04,.02-.08,.03-.13,.03-.16,.02-.29-.05-.39-.15-.15,.1-.34,.13-.51,.03-.19-.11-.28-.3-.32-.51-.51,.05-.67-.52-.89-.86-.92-.27-.34-1.49,.13-1.95,0-.08,0-.16,0-.24,0-.12,0-.26,0-.4-.2-.33-.06-.71,0-1.06-.5,.23-.78-.44-.7-.85-.39-.71-1.36-1.92-.62-2.64,.06-.41,.19-.92,.67-.99,.31-.6,.57-1.49,1.27-1.7,.08-.08,.17-.16,.26-.21,.1-.05,.21-.1,.32-.09,.43-.63,1.2-.87,1.06,.14-.25,.36-.37,.81-.41,1.24,.35,.49,.67,3.42-.23,3.36,0,.13-.01,.26-.03,.39,.88-.42,1.83-1.11,2.83-1.05,.37-.11,.87-.25,1.09,.17,.5-.16,1.4-.57,1.5,.24h0c.05,.35-.18,.6-.48,.73h-.01c-.08,.07-.15,.12-.23,.18-.13,.44-.67,.56-.96,.84-.64,.65-1.35,1.24-2.06,1.81,.64,1.11,.8,2.39,.99,3.64,.12,.55-.62,.94-.85,.32Z"/><path class="cls-2" d="M20.66,38.41c-.77-.02-1.56-.41-1.93-1.12-.46,.16-.94-.49-.75-.92-.4-.91,.38-1.42,.88-.47,.01,0,.02-.01,.04-.02l.02-.03s.04-.05,.06-.07c-.16-.6,.49-.7,.67-.15,.09,.03,.18,.08,.26,.13,.59,.03,1.06,.54,1.55,.83,.28-.11,.47,.21,.57,.42,.22,0,.31,.27,.47,.39,.37,.34-.07,1.04-.49,.61-.06,.05-.13,.08-.21,.09h-.01c-.05,.06-.1,.1-.17,.14-.14,.42-.65,.44-.95,.17Z"/></g><g class="cls-10"><path class="cls-12" d="M17.35,53.97c-.86-3.88-.19-7.9-.7-11.81-.49-3.98-1.73-7.93-1.49-11.91,1.09,4.19,1.84,8.48,2.36,12.77,.4,3.57-.26,7.21,.38,10.74,.12,.39-.42,.69-.55,.21Z"/><path class="cls-12" d="M14.63,30.89c-3.46-2.69-4.11-7.94-1.65-11.43-.46,2.43-1.17,5.16-.17,7.54,.55,1.2,1.26,2.26,2.24,3.07,.4,.28,.06,1.16-.42,.81Z"/><path class="cls-12" d="M14.66,30.43c-.22-.53,.36-.69,.69-.93,1.1-1.43,.68-3.46,.37-5.08-.44-1.92-1.96-3.28-2.33-5.19,.06-.02,.16,.17,.22,.2,2.75,2.24,4.53,7.91,2.13,10.87-.3,.22-.87,.66-1.08,.12Z"/><path class="cls-12" d="M14.45,29.48c-.16-2.15-.81-4.22-.73-6.38,.23,.44,.41,1.12,.61,1.65,.27,.43,1.54,6.7,.12,4.73Z"/><path class="cls-12" d="M15.65,31.08c-.37-.14-.93-.36-.74-.86,.07-.19,.27-.32,.46-.21,.27,.15,.47,.28,.77,.25,1.92-.42,2.98-2.2,4.29-3.46,.45-.33,1.07-.72,1.54-.83-1.69,2.01-3.31,5.35-6.32,5.11Z"/><path class="cls-12" d="M16.22,27.78c-.76-1.12,1.7-3.07,2.84-2.79,1.02,.23,1.93,.83,2.87,1.24-.09,.15-.36,.25-.54,.31-.82,.27-1.53-.34-2.25-.59-.71-.2-1.43,.28-1.94,.73-.45,.24-.45,1.31-.98,1.1Z"/><path class="cls-12" d="M15.57,30.19c-.48-.87,1.02-1.65,1.63-2.08-.22,.69-.7,1.4-1.12,2.03-.13,.18-.36,.21-.51,.04Z"/><path class="cls-12" d="M10.72,32c-1.75-.37-3.32-1.72-4.11-3.24,1.4,.53,2.6,1.5,4.01,2,1,.24,2.08,.19,3.03-.03,.15-.05,.31-.1,.41-.16,.58-1.32,1.47-.24,.8,.68-.97,1.11-2.8,.93-4.14,.76Z"/><path class="cls-12" d="M6.2,28.7c1.21-1.23,3.05-1.98,4.8-1.61,.64,.15,2.01,.54,1.68,1.41-.11,.21-.35,.29-.55,.14-.89-.7-2.15-.62-3.17-.4-.89,.23-1.89,1.25-2.77,.45Z"/><path class="cls-12" d="M13.9,30.5c-1.08-.22-2.35-.47-3.17-1.19,.83-.16,1.7-.3,2.52,0-.02,0-.04,0-.06-.01,.46,.17,1.27,.09,1.18,.78-.02,.23-.21,.48-.46,.43Z"/><path class="cls-12" d="M16.15,36.78c-.24-1.02,1.61-1.26,2.28-1.3-.44,.39-1.81,2.22-2.28,1.3Z"/><path class="cls-12" d="M15.65,37.31c-.7-.21-1.47-.47-2.09-.75,.33-.21,.65-.38,1.03-.47,.59-.12,1.7-.15,1.62,.71-.03,.25-.26,.59-.55,.5Z"/><path class="cls-12" d="M17.16,47.1c-.39-1.39,2.58-1.76,3.54-1.59-.84,.54-1.88,1.03-2.76,1.6-.23,.22-.6,.35-.78-.01Z"/><path class="cls-12" d="M16.53,47.66c-.83-.33-1.81-.63-2.51-1.1,.85-.34,3.23-.73,3.12,.69-.07,.27-.33,.51-.61,.41Z"/><path class="cls-12" d="M18.44,35.83c-.46-.48,.15-1.13,.38-1.58,1.48-2.27,4.67-2.86,6.99-1.74-1.47,.61-3.15,.32-4.59,.96-.96,.48-1.84,1.23-2.25,2.21-.1,.21-.35,.29-.53,.14Z"/><path class="cls-12" d="M20.22,36.66c-.8,.07-2.84-1.25-1.53-1.86,.15,0,.25,.11,.34,.22,.4,.56,1.17,.57,1.79,.56,1.93-.14,3.13-1.75,4.54-2.83,.16-.14,1.19-.31,1-.04-1.23,2.08-3.59,4.15-6.15,3.96Z"/><path class="cls-12" d="M17.38,35.57c-1.05-3.01,.77-6.18,4.05-6.02-1.16,1.12-3.06,1.74-3.45,3.47-.11,.76,.03,1.52,.18,2.25,.05,.24-.02,.55-.27,.64-.23,.09-.47-.12-.51-.34Z"/><path class="cls-12" d="M19.74,33.47c-.29-.44,.26-.76,.44-1.11,.16-.27,.24-.68,.29-.95,.08-.72,.23-1.79,1.06-1.92-.3,1.39-.13,2.99-1.33,4.02-.13,.16-.35,.12-.46-.04Z"/><path class="cls-12" d="M18.78,35.73c-.18-1.18,2.27-1.42,3.13-1.43-.78,.64-1.83,1.24-2.77,1.71-.16,0-.3-.13-.35-.28Z"/><path class="cls-12" d="M18.38,35.69c-.87-.46,.12-2.09,.51-2.67,.06,.71,0,1.52-.05,2.25-.02,.23-.22,.47-.46,.42Z"/><path class="cls-12" d="M20.24,45.67c-.58-.82,.62-1.8,1.2-2.3,2.16-1.41,5.16-2,7.49-.8-1.33,1.05-3.19,.01-4.67,.65-1.33,.41-2.87,.94-3.46,2.3-.11,.21-.37,.3-.56,.15Z"/><path class="cls-12" d="M21.35,47.09c-.66-.16-1.59-1.74-.89-2.19,.22-.08,.4,.11,.45,.3,.08,.62,.48,1.05,1.12,1.05,1.5,.08,2.85-.83,3.9-1.79,.8-.74,1.53-1.82,2.74-1.77-1.47,2.28-4.31,5.21-7.31,4.4Z"/><path class="cls-12" d="M19.91,45.51c-3.01-2.83-.82-7.54,3.07-7.93-.85,.99-2.09,1.73-3,2.71-.88,1.07-.74,2.71-.13,3.86,.13,.23,.31,.39,.48,.54,.39,.29,.06,1.16-.43,.82Z"/><path class="cls-12" d="M20.02,45.18c-.09-.17-.03-.38,.09-.52,.84-.9,2.19-1.72,2.33-3.05-.08-1.36-.93-3.1,.74-3.86-.11,.65-.31,1.42-.16,2.09,.8,2.46-.53,3.92-2.4,5.3-.16,.17-.46,.3-.6,.04Z"/><path class="cls-12" d="M24.35,51.48c-1.57-.67-3.79-.59-4.55-2.37-.46-.69-.4-4.42,.82-3.97,.43,.37,0,.86-.12,1.27-.26,1.08-.21,2.53,.98,2.98,.89,.38,1.82,.41,2.67,.85,.47,.26,.86,.73,1.04,1.22-.28,.05-.55,.06-.83,.02Z"/><path class="cls-12" d="M24.84,51.19c-1.03-.39-.26-1.82-.42-2.64-.03-.45-.17-.91-.6-1.1-.25-.14-.56-.05-.77-.25-.44-.75,.68-.62,1.07-.41,1.36,.62,1.12,2.37,1.06,3.59,0,.27,.01,.78-.34,.81Z"/><path class="cls-12" d="M20.19,44.5c-.15-.78,0-1.6,.5-2.23,.05,.09,0,.33,.02,.44,.03,.57,.13,1.1,.22,1.65,.09,.57-.66,.76-.74,.13Z"/><path class="cls-12" d="M20.59,45.69c-.06-1.1,2.19-.68,2.85-.65-.56,.37-2.59,1.79-2.85,.65Z"/><path class="cls-12" d="M21.86,48.37c-.85-.04-2.04-1.63-1.32-2.31,.47-.22,.58,.4,.7,.72v-.02c.21,.52,.48,1.09,.62,1.61Z"/><path class="cls-12" d="M5.43,38.46c1.93-1.86,4.21-4.29,7.16-3.61,.73,.13,2.04,1.1,1.54,1.9-.17,.18-.42,.14-.56-.05-.8-1.39-2.77-1.03-4.02-.5-1.4,.69-2.43,2.37-4.12,2.26Z"/><path class="cls-12" d="M8.9,39.95c-.67,.05-4.34-.93-2.54-1.6,.85-.13,1.66,.43,2.52,.43,1.61,.14,3.59-.34,4.49-1.78,.11-.26,.14-.55,.16-.83,.07-.62,.83-.44,.73,.13-.03,2.61-3.09,3.87-5.36,3.64Z"/><path class="cls-12" d="M13.66,36.49c-.42-.28,0-.75,.02-1.12,0-.78-.47-1.53-1.09-1.98-1.64-1.06-3.68-.79-5.46-.93,2.37-1.92,7.33-.7,7.24,2.77-.05,.4-.14,1.41-.71,1.25Z"/><path class="cls-12" d="M9.9,35.89c-1.2-.31-2.43-1.05-2.49-2.42-.02-.29-.08-.77,.2-.94,.68,.05,.49,.93,.72,1.35,.34,.67,1.14,.89,1.79,1.13,.44,.15,.28,1.03-.22,.88Z"/><path class="cls-12" d="M8.44,43.36c.58-1.03,2.05-1.04,2.97-1.56,1.68-.72,3.32-2.5,2.45-4.41-.38-.46-.06-1.34,.45-.75,2.13,3.54-2.45,7.38-5.86,6.72Z"/><path class="cls-12" d="M9.33,43.08c-.69-1.22-.02-3.01,1.06-3.8,.44-.3,.73,.47,.37,.72-.14,.1-.31,.24-.39,.34-.26,.38-.45,.91-.53,1.31-.08,.48-.04,1.11-.5,1.43,0,0,0,0-.01,0Z"/><path class="cls-12" d="M8.89,48.79c-.71-.04-1.38-.35-1.91-.82,1-.38,2.18-.08,3.26-.16,1.29-.13,2.65-.61,3.43-1.67,.13-.19,.38-.22,.55-.05,.58,1.26-2.08,2.36-3.06,2.59-.74,.17-1.51,.18-2.27,.11Z"/><path class="cls-12" d="M6.02,48.08c1.57-1.86,3.85-3.92,6.5-3.45,.81-.02,2.12,1.14,1.55,1.92-.58,.34-.54-.72-.97-.82-1.37-.49-2.94-.05-4.11,.76-.93,.63-1.68,1.85-2.97,1.59Z"/><path class="cls-12" d="M14.22,46.45c-.34-.4,.22-.77,.31-1.13,.14-1.07-.6-2-1.16-2.84-.15-.27-.42-.53-.54-.78,.89-.14,1.58,.51,1.91,1.28,.53,1.08,.83,2.47-.07,3.44-.11,.16-.31,.18-.45,.04Z"/><path class="cls-12" d="M11.78,45.07c-.56-.44-1.19-1.3-.62-1.95,.39,.38,.76,.79,1.16,1.17,.39,.35-.06,1.23-.54,.78Z"/><path class="cls-12" d="M10.86,52.04c-1.94-.24,.99-1.48,1.51-1.81,.85-.59,1.84-1.6,1.53-2.71-.15-.38-.71-.7-.41-1.16,.42-.47,.78,.38,1,.68,.94,2.26-1.51,4.68-3.63,4.99Z"/><path class="cls-12" d="M10.18,52.62c-.5-1.34-.14-2.86,.48-4.09,.16-.24,.3-.56,.57-.68,.34-.05,.48,.44,.29,.67-.58,.74-.82,1.72-.88,2.61,0,.52,.05,1.18-.45,1.5,0,0,0,0-.01,0Z"/><path class="cls-12" d="M12.76,48.85c.15-.5,.27-1.18,.77-1.43,1.03,.17,.06,1.4-.77,1.43Z"/><path class="cls-12" d="M13.58,46.88c-.66-.08-1.45-.18-2-.5,.6-.31,2.43-1.1,2.45,.08-.03,.24-.21,.45-.46,.42Z"/><path class="cls-12" d="M13.68,46.04c-.3-.51-.55-1.16-.39-1.73,.48,.26,.92,.61,1.16,1.12,.32,.51-.38,1.28-.76,.62Z"/><path class="cls-12" d="M12.55,37.17c-2.68-.31,.14-.89,1.15-1.01,.23-.03,.4,.17,.42,.39,.05,.78-1.06,.59-1.58,.62Z"/><path class="cls-12" d="M13.4,35.88c-.53-.32-.92-.89-1.12-1.45,.64,.03,1.94,.32,1.69,1.19-.09,.23-.35,.4-.57,.26Z"/><path class="cls-12" d="M12.21,40.28c.27-.96,.57-1.91,.94-2.84,.08-.19,.28-.34,.48-.22,.2,.11,.26,.4,.18,.6-.31,.91-.87,1.9-1.6,2.45Z"/><path class="cls-12" d="M12.16,21.81c-.39-.24,0-.79,.04-1.14,.21-.46,.26-1.23,.81-1.38,.16,.81-.44,1.53-.54,2.31-.04,.14-.16,.26-.31,.21Z"/><path class="cls-12" d="M12.4,21.2c-.43-.39,.12-1.14,.13-1.65,.1-.27,.09-.74,.43-.83,.31,.24,.12,.69,.05,1.01-.21,.4-.07,1.44-.61,1.47Z"/><path class="cls-12" d="M13.71,20.3c-.25-.3-.57-.64-.52-1.05,.44-.01,1.08,.58,.87,1.02-.08,.12-.25,.14-.34,.03Z"/><path class="cls-12" d="M20.42,38.91c-1.33-.45-2.79-1.42-2.81-2.96,0-.18,.12-.4,.32-.4,.29,0,.32,.35,.33,.57,.05,.25,.17,.55,.32,.73,.81,1.06,2.2,1.11,3.19,1.92-.35,.27-.92,.27-1.35,.14Z"/><path class="cls-12" d="M22.71,38.42c-.48-.24-.5-.93-.84-1.28-.22-.31-.78-.58-.5-1.02,.49-.67,2.3,2.23,1.34,2.3Z"/><path class="cls-12" d="M19.41,37.32c-.63-.15-1.59-1.56-1.02-2.08,.18-.11,.39,.02,.45,.2,.14,.52,.52,1.01,.82,1.42,.11,.18,.31,.32,.38,.48-.22,.03-.42,.03-.64-.03Z"/><path class="cls-12" d="M12.66,55.62c-.16-.65,.84-.7,1.22-1.03,1.07-.71,2-1.08,3.28-.89,.82-.08,1.57-.52,2.4-.41,1.11,.38,2.39,.62,3.4,1.09-1.21,.46-2.42,.06-3.56-.33-1.16,.12-2.26,.6-3.44,.35-1.12,.21-1.99,1.06-3.05,1.42-.11,0-.21-.08-.25-.2Z"/></g></g></svg>