<?xml version="1.0" encoding="UTF-8"?><svg id="Layer_1" xmlns="http://www.w3.org/2000/svg" xmlns:xlink="http://www.w3.org/1999/xlink" viewBox="0 0 56.69 56.69"><defs><style>.cls-1,.cls-2{fill:#fff;}.cls-2{opacity:0;}.cls-3{clip-path:url(#clippath-2);}.cls-4{clip-path:url(#clippath-1);}.cls-5{fill:#fedc00;}.cls-6{clip-path:url(#clippath);}.cls-7{fill:none;}.cls-8{fill:#010101;}</style><clipPath id="clippath"><rect class="cls-7" x="2.05" y="1.7" width="41.07" height="53.37"/></clipPath><clipPath id="clippath-1"><rect class="cls-7" x="2.43" y="2.94" width="38.25" height="50.94"/></clipPath><clipPath id="clippath-2"><rect class="cls-7" x="2.05" y="1.7" width="41.07" height="53.37"/></clipPath></defs><g id="Halvskygge"><rect class="cls-2" x="1.42" y="1.42" width="53.86" height="53.86"/><g class="cls-6"><g class="cls-4"><path class="cls-5" d="M27.57,13.45c-.06-.1-.1-.21-.13-.32-.56,.32-1.86-2.42-1.1-2.59-.01-.7-.02-1.46,.27-2.1,.15-1-.03-2.15,.51-3.04-.08-.62-.78-1.2-.48-1.84,.25-.32,.57,.02,.63,.31,.47,.05,.46,.77,.66,1.11,.4,.04,.42,.57,.59,.86,.75,.72,.94,1.99,1.28,2.97,.34,.43,.21,1.08,.3,1.6-.02,.48,.28,1.09-.09,1.47-.01,.22-.07,.48-.3,.57-.12,.32-.3,.96-.76,.68-.03,0-.07,0-.11,0-.03,0-.05-.01-.08-.03-.02,0-.03,0-.05,0-.01,0-.02,0-.04,0-.01,.3-.32,.66-.62,.47-.05,.04-.12,.06-.19,.06-.11,0-.21-.05-.28-.16Z"/><path class="cls-5" d="M22.48,14.86c-.08-.05-.15-.11-.2-.2-.51-.12-.65-.75-.76-1.18-.34-.72-.81-1.46-.82-2.28-.21-.28-.73-.75-.3-1.05,.3-.12,.52,.32,.75,.47,.47-.04,.67,.64,1.05,.87,.41-.28,.57,.37,.75,.62,.25,.42,.86,1.01,.52,1.5,.15,.3,.39,.97-.14,.99h0c-.06,.17-.25,.3-.42,.2-.02-.01-.05-.03-.06-.05-.05,.09-.15,.16-.25,.16-.04,0-.08,0-.12-.04Z"/><path class="cls-5" d="M13.47,13.44s0-.06,.02-.09c0-.04,0-.07,0-.11-.11-.04-.21-.09-.31-.14,.1,.11,.2,.22,.29,.33Zm3.59,4.52c-.31-.03-.58-.22-.83-.42-1.34-.31-2.61-1.88-3.62-2.85-.38-.5-1.13-1-.88-1.7-.51-.45-1.76-.82-1.55-1.63,.32-.49,.85,.04,1.23,.2,.08-.32,.45-.33,.69-.17,.67,.37,1.5,.51,2.13,.91,.39,.19,.96,.25,1.16,.69,1.06,.43,1.93,1.15,2.56,2.08,.16,.16,.15,.47,.01,.64,.24,.32,.54,.93,.04,1.16-.02,.08-.06,.16-.12,.23-.05,.06-.12,.1-.2,.11,.05,.12,.06,.24,.04,.37-.03,.16-.18,.31-.35,.28t0,0c-.07,.06-.16,.11-.26,.11h-.04Z"/><path class="cls-5" d="M13.21,13.01c.64-.12,1.48,.36,1.53,1.04,0,.14-.19,.19-.3,.19-.58-.09-1.12-.67-1.23-1.23Z"/><path class="cls-5" d="M14.83,23.25c-.76-.09-1.6-.35-2.24-.76-.62-.21-1.32-.27-1.87-.59-.25-.21-.12-.68,.22-.69,.08-.13,.2-.2,.36-.19,.19,0,.38,.02,.58,.04,.16-.15,.4-.18,.62-.21,.4-.49,1.18-.28,1.74-.25,.34,.08,.8,.04,1.03,.37,.44,.2,1.01,.61,.79,1.17,.25,.51-.12,1.16-.72,.96-.07,.03-.14,.04-.21,.04-.07,.07-.16,.11-.27,.11h-.01Z"/><path class="cls-5" d="M2.91,30.92c-.19-.32,.16-.59,.38-.78,.06-.08,.13-.15,.22-.22,.11-.08,.27-.22,.43-.22,.34-.2,.65-.44,.96-.68,.15-.71,1.18-.8,1.69-1.25,1.09-.49,2.21-1.55,3.44-1.43,.43-.19,.88-.35,1.34-.42,.18-.03,.4-.04,.59,.03,.49-.12,1.17-.11,1.5,.34,.38,.13,.54,.49,.68,.83,.35,.42,.51,1.16,.05,1.55,.02,.47-.44,.52-.75,.68-.31,.11-.7,.41-1.01,.18-.34,.14-.82,.48-1.13,.12h0c-.37,.23-1.03,.46-1.13-.15-.28,.11-.58,.25-.89,.26-.12,0-.22-.06-.29-.15-.45,.19-1.29,.75-1.5,.01-.38,.2-1.03,.46-1.11-.16-.7,.17-1.35,.55-1.98,.86-.21,.12-.4,.36-.66,.37-.18,.11-.4,.4-.6,.4-.08,0-.16-.05-.22-.17Z"/><path class="cls-5" d="M10.44,37.56c-.22-.34,.1-.66,.3-.92,.65-1.48,1.98-2.69,3.39-3.46,.39-.22,.91-.64,1.36-.33,.37-.11,.62,.38,.44,.68-.24,.27-.48,.57-.76,.8-.2,.47-.68,.74-.99,1.13-.11,.2-.37,.32-.57,.19-.32,.13-.68,.65-1.04,.39-.71,.46-1.22,1.12-1.86,1.65-.01,0-.03,0-.04,0-.09,0-.17-.06-.22-.13Z"/><path class="cls-5" d="M15.58,40.94c.05,0,.1,.03,.13,.05,.06-.07,.12-.14,.18-.21-.02-.03-.04-.05-.05-.08-.08,.08-.17,.16-.26,.23Zm-3.06,5.36c-.39-.46-.14-1.11,.05-1.61-.31-.67,.32-1.37,.51-2.02,.29-1.34,1.11-3.12,2.37-3.75,.54-.59,1.29-1.36,2.15-1.03,.07,0,.14,.02,.2,.05,.25-.17,.62-.09,.73,.21,1.16,.65-.52,2.32-.97,3.03-.48,.41-.76,1.46-1.49,1.39-.43,.41-.71,1.48-1.4,1.34-.21,.27-.44,.86-.86,.65-.25,.53-.43,1.01-.69,1.52-.06,.16-.23,.3-.4,.3-.07,0-.14-.02-.21-.08Z"/><path class="cls-5" d="M14.76,42.52c-.26-.43,.23-.82,.43-1.18,.05-.31,.27-.87,.67-.74,.23-.26,.6-.61,.94-.58-.21,.32-.38,.67-.6,.99-.31,.26-.78,1.61-1.23,1.61-.07,0-.14-.04-.21-.11Z"/><path class="cls-5" d="M21.19,45.49c-.2-1.17,.24-2.38,.35-3.57,.04-.21,.08-.53,.35-.54,.05-.09,.11-.17,.18-.24,.07-.06,.16-.11,.26-.12,.39-.51,.89-.08,.89,.44,.67,.96-.09,2.25-.54,3.16-.24,.34-.42,1.24-.97,1-.05,.12-.14,.17-.23,.17-.14,0-.28-.11-.28-.29Z"/><path class="cls-5" d="M29.87,53.58c-.17-.04-.22-.21-.27-.36-.06-.16-.11-.33-.17-.51-.37,.1-.39-.41-.51-.65-.55-.12-.85-.88-1.08-1.34-1.56-1.98-2.2-5.03-1.31-7.45,.21-.45,.49-1.35,1.15-1,.23-.11,.51,.01,.64,.22,.16-.04,.33,.01,.44,.14,.91-.33,.78,1.18,.89,1.72,.34,.14,.25,.65,.23,.9-.16,1.73,.29,3.5,.14,5.2,.02,.49,.32,1.07,.02,1.51,.01,.33,.2,.67,.07,.99,.08,.21,.08,.61-.2,.61-.01,0-.03,0-.04,0Z"/><path class="cls-5" d="M23.69,21.69c.42-.57,.84-1.07,.96-1.28-.27,.13-.6,.7-.96,1.28Zm1.91,.27c-.12,.19-.23,.37-.35,.56,.41-.6,.93-1.11,1.29-1.73-.37,.34-.7,.72-.94,1.17Zm1.23,12.26c.28,.16,.34,.53,.35,.85,.27-.79,1.17-1.98,1.46-.49,.25-.45,.85-.27,.93,.2,.25-.49,.87-.95,1.16-.23,.27-.42,.86-.83,1.13-.16,.31-.55,.98-.35,.96,.27,.45-.64,1.21-.77,1.18,.21,.39-.28,.91-1.23,1.43-.68,.23-.29,.64-.7,.96-.29,.26-.27,.65-.81,1.02-.39,.73-1.01,1.06-2.06,1.1-3.29,.2-.8-.02-1.89,.61-2.49-.44-1.92-.97-3.79-2.26-5.32-2.64-2.41-6.64-3.86-10.15-2.95l.03,.08c.33-.21,.83-.15,.93,.28,1.34-.97,1.46,.29,.6,1.28,.17-.05,.48-.15,.6-.05-.1,.04-.2,.1-.29,.17-.82,.71-1.5,1.6-2.2,2.42-.22,.18-.51-.06-.51-.31-.37,.64-1.34,1.66-1.39,.37-.25,.48-1,1.17-1.18,.27-.82,.02-.64-.63-.2-1.39-.38,.48-.75,.7-1.05,.2-.25,.3-.41,.78-.8,.91-.09,.14-.18,.27-.29,.38-.02,.02-.05,.04-.07,.05-.27,1.73-.91,3.37-.3,5.09,.42-.02,.48,.48,.51,.8,.63-.25,.66,.62,.7,1.04,.03,0,.06,0,.1,0,.23,.05,.35,.27,.38,.48,.17-.37,.68-.3,.8,.08,.1,.3,.08,.64,.14,.95,.26-.74,.94-.32,.93,.31,.51-.82,.96-.05,.94,.73,.07-.51,.54-1,.92-.39,.18,.48,.1,1.02,.11,1.53,.05-.26,.24-.57,.51-.57,.06,0,.13,.02,.2,.05Zm4.07,4.56s0-.07,0-.1c-.21,.24-.5,.54-.82,.33-.08-.05-.14-.12-.19-.2-.06,.04-.12,.05-.19,.07-.18,.04-.35-.07-.45-.22-.04,.04-.08,.08-.13,.12-.15,.09-.33,.06-.47-.05-.2,.63-.99,.7-1.07-.03-.32,.19-.65-.1-.71-.42-.15,.27-.54,.41-.76,.15-.06,.07-.13,.12-.22,.16-.28,.11-.52-.11-.63-.34-.23,.23-.62,.12-.75-.16-.33,.25-.7-.08-.76-.42-.48,.25-.71-.38-.75-.76-.41,.11-.63-.37-.71-.69-.47,.12-.61-.47-.7-.81-.1-.01-.19-.07-.26-.14-.11-.11-.16-.23-.21-.37-.73,.06-.75-1.01-.96-1.5-.55-.57-.48-1.56-.76-2.28-.24-1.48-.64-2.97-.39-4.46,.05-1.45,.6-2.82,1.18-4.13,.19-.37,.38-.83,.79-.96,.32-.48,.61-1.24,1.25-1.34,.17-.19,.37-.38,.62-.47,5.27-4.28,14.98-1.56,16.66,5.18,.32,1.13,.66,2.27,.83,3.44,.06,1.29-.49,2.57-1.09,3.69,.09,.54-.43,.9-.59,1.38,.11,.42-.26,.73-.49,1.04-.46,.4-.65,1.11-1.23,1.23-.51,.45-1.29,2.28-2.06,1.56-.31,.37-.84,1.32-1.34,.7-.24,.32-.73,.71-1.03,.25-.23,.37-.75,1.05-1.15,1.05-.18,0-.34-.14-.44-.52Z"/><path class="cls-5" d="M37.87,25.34c-.86-1.17-.85-2.78-1.95-3.77-2.06-1.65-5.05-2.79-7.69-2.66-.57,.14-1.47,.34-1.3-.58,.05-.29,.32-.43,.59-.44,1.58-.37,3.26-.76,4.74,.11,2.71,1.32,6.62,3.85,5.61,7.34,0,0,0,0,0,0Z"/><path class="cls-5" d="M34.31,24.49c-.1,.11-.19,.21-.28,.32,0,0,0,.02,0,.02,.01,0,.03,0,.05,0,.3-.3,.62-.57,.86-.91-.22,.18-.43,.37-.64,.57Zm4.77,1.06s.02,.08,.03,.12c.1-.54,.18-1.28-.43-1.53,.11,.48,.27,.94,.4,1.41Zm-.34,4.35v-.06c0-.11,0-.22,0-.33-.04,.06-.08,.12-.12,.18-.04,.05-.08,.11-.11,.17,.03,0,.05,0,.08,0,.06,0,.11,.02,.16,.05Zm-4.76,6.73c-.16-.09-.24-.28-.23-.46v-.02c-.12,.2-.39,.3-.57,.11-.27,.48-.86,.15-.77-.33,.16-.6,.44-1.18,.66-1.77-.35,.44-.71,2.53-1.45,1.56-.13-.02-.24-.12-.29-.23-.02-.05-.04-.1-.05-.16-.15,.51-.79,.96-.97,.21-.11,.31-.48,.67-.77,.34-.3,.61-.96,.12-.76-.42-.05-.01-.09-.03-.14-.07-.02-.01-.03-.03-.05-.05-.1,.09-.23,.12-.36,.08-.05-.02-.11-.05-.14-.1-.11,.29-.48,.43-.7,.17-.09,.02-.19,.01-.28-.04-.14-.08-.21-.21-.25-.37-.15,.06-.31,.02-.43-.1-.02-.02-.03-.04-.05-.06-.23,.7-.99,.58-.95-.16-.38,.38-.84-.19-.73-.59-.06,0-.12-.01-.19-.05-.04-.02-.08-.05-.11-.09-.13,0-.26-.07-.35-.19,0,0,0-.02-.01-.02-.35,.7-1.11,.13-1.06-.47-.32,.05-.54-.24-.55-.54-.71,.61-1-.47-.73-1.01-.43,.43-.91-.13-.81-.61-.3,.08-.57-.13-.62-.43-.96-.1-.35-1.35-.22-1.93-1.32,.57-.75-1.72,.33-4,1.16-2.44,2.9-4.89,3.54-3.83,.64-.69,1.29-1.53,2.2-1.86,.17-.05,.37,0,.49,.14,.43-.32,1.12-.92,1.63-.47,.44-.27,1.29-.73,1.55-.03,.48-.3,1.45-.61,1.5,.24,.23-.03,.48,0,.63,.2,.09,.11,.15,.23,.16,.37,.23-.05,.48,.03,.63,.21,.62-.45,1.9-.56,1.7,.54,0,0,.02,.01,.03,.02,.11,.09,.2,.21,.24,.35,.44-.23,1.12-.16,1.19,.42,.39-.07,.68,.37,.6,.73,.17,.05,.32,.19,.38,.36,.09,.23,.04,.49-.09,.7,.45-.09,.83,.33,.77,.77,.05,0,.09,.02,.14,.04,.06,.02,.12,.06,.16,.11,.1-1.56,2.1-.16,2.04,.81,.15,.79-.18,1.62-.12,2.4,.05,1.09,.55,2.23,.09,3.28-.11,.46-.67,1.08-1.02,.44-.03,.05-.05,.11-.08,.16-.05,.1-.1,.19-.16,.28,.07,.16,.08,.38,.02,.54-.01,.04-.03,.08-.05,.12,.11,.19,.12,.43,.02,.62-.72,1.13-1.67,2.11-2.47,3.18-.59,.47-.89-.54-.51-.93-.04,0-.08,0-.11,0-.4,.44-.75,1.86-1.39,1.87-.04,0-.08,0-.13-.02Z"/><path class="cls-1" d="M23.04,27.68c-.02-.11-.01-.21,0-.31-.02-.11-.02-.23,0-.36-.19-.82,.38-1.78,1.03-2.26,.21-.2,.5-.47,.81-.38,.52,.19,.26,.8,.12,1.16,.04,.14,.02,.3-.08,.41,.2,.31,.12,.69,.02,1.02,.21,.35-.16,.93-.55,.7-.13,.16-.29,.26-.46,.21-.11,.13-.28,.19-.45,.19-.21,0-.42-.12-.45-.38Z"/><path class="cls-1" d="M26.88,28.03c-.06,0-.11-.03-.16-.07-.09,0-.16-.06-.22-.13-.12,.06-.26,.04-.36-.04-.11-.09-.19-.22-.25-.36-.55,.32-1.56-.76-1.18-1.27,.4-.34,.55,.42,.86,.55-.17-.65,.49-.98,.64-.23,.05-.06,.12-.11,.21-.11,.08,0,.16,.04,.21,.11,.09,0,.17,.03,.24,.1,.02,.02,.04,.04,.05,.07,.4,.05,.59,1.41,.08,1.41-.04,0-.08,0-.12-.02Z"/><path class="cls-1" d="M31.26,28.23c-.12-.09-.17-.21-.18-.36-.53-.58,0-1.43,.01-2.11,.12-.59,.36-1.28,.91-1.59,.25-.29,.62-.66,1.03-.51,.57-.27,.93,.48,.53,.89,.02,.38-.18,.74-.4,1.04,.01,.06,.02,.12,.01,.17v.07s.05,.05,.07,.09c.1-.11,.23-.17,.38-.12,.07,.03,.13,.07,.17,.12,.05-.1,.17-.18,.29-.18,.13,0,.24,.09,.3,.21,.31-.29,.63,.13,.59,.45,.03,0,.07,.02,.1,.04,.75,.03,.64,1.91-.16,1.43-.12,.02-.23-.04-.32-.12-.2,.12-.46,.06-.58-.14-.1,.07-.23,.12-.34,.09-.16-.04-.27-.12-.35-.25-.03,.02-.07,.03-.11,.04-.13,.02-.24-.03-.32-.12-.04,0-.07,0-.1,0-.07,.08-.16,.13-.27,.13h-.01c-.08,.08-.18,.13-.31,.11h0c-.05,.06-.11,.11-.18,.15-.11,.22-.31,.56-.56,.56-.06,0-.13-.02-.2-.07Z"/></g><g class="cls-3"><path class="cls-8" d="M26.34,11.23c.04,1.04,.87,2.14,1.99,1.95,.94,.02,1.42-.92,1.5-1.71,.37-3.04-1.34-5.71-3.12-8,1.06,2.53-.26,5.21-.37,7.76Zm1.3,2.91c-3.25-1.14-1.55-5.01-1.33-7.44,0-.69,.09-1.46-.04-2.14-.13-.58-.29-1.16-.25-1.76-.33-.13-.26-.8,.14-.59,1.95,1.9,3.73,4.32,4.25,7.03,.4,1.89,.09,4.95-2.2,4.95-.18,0-.37-.02-.58-.06Z"/><path class="cls-8" d="M21.69,13.94c.21,.39,.58,.65,1.02,.58,1.06-.07,.87-.76,.54-1.49-.52-1.28-1.56-2.11-2.81-2.59,.58,1.09,.69,2.41,1.25,3.51Zm.51,1.21c-.81-.26-1.13-1.13-1.35-1.87-.28-1.11-.72-2.1-1.08-3.15-.22-.08-.49-.18-.42-.47,.03-.12,.16-.26,.29-.2,1.02,.46,2.14,.83,2.95,1.64,1.19,1.14,2.45,4.07,.08,4.07-.14,0-.29,0-.46-.03Z"/><path class="cls-8" d="M17.94,15.7c-.39-1.32-1.66-1.97-2.79-2.57-1.45-1.06-3.16-1.26-4.88-1.54,1.66,1.25,2.62,3.26,4.04,4.68,.72,.66,1.64,1.29,2.65,1.28,1.02,.03,1.25-1.06,.98-1.84Zm-1.26,2.73c-3.63-.79-4.84-4.98-7.63-7.05-.25-.02-.61,.03-.6-.32,0-.12,.08-.3,.23-.29,1.07,.03,2.09,.38,3.16,.47,1.61,.04,2.96,.94,4.36,1.64,1.06,.58,2.11,1.43,2.46,2.63,.45,1.3-.2,2.95-1.64,2.95-.11,0-.22,0-.33-.03Z"/><path class="cls-8" d="M14.55,23.68c-1.77-.15-3.2-1.51-4.95-1.68,.11-.16,.43-.29,.64-.35,.82-.07,1.64,.32,2.45,.72,1.1,.54,2.2,1.07,3.29,.44,.34-2.67-3.42-1.81-4.97-1.45-.24,.05-.61,.28-.7-.08-.03-.12,.01-.32,.16-.36,1.2-.4,2.47-.54,3.72-.54,1.19-.14,2.05,.77,2.27,1.67,.2,.85-.16,1.69-1.34,1.69-.17,0-.36-.02-.57-.05Z"/><path class="cls-8" d="M9.55,29.32c1.4,.04,2.8,.08,4.07-.28,.67-.28,1.02-.94,.76-1.62-1.78-3.06-6.62-.21-8.7,1.24-1.02,.69-1.98,1.47-2.82,2.37-.1,.11-.25,.09-.33-.03-.19-.63,.79-1.05,1.14-1.5,2.47-1.88,5.35-4.16,8.61-4,2.86,.11,4,3.72,.87,4.49-1.18,.23-2.38,.17-3.57,.11-.66-.03-1.32-.06-1.97-.05-1.55,.17-3.18,.69-4.58,1.09,1.73-1.98,4.12-1.9,6.52-1.83Z"/><path class="cls-8" d="M10.27,37.84c-.65-1.58,3.23-5.52,4.92-5.5,.45,.04,.8,.43,.92,.84,.32,2.25-2.83,2.8-4.3,3.7-.42,.18-.8,.54-1.14,.71,.4-1.44,1.88-1.84,3.1-2.35,.71-.37,1.6-.82,1.91-1.57,.03-.08,0-.17,0-.25-.08-.4-.5-.58-.83-.44-1.94,.84-3.63,2.66-4.28,4.68-.03,.11-.12,.21-.23,.21-.02,0-.04,0-.06,0Z"/><path class="cls-8" d="M16.08,38.46c-2.28,1.69-3.08,4.66-3.45,7.32,1.55-2.39,4.45-3.68,5.88-6.12,.47-1.2-.15-1.72-.96-1.72-.48,0-1.03,.18-1.47,.52Zm-4.09,9.94c-.02-3.22,.57-7,2.72-9.6,2.57-3.14,6.45-1.06,3.64,2.46-1.84,2.24-5.17,3.72-5.97,6.59-.02,.17-.08,.58-.29,.58-.03,0-.06,0-.1-.03Z"/><path class="cls-8" d="M22.56,40.98c-1.58,.51-.9,3.41-.95,4.7,.53-1.15,1.71-2.08,1.78-3.39-.05-.4-.18-.84-.36-1.2-.04-.11-.14-.14-.24-.14-.08,0-.16,.02-.23,.03Zm-1.24,6.2c-.11-.04-.16-.17-.16-.28,.05-1.84-.36-3.7,.14-5.49,.23-.75,1.31-1.43,2.01-.88,.44,.58,.65,1.36,.64,2.09-.37,1.87-2.05,3.24-2.62,4.96,0-.13,0-.27,0-.4Z"/><path class="cls-8" d="M26.54,43.48c-1.36,3.54,1.2,7.06,3.35,9.69-.85-3.31,.64-7-.7-10.19-.27-.34-.64-.49-1.02-.49-.65,0-1.34,.42-1.63,.99Zm3.81,10.98c-2.24-2.55-4.78-5.53-4.72-9.13-.31-2.28,2.15-4.87,4.13-2.84,1.62,3.54,.15,7.64,.71,11.36,.19,.15,.28,.5,.02,.61-.02,.1,.05,.27,0,.32-.05-.11-.1-.21-.15-.32Z"/><path class="cls-8" d="M22.12,20.58c-6.88,6.13-1.67,18.29,7.37,18.01,.31,0,.61,0,.91-.04h-.02c5.13-.35,9.48-4.86,9.62-9.97,0,0,0,0,0,0,0-.02,0-.05,0-.07h0c.41-6.44-5.12-10.81-10.75-10.81-2.54,0-5.1,.89-7.14,2.88Zm5.68,19.33c-7.3-.83-12.03-9.33-8.74-15.91,4.05-9.78,18.29-8.9,21.28,1.18,2.49,7.13-3.5,14.9-10.74,14.9-.59,0-1.19-.05-1.8-.16Z"/><path class="cls-8" d="M26.74,27.69c.4,.22,1.16,.54,.9,1.11-.09,.17-.3,.26-.46,.12-.95-.8-2.43-.91-3.52-.39-.35,.24-.7,.63-1.05,.79,0-2.09,2.67-2.35,4.13-1.62Z"/><path class="cls-8" d="M31.31,28.89c-.33-.32,.06-.75,.26-1.02,.53-.57,1.38-.71,2.12-.6,1.83,.21,3.4,2.19,.37,.87-.66-.21-1.44-.19-2.02,.19-.23,.12-.31,.62-.57,.62-.05,0-.1-.02-.16-.05Z"/><path class="cls-8" d="M30.78,28.57c-.6-1.92-.3-4.74,1.84-5.52,.38-.04,.72,.01,1.02,.15,.14,.11,.3,.2,.46,.28,.02,.01,.04,.03,.06,.04,1.13,.92,1.66,2.95,1.73,4.23,0,.77-.39,.7-.6,.05-.08-.73-.16-1.53-.5-2.18-1-2.61-3-2.31-3.55,.32-.15,.81-.03,1.62,.19,2.39,.09,.3-.13,.54-.34,.54-.13,0-.25-.09-.31-.3Z"/><path class="cls-8" d="M27.22,28.57c0-.94-.32-1.83-.65-2.68-.29-.6-.74-1.42-1.5-1.41-1.7,.36-1.88,2.31-1.82,3.73-.26,1.27-.7-.06-.59-.64-.32-2.15,2.12-5.53,4.01-2.99,.76,1.16,1.13,2.62,1.15,4,0,.16-.11,.37-.29,.37s-.29-.2-.29-.37Z"/><path class="cls-8" d="M33.75,27.52c-1.45-.35-1.55-4.59,.46-3.5,.52,.37,.55,1.1,.8,1.64,.17,.59,.12,2.05-.8,1.73-.09,.1-.21,.15-.33,.15-.05,0-.09,0-.13-.02Z"/><path class="cls-8" d="M25.81,27.75c-.43-.36-1.06-.51-1.22-1.13-.33-.91,.06-2.62,1.26-2.49,1.02,.27,1.87,3.12,.51,3.44-.07,.14-.22,.23-.38,.23-.06,0-.12-.01-.17-.04Z"/><path class="cls-8" d="M25.74,27.33c-.41-.13-.34-.73-.24-1.07,.15,.27,.41,.75,.25,1.07t0,0Z"/><path class="cls-8" d="M27.43,33.93c-.04,.23-.05,.53-.03,.75,.03,.34,.24,.67,.54,.8,.1,.03,.19,.05,.29,.06,.05,0,.11,0,.16,0,.95-.11,1.8-.95,2.14-1.78,.19-.75-.13-1.51-.52-2.12-.11,.11-.25,.07-.37,.05-.05-.01-.11-.03-.17-.03h-.02c-1.02,.21-1.83,1.3-2.02,2.27Zm1.94-3c.94-.35,1.8,.85,1.87,1.77,.38,1.73-1.28,3.67-3.01,3.67-2.88-.57-1.22-5.25,1.14-5.44Z"/><path class="cls-8" d="M25.37,20.57c.2,.05,.29,.26,.27,.44-.02,.16-.16,.37-.36,.33-1.06,.05-2.14,.86-3,1.29,.62-1.07,1.77-2.17,3.09-2.06Z"/><path class="cls-8" d="M33.36,20.83c-.35,.04-.4-.57-.08-.64,1.34-.1,2.54,1.22,3.21,2.2-1.02-.4-2.11-1.56-3.13-1.56Z"/><path class="cls-8" d="M27.81,35.96c-.17-.06-.26-.22-.29-.39-.3-.17-.35-.55-.29-.86-.65-1.04,.7-2.42,1.56-2.92,.25-.54,1.17-.83,1.39-.11,.11,.06,.19,.19,.23,.32,.09,.06,.14,.18,.17,.28,1.09,.26-.69,4.01-1.63,3.35-.16,.11-.34,.21-.54,.17-.14,.09-.3,.19-.47,.19-.05,0-.09,0-.13-.02Z"/></g></g></g></svg>